<svg width="16" height="16" viewBox="0 0 16 16" fill="none" xmlns="http://www.w3.org/2000/svg">
<g clip-path="url(#clip0_889_1068)">
<path d="M10.732 1.81814H8.72949V1.30436C8.80784 1.22597 8.85183 1.18196 8.93036 1.10339H10.5313C10.6096 1.18178 10.6536 1.22579 10.7321 1.30436V1.81814H10.732Z" fill="url(#paint0_linear_889_1068)"/>
<path d="M7.23301 1.71475H4.07227V1.20097C4.15061 1.12258 4.1946 1.07857 4.27313 1H7.03215C7.11049 1.07839 7.15448 1.1224 7.23301 1.20097V1.71475Z" fill="url(#paint1_linear_889_1068)"/>
<path d="M11.5242 14.6085H3.46402C3.04484 14.1891 2.8098 13.954 2.39062 13.5346V2.99374C2.8098 2.57435 3.04484 2.33919 3.46402 1.9198H11.5242C11.9434 2.33919 12.1784 2.57435 12.5976 2.99374V13.5346C12.1784 13.954 11.9434 14.1891 11.5242 14.6085Z" fill="url(#paint2_linear_889_1068)"/>
<path d="M11.5726 13.8096L11.1652 14.217H4.40128C4.42091 14.231 4.44036 14.2452 4.45981 14.2592C4.45654 14.3756 4.45363 14.492 4.45054 14.6084H4.69794L4.90553 14.9129C4.93698 14.9405 4.96843 14.9682 5.00024 14.9958C5.00169 14.9974 5.00351 14.9987 5.00496 15H9.97476C9.9813 14.9942 9.98821 14.9885 9.99476 14.9825C10.0215 14.9592 10.0478 14.9361 10.0742 14.9129L10.2818 14.6084H10.6597C10.6581 14.548 10.6566 14.4873 10.655 14.4269C10.7037 14.4873 10.7526 14.548 10.8013 14.6084H11.525L11.5797 14.5537C11.5773 14.3056 11.5749 14.0577 11.5726 13.8096ZM11.5726 13.8096L11.1652 14.217H4.40128C4.42091 14.231 4.44036 14.2452 4.45981 14.2592C4.45654 14.3756 4.45363 14.492 4.45054 14.6084H4.69794L4.90553 14.9129C4.93698 14.9405 4.96843 14.9682 5.00024 14.9958C5.00169 14.9974 5.00351 14.9987 5.00496 15H9.97476C9.9813 14.9942 9.98821 14.9885 9.99476 14.9825C10.0215 14.9592 10.0478 14.9361 10.0742 14.9129L10.2818 14.6084H10.6597C10.6581 14.548 10.6566 14.4873 10.655 14.4269C10.7037 14.4873 10.7526 14.548 10.8013 14.6084H11.525L11.5797 14.5537C11.5773 14.3056 11.5749 14.0577 11.5726 13.8096ZM11.4891 1.52832H3.50021L2 3.02929V13.4988L3.50021 15H11.4891L11.6913 14.7977L12.3051 14.1838L12.9897 13.4988V3.02929L11.4891 1.52832ZM12.2072 13.1746L11.7456 13.6365L11.7455 13.6367L11.59 13.792L11.5726 13.8096L11.1652 14.217H3.8245L3.53675 13.9291L2.78237 13.1746V3.35357L3.8245 2.31109H11.1652L12.2072 3.35357V13.1746ZM11.5726 13.8096L11.1652 14.217H4.40128C4.42091 14.231 4.44036 14.2452 4.45981 14.2592C4.45654 14.3756 4.45363 14.492 4.45054 14.6084H4.69794L4.90553 14.9129C4.93698 14.9405 4.96843 14.9682 5.00024 14.9958C5.00169 14.9974 5.00351 14.9987 5.00496 15H9.97476C9.9813 14.9942 9.98821 14.9885 9.99476 14.9825C10.0215 14.9592 10.0478 14.9361 10.0742 14.9129L10.2818 14.6084H10.6597C10.6581 14.548 10.6566 14.4873 10.655 14.4269C10.7037 14.4873 10.7526 14.548 10.8013 14.6084H11.525L11.5797 14.5537C11.5773 14.3056 11.5749 14.0577 11.5726 13.8096ZM11.5726 13.8096L11.1652 14.217H4.40128C4.42091 14.231 4.44036 14.2452 4.45981 14.2592C4.45654 14.3756 4.45363 14.492 4.45054 14.6084H4.69794L4.90553 14.9129C4.93698 14.9405 4.96843 14.9682 5.00024 14.9958C5.00169 14.9974 5.00351 14.9987 5.00496 15H9.97476C9.9813 14.9942 9.98821 14.9885 9.99476 14.9825C10.0215 14.9592 10.0478 14.9361 10.0742 14.9129L10.2818 14.6084H10.6597C10.6581 14.548 10.6566 14.4873 10.655 14.4269C10.7037 14.4873 10.7526 14.548 10.8013 14.6084H11.525L11.5797 14.5537C11.5773 14.3056 11.5749 14.0577 11.5726 13.8096Z" fill="url(#paint3_linear_889_1068)"/>
<path d="M6.40488 8.27025V13.1862H5.06445V8.27025C5.06445 8.09056 5.22333 7.94507 5.41946 7.94507H6.04969C6.24582 7.94525 6.40488 8.09056 6.40488 8.27025Z" fill="url(#paint4_linear_889_1068)"/>
<path d="M9.92441 6.44946V13.1861H8.58398V6.44946C8.58398 6.25522 8.74304 6.0979 8.939 6.0979H9.5694C9.76554 6.0979 9.92441 6.2554 9.92441 6.44946Z" fill="url(#paint5_linear_889_1068)"/>
<path d="M4.91803 11.9893H3.31348V12.0835H4.91803V11.9893Z" fill="url(#paint6_linear_889_1068)"/>
<path d="M8.43859 11.9893H6.54883V12.0835H8.43859V11.9893Z" fill="url(#paint7_linear_889_1068)"/>
<path d="M11.6749 11.9893H10.0703V12.0835H11.6749V11.9893Z" fill="url(#paint8_linear_889_1068)"/>
<path d="M4.34948 5.18958H4.07227V11.6643H4.34948V5.18958Z" fill="url(#paint9_linear_889_1068)"/>
<path d="M3.68444 6.21545H3.40723V11.6645H3.68444V6.21545Z" fill="url(#paint10_linear_889_1068)"/>
<path d="M7.37096 5.18958H7.09375V11.6643H7.37096V5.18958Z" fill="url(#paint11_linear_889_1068)"/>
<path d="M8.06139 3.25647H7.78418V11.6643H8.06139V3.25647Z" fill="url(#paint12_linear_889_1068)"/>
<path d="M4.15149 8.61438H3.8252V11.7345H4.15149V8.61438Z" fill="url(#paint13_linear_889_1068)"/>
<path d="M7.60168 7.46033H7.27539V11.5375H7.60168V7.46033Z" fill="url(#paint14_linear_889_1068)"/>
<path d="M11.0372 5.32581H10.7109V11.2028H11.0372V5.32581Z" fill="url(#paint15_linear_889_1068)"/>
<path d="M21.6112 8.47904V9.19997L20.459 8.68037L20.4482 8.67546L20.3008 8.60889L18.6644 7.87105L18.022 7.58133L17.1535 7.18976L16.9128 7.08118L16.001 6.66998L15.4606 6.42627L15.391 6.39481L12.9852 5.30995L12.5938 5.13354L12.2026 4.95712L10.0137 3.96993L9.27873 5.58658L8.05664 5.02551L7.77943 4.8982L6.99215 4.53682L5.67644 7.34744L4.41545 6.758L4.34547 6.90259L4.06844 7.47548L4.06826 7.47584L3.91048 7.80194L3.6798 7.69027L3.40277 7.55605H3.40259L3.31934 7.51585L3.40259 7.34399L3.40277 7.34362L3.6798 6.77037L4.06826 5.96741L4.06844 5.96705L4.10643 5.88812L4.34547 5.99997L5.36015 6.4741L6.67368 3.66766L7.77943 4.17545L8.05664 4.30257L8.95371 4.71451L9.68682 3.10168L12.2026 4.23619L12.5938 4.4126L12.9852 4.5892L15.391 5.67406L15.4606 5.70552L16.001 5.94922L16.5962 6.21748L16.9128 6.36025L17.1535 6.46883L17.2331 6.50466L18.1776 6.9306L19.6208 7.58133L20.2634 7.87105L20.3008 7.88796L20.4482 7.95452L20.459 7.95944L21.6112 8.47904Z" fill="url(#paint16_linear_889_1068)"/>
</g>
<defs>
<linearGradient id="paint0_linear_889_1068" x1="8.72943" y1="1.46076" x2="10.7319" y2="1.46076" gradientUnits="userSpaceOnUse">
<stop stop-color="#333333"/>
<stop offset="0.3152" stop-color="#222222"/>
<stop offset="0.9924"/>
</linearGradient>
<linearGradient id="paint1_linear_889_1068" x1="4.07229" y1="1.35738" x2="7.23294" y2="1.35738" gradientUnits="userSpaceOnUse">
<stop stop-color="#333333"/>
<stop offset="0.3152" stop-color="#222222"/>
<stop offset="0.9924"/>
</linearGradient>
<linearGradient id="paint2_linear_889_1068" x1="10.5007" y1="2.26493" x2="3.73594" y2="15.7489" gradientUnits="userSpaceOnUse">
<stop stop-color="#1A1A1A"/>
<stop offset="0.9924"/>
</linearGradient>
<linearGradient id="paint3_linear_889_1068" x1="2.00524" y1="1.72888" x2="13.7129" y2="15.6524" gradientUnits="userSpaceOnUse">
<stop stop-color="#333333"/>
<stop offset="0.3152" stop-color="#222222"/>
<stop offset="0.9924"/>
</linearGradient>
<linearGradient id="paint4_linear_889_1068" x1="5.73461" y1="13.1666" x2="5.73461" y2="7.93746" gradientUnits="userSpaceOnUse">
<stop offset="0.0232" stop-color="#36D8AE"/>
<stop offset="0.9924" stop-color="#6BFFEC"/>
</linearGradient>
<linearGradient id="paint5_linear_889_1068" x1="9.25418" y1="13.1597" x2="9.25418" y2="6.08747" gradientUnits="userSpaceOnUse">
<stop offset="0.0232" stop-color="#36D8AE"/>
<stop offset="0.9924" stop-color="#6BFFEC"/>
</linearGradient>
<linearGradient id="paint6_linear_889_1068" x1="3.253" y1="12.0042" x2="5.05005" y2="12.0712" gradientUnits="userSpaceOnUse">
<stop offset="0.0232" stop-color="#36D8AE"/>
<stop offset="0.9924" stop-color="#6BFFEC"/>
</linearGradient>
<linearGradient id="paint7_linear_889_1068" x1="6.47806" y1="11.9985" x2="8.59375" y2="12.0774" gradientUnits="userSpaceOnUse">
<stop offset="0.0232" stop-color="#36D8AE"/>
<stop offset="0.9924" stop-color="#6BFFEC"/>
</linearGradient>
<linearGradient id="paint8_linear_889_1068" x1="10.0098" y1="12.0042" x2="11.8069" y2="12.0712" gradientUnits="userSpaceOnUse">
<stop offset="0.0232" stop-color="#36D8AE"/>
<stop offset="0.9924" stop-color="#6BFFEC"/>
</linearGradient>
<linearGradient id="paint9_linear_889_1068" x1="4.21089" y1="11.6643" x2="4.21089" y2="5.18963" gradientUnits="userSpaceOnUse">
<stop offset="0.00302028" stop-opacity="0"/>
<stop offset="0.3902" stop-color="#071E14" stop-opacity="0.3913"/>
<stop offset="0.7529" stop-color="#0B3223" stop-opacity="0.7579"/>
<stop offset="0.9924" stop-color="#0D3A28"/>
</linearGradient>
<linearGradient id="paint10_linear_889_1068" x1="3.54584" y1="11.6643" x2="3.54584" y2="6.21536" gradientUnits="userSpaceOnUse">
<stop offset="0.00302028" stop-opacity="0"/>
<stop offset="0.3902" stop-color="#071E14" stop-opacity="0.3913"/>
<stop offset="0.7529" stop-color="#0B3223" stop-opacity="0.7579"/>
<stop offset="0.9924" stop-color="#0D3A28"/>
</linearGradient>
<linearGradient id="paint11_linear_889_1068" x1="7.23238" y1="11.6643" x2="7.23238" y2="5.18963" gradientUnits="userSpaceOnUse">
<stop offset="0.00302028" stop-opacity="0"/>
<stop offset="0.3902" stop-color="#071E14" stop-opacity="0.3913"/>
<stop offset="0.7529" stop-color="#0B3223" stop-opacity="0.7579"/>
<stop offset="0.9924" stop-color="#0D3A28"/>
</linearGradient>
<linearGradient id="paint12_linear_889_1068" x1="7.92283" y1="11.6643" x2="7.92283" y2="3.25642" gradientUnits="userSpaceOnUse">
<stop offset="0.00302028" stop-opacity="0"/>
<stop offset="0.3902" stop-color="#071E14" stop-opacity="0.3913"/>
<stop offset="0.7529" stop-color="#0B3223" stop-opacity="0.7579"/>
<stop offset="0.9924" stop-color="#0D3A28"/>
</linearGradient>
<linearGradient id="paint13_linear_889_1068" x1="3.98823" y1="11.7345" x2="3.98823" y2="8.61439" gradientUnits="userSpaceOnUse">
<stop offset="0.0232" stop-color="#094239" stop-opacity="0"/>
<stop offset="0.3986" stop-color="#1B8765" stop-opacity="0.3873"/>
<stop offset="0.9924" stop-color="#38FCB0"/>
</linearGradient>
<linearGradient id="paint14_linear_889_1068" x1="7.43856" y1="11.5375" x2="7.43856" y2="7.46031" gradientUnits="userSpaceOnUse">
<stop offset="0.0232" stop-color="#094239" stop-opacity="0"/>
<stop offset="0.3986" stop-color="#1B8765" stop-opacity="0.3873"/>
<stop offset="0.9924" stop-color="#38FCB0"/>
</linearGradient>
<linearGradient id="paint15_linear_889_1068" x1="10.8741" y1="11.2027" x2="10.8741" y2="5.32573" gradientUnits="userSpaceOnUse">
<stop offset="0.0232" stop-color="#094239" stop-opacity="0"/>
<stop offset="0.3986" stop-color="#1B8765" stop-opacity="0.3873"/>
<stop offset="0.9924" stop-color="#38FCB0"/>
</linearGradient>
<linearGradient id="paint16_linear_889_1068" x1="21.1838" y1="10.435" x2="4.32776" y2="4.60181" gradientUnits="userSpaceOnUse">
<stop stop-color="#369FAE"/>
<stop offset="0.9886" stop-color="#6BE4CA"/>
<stop offset="0.9924" stop-color="#6BE4CA"/>
</linearGradient>
<clipPath id="clip0_889_1068">
<rect width="16" height="16" fill="white"/>
</clipPath>
</defs>
</svg>
