<svg width="382" height="295" viewBox="0 0 382 295" fill="none" xmlns="http://www.w3.org/2000/svg">
<ellipse opacity="0.1" cx="314.508" cy="47.5074" rx="73.2637" ry="73.2638" fill="#B6B6B6"/>
<path d="M249.143 9.7663C246.752 8.38558 245.92 5.31767 247.446 3.01656C252.352 -4.3792 258.455 -10.9222 265.515 -16.3391C273.898 -22.7719 283.466 -27.4905 293.674 -30.2255C303.881 -32.9605 314.526 -33.6582 325.003 -32.279C335.48 -30.8997 345.582 -27.4703 354.734 -22.1868C363.885 -16.9032 371.906 -9.8689 378.339 -1.48543C384.772 6.89804 389.491 16.4664 392.226 26.6735C394.96 36.8806 395.658 47.5264 394.279 58.0031C393.118 66.8251 390.502 75.3818 386.551 83.3286C385.321 85.8012 382.248 86.6144 379.857 85.2337L377.85 84.0749C375.458 82.6942 374.657 79.6432 375.859 77.157C379.017 70.6215 381.117 63.6133 382.067 56.3953C383.235 47.5223 382.644 38.5061 380.328 29.8615C378.011 21.2169 374.015 13.1131 368.567 6.01295C363.119 -1.08723 356.326 -7.04479 348.575 -11.5196C340.824 -15.9944 332.268 -18.8987 323.395 -20.0669C314.522 -21.2351 305.506 -20.6441 296.862 -18.3278C288.217 -16.0115 280.113 -12.0151 273.013 -6.56699C267.237 -2.13506 262.217 3.18701 258.137 9.19041C256.585 11.4742 253.542 12.3057 251.15 10.925L249.143 9.7663Z" fill="#3FAAB3"/>
<path d="M244.338 88.0078C241.947 89.3886 241.115 92.4558 242.632 94.763C249.331 104.949 258.131 113.612 268.462 120.158C280.203 127.597 293.571 132.081 307.424 133.224C321.276 134.368 335.199 132.137 348.001 126.724C360.802 121.311 372.102 112.876 380.931 102.141C389.761 91.4063 395.857 78.6919 398.699 65.0861C401.541 51.4804 401.043 37.3887 397.249 24.0173C393.454 10.646 386.476 -1.60664 376.911 -11.6916C368.495 -20.5653 358.297 -27.5282 347.01 -32.136C344.453 -33.1797 341.604 -31.7721 340.71 -29.1591L315.107 45.7251C314.716 46.8694 313.923 47.833 312.876 48.4377L244.338 88.0078Z" fill="#6BE4CA"/>
<path d="M243.934 98.0703C241.689 99.6786 241.162 102.812 242.89 104.966C250.478 114.423 259.876 122.298 270.55 128.119C282.69 134.739 296.169 138.531 309.979 139.213C323.79 139.895 337.577 137.449 350.31 132.057C363.043 126.666 374.394 118.468 383.515 108.075C392.636 97.6828 399.293 85.3644 402.987 72.0395C406.682 58.7146 407.319 44.7273 404.851 31.1217C402.384 17.5161 396.875 4.64353 388.736 -6.53516C381.58 -16.3645 372.553 -24.661 362.19 -30.958C359.83 -32.3921 356.792 -31.4635 355.489 -29.0291L346.856 -12.906C345.552 -10.4716 346.482 -7.45779 348.806 -5.96693C355.429 -1.71891 361.218 3.73088 365.866 10.1153C371.498 17.8499 375.309 26.7564 377.016 36.1702C378.724 45.5839 378.283 55.2617 375.727 64.4812C373.171 73.7007 368.565 82.2238 362.254 89.4143C355.943 96.6048 348.089 102.277 339.279 106.008C330.469 109.738 320.93 111.431 311.375 110.959C301.819 110.487 292.493 107.863 284.094 103.283C277.16 99.5019 271.005 94.4687 265.934 88.4526C264.154 86.3412 261.045 85.8105 258.801 87.4188L243.934 98.0703Z" fill="#38A2AF"/>
<ellipse cx="314.507" cy="47.5075" rx="52.3313" ry="52.3312" fill="white"/>
<path d="M286.314 37.5176V55.3521H283.372V41.0088L279.014 42.4858V40.0566L285.96 37.5176H286.314ZM298.582 46.5874V48.9312H292.125V46.5874H298.582ZM304.441 45.1348H306.199C306.883 45.1348 307.448 45.0168 307.896 44.7808C308.352 44.5448 308.689 44.2192 308.909 43.8042C309.129 43.3892 309.239 42.9131 309.239 42.376C309.239 41.8145 309.137 41.3343 308.934 40.9355C308.738 40.5286 308.437 40.2153 308.03 39.9956C307.632 39.7759 307.123 39.666 306.504 39.666C305.984 39.666 305.512 39.7718 305.088 39.9834C304.673 40.1868 304.344 40.4798 304.1 40.8623C303.855 41.2367 303.733 41.6842 303.733 42.2051H300.779C300.779 41.2611 301.028 40.4229 301.524 39.6904C302.02 38.958 302.696 38.3843 303.55 37.9692C304.413 37.5461 305.381 37.3345 306.456 37.3345C307.603 37.3345 308.604 37.5257 309.458 37.9082C310.321 38.2826 310.993 38.8441 311.473 39.5928C311.953 40.3415 312.193 41.2692 312.193 42.376C312.193 42.8805 312.075 43.3932 311.839 43.9141C311.603 44.4349 311.253 44.911 310.789 45.3423C310.325 45.7655 309.747 46.1113 309.056 46.3799C308.364 46.6403 307.562 46.7705 306.651 46.7705H304.441V45.1348ZM304.441 47.4297V45.8184H306.651C307.693 45.8184 308.58 45.9404 309.312 46.1846C310.053 46.4287 310.655 46.7664 311.119 47.1978C311.583 47.6209 311.92 48.1051 312.132 48.6504C312.352 49.1956 312.461 49.7734 312.461 50.3838C312.461 51.2139 312.311 51.9544 312.01 52.6055C311.717 53.2484 311.298 53.7936 310.752 54.2412C310.207 54.6888 309.568 55.0265 308.836 55.2544C308.112 55.4823 307.322 55.5962 306.468 55.5962C305.703 55.5962 304.97 55.4904 304.271 55.2788C303.571 55.0672 302.944 54.7539 302.391 54.3389C301.837 53.9157 301.398 53.3908 301.072 52.7642C300.755 52.1294 300.596 51.397 300.596 50.5669H303.538C303.538 51.0959 303.66 51.5638 303.904 51.9707C304.157 52.3695 304.507 52.6828 304.954 52.9106C305.41 53.1385 305.931 53.2524 306.517 53.2524C307.135 53.2524 307.668 53.1426 308.116 52.9229C308.563 52.7031 308.905 52.3776 309.141 51.9463C309.385 51.515 309.507 50.9941 309.507 50.3838C309.507 49.6921 309.373 49.1305 309.104 48.6992C308.836 48.2679 308.453 47.9505 307.957 47.7471C307.461 47.5355 306.875 47.4297 306.199 47.4297H304.441ZM323.985 42.144H326.927L326.78 46.7949C326.74 48.1458 326.585 49.3055 326.316 50.2739C326.048 51.2424 325.698 52.0602 325.267 52.7275C324.835 53.3867 324.347 53.9279 323.802 54.3511C323.265 54.7743 322.699 55.1079 322.105 55.3521H321.238V53.0327L321.653 53.0083C322.003 52.634 322.304 52.2596 322.557 51.8853C322.817 51.5028 323.037 51.0837 323.216 50.6279C323.395 50.1641 323.533 49.6229 323.631 49.0044C323.737 48.3859 323.806 47.6494 323.838 46.7949L323.985 42.144ZM324.766 42.144H333.14V55.3521H330.21V44.6343H324.766V42.144ZM320.567 53.0083H334.947V59.2827H332.005V55.3521H323.545V59.2827H320.555L320.567 53.0083ZM345.994 47.6616V49.981H339.158V47.6616H345.994ZM340.013 42.144V55.3521H337.071V42.144H340.013ZM348.118 42.144V55.3521H345.176V42.144H348.118ZM354.405 42.144V55.3521H351.451V42.144H354.405ZM351.255 38.6772C351.255 38.2297 351.402 37.8594 351.695 37.5664C351.996 37.2653 352.411 37.1147 352.94 37.1147C353.461 37.1147 353.872 37.2653 354.173 37.5664C354.474 37.8594 354.625 38.2297 354.625 38.6772C354.625 39.1167 354.474 39.4829 354.173 39.7759C353.872 40.0688 353.461 40.2153 352.94 40.2153C352.411 40.2153 351.996 40.0688 351.695 39.7759C351.402 39.4829 351.255 39.1167 351.255 38.6772Z" fill="black"/>
</svg>
