<svg width="382" height="153" viewBox="0 0 382 153" fill="none" xmlns="http://www.w3.org/2000/svg">
<path d="M288.11 93.1705V95.0857H279.828V93.1705H282.861V84.4434C282.861 84.0983 282.871 83.7429 282.892 83.3771L280.739 85.1784C280.614 85.2751 280.49 85.3372 280.366 85.3648C280.249 85.3855 280.135 85.3855 280.024 85.3648C279.921 85.3441 279.828 85.3096 279.745 85.2613C279.662 85.206 279.6 85.1474 279.559 85.0853L278.751 83.9776L283.316 80.0954H285.418V93.1705H288.11ZM300.482 87.6009C300.482 88.9053 300.341 90.0406 300.058 91.0068C299.782 91.9662 299.395 92.7599 298.898 93.3879C298.408 94.0159 297.825 94.4853 297.149 94.7958C296.479 95.0995 295.755 95.2513 294.975 95.2513C294.195 95.2513 293.47 95.0995 292.801 94.7958C292.138 94.4853 291.562 94.0159 291.072 93.3879C290.582 92.7599 290.199 91.9662 289.923 91.0068C289.647 90.0406 289.509 88.9053 289.509 87.6009C289.509 86.2896 289.647 85.1543 289.923 84.195C290.199 83.2356 290.582 82.4419 291.072 81.8139C291.562 81.1859 292.138 80.72 292.801 80.4163C293.47 80.1058 294.195 79.9505 294.975 79.9505C295.755 79.9505 296.479 80.1058 297.149 80.4163C297.825 80.72 298.408 81.1859 298.898 81.8139C299.395 82.4419 299.782 83.2356 300.058 84.195C300.341 85.1543 300.482 86.2896 300.482 87.6009ZM297.843 87.6009C297.843 86.5173 297.763 85.6201 297.604 84.9093C297.446 84.1984 297.232 83.6325 296.963 83.2115C296.7 82.7905 296.397 82.4972 296.052 82.3315C295.706 82.159 295.348 82.0727 294.975 82.0727C294.609 82.0727 294.254 82.159 293.909 82.3315C293.57 82.4972 293.27 82.7905 293.008 83.2115C292.746 83.6325 292.535 84.1984 292.376 84.9093C292.225 85.6201 292.149 86.5173 292.149 87.6009C292.149 88.6845 292.225 89.5817 292.376 90.2925C292.535 91.0034 292.746 91.5693 293.008 91.9903C293.27 92.4113 293.57 92.7081 293.909 92.8806C294.254 93.0463 294.609 93.1291 294.975 93.1291C295.348 93.1291 295.706 93.0463 296.052 92.8806C296.397 92.7081 296.7 92.4113 296.963 91.9903C297.232 91.5693 297.446 91.0034 297.604 90.2925C297.763 89.5817 297.843 88.6845 297.843 87.6009ZM312.079 87.6009C312.079 88.9053 311.937 90.0406 311.654 91.0068C311.378 91.9662 310.992 92.7599 310.495 93.3879C310.005 94.0159 309.422 94.4853 308.745 94.7958C308.076 95.0995 307.351 95.2513 306.571 95.2513C305.791 95.2513 305.067 95.0995 304.397 94.7958C303.735 94.4853 303.158 94.0159 302.668 93.3879C302.178 92.7599 301.795 91.9662 301.519 91.0068C301.243 90.0406 301.105 88.9053 301.105 87.6009C301.105 86.2896 301.243 85.1543 301.519 84.195C301.795 83.2356 302.178 82.4419 302.668 81.8139C303.158 81.1859 303.735 80.72 304.397 80.4163C305.067 80.1058 305.791 79.9505 306.571 79.9505C307.351 79.9505 308.076 80.1058 308.745 80.4163C309.422 80.72 310.005 81.1859 310.495 81.8139C310.992 82.4419 311.378 83.2356 311.654 84.195C311.937 85.1543 312.079 86.2896 312.079 87.6009ZM309.439 87.6009C309.439 86.5173 309.359 85.6201 309.201 84.9093C309.042 84.1984 308.828 83.6325 308.559 83.2115C308.297 82.7905 307.993 82.4972 307.648 82.3315C307.303 82.159 306.944 82.0727 306.571 82.0727C306.205 82.0727 305.85 82.159 305.505 82.3315C305.167 82.4972 304.867 82.7905 304.604 83.2115C304.342 83.6325 304.132 84.1984 303.973 84.9093C303.821 85.6201 303.745 86.5173 303.745 87.6009C303.745 88.6845 303.821 89.5817 303.973 90.2925C304.132 91.0034 304.342 91.5693 304.604 91.9903C304.867 92.4113 305.167 92.7081 305.505 92.8806C305.85 93.0463 306.205 93.1291 306.571 93.1291C306.944 93.1291 307.303 93.0463 307.648 92.8806C307.993 92.7081 308.297 92.4113 308.559 91.9903C308.828 91.5693 309.042 91.0034 309.201 90.2925C309.359 89.5817 309.439 88.6845 309.439 87.6009ZM319.896 83.7394C319.896 84.3054 319.8 84.8161 319.607 85.2716C319.42 85.7271 319.168 86.1171 318.851 86.4414C318.533 86.7589 318.164 87.0039 317.743 87.1764C317.322 87.349 316.884 87.4353 316.428 87.4353C315.931 87.4353 315.472 87.349 315.051 87.1764C314.63 87.0039 314.265 86.7589 313.954 86.4414C313.65 86.1171 313.412 85.7271 313.24 85.2716C313.067 84.8161 312.981 84.3054 312.981 83.7394C312.981 83.1597 313.067 82.6352 313.24 82.1659C313.412 81.6966 313.65 81.2997 313.954 80.9754C314.265 80.651 314.63 80.4025 315.051 80.23C315.472 80.0505 315.931 79.9608 316.428 79.9608C316.925 79.9608 317.384 80.0505 317.805 80.23C318.233 80.4025 318.602 80.651 318.913 80.9754C319.224 81.2997 319.465 81.6966 319.638 82.1659C319.81 82.6352 319.896 83.1597 319.896 83.7394ZM317.929 83.7394C317.929 83.3392 317.888 83.0044 317.805 82.7353C317.729 82.4661 317.622 82.2487 317.484 82.0831C317.353 81.9174 317.194 81.8001 317.008 81.7311C316.829 81.6552 316.635 81.6172 316.428 81.6172C316.221 81.6172 316.028 81.6552 315.849 81.7311C315.669 81.8001 315.514 81.9174 315.383 82.0831C315.259 82.2487 315.158 82.4661 315.083 82.7353C315.007 83.0044 314.969 83.3392 314.969 83.7394C314.969 84.1259 315.007 84.4503 315.083 84.7126C315.158 84.9679 315.259 85.175 315.383 85.3337C315.514 85.4925 315.669 85.6063 315.849 85.6753C316.028 85.7444 316.221 85.7789 316.428 85.7789C316.635 85.7789 316.829 85.7444 317.008 85.6753C317.194 85.6063 317.353 85.4925 317.484 85.3337C317.622 85.175 317.729 84.9679 317.805 84.7126C317.888 84.4503 317.929 84.1259 317.929 83.7394ZM324.876 80.5198C324.966 80.4163 325.069 80.3232 325.186 80.2403C325.311 80.1575 325.483 80.1161 325.704 80.1161H327.568L316.449 94.7027C316.359 94.8131 316.252 94.9063 316.128 94.9822C316.004 95.0512 315.852 95.0857 315.673 95.0857H313.768L324.876 80.5198ZM328.354 91.5659C328.354 92.1318 328.258 92.6425 328.064 93.098C327.878 93.5535 327.626 93.9435 327.309 94.2679C326.991 94.5853 326.622 94.8338 326.201 95.0132C325.78 95.1858 325.342 95.272 324.886 95.272C324.389 95.272 323.93 95.1858 323.509 95.0132C323.088 94.8338 322.723 94.5853 322.412 94.2679C322.108 93.9435 321.87 93.5535 321.698 93.098C321.525 92.6425 321.439 92.1318 321.439 91.5659C321.439 90.9861 321.525 90.4616 321.698 89.9923C321.87 89.523 322.108 89.1262 322.412 88.8018C322.723 88.4774 323.088 88.2289 323.509 88.0564C323.93 87.877 324.389 87.7872 324.886 87.7872C325.383 87.7872 325.842 87.877 326.263 88.0564C326.691 88.2289 327.057 88.4774 327.36 88.8018C327.671 89.1262 327.913 89.523 328.085 89.9923C328.265 90.4616 328.354 90.9861 328.354 91.5659ZM326.377 91.5659C326.377 91.1656 326.339 90.8309 326.263 90.5617C326.187 90.2925 326.08 90.0751 325.942 89.9095C325.811 89.7438 325.652 89.6265 325.466 89.5575C325.287 89.4816 325.093 89.4436 324.886 89.4436C324.679 89.4436 324.486 89.4816 324.307 89.5575C324.127 89.6265 323.972 89.7438 323.841 89.9095C323.71 90.0751 323.606 90.2925 323.53 90.5617C323.461 90.8309 323.427 91.1656 323.427 91.5659C323.427 91.9524 323.461 92.2767 323.53 92.539C323.606 92.8013 323.71 93.0118 323.841 93.1705C323.972 93.3292 324.127 93.4431 324.307 93.5121C324.486 93.5811 324.679 93.6157 324.886 93.6157C325.093 93.6157 325.287 93.5811 325.466 93.5121C325.652 93.4431 325.811 93.3292 325.942 93.1705C326.08 93.0118 326.187 92.8013 326.263 92.539C326.339 92.2767 326.377 91.9524 326.377 91.5659Z" fill="black"/>
<path d="M283.441 135.294C282.234 138.058 278.998 139.342 276.362 137.875C266.521 132.396 258.486 124.098 253.332 113.991C247.347 102.255 245.617 88.8081 248.436 75.9403C251.255 63.0724 258.448 51.5801 268.791 43.4214C279.133 35.2628 291.984 30.9425 305.155 31.1969C318.325 31.4512 331 36.2644 341.02 44.8163C351.039 53.3682 357.784 65.1297 360.104 78.0968C362.424 91.0638 360.176 104.434 353.743 115.93C348.202 125.83 339.853 133.813 329.807 138.907C327.117 140.271 323.933 138.863 322.833 136.055C321.733 133.246 323.138 130.106 325.796 128.681C333.501 124.551 339.906 118.29 344.211 110.596C349.41 101.306 351.227 90.5 349.352 80.0204C347.477 69.5408 342.027 60.0354 333.929 53.124C325.831 46.2126 315.588 42.3228 304.944 42.1172C294.3 41.9116 283.914 45.4031 275.556 51.9967C267.197 58.5904 261.384 67.8781 259.105 78.2775C256.827 88.677 258.225 99.5446 263.062 109.029C267.067 116.884 273.226 123.387 280.765 127.811C283.367 129.338 284.649 132.53 283.441 135.294Z" fill="url(#paint0_linear_76_235)"/>
<g filter="url(#filter0_d_76_235)">
<circle cx="328.454" cy="133.229" r="1.1065" fill="white"/>
</g>
<path d="M324.885 125.535C333.107 120.789 339.517 113.443 343.107 104.654C346.697 95.8654 347.264 86.1325 344.717 76.9867C342.17 67.8409 336.655 59.8013 329.039 54.1329C321.423 48.4646 312.139 45.4891 302.647 45.6747C293.155 45.8603 283.994 49.1965 276.606 55.1582C269.218 61.12 264.021 69.369 261.834 78.6073C259.646 87.8457 260.593 97.5491 264.524 106.191C268.455 114.832 275.147 121.922 283.549 126.344" stroke="#6BCCFE" stroke-width="0.316144" stroke-linecap="round" stroke-dasharray="0 0.32 4.43 0 0.32 4.43"/>
<defs>
<filter id="filter0_d_76_235" x="327.032" y="131.806" width="2.84518" height="2.84518" filterUnits="userSpaceOnUse" color-interpolation-filters="sRGB">
<feFlood flood-opacity="0" result="BackgroundImageFix"/>
<feColorMatrix in="SourceAlpha" type="matrix" values="0 0 0 0 0 0 0 0 0 0 0 0 0 0 0 0 0 0 127 0" result="hardAlpha"/>
<feOffset/>
<feGaussianBlur stdDeviation="0.158072"/>
<feColorMatrix type="matrix" values="0 0 0 0 0 0 0 0 0 0 0 0 0 0 0 0 0 0 0.15 0"/>
<feBlend mode="normal" in2="BackgroundImageFix" result="effect1_dropShadow_76_235"/>
<feBlend mode="normal" in="SourceGraphic" in2="effect1_dropShadow_76_235" result="shape"/>
</filter>
<linearGradient id="paint0_linear_76_235" x1="358.333" y1="168.126" x2="242.372" y2="154.747" gradientUnits="userSpaceOnUse">
<stop stop-color="#369FAE"/>
<stop offset="0.9886" stop-color="#6BE4CA"/>
<stop offset="0.9924" stop-color="#6BE4CA"/>
</linearGradient>
</defs>
</svg>
