<svg width="137" height="32" viewBox="0 0 137 32" fill="none" xmlns="http://www.w3.org/2000/svg">
<g clip-path="url(#clip0_398_136)">
<path d="M19.3586 1.81369H14.9199V0.674834C15.0936 0.501083 15.1911 0.403524 15.3652 0.22937H18.9138C19.0874 0.403121 19.1849 0.50068 19.359 0.674834V1.81369H19.3586Z" fill="url(#paint0_linear_398_136)"/>
<path d="M11.6009 1.58432H4.59473V0.445463C4.76839 0.271713 4.8659 0.174154 5.03996 0H11.1556C11.3293 0.173751 11.4268 0.271309 11.6009 0.445463V1.58432Z" fill="url(#paint1_linear_398_136)"/>
<path d="M21.1128 30.1649H3.24648C2.31733 29.2353 1.79634 28.7141 0.867188 27.7844V4.41957C1.79634 3.48994 2.31733 2.96869 3.24648 2.03906H21.1128C22.0419 2.96869 22.5629 3.48994 23.4921 4.41957V27.7844C22.5629 28.7141 22.0419 29.2353 21.1128 30.1649Z" fill="url(#paint2_linear_398_136)"/>
<path d="M21.2186 28.394L20.3157 29.297H5.32269C5.36621 29.3281 5.40932 29.3595 5.45244 29.3905C5.44518 29.6486 5.43874 29.9066 5.43189 30.1646H5.98027L6.44042 30.8394C6.51012 30.9007 6.57983 30.962 6.65034 31.0232C6.65357 31.0269 6.6576 31.0297 6.66082 31.0325H17.6769C17.6914 31.0196 17.7067 31.0071 17.7212 30.9938C17.7805 30.9422 17.8389 30.891 17.8973 30.8394L18.3574 30.1646H19.1951C19.1915 30.0307 19.1883 29.8961 19.1847 29.7622C19.2926 29.8961 19.401 30.0307 19.509 30.1646H21.1131L21.2344 30.0432C21.2291 29.4933 21.2239 28.9439 21.2186 28.394ZM21.2186 28.394L20.3157 29.297H5.32269C5.36621 29.3281 5.40932 29.3595 5.45244 29.3905C5.44518 29.6486 5.43874 29.9066 5.43189 30.1646H5.98027L6.44042 30.8394C6.51012 30.9007 6.57983 30.962 6.65034 31.0232C6.65357 31.0269 6.6576 31.0297 6.66082 31.0325H17.6769C17.6914 31.0196 17.7067 31.0071 17.7212 30.9938C17.7805 30.9422 17.8389 30.891 17.8973 30.8394L18.3574 30.1646H19.1951C19.1915 30.0307 19.1883 29.8961 19.1847 29.7622C19.2926 29.8961 19.401 30.0307 19.509 30.1646H21.1131L21.2344 30.0432C21.2291 29.4933 21.2239 28.9439 21.2186 28.394ZM21.0337 1.17114H3.32537L0 4.49821V27.705L3.32537 31.0325H21.0337L21.4818 30.5842L22.8424 29.2232L24.3599 27.705V4.49821L21.0337 1.17114ZM22.6253 26.9863L21.6022 28.0102L21.6018 28.0106L21.2573 28.3549L21.2186 28.394L20.3157 29.297H4.0442L3.40636 28.6589L1.73421 26.9863V5.217L4.0442 2.90623H20.3157L22.6253 5.217V26.9863ZM21.2186 28.394L20.3157 29.297H5.32269C5.36621 29.3281 5.40932 29.3595 5.45244 29.3905C5.44518 29.6486 5.43874 29.9066 5.43189 30.1646H5.98027L6.44042 30.8394C6.51012 30.9007 6.57983 30.962 6.65034 31.0232C6.65357 31.0269 6.6576 31.0297 6.66082 31.0325H17.6769C17.6914 31.0196 17.7067 31.0071 17.7212 30.9938C17.7805 30.9422 17.8389 30.891 17.8973 30.8394L18.3574 30.1646H19.1951C19.1915 30.0307 19.1883 29.8961 19.1847 29.7622C19.2926 29.8961 19.401 30.0307 19.509 30.1646H21.1131L21.2344 30.0432C21.2291 29.4933 21.2239 28.9439 21.2186 28.394ZM21.2186 28.394L20.3157 29.297H5.32269C5.36621 29.3281 5.40932 29.3595 5.45244 29.3905C5.44518 29.6486 5.43874 29.9066 5.43189 30.1646H5.98027L6.44042 30.8394C6.51012 30.9007 6.57983 30.962 6.65034 31.0232C6.65357 31.0269 6.6576 31.0297 6.66082 31.0325H17.6769C17.6914 31.0196 17.7067 31.0071 17.7212 30.9938C17.7805 30.9422 17.8389 30.891 17.8973 30.8394L18.3574 30.1646H19.1951C19.1915 30.0307 19.1883 29.8961 19.1847 29.7622C19.2926 29.8961 19.401 30.0307 19.509 30.1646H21.1131L21.2344 30.0432C21.2291 29.4933 21.2239 28.9439 21.2186 28.394Z" fill="url(#paint3_linear_398_136)"/>
<path d="M9.76319 16.1157V27.0124H6.79199V16.1157C6.79199 15.7174 7.14415 15.3949 7.57891 15.3949H8.97587C9.41063 15.3953 9.76319 15.7174 9.76319 16.1157Z" fill="url(#paint4_linear_398_136)"/>
<path d="M17.5679 12.0796V27.0121H14.5967V12.0796C14.5967 11.649 14.9492 11.3003 15.3836 11.3003H16.781C17.2157 11.3003 17.5679 11.6494 17.5679 12.0796Z" fill="url(#paint5_linear_398_136)"/>
<path d="M6.46876 24.359H2.91211V24.5678H6.46876V24.359Z" fill="url(#paint6_linear_398_136)"/>
<path d="M14.2738 24.359H10.085V24.5678H14.2738V24.359Z" fill="url(#paint7_linear_398_136)"/>
<path d="M21.4473 24.359H17.8906V24.5678H21.4473V24.359Z" fill="url(#paint8_linear_398_136)"/>
<path d="M5.20919 9.28662H4.59473V23.6386H5.20919V9.28662Z" fill="url(#paint9_linear_398_136)"/>
<path d="M3.73361 11.5607H3.11914V23.639H3.73361V11.5607Z" fill="url(#paint10_linear_398_136)"/>
<path d="M11.9074 9.28662H11.293V23.6386H11.9074V9.28662Z" fill="url(#paint11_linear_398_136)"/>
<path d="M13.4348 5.00171H12.8203V23.6386H13.4348V5.00171Z" fill="url(#paint12_linear_398_136)"/>
<path d="M4.77111 16.8781H4.04785V23.7942H4.77111V16.8781Z" fill="url(#paint13_linear_398_136)"/>
<path d="M12.4176 14.3202H11.6943V23.3577H12.4176V14.3202Z" fill="url(#paint14_linear_398_136)"/>
<path d="M20.0328 9.58862H19.3096V22.6155H20.0328V9.58862Z" fill="url(#paint15_linear_398_136)"/>
<path d="M33.6591 26.6806V28.2355H31.684V26.6806H31.0449V30.4519H31.684V28.8023H33.6591V30.4519H34.2986V26.6806H33.6591ZM38.7646 27.8271C38.6728 27.5917 38.5406 27.3836 38.369 27.203C38.1973 27.0228 37.995 26.8813 37.7626 26.7777C37.5305 26.6741 37.2738 26.6225 36.993 26.6225C36.7073 26.6225 36.447 26.6741 36.2121 26.7777C35.9772 26.8813 35.7753 27.0228 35.6061 27.203C35.4364 27.3836 35.3055 27.5917 35.214 27.8271C35.1218 28.0625 35.0758 28.3129 35.0758 28.5773C35.0758 28.8369 35.1218 29.0845 35.214 29.3203C35.3055 29.5561 35.4364 29.7638 35.6061 29.9444C35.7753 30.1246 35.9764 30.2665 36.2089 30.3697C36.4414 30.4733 36.7 30.5249 36.9861 30.5249C37.2718 30.5249 37.5317 30.4733 37.767 30.3697C38.0019 30.2665 38.2038 30.1246 38.373 29.9444C38.5426 29.7638 38.6732 29.5561 38.765 29.3203C38.8569 29.0849 38.9032 28.8369 38.9032 28.5773C38.9028 28.3129 38.8565 28.0625 38.7646 27.8271ZM38.0784 29.2784C37.9648 29.4916 37.8121 29.6605 37.6211 29.7855C37.4297 29.9101 37.2178 29.9726 36.9857 29.9726C36.7532 29.9726 36.5429 29.9113 36.3539 29.7892C36.1649 29.667 36.0134 29.5001 35.9002 29.2893C35.7862 29.0784 35.7294 28.843 35.7294 28.5842C35.7294 28.3205 35.7858 28.0835 35.9002 27.8722C36.0138 27.6614 36.1649 27.4925 36.3539 27.3655C36.5429 27.2385 36.7532 27.1748 36.9857 27.1748C37.2178 27.1748 37.4297 27.2373 37.6211 27.3619C37.8121 27.4868 37.9648 27.6546 38.0784 27.8658C38.1921 28.0766 38.2493 28.3117 38.2493 28.5705C38.2489 28.8289 38.1921 29.0651 38.0784 29.2784ZM42.6142 28.8486C42.4784 28.687 42.302 28.5749 42.0844 28.512C42.2681 28.4302 42.4087 28.3088 42.5054 28.148C42.6021 27.9867 42.6509 27.8053 42.6509 27.6034C42.6509 27.4449 42.6134 27.2958 42.5381 27.1567C42.4631 27.0176 42.3507 26.9031 42.2004 26.8144C42.0505 26.7253 41.8616 26.681 41.6339 26.681H39.6728V30.4523H41.5976C41.8394 30.4523 42.0525 30.4124 42.2367 30.3326C42.4208 30.2532 42.5635 30.1387 42.665 29.9887C42.7665 29.8391 42.8173 29.6577 42.8173 29.4457C42.8173 29.2094 42.7496 29.0099 42.6142 28.8486ZM40.2829 27.1309H41.4884C41.6532 27.1309 41.7874 27.1885 41.8918 27.3034C41.9957 27.4183 42.0477 27.5546 42.0477 27.7126C42.0477 27.8178 42.0235 27.9186 41.9752 28.0141C41.9268 28.1101 41.8587 28.1879 41.7721 28.2476C41.6847 28.3072 41.5831 28.3371 41.4667 28.3371H40.2829V27.1309ZM42.1202 29.6839C42.067 29.7803 41.9933 29.8573 41.8986 29.9149C41.8043 29.973 41.6988 30.0016 41.5827 30.0016H40.2829V28.7591H41.6049C41.7213 28.7591 41.8241 28.7866 41.9135 28.8422C42.003 28.8974 42.0731 28.972 42.1239 29.0659C42.1746 29.1603 42.2 29.2647 42.2 29.3804C42.2 29.486 42.1734 29.5876 42.1202 29.6839ZM46.3836 26.6806L44.2626 29.5993V26.6878H43.6236V30.4523H44.2336L46.3252 27.5985V30.4523H46.9642V26.681H46.3836V26.6806ZM50.2691 25.3579C50.2493 25.5034 50.1965 25.6187 50.1091 25.703C50.0221 25.7876 49.8718 25.83 49.659 25.83C49.441 25.83 49.2851 25.7852 49.1904 25.6957C49.0961 25.6062 49.0486 25.4934 49.0486 25.3579H48.5985C48.5985 25.605 48.688 25.8122 48.8673 25.9791C49.0462 26.1464 49.3101 26.2303 49.6586 26.2303C50.0072 26.2303 50.2711 26.1464 50.4504 25.9791C50.6297 25.8122 50.7191 25.605 50.7191 25.3579H50.2691ZM50.7409 26.6806L48.6203 29.5993V26.6878H47.9812V30.4523H48.5909L50.6829 27.5985V30.4523H51.3219V26.681H50.7409V26.6806ZM57.7893 27.8376C57.6995 27.6046 57.575 27.3965 57.4154 27.2139C57.2554 27.0309 57.0665 26.887 56.8489 26.781C56.6309 26.6749 56.3912 26.6225 56.1297 26.6225C55.844 26.6225 55.5801 26.6935 55.3379 26.8354C55.0958 26.9773 54.8995 27.1635 54.7496 27.3941V26.6806H54.1831V31.9999H54.8222V29.7097C54.9624 29.9452 55.1538 30.1399 55.3959 30.2939C55.6381 30.4479 55.9141 30.5245 56.224 30.5245C56.558 30.5245 56.8533 30.437 57.11 30.2612C57.3667 30.0859 57.5661 29.8492 57.7096 29.5509C57.8522 29.2526 57.9235 28.9256 57.9235 28.5701C57.9235 28.3149 57.8788 28.071 57.7893 27.8376ZM57.1829 29.0877C57.1249 29.2558 57.0411 29.4058 56.9323 29.5372C56.8231 29.669 56.6926 29.7746 56.5403 29.8537C56.3879 29.9327 56.2171 29.9722 56.0281 29.9722C55.8585 29.9722 55.6941 29.9327 55.5341 29.8537C55.3742 29.775 55.234 29.6682 55.1131 29.5344C54.9918 29.4005 54.8951 29.2518 54.8226 29.0889V28.0146C54.8467 27.8997 54.8979 27.792 54.9749 27.6916C55.0522 27.5909 55.1465 27.5014 55.2581 27.4223C55.3693 27.3433 55.487 27.2825 55.6103 27.2393C55.7336 27.1962 55.8537 27.1744 55.9701 27.1744C56.1538 27.1744 56.3247 27.2115 56.4822 27.2857C56.6394 27.3603 56.7776 27.4623 56.8964 27.5913C57.0149 27.7211 57.1068 27.8694 57.1725 28.0375C57.2377 28.2052 57.2704 28.3826 57.2704 28.5697C57.2704 28.7475 57.2413 28.92 57.1829 29.0877ZM58.708 26.6588V30.4519H59.3471V26.6588H58.708ZM58.708 25.1475V25.9465H59.3471V25.1475H58.708ZM63.3127 28.8486C63.1769 28.687 63.0004 28.5749 62.7824 28.512C62.9662 28.4302 63.1068 28.3088 63.2035 28.148C63.3006 27.9867 63.3489 27.8053 63.3489 27.6034C63.3489 27.4449 63.3115 27.2958 63.2361 27.1567C63.1612 27.0176 63.0488 26.9031 62.8989 26.8144C62.7486 26.7253 62.5596 26.681 62.3324 26.681H60.3713V30.4523H62.2957C62.5378 30.4523 62.751 30.4124 62.9347 30.3326C63.1185 30.2532 63.2615 30.1387 63.3634 29.9887C63.465 29.8391 63.5158 29.6577 63.5158 29.4457C63.5162 29.2094 63.4481 29.0099 63.3127 28.8486ZM60.9813 27.1309H62.1869C62.3513 27.1309 62.4859 27.1885 62.5898 27.3034C62.6938 27.4183 62.7458 27.5546 62.7458 27.7126C62.7458 27.8178 62.7216 27.9186 62.6732 28.0141C62.6249 28.1101 62.5572 28.1879 62.4702 28.2476C62.3831 28.3072 62.2816 28.3371 62.1651 28.3371H60.9813V27.1309ZM62.8187 29.6839C62.7655 29.7803 62.6918 29.8573 62.5971 29.9149C62.5028 29.973 62.3972 30.0016 62.2816 30.0016H60.9817V28.7591H62.3033C62.4198 28.7591 62.5225 28.7866 62.612 28.8422C62.7014 28.8974 62.7716 28.972 62.8227 29.0659C62.8735 29.1603 62.8989 29.2647 62.8989 29.3804C62.8989 29.486 62.8719 29.5876 62.8187 29.6839ZM67.674 27.6005C67.5164 27.3095 67.2964 27.074 67.0132 26.8934C66.7303 26.7128 66.3971 26.6229 66.0143 26.6229C65.6368 26.6229 65.3015 26.7116 65.0086 26.8898C64.7161 27.0676 64.4868 27.3034 64.3224 27.5965C64.1576 27.89 64.0754 28.2145 64.0754 28.5705C64.0754 28.8349 64.1226 29.0849 64.2173 29.3207C64.3115 29.5565 64.4449 29.7642 64.6166 29.9448C64.7886 30.125 64.9921 30.2669 65.2266 30.3701C65.4615 30.4737 65.7218 30.5253 66.0075 30.5253C66.2641 30.5253 66.5023 30.4842 66.7227 30.4019C66.9431 30.3201 67.1341 30.206 67.2968 30.0609C67.4588 29.9153 67.5809 29.7509 67.6635 29.5666L67.1115 29.4142C67.0341 29.6033 66.8923 29.7557 66.6868 29.8722C66.4813 29.9887 66.2617 30.0464 66.0296 30.0464C65.8116 30.0464 65.6086 29.9927 65.4196 29.8847C65.2306 29.7771 65.0771 29.6283 64.9582 29.4392C64.8398 29.2498 64.7709 29.0333 64.7515 28.789H67.8964C67.9012 28.7648 67.9049 28.7297 67.9077 28.6842C67.9097 28.6386 67.9113 28.5918 67.9113 28.5435C67.9101 28.2056 67.8311 27.8916 67.674 27.6005ZM64.729 28.3447C64.7483 28.1004 64.8172 27.8851 64.9357 27.6981C65.0545 27.5114 65.2085 27.3655 65.397 27.2603C65.586 27.1547 65.7919 27.1019 66.0143 27.1019C66.242 27.1019 66.4503 27.1547 66.6393 27.2603C66.8282 27.3655 66.983 27.5114 67.1042 27.6981C67.2251 27.8851 67.2952 28.1004 67.3146 28.3447H64.729ZM71.229 26.6806V28.2355H69.2535V26.6806H68.6144V30.4519H69.2535V28.8023H71.229V30.4519H71.8681V26.6806H71.229ZM75.4884 28.3028C75.2583 28.0787 74.9207 27.9666 74.4754 27.9666H73.531V26.6806H72.8919V30.4519H74.5185C74.8091 30.4519 75.0512 30.3963 75.245 30.2858C75.4384 30.175 75.5855 30.023 75.6846 29.8303C75.7837 29.6376 75.8333 29.4211 75.8333 29.18C75.8333 28.8192 75.7185 28.5265 75.4884 28.3028ZM75.1068 29.569C75.0536 29.6843 74.9726 29.7767 74.8638 29.846C74.7547 29.9153 74.6104 29.95 74.4315 29.95H73.531V28.4677H74.417C74.6104 28.4677 74.7635 28.5011 74.8747 28.5685C74.9859 28.6358 75.0657 28.7245 75.1145 28.8349C75.1628 28.9454 75.187 29.0651 75.187 29.1949C75.187 29.3292 75.1604 29.4537 75.1068 29.569ZM77.9833 26.6806V27.2474H79.2904V30.4519H79.9295V27.2474H81.2366V26.6806H77.9833ZM85.3114 27.8271C85.2195 27.5917 85.0874 27.3836 84.9157 27.203C84.7437 27.0228 84.5414 26.8813 84.3093 26.7777C84.0772 26.6741 83.8202 26.6225 83.5397 26.6225C83.2536 26.6225 82.9937 26.6741 82.7588 26.7777C82.5239 26.8813 82.3221 27.0228 82.1524 27.203C81.9828 27.3836 81.8523 27.5917 81.7604 27.8271C81.6685 28.0625 81.6226 28.3129 81.6226 28.5773C81.6226 28.8369 81.6685 29.0845 81.7604 29.3203C81.8523 29.5561 81.9828 29.7638 82.1524 29.9444C82.3221 30.1246 82.5227 30.2665 82.7552 30.3697C82.9873 30.4733 83.2464 30.5249 83.5321 30.5249C83.8181 30.5249 84.078 30.4733 84.3129 30.3697C84.5478 30.2665 84.7497 30.1246 84.9193 29.9444C85.0886 29.7638 85.2195 29.5561 85.3114 29.3203C85.4033 29.0849 85.4492 28.8369 85.4492 28.5773C85.4492 28.3129 85.4033 28.0625 85.3114 27.8271ZM84.6248 29.2784C84.5112 29.4916 84.3585 29.6605 84.1671 29.7855C83.9761 29.9101 83.7642 29.9726 83.5317 29.9726C83.2996 29.9726 83.0888 29.9113 82.8999 29.7892C82.7109 29.667 82.5594 29.5001 82.4458 29.2893C82.3321 29.0784 82.2749 28.843 82.2749 28.5842C82.2749 28.3205 82.3317 28.0835 82.4458 27.8722C82.5594 27.6614 82.7109 27.4925 82.8999 27.3655C83.0884 27.2385 83.2992 27.1748 83.5317 27.1748C83.7642 27.1748 83.9761 27.2373 84.1671 27.3619C84.3585 27.4868 84.5108 27.6546 84.6248 27.8658C84.7384 28.0766 84.7956 28.3117 84.7956 28.5705C84.7956 28.8289 84.7388 29.0651 84.6248 29.2784ZM89.8323 27.8376C89.7428 27.6046 89.6179 27.3965 89.4583 27.2139C89.2984 27.0309 89.1098 26.887 88.8918 26.781C88.6738 26.6749 88.4341 26.6225 88.173 26.6225C87.8869 26.6225 87.6234 26.6935 87.3812 26.8354C87.1391 26.9773 86.9433 27.1635 86.793 27.3941V26.6806H86.2264V31.9999H86.8655V29.7097C87.0057 29.9452 87.1971 30.1399 87.4397 30.2939C87.6814 30.4479 87.9574 30.5245 88.2673 30.5245C88.6013 30.5245 88.8967 30.437 89.1533 30.2612C89.41 30.0859 89.6098 29.8492 89.7529 29.5509C89.8955 29.2526 89.9672 28.9256 89.9672 28.5701C89.9668 28.3149 89.9217 28.071 89.8323 27.8376ZM89.2258 29.0877C89.1678 29.2558 89.0844 29.4058 88.9752 29.5372C88.8664 29.669 88.7355 29.7746 88.5832 29.8537C88.4309 29.9327 88.26 29.9722 88.0711 29.9722C87.9018 29.9722 87.737 29.9327 87.5771 29.8537C87.4175 29.775 87.2769 29.6682 87.156 29.5344C87.0351 29.4005 86.938 29.2518 86.8655 29.0889V28.0146C86.8897 27.8997 86.9408 27.792 87.0178 27.6916C87.0956 27.5909 87.1898 27.5014 87.3011 27.4223C87.4123 27.3433 87.5295 27.2825 87.6532 27.2393C87.7765 27.1962 87.8966 27.1744 88.013 27.1744C88.1968 27.1744 88.3676 27.2115 88.5252 27.2857C88.6823 27.3603 88.8205 27.4623 88.9394 27.5913C89.0578 27.7211 89.1497 27.8694 89.2154 28.0375C89.281 28.2052 89.3133 28.3826 89.3133 28.5697C89.3129 28.7475 89.2839 28.92 89.2258 29.0877ZM90.7437 26.6806V30.4519H91.3827V27.2474H93.0823V26.6806H90.7437ZM93.7358 26.6588V30.4519H94.3749V26.6588H93.7358ZM93.7358 25.1475V25.9465H94.3749V25.1475H93.7358ZM98.3405 28.8486C98.2047 28.687 98.0286 28.5749 97.8107 28.512C97.9944 28.4302 98.135 28.3088 98.2317 28.148C98.3284 27.9867 98.3772 27.8053 98.3772 27.6034C98.3772 27.4449 98.3397 27.2958 98.2644 27.1567C98.1894 27.0176 98.077 26.9031 97.9267 26.8144C97.7768 26.7253 97.5878 26.681 97.3602 26.681H95.3991V30.4523H97.3239C97.5657 30.4523 97.7792 30.4124 97.963 30.3326C98.1467 30.2532 98.2897 30.1387 98.3913 29.9887C98.4932 29.8391 98.544 29.6577 98.544 29.4457C98.544 29.2094 98.4759 29.0099 98.3405 28.8486ZM96.0092 27.1309H97.2147C97.3795 27.1309 97.5137 27.1885 97.618 27.3034C97.722 27.4183 97.774 27.5546 97.774 27.7126C97.774 27.8178 97.7498 27.9186 97.7015 28.0141C97.6531 28.1101 97.5854 28.1879 97.4984 28.2476C97.4109 28.3072 97.3094 28.3371 97.1934 28.3371H96.0092V27.1309ZM97.8465 29.6839C97.7933 29.7803 97.7196 29.8573 97.6249 29.9149C97.5306 29.973 97.4251 30.0016 97.309 30.0016H96.0088V28.7591H97.3308C97.4472 28.7591 97.55 28.7866 97.6394 28.8422C97.7289 28.8974 97.799 28.972 97.8497 29.0659C97.9005 29.1603 97.9259 29.2647 97.9259 29.3804C97.9263 29.486 97.8997 29.5876 97.8465 29.6839ZM99.9458 26.6806L99.9023 27.7606C99.8877 28.1847 99.8575 28.5342 99.8112 28.8083C99.7649 29.0821 99.7036 29.2969 99.6263 29.4521C99.5485 29.6069 99.4602 29.7166 99.3611 29.7811C99.2616 29.8452 99.1492 29.8774 99.0235 29.8774V30.4519C99.2556 30.4519 99.4603 30.4088 99.6371 30.3229C99.814 30.237 99.9627 30.0963 100.084 29.9008C100.204 29.7053 100.299 29.4384 100.367 29.0998C100.435 28.7612 100.478 28.3367 100.497 27.8263L100.512 27.247H101.885V30.4225H102.524V26.6806H99.9458ZM103.555 26.6588V30.4519H104.194V26.6588H103.555ZM103.555 25.1475V25.9465H104.194V25.1475H103.555Z" fill="url(#paint16_linear_398_136)"/>
<path d="M33.5995 6.46423V10.7508L33.5793 10.7415L32.8774 10.425L31.0449 9.59901V6.46423H33.5995Z" fill="black"/>
<path d="M43.4809 6.46423V15.2066L41.4163 14.2754L41.0899 14.1282L40.9268 14.0544V6.46423H43.4809Z" fill="black"/>
<path d="M46.8409 9.69257V22.0446H49.3951V9.69257H46.8409ZM49.2831 5.25366C48.9692 4.94002 48.5884 4.7832 48.1404 4.7832C47.677 4.7832 47.289 4.94002 46.9751 5.25366C46.6616 5.5677 46.5049 5.95632 46.5049 6.41953C46.5049 6.88313 46.6616 7.27135 46.9751 7.58539C47.289 7.89903 47.677 8.05585 48.1404 8.05585C48.5884 8.05585 48.9692 7.89903 49.2831 7.58539C49.5966 7.27135 49.7537 6.88313 49.7537 6.41953C49.7537 5.95632 49.5966 5.5677 49.2831 5.25366Z" fill="black"/>
<path d="M51.9492 6.46423V8.54924H56.1167V22.0446H58.6713V8.54924H62.8162V6.46423H51.9492Z" fill="black"/>
<path d="M69.4378 10.0175C68.8176 10.369 68.3212 10.858 67.9477 11.4861V9.69257H65.3936V22.0446H67.9477V15.5437C67.9477 14.2883 68.2056 13.4066 68.7209 12.8983C69.2363 12.3903 69.9942 12.136 70.9951 12.136H71.645V9.4906C70.7936 9.4906 70.0575 9.66677 69.4378 10.0175Z" fill="black"/>
<path d="M83.2506 9.69257V11.4861C82.8174 10.9181 82.2384 10.4436 81.5143 10.0622C80.7895 9.68128 79.9417 9.4906 78.9711 9.4906C77.8956 9.4906 76.9133 9.75627 76.0248 10.2864C75.1356 10.8173 74.4337 11.5607 73.9183 12.5173C73.403 13.4736 73.1455 14.5721 73.1455 15.8126C73.1455 17.0534 73.403 18.1628 73.9183 19.1416C74.4337 20.1204 75.132 20.8828 76.0136 21.4282C76.8948 21.9741 77.8654 22.2466 78.9263 22.2466C79.8821 22.2466 80.7335 22.0519 81.4805 21.6636C82.2275 21.275 82.8174 20.7892 83.2506 20.2063V22.0446H85.8273V9.69257H83.2506ZM82.7239 18.0878C82.373 18.7232 81.9136 19.2053 81.3463 19.5339C80.7782 19.8628 80.1661 20.0269 79.509 20.0269C78.8663 20.0269 78.2575 19.8588 77.6829 19.5226C77.1075 19.1864 76.6441 18.697 76.2936 18.0544C75.9422 17.4118 75.767 16.6644 75.767 15.8126C75.767 14.9607 75.9422 14.2246 76.2936 13.6046C76.6441 12.9846 77.1035 12.5137 77.6716 12.192C78.2389 11.8707 78.8514 11.7103 79.509 11.7103C80.1661 11.7103 80.7782 11.8747 81.3463 12.2033C81.9136 12.5322 82.373 13.0104 82.7239 13.638C83.0749 14.2657 83.2506 15.0055 83.2506 15.8573C83.2506 16.7091 83.0749 17.4529 82.7239 18.0878Z" fill="black"/>
<path d="M98.4424 5.45569V11.4189C97.979 10.8359 97.3557 10.3691 96.5712 10.0176C95.7871 9.66683 94.9917 9.49066 94.185 9.49066C93.0943 9.49066 92.1047 9.75633 91.2162 10.2864C90.3274 10.8174 89.6255 11.5608 89.1101 12.5174C88.5948 13.4736 88.3369 14.5722 88.3369 15.8126C88.3369 17.0535 88.5948 18.1629 89.1101 19.1417C89.6255 20.1205 90.3274 20.8828 91.2162 21.4283C92.1047 21.9741 93.087 22.2466 94.1625 22.2466C95.1182 22.2466 95.9664 22.0519 96.7057 21.6637C97.4451 21.2751 98.0237 20.782 98.4424 20.1842V22.0447H101.019V5.45569H98.4424ZM97.9157 18.0879C97.5644 18.7232 97.105 19.2054 96.5377 19.5339C95.97 19.8629 95.3575 20.027 94.7004 20.027C94.0581 20.027 93.4493 19.8589 92.8743 19.5227C92.2989 19.1864 91.8359 18.697 91.485 18.0544C91.134 17.4118 90.9584 16.6644 90.9584 15.8126C90.9584 14.9608 91.134 14.2247 91.485 13.6046C91.8359 12.9846 92.2953 12.5138 92.863 12.1921C93.4307 11.8708 94.0428 11.7103 94.7004 11.7103C95.3575 11.7103 95.97 11.8748 96.5377 12.2034C97.105 12.5323 97.5644 13.0104 97.9157 13.6381C98.2667 14.2658 98.4424 15.0055 98.4424 15.8574C98.4424 16.7092 98.2667 17.453 97.9157 18.0879Z" fill="black"/>
<path d="M104.38 9.69257V22.0446H106.935V9.69257H104.38ZM106.823 5.25366C106.509 4.94002 106.128 4.7832 105.68 4.7832C105.216 4.7832 104.828 4.94002 104.515 5.25366C104.201 5.5677 104.044 5.95632 104.044 6.41953C104.044 6.88313 104.201 7.27135 104.515 7.58539C104.828 7.89903 105.216 8.05585 105.68 8.05585C106.128 8.05585 106.509 7.89903 106.823 7.58539C107.136 7.27135 107.293 6.88313 107.293 6.41953C107.293 5.95632 107.136 5.5677 106.823 5.25366Z" fill="black"/>
<path d="M120.938 11.8893C120.504 11.0975 119.903 10.4996 119.134 10.0961C118.365 9.69257 117.494 9.4906 116.524 9.4906C115.792 9.4906 115.101 9.63291 114.451 9.91671C113.802 10.2009 113.267 10.5968 112.849 11.1048V9.69257H110.295V22.0446H112.849V15.1401C112.849 14.0343 113.129 13.1861 113.689 12.5955C114.25 12.0054 115.008 11.7103 115.964 11.7103C116.919 11.7103 117.674 12.0054 118.227 12.5955C118.779 13.1861 119.056 14.0343 119.056 15.1401V22.0446H121.588V14.7588C121.588 13.638 121.371 12.6818 120.938 11.8893Z" fill="black"/>
<path d="M134.09 9.69257V11.4861C133.672 10.9181 133.094 10.4436 132.354 10.0622C131.615 9.68128 130.767 9.4906 129.811 9.4906C128.735 9.4906 127.753 9.75627 126.865 10.2864C125.976 10.8173 125.274 11.5607 124.758 12.5173C124.243 13.4736 123.985 14.5721 123.985 15.8126C123.985 17.0534 124.243 18.1628 124.758 19.1416C125.274 20.1204 125.976 20.8828 126.865 21.4282C127.753 21.9741 128.735 22.2466 129.811 22.2466C130.752 22.2466 131.592 22.0482 132.332 21.6524C133.071 21.2565 133.657 20.7667 134.09 20.1841V22.2466C134.09 23.4419 133.773 24.3538 133.138 24.9814C132.503 25.6091 131.671 25.9232 130.64 25.9232C129.759 25.9232 129.001 25.7248 128.366 25.3289C127.731 24.9327 127.316 24.4134 127.122 23.7708H124.59C124.74 25.1161 125.367 26.1808 126.472 26.9653C127.578 27.7502 128.967 28.1424 130.64 28.1424C131.895 28.1424 132.974 27.888 133.878 27.3801C134.781 26.8717 135.472 26.1731 135.95 25.2842C136.428 24.3949 136.667 23.3822 136.667 22.2466V9.69257H134.09ZM133.564 18.0878C133.213 18.7232 132.753 19.2053 132.186 19.5339C131.618 19.8628 131.006 20.0269 130.349 20.0269C129.706 20.0269 129.097 19.8588 128.523 19.5226C127.947 19.1864 127.484 18.697 127.133 18.0544C126.782 17.4118 126.607 16.6644 126.607 15.8126C126.607 14.9607 126.782 14.2246 127.133 13.6046C127.484 12.9846 127.944 12.5137 128.511 12.192C129.079 11.8707 129.691 11.7103 130.349 11.7103C131.006 11.7103 131.618 11.8747 132.186 12.2033C132.753 12.5322 133.213 13.0104 133.564 13.638C133.915 14.2657 134.09 15.0055 134.09 15.8573C134.09 16.7091 133.915 17.4529 133.564 18.0878Z" fill="black"/>
<path d="M43.4805 16.5773V18.1753L40.9263 17.0236L40.9026 17.0127L40.5758 16.8651L36.9486 15.2296L35.5247 14.5874L33.5995 13.7195L33.066 13.4788L31.0449 12.5673L29.847 12.0271L29.6927 11.9574L24.3599 9.55269L23.4924 9.16165L22.6253 8.77061L17.7732 6.5824L16.1442 10.1659L13.4353 8.92219L12.8208 8.64L11.0758 7.83897L8.15935 14.069L5.36423 12.7624L5.2091 13.0829L4.59504 14.3528L4.59464 14.3536L4.2449 15.0764L3.73358 14.8289L3.11951 14.5314H3.11911L2.93457 14.4423L3.11911 14.0613L3.11951 14.0605L3.73358 12.7899L4.59464 11.01L4.59504 11.0092L4.67925 10.8343L5.2091 11.0822L7.45825 12.1332L10.3698 5.91239L12.8208 7.03794L13.4353 7.31973L15.4238 8.23283L17.0488 4.65784L22.6253 7.17259L23.4924 7.56363L24.3599 7.95507L29.6927 10.3598L29.847 10.4295L31.0449 10.9697L32.3641 11.5643L33.066 11.8808L33.5995 12.1215L33.776 12.2009L35.8696 13.145L39.0684 14.5874L40.4928 15.2296L40.5758 15.2671L40.9026 15.4147L40.9263 15.4256L43.4805 16.5773Z" fill="url(#paint17_linear_398_136)"/>
<path d="M33.5995 15.0905V22.0446H31.0449V13.9384L32.5527 14.6184L33.5995 15.0905Z" fill="black"/>
<path d="M43.4809 19.5463V22.0445H40.9268V18.3942L43.0848 19.3677L43.4809 19.5463Z" fill="black"/>
</g>
<defs>
<linearGradient id="paint0_linear_398_136" x1="14.9198" y1="1.02152" x2="19.3585" y2="1.02152" gradientUnits="userSpaceOnUse">
<stop stop-color="#333333"/>
<stop offset="0.3152" stop-color="#222222"/>
<stop offset="0.9924"/>
</linearGradient>
<linearGradient id="paint1_linear_398_136" x1="4.59478" y1="0.792171" x2="11.6007" y2="0.792171" gradientUnits="userSpaceOnUse">
<stop stop-color="#333333"/>
<stop offset="0.3152" stop-color="#222222"/>
<stop offset="0.9924"/>
</linearGradient>
<linearGradient id="paint2_linear_398_136" x1="18.8441" y1="2.80408" x2="3.84921" y2="32.6928" gradientUnits="userSpaceOnUse">
<stop stop-color="#1A1A1A"/>
<stop offset="0.9924"/>
</linearGradient>
<linearGradient id="paint3_linear_398_136" x1="0.0116163" y1="1.6157" x2="25.9628" y2="32.4786" gradientUnits="userSpaceOnUse">
<stop stop-color="#333333"/>
<stop offset="0.3152" stop-color="#222222"/>
<stop offset="0.9924"/>
</linearGradient>
<linearGradient id="paint4_linear_398_136" x1="8.27746" y1="26.9689" x2="8.27746" y2="15.378" gradientUnits="userSpaceOnUse">
<stop offset="0.0232" stop-color="#36D8AE"/>
<stop offset="0.9924" stop-color="#6BFFEC"/>
</linearGradient>
<linearGradient id="paint5_linear_398_136" x1="16.0822" y1="26.9536" x2="16.0822" y2="11.2772" gradientUnits="userSpaceOnUse">
<stop offset="0.0232" stop-color="#36D8AE"/>
<stop offset="0.9924" stop-color="#6BFFEC"/>
</linearGradient>
<linearGradient id="paint6_linear_398_136" x1="2.77805" y1="24.3922" x2="6.7614" y2="24.5406" gradientUnits="userSpaceOnUse">
<stop offset="0.0232" stop-color="#36D8AE"/>
<stop offset="0.9924" stop-color="#6BFFEC"/>
</linearGradient>
<linearGradient id="paint7_linear_398_136" x1="9.92809" y1="24.3795" x2="14.6178" y2="24.5543" gradientUnits="userSpaceOnUse">
<stop offset="0.0232" stop-color="#36D8AE"/>
<stop offset="0.9924" stop-color="#6BFFEC"/>
</linearGradient>
<linearGradient id="paint8_linear_398_136" x1="17.7565" y1="24.3922" x2="21.7399" y2="24.5406" gradientUnits="userSpaceOnUse">
<stop offset="0.0232" stop-color="#36D8AE"/>
<stop offset="0.9924" stop-color="#6BFFEC"/>
</linearGradient>
<linearGradient id="paint9_linear_398_136" x1="4.902" y1="23.6386" x2="4.902" y2="9.28675" gradientUnits="userSpaceOnUse">
<stop offset="0.00302028" stop-opacity="0"/>
<stop offset="0.3902" stop-color="#071E14" stop-opacity="0.3913"/>
<stop offset="0.7529" stop-color="#0B3223" stop-opacity="0.7579"/>
<stop offset="0.9924" stop-color="#0D3A28"/>
</linearGradient>
<linearGradient id="paint10_linear_398_136" x1="3.4264" y1="23.6386" x2="3.4264" y2="11.5605" gradientUnits="userSpaceOnUse">
<stop offset="0.00302028" stop-opacity="0"/>
<stop offset="0.3902" stop-color="#071E14" stop-opacity="0.3913"/>
<stop offset="0.7529" stop-color="#0B3223" stop-opacity="0.7579"/>
<stop offset="0.9924" stop-color="#0D3A28"/>
</linearGradient>
<linearGradient id="paint11_linear_398_136" x1="11.6003" y1="23.6386" x2="11.6003" y2="9.28675" gradientUnits="userSpaceOnUse">
<stop offset="0.00302028" stop-opacity="0"/>
<stop offset="0.3902" stop-color="#071E14" stop-opacity="0.3913"/>
<stop offset="0.7529" stop-color="#0B3223" stop-opacity="0.7579"/>
<stop offset="0.9924" stop-color="#0D3A28"/>
</linearGradient>
<linearGradient id="paint12_linear_398_136" x1="13.1277" y1="23.6386" x2="13.1277" y2="5.0016" gradientUnits="userSpaceOnUse">
<stop offset="0.00302028" stop-opacity="0"/>
<stop offset="0.3902" stop-color="#071E14" stop-opacity="0.3913"/>
<stop offset="0.7529" stop-color="#0B3223" stop-opacity="0.7579"/>
<stop offset="0.9924" stop-color="#0D3A28"/>
</linearGradient>
<linearGradient id="paint13_linear_398_136" x1="4.40923" y1="23.7941" x2="4.40923" y2="16.8781" gradientUnits="userSpaceOnUse">
<stop offset="0.0232" stop-color="#094239" stop-opacity="0"/>
<stop offset="0.3986" stop-color="#1B8765" stop-opacity="0.3873"/>
<stop offset="0.9924" stop-color="#38FCB0"/>
</linearGradient>
<linearGradient id="paint14_linear_398_136" x1="12.056" y1="23.3577" x2="12.056" y2="14.3201" gradientUnits="userSpaceOnUse">
<stop offset="0.0232" stop-color="#094239" stop-opacity="0"/>
<stop offset="0.3986" stop-color="#1B8765" stop-opacity="0.3873"/>
<stop offset="0.9924" stop-color="#38FCB0"/>
</linearGradient>
<linearGradient id="paint15_linear_398_136" x1="19.6712" y1="22.6155" x2="19.6712" y2="9.58846" gradientUnits="userSpaceOnUse">
<stop offset="0.0232" stop-color="#094239" stop-opacity="0"/>
<stop offset="0.3986" stop-color="#1B8765" stop-opacity="0.3873"/>
<stop offset="0.9924" stop-color="#38FCB0"/>
</linearGradient>
<linearGradient id="paint16_linear_398_136" x1="29.9076" y1="31.7184" x2="106.769" y2="25.432" gradientUnits="userSpaceOnUse">
<stop stop-color="#369FAE"/>
<stop offset="0.9886" stop-color="#6BE4CA"/>
<stop offset="0.9924" stop-color="#6BE4CA"/>
</linearGradient>
<linearGradient id="paint17_linear_398_136" x1="42.5331" y1="20.913" x2="5.16986" y2="7.98303" gradientUnits="userSpaceOnUse">
<stop stop-color="#369FAE"/>
<stop offset="0.9886" stop-color="#6BE4CA"/>
<stop offset="0.9924" stop-color="#6BE4CA"/>
</linearGradient>
<clipPath id="clip0_398_136">
<rect width="136.667" height="32" fill="white"/>
</clipPath>
</defs>
</svg>
