<svg width="381" height="295" viewBox="0 0 381 295" fill="none" xmlns="http://www.w3.org/2000/svg">
<g opacity="0.68" filter="url(#filter0_f_97_325)">
<path d="M40 126.5C40 126.5 86.3375 150.388 106 133.5C118.847 122.466 108.393 103.724 121.5 93C141.626 76.532 163.277 115.653 187 105C206.139 96.4052 200.213 68.3499 220.5 63C241.474 57.4689 250.162 88.8972 271.5 85C295.316 80.6501 288.606 34.5992 312.5 38.5C324.045 40.3848 326.805 59.7397 337.5 55C347.042 50.7712 345.5 29.5 345.5 29.5" stroke="url(#paint0_linear_97_325)" stroke-width="2" stroke-linecap="round"/>
</g>
<path opacity="0.5" d="M40 126.5C40 126.5 86.3375 150.388 106 133.5C118.847 122.466 108.393 103.724 121.5 93C141.626 76.532 163.277 115.653 187 105C206.139 96.4052 200.213 68.3499 220.5 63C241.474 57.4689 250.162 88.8972 271.5 85C295.316 80.6501 288.606 34.5992 312.5 38.5C324.045 40.3848 326.805 59.7397 337.5 55C347.042 50.7712 345.5 29.5 345.5 29.5" stroke="#38A2AF" stroke-width="2" stroke-linecap="round"/>
<path d="M73.9521 161.769H73.4248V158.408C73.2979 158.529 73.1309 158.65 72.9238 158.771C72.7188 158.893 72.5342 158.983 72.3701 159.044V158.534C72.665 158.396 72.9229 158.228 73.1436 158.03C73.3643 157.833 73.5205 157.642 73.6123 157.456H73.9521V161.769Z" fill="white"/>
<path d="M99.7373 161.262V161.769H96.8984C96.8945 161.642 96.915 161.52 96.96 161.402C97.0322 161.209 97.1475 161.019 97.3057 160.831C97.4658 160.644 97.6963 160.427 97.9971 160.181C98.4639 159.798 98.7793 159.495 98.9434 159.272C99.1074 159.048 99.1895 158.836 99.1895 158.637C99.1895 158.428 99.1143 158.252 98.9639 158.109C98.8154 157.965 98.6211 157.893 98.3809 157.893C98.127 157.893 97.9238 157.969 97.7715 158.121C97.6191 158.273 97.542 158.484 97.54 158.754L96.998 158.698C97.0352 158.294 97.1748 157.986 97.417 157.775C97.6592 157.562 97.9844 157.456 98.3926 157.456C98.8047 157.456 99.1309 157.57 99.3711 157.799C99.6113 158.027 99.7314 158.311 99.7314 158.648C99.7314 158.82 99.6963 158.989 99.626 159.155C99.5557 159.321 99.4385 159.496 99.2744 159.68C99.1123 159.863 98.8418 160.115 98.4629 160.436C98.1465 160.701 97.9434 160.882 97.8535 160.978C97.7637 161.071 97.6895 161.166 97.6309 161.262H99.7373Z" fill="white"/>
<path d="M121.969 160.635L122.496 160.564C122.557 160.863 122.659 161.079 122.804 161.212C122.95 161.343 123.128 161.408 123.337 161.408C123.585 161.408 123.794 161.322 123.964 161.15C124.136 160.979 124.222 160.766 124.222 160.512C124.222 160.27 124.143 160.07 123.984 159.914C123.826 159.756 123.625 159.677 123.381 159.677C123.281 159.677 123.157 159.696 123.009 159.735L123.067 159.272C123.103 159.276 123.131 159.278 123.152 159.278C123.377 159.278 123.579 159.22 123.759 159.103C123.938 158.985 124.028 158.805 124.028 158.561C124.028 158.367 123.963 158.207 123.832 158.08C123.701 157.953 123.532 157.89 123.325 157.89C123.12 157.89 122.949 157.954 122.812 158.083C122.676 158.212 122.588 158.405 122.549 158.663L122.021 158.569C122.086 158.216 122.232 157.942 122.461 157.749C122.689 157.554 122.974 157.456 123.313 157.456C123.548 157.456 123.764 157.507 123.961 157.608C124.158 157.708 124.309 157.845 124.412 158.019C124.518 158.192 124.57 158.377 124.57 158.572C124.57 158.758 124.521 158.927 124.421 159.079C124.321 159.231 124.174 159.353 123.979 159.442C124.232 159.501 124.43 159.623 124.57 159.809C124.711 159.992 124.781 160.223 124.781 160.5C124.781 160.875 124.645 161.193 124.371 161.455C124.098 161.715 123.752 161.845 123.334 161.845C122.957 161.845 122.644 161.732 122.394 161.508C122.146 161.283 122.004 160.992 121.969 160.635Z" fill="white"/>
<path d="M148.656 161.769V160.74H146.793V160.257L148.753 157.474H149.184V160.257H149.764V160.74H149.184V161.769H148.656ZM148.656 160.257V158.32L147.312 160.257H148.656Z" fill="white"/>
<path d="M171.966 160.644L172.52 160.597C172.561 160.866 172.655 161.069 172.804 161.206C172.954 161.341 173.135 161.408 173.346 161.408C173.6 161.408 173.814 161.312 173.99 161.121C174.166 160.93 174.254 160.676 174.254 160.359C174.254 160.059 174.169 159.821 173.999 159.647C173.831 159.474 173.61 159.387 173.337 159.387C173.167 159.387 173.014 159.426 172.877 159.504C172.74 159.58 172.633 159.68 172.555 159.803L172.06 159.738L172.476 157.532H174.611V158.036H172.897L172.666 159.19C172.924 159.011 173.194 158.921 173.478 158.921C173.853 158.921 174.169 159.051 174.427 159.311C174.685 159.57 174.813 159.904 174.813 160.312C174.813 160.701 174.7 161.037 174.474 161.32C174.198 161.668 173.822 161.842 173.346 161.842C172.955 161.842 172.636 161.732 172.388 161.514C172.142 161.295 172.001 161.005 171.966 160.644Z" fill="white"/>
<path d="M199.702 158.525L199.178 158.566C199.131 158.359 199.064 158.209 198.979 158.115C198.836 157.965 198.66 157.89 198.451 157.89C198.283 157.89 198.136 157.937 198.009 158.03C197.843 158.151 197.712 158.328 197.616 158.561C197.521 158.793 197.471 159.124 197.467 159.554C197.594 159.36 197.749 159.217 197.933 159.123C198.116 159.029 198.309 158.982 198.51 158.982C198.861 158.982 199.16 159.112 199.406 159.372C199.654 159.63 199.778 159.964 199.778 160.374C199.778 160.644 199.72 160.895 199.603 161.127C199.487 161.357 199.328 161.534 199.125 161.657C198.922 161.78 198.691 161.842 198.434 161.842C197.994 161.842 197.636 161.681 197.358 161.358C197.081 161.034 196.942 160.501 196.942 159.759C196.942 158.929 197.096 158.325 197.402 157.948C197.67 157.62 198.03 157.456 198.483 157.456C198.821 157.456 199.098 157.551 199.312 157.74C199.529 157.93 199.659 158.191 199.702 158.525ZM197.549 160.377C197.549 160.559 197.587 160.732 197.663 160.898C197.741 161.064 197.85 161.191 197.988 161.279C198.127 161.365 198.272 161.408 198.425 161.408C198.647 161.408 198.839 161.318 198.999 161.139C199.159 160.959 199.239 160.715 199.239 160.406C199.239 160.109 199.16 159.876 199.002 159.706C198.844 159.534 198.645 159.448 198.404 159.448C198.166 159.448 197.964 159.534 197.798 159.706C197.632 159.876 197.549 160.1 197.549 160.377Z" fill="white"/>
<path d="M222.001 158.036V157.529H224.781V157.939C224.508 158.23 224.236 158.617 223.967 159.1C223.699 159.582 223.492 160.078 223.346 160.588C223.24 160.947 223.173 161.341 223.144 161.769H222.602C222.607 161.431 222.674 161.022 222.801 160.544C222.928 160.065 223.109 159.604 223.346 159.161C223.584 158.716 223.837 158.341 224.104 158.036H222.001Z" fill="white"/>
<path d="M11.3594 30H10.832V26.6396C10.7051 26.7607 10.5381 26.8818 10.3311 27.0029C10.126 27.124 9.94141 27.2148 9.77734 27.2754V26.7656C10.0723 26.627 10.3301 26.459 10.5508 26.2617C10.7715 26.0645 10.9277 25.873 11.0195 25.6875H11.3594V30ZM12.7129 27.8818C12.7129 27.374 12.7646 26.9658 12.8682 26.6572C12.9736 26.3467 13.1289 26.1074 13.334 25.9395C13.541 25.7715 13.8008 25.6875 14.1133 25.6875C14.3438 25.6875 14.5459 25.7344 14.7197 25.8281C14.8936 25.9199 15.0371 26.0537 15.1504 26.2295C15.2637 26.4033 15.3525 26.6162 15.417 26.8682C15.4814 27.1182 15.5137 27.4561 15.5137 27.8818C15.5137 28.3857 15.4619 28.793 15.3584 29.1035C15.2549 29.4121 15.0996 29.6514 14.8926 29.8213C14.6875 29.9893 14.4277 30.0732 14.1133 30.0732C13.6992 30.0732 13.374 29.9248 13.1377 29.6279C12.8545 29.2705 12.7129 28.6885 12.7129 27.8818ZM13.2549 27.8818C13.2549 28.5869 13.3369 29.0566 13.501 29.291C13.667 29.5234 13.8711 29.6396 14.1133 29.6396C14.3555 29.6396 14.5586 29.5225 14.7227 29.2881C14.8887 29.0537 14.9717 28.585 14.9717 27.8818C14.9717 27.1748 14.8887 26.7051 14.7227 26.4727C14.5586 26.2402 14.3535 26.124 14.1074 26.124C13.8652 26.124 13.6719 26.2266 13.5273 26.4316C13.3457 26.6934 13.2549 27.1768 13.2549 27.8818ZM16.0527 27.8818C16.0527 27.374 16.1045 26.9658 16.208 26.6572C16.3135 26.3467 16.4688 26.1074 16.6738 25.9395C16.8809 25.7715 17.1406 25.6875 17.4531 25.6875C17.6836 25.6875 17.8857 25.7344 18.0596 25.8281C18.2334 25.9199 18.377 26.0537 18.4902 26.2295C18.6035 26.4033 18.6924 26.6162 18.7568 26.8682C18.8213 27.1182 18.8535 27.4561 18.8535 27.8818C18.8535 28.3857 18.8018 28.793 18.6982 29.1035C18.5947 29.4121 18.4395 29.6514 18.2324 29.8213C18.0273 29.9893 17.7676 30.0732 17.4531 30.0732C17.0391 30.0732 16.7139 29.9248 16.4775 29.6279C16.1943 29.2705 16.0527 28.6885 16.0527 27.8818ZM16.5947 27.8818C16.5947 28.5869 16.6768 29.0566 16.8408 29.291C17.0068 29.5234 17.2109 29.6396 17.4531 29.6396C17.6953 29.6396 17.8984 29.5225 18.0625 29.2881C18.2285 29.0537 18.3115 28.585 18.3115 27.8818C18.3115 27.1748 18.2285 26.7051 18.0625 26.4727C17.8984 26.2402 17.6934 26.124 17.4473 26.124C17.2051 26.124 17.0117 26.2266 16.8672 26.4316C16.6855 26.6934 16.5947 27.1768 16.5947 27.8818Z" fill="white"/>
<path d="M13.4521 41.0068L13.959 40.96C14.002 41.1982 14.084 41.3711 14.2051 41.4785C14.3262 41.5859 14.4814 41.6396 14.6709 41.6396C14.833 41.6396 14.9746 41.6025 15.0957 41.5283C15.2188 41.4541 15.3193 41.3555 15.3975 41.2324C15.4756 41.1074 15.541 40.9395 15.5938 40.7285C15.6465 40.5176 15.6729 40.3027 15.6729 40.084C15.6729 40.0605 15.6719 40.0254 15.6699 39.9785C15.5645 40.1465 15.4199 40.2832 15.2363 40.3887C15.0547 40.4922 14.8574 40.5439 14.6445 40.5439C14.2891 40.5439 13.9883 40.415 13.7422 40.1572C13.4961 39.8994 13.373 39.5596 13.373 39.1377C13.373 38.7021 13.501 38.3516 13.7568 38.0859C14.0146 37.8203 14.3369 37.6875 14.7236 37.6875C15.0029 37.6875 15.2578 37.7627 15.4883 37.9131C15.7207 38.0635 15.8965 38.2783 16.0156 38.5576C16.1367 38.835 16.1973 39.2373 16.1973 39.7646C16.1973 40.3135 16.1377 40.751 16.0186 41.0771C15.8994 41.4014 15.7217 41.6484 15.4854 41.8184C15.251 41.9883 14.9756 42.0732 14.6592 42.0732C14.3232 42.0732 14.0488 41.9805 13.8359 41.7949C13.623 41.6074 13.4951 41.3447 13.4521 41.0068ZM15.6113 39.1113C15.6113 38.8086 15.5303 38.5684 15.3682 38.3906C15.208 38.2129 15.0146 38.124 14.7881 38.124C14.5537 38.124 14.3496 38.2197 14.1758 38.4111C14.002 38.6025 13.915 38.8506 13.915 39.1553C13.915 39.4287 13.9971 39.6514 14.1611 39.8232C14.3271 39.9932 14.5312 40.0781 14.7734 40.0781C15.0176 40.0781 15.2178 39.9932 15.374 39.8232C15.5322 39.6514 15.6113 39.4141 15.6113 39.1113ZM16.7129 39.8818C16.7129 39.374 16.7646 38.9658 16.8682 38.6572C16.9736 38.3467 17.1289 38.1074 17.334 37.9395C17.541 37.7715 17.8008 37.6875 18.1133 37.6875C18.3438 37.6875 18.5459 37.7344 18.7197 37.8281C18.8936 37.9199 19.0371 38.0537 19.1504 38.2295C19.2637 38.4033 19.3525 38.6162 19.417 38.8682C19.4814 39.1182 19.5137 39.4561 19.5137 39.8818C19.5137 40.3857 19.4619 40.793 19.3584 41.1035C19.2549 41.4121 19.0996 41.6514 18.8926 41.8213C18.6875 41.9893 18.4277 42.0732 18.1133 42.0732C17.6992 42.0732 17.374 41.9248 17.1377 41.6279C16.8545 41.2705 16.7129 40.6885 16.7129 39.8818ZM17.2549 39.8818C17.2549 40.5869 17.3369 41.0566 17.501 41.291C17.667 41.5234 17.8711 41.6396 18.1133 41.6396C18.3555 41.6396 18.5586 41.5225 18.7227 41.2881C18.8887 41.0537 18.9717 40.585 18.9717 39.8818C18.9717 39.1748 18.8887 38.7051 18.7227 38.4727C18.5586 38.2402 18.3535 38.124 18.1074 38.124C17.8652 38.124 17.6719 38.2266 17.5273 38.4316C17.3457 38.6934 17.2549 39.1768 17.2549 39.8818Z" fill="white"/>
<path d="M14.1846 51.6709C13.9658 51.5908 13.8037 51.4766 13.6982 51.3281C13.5928 51.1797 13.54 51.002 13.54 50.7949C13.54 50.4824 13.6523 50.2197 13.877 50.0068C14.1016 49.7939 14.4004 49.6875 14.7734 49.6875C15.1484 49.6875 15.4502 49.7969 15.6787 50.0156C15.9072 50.2324 16.0215 50.4971 16.0215 50.8096C16.0215 51.0088 15.9688 51.1826 15.8633 51.3311C15.7598 51.4775 15.6016 51.5908 15.3887 51.6709C15.6523 51.7568 15.8525 51.8955 15.9893 52.0869C16.1279 52.2783 16.1973 52.5068 16.1973 52.7725C16.1973 53.1396 16.0674 53.4482 15.8076 53.6982C15.5479 53.9482 15.2061 54.0732 14.7822 54.0732C14.3584 54.0732 14.0166 53.9482 13.7568 53.6982C13.4971 53.4463 13.3672 53.1328 13.3672 52.7578C13.3672 52.4785 13.4375 52.2451 13.5781 52.0576C13.7207 51.8682 13.9229 51.7393 14.1846 51.6709ZM14.0791 50.7773C14.0791 50.9805 14.1445 51.1465 14.2754 51.2754C14.4062 51.4043 14.5762 51.4688 14.7852 51.4688C14.9883 51.4688 15.1543 51.4053 15.2832 51.2783C15.4141 51.1494 15.4795 50.9922 15.4795 50.8066C15.4795 50.6133 15.4121 50.4512 15.2773 50.3203C15.1445 50.1875 14.9785 50.1211 14.7793 50.1211C14.5781 50.1211 14.4111 50.1855 14.2783 50.3145C14.1455 50.4434 14.0791 50.5977 14.0791 50.7773ZM13.9092 52.7607C13.9092 52.9111 13.9443 53.0566 14.0146 53.1973C14.0869 53.3379 14.1934 53.4473 14.334 53.5254C14.4746 53.6016 14.626 53.6396 14.7881 53.6396C15.04 53.6396 15.248 53.5586 15.4121 53.3965C15.5762 53.2344 15.6582 53.0283 15.6582 52.7783C15.6582 52.5244 15.5732 52.3145 15.4033 52.1484C15.2354 51.9824 15.0244 51.8994 14.7705 51.8994C14.5225 51.8994 14.3164 51.9814 14.1523 52.1455C13.9902 52.3096 13.9092 52.5146 13.9092 52.7607ZM16.7129 51.8818C16.7129 51.374 16.7646 50.9658 16.8682 50.6572C16.9736 50.3467 17.1289 50.1074 17.334 49.9395C17.541 49.7715 17.8008 49.6875 18.1133 49.6875C18.3438 49.6875 18.5459 49.7344 18.7197 49.8281C18.8936 49.9199 19.0371 50.0537 19.1504 50.2295C19.2637 50.4033 19.3525 50.6162 19.417 50.8682C19.4814 51.1182 19.5137 51.4561 19.5137 51.8818C19.5137 52.3857 19.4619 52.793 19.3584 53.1035C19.2549 53.4121 19.0996 53.6514 18.8926 53.8213C18.6875 53.9893 18.4277 54.0732 18.1133 54.0732C17.6992 54.0732 17.374 53.9248 17.1377 53.6279C16.8545 53.2705 16.7129 52.6885 16.7129 51.8818ZM17.2549 51.8818C17.2549 52.5869 17.3369 53.0566 17.501 53.291C17.667 53.5234 17.8711 53.6396 18.1133 53.6396C18.3555 53.6396 18.5586 53.5225 18.7227 53.2881C18.8887 53.0537 18.9717 52.585 18.9717 51.8818C18.9717 51.1748 18.8887 50.7051 18.7227 50.4727C18.5586 50.2402 18.3535 50.124 18.1074 50.124C17.8652 50.124 17.6719 50.2266 17.5273 50.4316C17.3457 50.6934 17.2549 51.1768 17.2549 51.8818Z" fill="white"/>
<path d="M13.4082 62.2676V61.7607H16.1885V62.1709C15.915 62.4619 15.6436 62.8486 15.374 63.3311C15.1064 63.8135 14.8994 64.3096 14.7529 64.8193C14.6475 65.1787 14.5801 65.5723 14.5508 66H14.0088C14.0146 65.6621 14.0811 65.2539 14.208 64.7754C14.335 64.2969 14.5166 63.8359 14.7529 63.3926C14.9912 62.9473 15.2441 62.5723 15.5117 62.2676H13.4082ZM16.7129 63.8818C16.7129 63.374 16.7646 62.9658 16.8682 62.6572C16.9736 62.3467 17.1289 62.1074 17.334 61.9395C17.541 61.7715 17.8008 61.6875 18.1133 61.6875C18.3438 61.6875 18.5459 61.7344 18.7197 61.8281C18.8936 61.9199 19.0371 62.0537 19.1504 62.2295C19.2637 62.4033 19.3525 62.6162 19.417 62.8682C19.4814 63.1182 19.5137 63.4561 19.5137 63.8818C19.5137 64.3857 19.4619 64.793 19.3584 65.1035C19.2549 65.4121 19.0996 65.6514 18.8926 65.8213C18.6875 65.9893 18.4277 66.0732 18.1133 66.0732C17.6992 66.0732 17.374 65.9248 17.1377 65.6279C16.8545 65.2705 16.7129 64.6885 16.7129 63.8818ZM17.2549 63.8818C17.2549 64.5869 17.3369 65.0566 17.501 65.291C17.667 65.5234 17.8711 65.6396 18.1133 65.6396C18.3555 65.6396 18.5586 65.5225 18.7227 65.2881C18.8887 65.0537 18.9717 64.585 18.9717 63.8818C18.9717 63.1748 18.8887 62.7051 18.7227 62.4727C18.5586 62.2402 18.3535 62.124 18.1074 62.124C17.8652 62.124 17.6719 62.2266 17.5273 62.4316C17.3457 62.6934 17.2549 63.1768 17.2549 63.8818Z" fill="white"/>
<path d="M16.1094 74.7568L15.585 74.7979C15.5381 74.5908 15.4717 74.4404 15.3857 74.3467C15.2432 74.1963 15.0674 74.1211 14.8584 74.1211C14.6904 74.1211 14.543 74.168 14.416 74.2617C14.25 74.3828 14.1191 74.5596 14.0234 74.792C13.9277 75.0244 13.8779 75.3555 13.874 75.7852C14.001 75.5918 14.1562 75.4482 14.3398 75.3545C14.5234 75.2607 14.7158 75.2139 14.917 75.2139C15.2686 75.2139 15.5674 75.3438 15.8135 75.6035C16.0615 75.8613 16.1855 76.1953 16.1855 76.6055C16.1855 76.875 16.127 77.126 16.0098 77.3584C15.8945 77.5889 15.7354 77.7656 15.5322 77.8887C15.3291 78.0117 15.0986 78.0732 14.8408 78.0732C14.4014 78.0732 14.043 77.9121 13.7656 77.5898C13.4883 77.2656 13.3496 76.7324 13.3496 75.9902C13.3496 75.1602 13.5029 74.5566 13.8096 74.1797C14.0771 73.8516 14.4375 73.6875 14.8906 73.6875C15.2285 73.6875 15.5049 73.7822 15.7197 73.9717C15.9365 74.1611 16.0664 74.4229 16.1094 74.7568ZM13.9561 76.6084C13.9561 76.79 13.9941 76.9639 14.0703 77.1299C14.1484 77.2959 14.2568 77.4229 14.3955 77.5107C14.5342 77.5967 14.6797 77.6396 14.832 77.6396C15.0547 77.6396 15.2461 77.5498 15.4062 77.3701C15.5664 77.1904 15.6465 76.9463 15.6465 76.6377C15.6465 76.3408 15.5674 76.1074 15.4092 75.9375C15.251 75.7656 15.0518 75.6797 14.8115 75.6797C14.5732 75.6797 14.3711 75.7656 14.2051 75.9375C14.0391 76.1074 13.9561 76.3311 13.9561 76.6084ZM16.7129 75.8818C16.7129 75.374 16.7646 74.9658 16.8682 74.6572C16.9736 74.3467 17.1289 74.1074 17.334 73.9395C17.541 73.7715 17.8008 73.6875 18.1133 73.6875C18.3438 73.6875 18.5459 73.7344 18.7197 73.8281C18.8936 73.9199 19.0371 74.0537 19.1504 74.2295C19.2637 74.4033 19.3525 74.6162 19.417 74.8682C19.4814 75.1182 19.5137 75.4561 19.5137 75.8818C19.5137 76.3857 19.4619 76.793 19.3584 77.1035C19.2549 77.4121 19.0996 77.6514 18.8926 77.8213C18.6875 77.9893 18.4277 78.0732 18.1133 78.0732C17.6992 78.0732 17.374 77.9248 17.1377 77.6279C16.8545 77.2705 16.7129 76.6885 16.7129 75.8818ZM17.2549 75.8818C17.2549 76.5869 17.3369 77.0566 17.501 77.291C17.667 77.5234 17.8711 77.6396 18.1133 77.6396C18.3555 77.6396 18.5586 77.5225 18.7227 77.2881C18.8887 77.0537 18.9717 76.585 18.9717 75.8818C18.9717 75.1748 18.8887 74.7051 18.7227 74.4727C18.5586 74.2402 18.3535 74.124 18.1074 74.124C17.8652 74.124 17.6719 74.2266 17.5273 74.4316C17.3457 74.6934 17.2549 75.1768 17.2549 75.8818Z" fill="white"/>
<path d="M13.373 88.875L13.9268 88.8281C13.9678 89.0977 14.0625 89.3008 14.2109 89.4375C14.3613 89.5723 14.542 89.6396 14.7529 89.6396C15.0068 89.6396 15.2217 89.5439 15.3975 89.3525C15.5732 89.1611 15.6611 88.9072 15.6611 88.5908C15.6611 88.29 15.5762 88.0527 15.4062 87.8789C15.2383 87.7051 15.0176 87.6182 14.7441 87.6182C14.5742 87.6182 14.4209 87.6572 14.2842 87.7354C14.1475 87.8115 14.04 87.9111 13.9619 88.0342L13.4668 87.9697L13.8828 85.7637H16.0186V86.2676H14.3047L14.0732 87.4219C14.3311 87.2422 14.6016 87.1523 14.8848 87.1523C15.2598 87.1523 15.5762 87.2822 15.834 87.542C16.0918 87.8018 16.2207 88.1357 16.2207 88.5439C16.2207 88.9326 16.1074 89.2686 15.8809 89.5518C15.6055 89.8994 15.2295 90.0732 14.7529 90.0732C14.3623 90.0732 14.043 89.9639 13.7949 89.7451C13.5488 89.5264 13.4082 89.2363 13.373 88.875ZM16.7129 87.8818C16.7129 87.374 16.7646 86.9658 16.8682 86.6572C16.9736 86.3467 17.1289 86.1074 17.334 85.9395C17.541 85.7715 17.8008 85.6875 18.1133 85.6875C18.3438 85.6875 18.5459 85.7344 18.7197 85.8281C18.8936 85.9199 19.0371 86.0537 19.1504 86.2295C19.2637 86.4033 19.3525 86.6162 19.417 86.8682C19.4814 87.1182 19.5137 87.4561 19.5137 87.8818C19.5137 88.3857 19.4619 88.793 19.3584 89.1035C19.2549 89.4121 19.0996 89.6514 18.8926 89.8213C18.6875 89.9893 18.4277 90.0732 18.1133 90.0732C17.6992 90.0732 17.374 89.9248 17.1377 89.6279C16.8545 89.2705 16.7129 88.6885 16.7129 87.8818ZM17.2549 87.8818C17.2549 88.5869 17.3369 89.0566 17.501 89.291C17.667 89.5234 17.8711 89.6396 18.1133 89.6396C18.3555 89.6396 18.5586 89.5225 18.7227 89.2881C18.8887 89.0537 18.9717 88.585 18.9717 87.8818C18.9717 87.1748 18.8887 86.7051 18.7227 86.4727C18.5586 86.2402 18.3535 86.124 18.1074 86.124C17.8652 86.124 17.6719 86.2266 17.5273 86.4316C17.3457 86.6934 17.2549 87.1768 17.2549 87.8818Z" fill="white"/>
<path d="M15.0635 102V100.972H13.2002V100.488L15.1602 97.7051H15.5908V100.488H16.1709V100.972H15.5908V102H15.0635ZM15.0635 100.488V98.5518L13.7188 100.488H15.0635ZM16.7129 99.8818C16.7129 99.374 16.7646 98.9658 16.8682 98.6572C16.9736 98.3467 17.1289 98.1074 17.334 97.9395C17.541 97.7715 17.8008 97.6875 18.1133 97.6875C18.3438 97.6875 18.5459 97.7344 18.7197 97.8281C18.8936 97.9199 19.0371 98.0537 19.1504 98.2295C19.2637 98.4033 19.3525 98.6162 19.417 98.8682C19.4814 99.1182 19.5137 99.4561 19.5137 99.8818C19.5137 100.386 19.4619 100.793 19.3584 101.104C19.2549 101.412 19.0996 101.651 18.8926 101.821C18.6875 101.989 18.4277 102.073 18.1133 102.073C17.6992 102.073 17.374 101.925 17.1377 101.628C16.8545 101.271 16.7129 100.688 16.7129 99.8818ZM17.2549 99.8818C17.2549 100.587 17.3369 101.057 17.501 101.291C17.667 101.523 17.8711 101.64 18.1133 101.64C18.3555 101.64 18.5586 101.522 18.7227 101.288C18.8887 101.054 18.9717 100.585 18.9717 99.8818C18.9717 99.1748 18.8887 98.7051 18.7227 98.4727C18.5586 98.2402 18.3535 98.124 18.1074 98.124C17.8652 98.124 17.6719 98.2266 17.5273 98.4316C17.3457 98.6934 17.2549 99.1768 17.2549 99.8818Z" fill="white"/>
<path d="M13.376 112.866L13.9033 112.796C13.9639 113.095 14.0664 113.311 14.2109 113.443C14.3574 113.574 14.5352 113.64 14.7441 113.64C14.9922 113.64 15.2012 113.554 15.3711 113.382C15.543 113.21 15.6289 112.997 15.6289 112.743C15.6289 112.501 15.5498 112.302 15.3916 112.146C15.2334 111.987 15.0322 111.908 14.7881 111.908C14.6885 111.908 14.5645 111.928 14.416 111.967L14.4746 111.504C14.5098 111.508 14.5381 111.51 14.5596 111.51C14.7842 111.51 14.9863 111.451 15.166 111.334C15.3457 111.217 15.4355 111.036 15.4355 110.792C15.4355 110.599 15.3701 110.438 15.2393 110.312C15.1084 110.185 14.9395 110.121 14.7324 110.121C14.5273 110.121 14.3564 110.186 14.2197 110.314C14.083 110.443 13.9951 110.637 13.9561 110.895L13.4287 110.801C13.4932 110.447 13.6396 110.174 13.8682 109.98C14.0967 109.785 14.3809 109.688 14.7207 109.688C14.9551 109.688 15.1709 109.738 15.3682 109.84C15.5654 109.939 15.7158 110.076 15.8193 110.25C15.9248 110.424 15.9775 110.608 15.9775 110.804C15.9775 110.989 15.9277 111.158 15.8281 111.311C15.7285 111.463 15.5811 111.584 15.3857 111.674C15.6396 111.732 15.8369 111.854 15.9775 112.04C16.1182 112.224 16.1885 112.454 16.1885 112.731C16.1885 113.106 16.0518 113.425 15.7783 113.687C15.5049 113.946 15.1592 114.076 14.7412 114.076C14.3643 114.076 14.0508 113.964 13.8008 113.739C13.5527 113.515 13.4111 113.224 13.376 112.866ZM16.7129 111.882C16.7129 111.374 16.7646 110.966 16.8682 110.657C16.9736 110.347 17.1289 110.107 17.334 109.939C17.541 109.771 17.8008 109.688 18.1133 109.688C18.3438 109.688 18.5459 109.734 18.7197 109.828C18.8936 109.92 19.0371 110.054 19.1504 110.229C19.2637 110.403 19.3525 110.616 19.417 110.868C19.4814 111.118 19.5137 111.456 19.5137 111.882C19.5137 112.386 19.4619 112.793 19.3584 113.104C19.2549 113.412 19.0996 113.651 18.8926 113.821C18.6875 113.989 18.4277 114.073 18.1133 114.073C17.6992 114.073 17.374 113.925 17.1377 113.628C16.8545 113.271 16.7129 112.688 16.7129 111.882ZM17.2549 111.882C17.2549 112.587 17.3369 113.057 17.501 113.291C17.667 113.523 17.8711 113.64 18.1133 113.64C18.3555 113.64 18.5586 113.522 18.7227 113.288C18.8887 113.054 18.9717 112.585 18.9717 111.882C18.9717 111.175 18.8887 110.705 18.7227 110.473C18.5586 110.24 18.3535 110.124 18.1074 110.124C17.8652 110.124 17.6719 110.227 17.5273 110.432C17.3457 110.693 17.2549 111.177 17.2549 111.882Z" fill="white"/>
<path d="M16.1445 125.493V126H13.3057C13.3018 125.873 13.3223 125.751 13.3672 125.634C13.4395 125.44 13.5547 125.25 13.7129 125.062C13.873 124.875 14.1035 124.658 14.4043 124.412C14.8711 124.029 15.1865 123.727 15.3506 123.504C15.5146 123.279 15.5967 123.067 15.5967 122.868C15.5967 122.659 15.5215 122.483 15.3711 122.341C15.2227 122.196 15.0283 122.124 14.7881 122.124C14.5342 122.124 14.3311 122.2 14.1787 122.353C14.0264 122.505 13.9492 122.716 13.9473 122.985L13.4053 122.93C13.4424 122.525 13.582 122.218 13.8242 122.007C14.0664 121.794 14.3916 121.688 14.7998 121.688C15.2119 121.688 15.5381 121.802 15.7783 122.03C16.0186 122.259 16.1387 122.542 16.1387 122.88C16.1387 123.052 16.1035 123.221 16.0332 123.387C15.9629 123.553 15.8457 123.728 15.6816 123.911C15.5195 124.095 15.249 124.347 14.8701 124.667C14.5537 124.933 14.3506 125.113 14.2607 125.209C14.1709 125.303 14.0967 125.397 14.0381 125.493H16.1445ZM16.7129 123.882C16.7129 123.374 16.7646 122.966 16.8682 122.657C16.9736 122.347 17.1289 122.107 17.334 121.939C17.541 121.771 17.8008 121.688 18.1133 121.688C18.3438 121.688 18.5459 121.734 18.7197 121.828C18.8936 121.92 19.0371 122.054 19.1504 122.229C19.2637 122.403 19.3525 122.616 19.417 122.868C19.4814 123.118 19.5137 123.456 19.5137 123.882C19.5137 124.386 19.4619 124.793 19.3584 125.104C19.2549 125.412 19.0996 125.651 18.8926 125.821C18.6875 125.989 18.4277 126.073 18.1133 126.073C17.6992 126.073 17.374 125.925 17.1377 125.628C16.8545 125.271 16.7129 124.688 16.7129 123.882ZM17.2549 123.882C17.2549 124.587 17.3369 125.057 17.501 125.291C17.667 125.523 17.8711 125.64 18.1133 125.64C18.3555 125.64 18.5586 125.522 18.7227 125.288C18.8887 125.054 18.9717 124.585 18.9717 123.882C18.9717 123.175 18.8887 122.705 18.7227 122.473C18.5586 122.24 18.3535 122.124 18.1074 122.124C17.8652 122.124 17.6719 122.227 17.5273 122.432C17.3457 122.693 17.2549 123.177 17.2549 123.882Z" fill="white"/>
<path d="M15.3594 138H14.832V134.64C14.7051 134.761 14.5381 134.882 14.3311 135.003C14.126 135.124 13.9414 135.215 13.7773 135.275V134.766C14.0723 134.627 14.3301 134.459 14.5508 134.262C14.7715 134.064 14.9277 133.873 15.0195 133.688H15.3594V138ZM16.7129 135.882C16.7129 135.374 16.7646 134.966 16.8682 134.657C16.9736 134.347 17.1289 134.107 17.334 133.939C17.541 133.771 17.8008 133.688 18.1133 133.688C18.3438 133.688 18.5459 133.734 18.7197 133.828C18.8936 133.92 19.0371 134.054 19.1504 134.229C19.2637 134.403 19.3525 134.616 19.417 134.868C19.4814 135.118 19.5137 135.456 19.5137 135.882C19.5137 136.386 19.4619 136.793 19.3584 137.104C19.2549 137.412 19.0996 137.651 18.8926 137.821C18.6875 137.989 18.4277 138.073 18.1133 138.073C17.6992 138.073 17.374 137.925 17.1377 137.628C16.8545 137.271 16.7129 136.688 16.7129 135.882ZM17.2549 135.882C17.2549 136.587 17.3369 137.057 17.501 137.291C17.667 137.523 17.8711 137.64 18.1133 137.64C18.3555 137.64 18.5586 137.522 18.7227 137.288C18.8887 137.054 18.9717 136.585 18.9717 135.882C18.9717 135.175 18.8887 134.705 18.7227 134.473C18.5586 134.24 18.3535 134.124 18.1074 134.124C17.8652 134.124 17.6719 134.227 17.5273 134.432C17.3457 134.693 17.2549 135.177 17.2549 135.882Z" fill="white"/>
<path d="M16.373 147.882C16.373 147.374 16.4248 146.966 16.5283 146.657C16.6338 146.347 16.7891 146.107 16.9941 145.939C17.2012 145.771 17.4609 145.688 17.7734 145.688C18.0039 145.688 18.2061 145.734 18.3799 145.828C18.5537 145.92 18.6973 146.054 18.8105 146.229C18.9238 146.403 19.0127 146.616 19.0771 146.868C19.1416 147.118 19.1738 147.456 19.1738 147.882C19.1738 148.386 19.1221 148.793 19.0186 149.104C18.915 149.412 18.7598 149.651 18.5527 149.821C18.3477 149.989 18.0879 150.073 17.7734 150.073C17.3594 150.073 17.0342 149.925 16.7979 149.628C16.5146 149.271 16.373 148.688 16.373 147.882ZM16.915 147.882C16.915 148.587 16.9971 149.057 17.1611 149.291C17.3271 149.523 17.5312 149.64 17.7734 149.64C18.0156 149.64 18.2188 149.522 18.3828 149.288C18.5488 149.054 18.6318 148.585 18.6318 147.882C18.6318 147.175 18.5488 146.705 18.3828 146.473C18.2188 146.24 18.0137 146.124 17.7676 146.124C17.5254 146.124 17.332 146.227 17.1875 146.432C17.0059 146.693 16.915 147.177 16.915 147.882Z" fill="white"/>
<path d="M41 148V29" stroke="#B2B2B2" stroke-width="0.25" stroke-miterlimit="10"/>
<path d="M87 148V29" stroke="#B2B2B2" stroke-width="0.25" stroke-miterlimit="10"/>
<path d="M133 29V148" stroke="#B2B2B2" stroke-width="0.25" stroke-miterlimit="10"/>
<path d="M179 29V148" stroke="#B2B2B2" stroke-width="0.25" stroke-miterlimit="10"/>
<path d="M225 29V148" stroke="#B2B2B2" stroke-width="0.25" stroke-miterlimit="10"/>
<path d="M271 29V148" stroke="#B2B2B2" stroke-width="0.25" stroke-miterlimit="10"/>
<path d="M317 29V148" stroke="#B2B2B2" stroke-width="0.25" stroke-miterlimit="10"/>
<path d="M363 29V148" stroke="#B2B2B2" stroke-width="0.25" stroke-miterlimit="10"/>
<path d="M353 34.5C353 34.5 314.331 59.9771 286.5 69C265.218 75.8997 251.781 73.7213 230.217 79.6807C209.8 85.3229 200.245 95.5991 179.217 98.1436C161.881 100.241 151.676 91.5355 134.601 95.1885C114.129 99.5679 107.844 114.378 88.7507 122.963C70.942 130.97 41.1145 138.152 41.1145 138.152" stroke="url(#paint1_linear_97_325)" stroke-width="5" stroke-linecap="round" stroke-linejoin="round"/>
<defs>
<filter id="filter0_f_97_325" x="34.8" y="24.3" width="315.992" height="120.44" filterUnits="userSpaceOnUse" color-interpolation-filters="sRGB">
<feFlood flood-opacity="0" result="BackgroundImageFix"/>
<feBlend mode="normal" in="SourceGraphic" in2="BackgroundImageFix" result="shape"/>
<feGaussianBlur stdDeviation="2.1" result="effect1_foregroundBlur_97_325"/>
</filter>
<linearGradient id="paint0_linear_97_325" x1="338.452" y1="161.826" x2="52.4798" y2="70.2" gradientUnits="userSpaceOnUse">
<stop stop-color="#369FAE"/>
<stop offset="0.9886" stop-color="#6BE4CA"/>
<stop offset="0.9924" stop-color="#6BE4CA"/>
</linearGradient>
<linearGradient id="paint1_linear_97_325" x1="48.402" y1="159.144" x2="335.612" y2="59.4384" gradientUnits="userSpaceOnUse">
<stop stop-color="#369FAE"/>
<stop offset="0.9886" stop-color="#6BE4CA"/>
<stop offset="0.9924" stop-color="#6BE4CA"/>
</linearGradient>
</defs>
</svg>
