<svg width="382" height="295" viewBox="0 0 382 295" fill="none" xmlns="http://www.w3.org/2000/svg">
<path d="M138.629 134.309H243.372C243.884 134.309 244.392 134.208 244.865 134.013C245.338 133.818 245.767 133.532 246.129 133.171C246.49 132.811 246.776 132.383 246.97 131.913C247.164 131.442 247.262 130.938 247.259 130.43C247.259 110.855 222.373 103.041 211.68 100.587C211.616 100.569 211.559 100.531 211.52 100.477C211.481 100.424 211.461 100.359 211.463 100.293V96.109C213.932 92.9186 215.776 89.2978 216.901 85.4338C219.694 82.6859 220.937 78.3435 221.609 76.0026C222.749 72.203 223.787 66.6958 220.788 62.7492L220.64 62.5795C222.088 55.6701 223.889 39.3407 211.383 31.063C212.11 30.3284 212.679 29.456 213.057 28.498C213.435 27.5401 213.614 26.5163 213.584 25.4879C213.578 25.3881 213.552 25.2905 213.507 25.201C213.462 25.1116 213.399 25.0322 213.321 24.9678C213.164 24.8422 212.964 24.7814 212.763 24.7981C212.603 24.7981 196.962 26.5622 189.427 25.013C181.698 23.4185 173.193 29.2423 171.449 35.1906C168.532 35.5734 165.877 37.0605 164.039 39.3407C160.619 43.5135 159.582 50.1742 160.927 59.0965C161.018 60.2274 161.155 61.3582 161.36 62.4891L161.223 62.6587C158.225 66.594 159.32 72.1012 160.403 75.9122C161.075 78.253 162.306 82.5954 165.099 85.3321C166.218 89.2226 168.063 92.8705 170.537 96.0863V100.225C170.542 100.292 170.523 100.358 170.483 100.411C170.443 100.465 170.386 100.503 170.321 100.519C159.627 103.064 134.741 110.889 134.741 130.43C134.738 130.938 134.837 131.442 135.031 131.913C135.225 132.383 135.511 132.811 135.872 133.171C136.233 133.532 136.663 133.818 137.136 134.013C137.609 134.208 138.116 134.309 138.629 134.309ZM191 115.605C187.732 115.651 184.5 114.921 181.573 113.477C178.646 112.034 176.109 109.917 174.174 107.304C175.887 106.359 177.19 104.821 177.833 102.984C179.587 104.133 181.474 105.067 183.453 105.766C188.336 107.48 193.664 107.48 198.547 105.766C200.518 105.054 202.397 104.112 204.144 102.962C204.781 104.824 206.094 106.384 207.827 107.338C205.888 109.945 203.349 112.055 200.423 113.493C197.496 114.93 194.266 115.654 191 115.605ZM169.431 79.8362C168.393 78.074 167.625 76.1684 167.151 74.182C165.772 69.3533 166.353 67.6005 166.821 66.9898C166.983 66.788 167.192 66.6288 167.431 66.5262C167.669 66.4237 167.93 66.3809 168.189 66.4018H168.519C168.712 66.4112 168.901 66.3455 169.046 66.2188C169.191 66.0921 169.28 65.9143 169.295 65.7233C169.295 65.6215 170.161 55.2178 176.374 51.4747C179.475 49.5975 183.465 49.6766 188.219 51.6895C197.92 55.7945 205.17 55.5005 209.582 54.5279C214.61 58.2145 213.162 64.0949 212.82 65.2483V65.3953C212.78 65.5111 212.769 65.635 212.789 65.7559C212.809 65.8767 212.86 65.9906 212.936 66.0872C213.012 66.1839 213.111 66.2602 213.224 66.3092C213.337 66.3582 213.461 66.3783 213.584 66.3679C213.888 66.3122 214.201 66.3361 214.493 66.4372C214.785 66.5384 215.045 66.7132 215.248 66.9446C215.715 67.5552 216.297 69.308 214.917 74.1367C213.15 80.3224 211.714 80.9218 211.315 80.9218C211.148 80.9332 210.99 81.0012 210.868 81.1144C210.745 81.2277 210.666 81.3793 210.642 81.5437C209.616 88.1365 204.327 96.3238 196.21 99.2301C192.844 100.416 189.168 100.416 185.802 99.2301C180.279 97.1404 175.812 92.97 173.376 87.6277C177.667 89.8554 182.315 91.3285 187.113 91.9814C187.465 92.4763 187.931 92.8804 188.472 93.1597C189.014 93.4391 189.615 93.5857 190.225 93.5872H191.684C192.702 93.5872 193.677 93.1863 194.397 92.4727C195.116 91.759 195.52 90.7911 195.52 89.7819C195.52 88.7727 195.116 87.8048 194.397 87.0912C193.677 86.3775 192.702 85.9766 191.684 85.9766H190.225C189.646 85.9778 189.076 86.1098 188.556 86.3626C188.037 86.6154 187.582 86.9823 187.227 87.4354C180.743 86.4337 174.621 83.8193 169.431 79.8362Z" fill="url(#paint0_linear_131_197)"/>
<defs>
<linearGradient id="paint0_linear_131_197" x1="244.63" y1="156.498" x2="130.134" y2="142.932" gradientUnits="userSpaceOnUse">
<stop stop-color="#369FAE"/>
<stop offset="0.9886" stop-color="#6BE4CA"/>
<stop offset="0.9924" stop-color="#6BE4CA"/>
</linearGradient>
</defs>
</svg>
