<svg width="298" height="661" viewBox="0 0 298 661" fill="none" xmlns="http://www.w3.org/2000/svg">
<path d="M22.5 94C22.5 94.8284 21.8284 95.5 21 95.5C20.1716 95.5 19.5 94.8284 19.5 94C19.5 93.1716 20.1716 92.5 21 92.5C21.8284 92.5 22.5 93.1716 22.5 94Z" fill="#E9E9E9" stroke="#E9E9E9"/>
<path d="M22.5 71C22.5 71.8284 21.8284 72.5 21 72.5C20.1716 72.5 19.5 71.8284 19.5 71C19.5 70.1716 20.1716 69.5 21 69.5C21.8284 69.5 22.5 70.1716 22.5 71Z" fill="#E9E9E9" stroke="#E9E9E9"/>
<path d="M22.5 48C22.5 48.8284 21.8284 49.5 21 49.5C20.1716 49.5 19.5 48.8284 19.5 48C19.5 47.1716 20.1716 46.5 21 46.5C21.8284 46.5 22.5 47.1716 22.5 48Z" fill="#E9E9E9" stroke="#E9E9E9"/>
<path d="M22.5 25C22.5 25.8284 21.8284 26.5 21 26.5C20.1716 26.5 19.5 25.8284 19.5 25C19.5 24.1716 20.1716 23.5 21 23.5C21.8284 23.5 22.5 24.1716 22.5 25Z" fill="#E9E9E9" stroke="#E9E9E9"/>
<path d="M22.5 2C22.5 2.82843 21.8284 3.5 21 3.5C20.1716 3.5 19.5 2.82843 19.5 2C19.5 1.17157 20.1716 0.5 21 0.5C21.8284 0.5 22.5 1.17157 22.5 2Z" fill="#E9E9E9" stroke="#E9E9E9"/>
<path d="M47.5 94C47.5 94.8284 46.8284 95.5 46 95.5C45.1716 95.5 44.5 94.8284 44.5 94C44.5 93.1716 45.1716 92.5 46 92.5C46.8284 92.5 47.5 93.1716 47.5 94Z" fill="#E9E9E9" stroke="#E9E9E9"/>
<path d="M47.5 71C47.5 71.8284 46.8284 72.5 46 72.5C45.1716 72.5 44.5 71.8284 44.5 71C44.5 70.1716 45.1716 69.5 46 69.5C46.8284 69.5 47.5 70.1716 47.5 71Z" fill="#E9E9E9" stroke="#E9E9E9"/>
<path d="M47.5 48C47.5 48.8284 46.8284 49.5 46 49.5C45.1716 49.5 44.5 48.8284 44.5 48C44.5 47.1716 45.1716 46.5 46 46.5C46.8284 46.5 47.5 47.1716 47.5 48Z" fill="#E9E9E9" stroke="#E9E9E9"/>
<path d="M47.5 25C47.5 25.8284 46.8284 26.5 46 26.5C45.1716 26.5 44.5 25.8284 44.5 25C44.5 24.1716 45.1716 23.5 46 23.5C46.8284 23.5 47.5 24.1716 47.5 25Z" fill="#E9E9E9" stroke="#E9E9E9"/>
<path d="M47.5 2C47.5 2.82843 46.8284 3.5 46 3.5C45.1716 3.5 44.5 2.82843 44.5 2C44.5 1.17157 45.1716 0.5 46 0.5C46.8284 0.5 47.5 1.17157 47.5 2Z" fill="#E9E9E9" stroke="#E9E9E9"/>
<path d="M72.5 94C72.5 94.8284 71.8284 95.5 71 95.5C70.1716 95.5 69.5 94.8284 69.5 94C69.5 93.1716 70.1716 92.5 71 92.5C71.8284 92.5 72.5 93.1716 72.5 94Z" fill="#E9E9E9" stroke="#E9E9E9"/>
<path d="M72.5 71C72.5 71.8284 71.8284 72.5 71 72.5C70.1716 72.5 69.5 71.8284 69.5 71C69.5 70.1716 70.1716 69.5 71 69.5C71.8284 69.5 72.5 70.1716 72.5 71Z" fill="#E9E9E9" stroke="#E9E9E9"/>
<path d="M72.5 48C72.5 48.8284 71.8284 49.5 71 49.5C70.1716 49.5 69.5 48.8284 69.5 48C69.5 47.1716 70.1716 46.5 71 46.5C71.8284 46.5 72.5 47.1716 72.5 48Z" fill="#E9E9E9" stroke="#E9E9E9"/>
<path d="M72.5 25C72.5 25.8284 71.8284 26.5 71 26.5C70.1716 26.5 69.5 25.8284 69.5 25C69.5 24.1716 70.1716 23.5 71 23.5C71.8284 23.5 72.5 24.1716 72.5 25Z" fill="#E9E9E9" stroke="#E9E9E9"/>
<path d="M72.5 2C72.5 2.82843 71.8284 3.5 71 3.5C70.1716 3.5 69.5 2.82843 69.5 2C69.5 1.17157 70.1716 0.5 71 0.5C71.8284 0.5 72.5 1.17157 72.5 2Z" fill="#E9E9E9" stroke="#E9E9E9"/>
<path d="M97.5 94C97.5 94.8284 96.8284 95.5 96 95.5C95.1716 95.5 94.5 94.8284 94.5 94C94.5 93.1716 95.1716 92.5 96 92.5C96.8284 92.5 97.5 93.1716 97.5 94Z" fill="#E9E9E9" stroke="#E9E9E9"/>
<path d="M97.5 71C97.5 71.8284 96.8284 72.5 96 72.5C95.1716 72.5 94.5 71.8284 94.5 71C94.5 70.1716 95.1716 69.5 96 69.5C96.8284 69.5 97.5 70.1716 97.5 71Z" fill="#E9E9E9" stroke="#E9E9E9"/>
<path d="M97.5 48C97.5 48.8284 96.8284 49.5 96 49.5C95.1716 49.5 94.5 48.8284 94.5 48C94.5 47.1716 95.1716 46.5 96 46.5C96.8284 46.5 97.5 47.1716 97.5 48Z" fill="#E9E9E9" stroke="#E9E9E9"/>
<path d="M97.5 25C97.5 25.8284 96.8284 26.5 96 26.5C95.1716 26.5 94.5 25.8284 94.5 25C94.5 24.1716 95.1716 23.5 96 23.5C96.8284 23.5 97.5 24.1716 97.5 25Z" fill="#E9E9E9" stroke="#E9E9E9"/>
<path d="M97.5 2C97.5 2.82843 96.8284 3.5 96 3.5C95.1716 3.5 94.5 2.82843 94.5 2C94.5 1.17157 95.1716 0.5 96 0.5C96.8284 0.5 97.5 1.17157 97.5 2Z" fill="#E9E9E9" stroke="#E9E9E9"/>
<path d="M122.5 94C122.5 94.8284 121.828 95.5 121 95.5C120.172 95.5 119.5 94.8284 119.5 94C119.5 93.1716 120.172 92.5 121 92.5C121.828 92.5 122.5 93.1716 122.5 94Z" fill="#E9E9E9" stroke="#E9E9E9"/>
<path d="M122.5 71C122.5 71.8284 121.828 72.5 121 72.5C120.172 72.5 119.5 71.8284 119.5 71C119.5 70.1716 120.172 69.5 121 69.5C121.828 69.5 122.5 70.1716 122.5 71Z" fill="#E9E9E9" stroke="#E9E9E9"/>
<path d="M122.5 48C122.5 48.8284 121.828 49.5 121 49.5C120.172 49.5 119.5 48.8284 119.5 48C119.5 47.1716 120.172 46.5 121 46.5C121.828 46.5 122.5 47.1716 122.5 48Z" fill="#E9E9E9" stroke="#E9E9E9"/>
<path d="M122.5 25C122.5 25.8284 121.828 26.5 121 26.5C120.172 26.5 119.5 25.8284 119.5 25C119.5 24.1716 120.172 23.5 121 23.5C121.828 23.5 122.5 24.1716 122.5 25Z" fill="#E9E9E9" stroke="#E9E9E9"/>
<path d="M122.5 2C122.5 2.82843 121.828 3.5 121 3.5C120.172 3.5 119.5 2.82843 119.5 2C119.5 1.17157 120.172 0.5 121 0.5C121.828 0.5 122.5 1.17157 122.5 2Z" fill="#E9E9E9" stroke="#E9E9E9"/>
<path d="M147.5 94C147.5 94.8284 146.828 95.5 146 95.5C145.172 95.5 144.5 94.8284 144.5 94C144.5 93.1716 145.172 92.5 146 92.5C146.828 92.5 147.5 93.1716 147.5 94Z" fill="#E9E9E9" stroke="#E9E9E9"/>
<path d="M147.5 71C147.5 71.8284 146.828 72.5 146 72.5C145.172 72.5 144.5 71.8284 144.5 71C144.5 70.1716 145.172 69.5 146 69.5C146.828 69.5 147.5 70.1716 147.5 71Z" fill="#E9E9E9" stroke="#E9E9E9"/>
<path d="M147.5 48C147.5 48.8284 146.828 49.5 146 49.5C145.172 49.5 144.5 48.8284 144.5 48C144.5 47.1716 145.172 46.5 146 46.5C146.828 46.5 147.5 47.1716 147.5 48Z" fill="#E9E9E9" stroke="#E9E9E9"/>
<path d="M147.5 25C147.5 25.8284 146.828 26.5 146 26.5C145.172 26.5 144.5 25.8284 144.5 25C144.5 24.1716 145.172 23.5 146 23.5C146.828 23.5 147.5 24.1716 147.5 25Z" fill="#E9E9E9" stroke="#E9E9E9"/>
<path d="M147.5 2C147.5 2.82843 146.828 3.5 146 3.5C145.172 3.5 144.5 2.82843 144.5 2C144.5 1.17157 145.172 0.5 146 0.5C146.828 0.5 147.5 1.17157 147.5 2Z" fill="#E9E9E9" stroke="#E9E9E9"/>
<path d="M172.5 94C172.5 94.8284 171.828 95.5 171 95.5C170.172 95.5 169.5 94.8284 169.5 94C169.5 93.1716 170.172 92.5 171 92.5C171.828 92.5 172.5 93.1716 172.5 94Z" fill="#E9E9E9" stroke="#E9E9E9"/>
<path d="M172.5 71C172.5 71.8284 171.828 72.5 171 72.5C170.172 72.5 169.5 71.8284 169.5 71C169.5 70.1716 170.172 69.5 171 69.5C171.828 69.5 172.5 70.1716 172.5 71Z" fill="#E9E9E9" stroke="#E9E9E9"/>
<path d="M172.5 48C172.5 48.8284 171.828 49.5 171 49.5C170.172 49.5 169.5 48.8284 169.5 48C169.5 47.1716 170.172 46.5 171 46.5C171.828 46.5 172.5 47.1716 172.5 48Z" fill="#E9E9E9" stroke="#E9E9E9"/>
<path d="M172.5 25C172.5 25.8284 171.828 26.5 171 26.5C170.172 26.5 169.5 25.8284 169.5 25C169.5 24.1716 170.172 23.5 171 23.5C171.828 23.5 172.5 24.1716 172.5 25Z" fill="#E9E9E9" stroke="#E9E9E9"/>
<path d="M172.5 2C172.5 2.82843 171.828 3.5 171 3.5C170.172 3.5 169.5 2.82843 169.5 2C169.5 1.17157 170.172 0.5 171 0.5C171.828 0.5 172.5 1.17157 172.5 2Z" fill="#E9E9E9" stroke="#E9E9E9"/>
<path d="M197.5 94C197.5 94.8284 196.828 95.5 196 95.5C195.172 95.5 194.5 94.8284 194.5 94C194.5 93.1716 195.172 92.5 196 92.5C196.828 92.5 197.5 93.1716 197.5 94Z" fill="#E9E9E9" stroke="#E9E9E9"/>
<path d="M197.5 71C197.5 71.8284 196.828 72.5 196 72.5C195.172 72.5 194.5 71.8284 194.5 71C194.5 70.1716 195.172 69.5 196 69.5C196.828 69.5 197.5 70.1716 197.5 71Z" fill="#E9E9E9" stroke="#E9E9E9"/>
<path d="M197.5 48C197.5 48.8284 196.828 49.5 196 49.5C195.172 49.5 194.5 48.8284 194.5 48C194.5 47.1716 195.172 46.5 196 46.5C196.828 46.5 197.5 47.1716 197.5 48Z" fill="#E9E9E9" stroke="#E9E9E9"/>
<path d="M197.5 25C197.5 25.8284 196.828 26.5 196 26.5C195.172 26.5 194.5 25.8284 194.5 25C194.5 24.1716 195.172 23.5 196 23.5C196.828 23.5 197.5 24.1716 197.5 25Z" fill="#E9E9E9" stroke="#E9E9E9"/>
<path d="M197.5 2C197.5 2.82843 196.828 3.5 196 3.5C195.172 3.5 194.5 2.82843 194.5 2C194.5 1.17157 195.172 0.5 196 0.5C196.828 0.5 197.5 1.17157 197.5 2Z" fill="#E9E9E9" stroke="#E9E9E9"/>
<path d="M222.5 94C222.5 94.8284 221.828 95.5 221 95.5C220.172 95.5 219.5 94.8284 219.5 94C219.5 93.1716 220.172 92.5 221 92.5C221.828 92.5 222.5 93.1716 222.5 94Z" fill="#E9E9E9" stroke="#E9E9E9"/>
<path d="M222.5 71C222.5 71.8284 221.828 72.5 221 72.5C220.172 72.5 219.5 71.8284 219.5 71C219.5 70.1716 220.172 69.5 221 69.5C221.828 69.5 222.5 70.1716 222.5 71Z" fill="#E9E9E9" stroke="#E9E9E9"/>
<path d="M222.5 48C222.5 48.8284 221.828 49.5 221 49.5C220.172 49.5 219.5 48.8284 219.5 48C219.5 47.1716 220.172 46.5 221 46.5C221.828 46.5 222.5 47.1716 222.5 48Z" fill="#E9E9E9" stroke="#E9E9E9"/>
<path d="M222.5 25C222.5 25.8284 221.828 26.5 221 26.5C220.172 26.5 219.5 25.8284 219.5 25C219.5 24.1716 220.172 23.5 221 23.5C221.828 23.5 222.5 24.1716 222.5 25Z" fill="#E9E9E9" stroke="#E9E9E9"/>
<path d="M222.5 2C222.5 2.82843 221.828 3.5 221 3.5C220.172 3.5 219.5 2.82843 219.5 2C219.5 1.17157 220.172 0.5 221 0.5C221.828 0.5 222.5 1.17157 222.5 2Z" fill="#E9E9E9" stroke="#E9E9E9"/>
<path d="M247.5 94C247.5 94.8284 246.828 95.5 246 95.5C245.172 95.5 244.5 94.8284 244.5 94C244.5 93.1716 245.172 92.5 246 92.5C246.828 92.5 247.5 93.1716 247.5 94Z" fill="#E9E9E9" stroke="#E9E9E9"/>
<path d="M247.5 71C247.5 71.8284 246.828 72.5 246 72.5C245.172 72.5 244.5 71.8284 244.5 71C244.5 70.1716 245.172 69.5 246 69.5C246.828 69.5 247.5 70.1716 247.5 71Z" fill="#E9E9E9" stroke="#E9E9E9"/>
<path d="M247.5 48C247.5 48.8284 246.828 49.5 246 49.5C245.172 49.5 244.5 48.8284 244.5 48C244.5 47.1716 245.172 46.5 246 46.5C246.828 46.5 247.5 47.1716 247.5 48Z" fill="#E9E9E9" stroke="#E9E9E9"/>
<path d="M247.5 25C247.5 25.8284 246.828 26.5 246 26.5C245.172 26.5 244.5 25.8284 244.5 25C244.5 24.1716 245.172 23.5 246 23.5C246.828 23.5 247.5 24.1716 247.5 25Z" fill="#E9E9E9" stroke="#E9E9E9"/>
<path d="M247.5 2C247.5 2.82843 246.828 3.5 246 3.5C245.172 3.5 244.5 2.82843 244.5 2C244.5 1.17157 245.172 0.5 246 0.5C246.828 0.5 247.5 1.17157 247.5 2Z" fill="#E9E9E9" stroke="#E9E9E9"/>
<path d="M272.5 94C272.5 94.8284 271.828 95.5 271 95.5C270.172 95.5 269.5 94.8284 269.5 94C269.5 93.1716 270.172 92.5 271 92.5C271.828 92.5 272.5 93.1716 272.5 94Z" fill="#E9E9E9" stroke="#E9E9E9"/>
<path d="M272.5 71C272.5 71.8284 271.828 72.5 271 72.5C270.172 72.5 269.5 71.8284 269.5 71C269.5 70.1716 270.172 69.5 271 69.5C271.828 69.5 272.5 70.1716 272.5 71Z" fill="#E9E9E9" stroke="#E9E9E9"/>
<path d="M272.5 48C272.5 48.8284 271.828 49.5 271 49.5C270.172 49.5 269.5 48.8284 269.5 48C269.5 47.1716 270.172 46.5 271 46.5C271.828 46.5 272.5 47.1716 272.5 48Z" fill="#E9E9E9" stroke="#E9E9E9"/>
<path d="M272.5 25C272.5 25.8284 271.828 26.5 271 26.5C270.172 26.5 269.5 25.8284 269.5 25C269.5 24.1716 270.172 23.5 271 23.5C271.828 23.5 272.5 24.1716 272.5 25Z" fill="#E9E9E9" stroke="#E9E9E9"/>
<path d="M272.5 2C272.5 2.82843 271.828 3.5 271 3.5C270.172 3.5 269.5 2.82843 269.5 2C269.5 1.17157 270.172 0.5 271 0.5C271.828 0.5 272.5 1.17157 272.5 2Z" fill="#E9E9E9" stroke="#E9E9E9"/>
<path d="M297.5 94C297.5 94.8284 296.828 95.5 296 95.5C295.172 95.5 294.5 94.8284 294.5 94C294.5 93.1716 295.172 92.5 296 92.5C296.828 92.5 297.5 93.1716 297.5 94Z" fill="#E9E9E9" stroke="#E9E9E9"/>
<path d="M297.5 71C297.5 71.8284 296.828 72.5 296 72.5C295.172 72.5 294.5 71.8284 294.5 71C294.5 70.1716 295.172 69.5 296 69.5C296.828 69.5 297.5 70.1716 297.5 71Z" fill="#E9E9E9" stroke="#E9E9E9"/>
<path d="M297.5 48C297.5 48.8284 296.828 49.5 296 49.5C295.172 49.5 294.5 48.8284 294.5 48C294.5 47.1716 295.172 46.5 296 46.5C296.828 46.5 297.5 47.1716 297.5 48Z" fill="#E9E9E9" stroke="#E9E9E9"/>
<path d="M297.5 25C297.5 25.8284 296.828 26.5 296 26.5C295.172 26.5 294.5 25.8284 294.5 25C294.5 24.1716 295.172 23.5 296 23.5C296.828 23.5 297.5 24.1716 297.5 25Z" fill="#E9E9E9" stroke="#E9E9E9"/>
<path d="M297.5 2C297.5 2.82843 296.828 3.5 296 3.5C295.172 3.5 294.5 2.82843 294.5 2C294.5 1.17157 295.172 0.5 296 0.5C296.828 0.5 297.5 1.17157 297.5 2Z" fill="#E9E9E9" stroke="#E9E9E9"/>
<path d="M22.5 207C22.5 207.828 21.8284 208.5 21 208.5C20.1716 208.5 19.5 207.828 19.5 207C19.5 206.172 20.1716 205.5 21 205.5C21.8284 205.5 22.5 206.172 22.5 207Z" fill="#E9E9E9" stroke="#E9E9E9"/>
<path d="M22.5 184C22.5 184.828 21.8284 185.5 21 185.5C20.1716 185.5 19.5 184.828 19.5 184C19.5 183.172 20.1716 182.5 21 182.5C21.8284 182.5 22.5 183.172 22.5 184Z" fill="#E9E9E9" stroke="#E9E9E9"/>
<path d="M22.5 161C22.5 161.828 21.8284 162.5 21 162.5C20.1716 162.5 19.5 161.828 19.5 161C19.5 160.172 20.1716 159.5 21 159.5C21.8284 159.5 22.5 160.172 22.5 161Z" fill="#E9E9E9" stroke="#E9E9E9"/>
<path d="M22.5 138C22.5 138.828 21.8284 139.5 21 139.5C20.1716 139.5 19.5 138.828 19.5 138C19.5 137.172 20.1716 136.5 21 136.5C21.8284 136.5 22.5 137.172 22.5 138Z" fill="#E9E9E9" stroke="#E9E9E9"/>
<path d="M22.5 115C22.5 115.828 21.8284 116.5 21 116.5C20.1716 116.5 19.5 115.828 19.5 115C19.5 114.172 20.1716 113.5 21 113.5C21.8284 113.5 22.5 114.172 22.5 115Z" fill="#E9E9E9" stroke="#E9E9E9"/>
<path d="M47.5 207C47.5 207.828 46.8284 208.5 46 208.5C45.1716 208.5 44.5 207.828 44.5 207C44.5 206.172 45.1716 205.5 46 205.5C46.8284 205.5 47.5 206.172 47.5 207Z" fill="#E9E9E9" stroke="#E9E9E9"/>
<path d="M47.5 184C47.5 184.828 46.8284 185.5 46 185.5C45.1716 185.5 44.5 184.828 44.5 184C44.5 183.172 45.1716 182.5 46 182.5C46.8284 182.5 47.5 183.172 47.5 184Z" fill="#E9E9E9" stroke="#E9E9E9"/>
<path d="M47.5 161C47.5 161.828 46.8284 162.5 46 162.5C45.1716 162.5 44.5 161.828 44.5 161C44.5 160.172 45.1716 159.5 46 159.5C46.8284 159.5 47.5 160.172 47.5 161Z" fill="#E9E9E9" stroke="#E9E9E9"/>
<path d="M47.5 138C47.5 138.828 46.8284 139.5 46 139.5C45.1716 139.5 44.5 138.828 44.5 138C44.5 137.172 45.1716 136.5 46 136.5C46.8284 136.5 47.5 137.172 47.5 138Z" fill="#E9E9E9" stroke="#E9E9E9"/>
<path d="M47.5 115C47.5 115.828 46.8284 116.5 46 116.5C45.1716 116.5 44.5 115.828 44.5 115C44.5 114.172 45.1716 113.5 46 113.5C46.8284 113.5 47.5 114.172 47.5 115Z" fill="#E9E9E9" stroke="#E9E9E9"/>
<path d="M72.5 207C72.5 207.828 71.8284 208.5 71 208.5C70.1716 208.5 69.5 207.828 69.5 207C69.5 206.172 70.1716 205.5 71 205.5C71.8284 205.5 72.5 206.172 72.5 207Z" fill="#E9E9E9" stroke="#E9E9E9"/>
<path d="M72.5 184C72.5 184.828 71.8284 185.5 71 185.5C70.1716 185.5 69.5 184.828 69.5 184C69.5 183.172 70.1716 182.5 71 182.5C71.8284 182.5 72.5 183.172 72.5 184Z" fill="#E9E9E9" stroke="#E9E9E9"/>
<path d="M72.5 161C72.5 161.828 71.8284 162.5 71 162.5C70.1716 162.5 69.5 161.828 69.5 161C69.5 160.172 70.1716 159.5 71 159.5C71.8284 159.5 72.5 160.172 72.5 161Z" fill="#E9E9E9" stroke="#E9E9E9"/>
<path d="M72.5 138C72.5 138.828 71.8284 139.5 71 139.5C70.1716 139.5 69.5 138.828 69.5 138C69.5 137.172 70.1716 136.5 71 136.5C71.8284 136.5 72.5 137.172 72.5 138Z" fill="#E9E9E9" stroke="#E9E9E9"/>
<path d="M72.5 115C72.5 115.828 71.8284 116.5 71 116.5C70.1716 116.5 69.5 115.828 69.5 115C69.5 114.172 70.1716 113.5 71 113.5C71.8284 113.5 72.5 114.172 72.5 115Z" fill="#E9E9E9" stroke="#E9E9E9"/>
<path d="M97.5 207C97.5 207.828 96.8284 208.5 96 208.5C95.1716 208.5 94.5 207.828 94.5 207C94.5 206.172 95.1716 205.5 96 205.5C96.8284 205.5 97.5 206.172 97.5 207Z" fill="#E9E9E9" stroke="#E9E9E9"/>
<path d="M97.5 184C97.5 184.828 96.8284 185.5 96 185.5C95.1716 185.5 94.5 184.828 94.5 184C94.5 183.172 95.1716 182.5 96 182.5C96.8284 182.5 97.5 183.172 97.5 184Z" fill="#E9E9E9" stroke="#E9E9E9"/>
<path d="M97.5 161C97.5 161.828 96.8284 162.5 96 162.5C95.1716 162.5 94.5 161.828 94.5 161C94.5 160.172 95.1716 159.5 96 159.5C96.8284 159.5 97.5 160.172 97.5 161Z" fill="#E9E9E9" stroke="#E9E9E9"/>
<path d="M97.5 138C97.5 138.828 96.8284 139.5 96 139.5C95.1716 139.5 94.5 138.828 94.5 138C94.5 137.172 95.1716 136.5 96 136.5C96.8284 136.5 97.5 137.172 97.5 138Z" fill="#E9E9E9" stroke="#E9E9E9"/>
<path d="M97.5 115C97.5 115.828 96.8284 116.5 96 116.5C95.1716 116.5 94.5 115.828 94.5 115C94.5 114.172 95.1716 113.5 96 113.5C96.8284 113.5 97.5 114.172 97.5 115Z" fill="#E9E9E9" stroke="#E9E9E9"/>
<path d="M122.5 207C122.5 207.828 121.828 208.5 121 208.5C120.172 208.5 119.5 207.828 119.5 207C119.5 206.172 120.172 205.5 121 205.5C121.828 205.5 122.5 206.172 122.5 207Z" fill="#E9E9E9" stroke="#E9E9E9"/>
<path d="M122.5 184C122.5 184.828 121.828 185.5 121 185.5C120.172 185.5 119.5 184.828 119.5 184C119.5 183.172 120.172 182.5 121 182.5C121.828 182.5 122.5 183.172 122.5 184Z" fill="#E9E9E9" stroke="#E9E9E9"/>
<path d="M122.5 161C122.5 161.828 121.828 162.5 121 162.5C120.172 162.5 119.5 161.828 119.5 161C119.5 160.172 120.172 159.5 121 159.5C121.828 159.5 122.5 160.172 122.5 161Z" fill="#E9E9E9" stroke="#E9E9E9"/>
<path d="M122.5 138C122.5 138.828 121.828 139.5 121 139.5C120.172 139.5 119.5 138.828 119.5 138C119.5 137.172 120.172 136.5 121 136.5C121.828 136.5 122.5 137.172 122.5 138Z" fill="#E9E9E9" stroke="#E9E9E9"/>
<path d="M122.5 115C122.5 115.828 121.828 116.5 121 116.5C120.172 116.5 119.5 115.828 119.5 115C119.5 114.172 120.172 113.5 121 113.5C121.828 113.5 122.5 114.172 122.5 115Z" fill="#E9E9E9" stroke="#E9E9E9"/>
<path d="M147.5 207C147.5 207.828 146.828 208.5 146 208.5C145.172 208.5 144.5 207.828 144.5 207C144.5 206.172 145.172 205.5 146 205.5C146.828 205.5 147.5 206.172 147.5 207Z" fill="#E9E9E9" stroke="#E9E9E9"/>
<path d="M147.5 184C147.5 184.828 146.828 185.5 146 185.5C145.172 185.5 144.5 184.828 144.5 184C144.5 183.172 145.172 182.5 146 182.5C146.828 182.5 147.5 183.172 147.5 184Z" fill="#E9E9E9" stroke="#E9E9E9"/>
<path d="M147.5 161C147.5 161.828 146.828 162.5 146 162.5C145.172 162.5 144.5 161.828 144.5 161C144.5 160.172 145.172 159.5 146 159.5C146.828 159.5 147.5 160.172 147.5 161Z" fill="#E9E9E9" stroke="#E9E9E9"/>
<path d="M147.5 138C147.5 138.828 146.828 139.5 146 139.5C145.172 139.5 144.5 138.828 144.5 138C144.5 137.172 145.172 136.5 146 136.5C146.828 136.5 147.5 137.172 147.5 138Z" fill="#E9E9E9" stroke="#E9E9E9"/>
<path d="M147.5 115C147.5 115.828 146.828 116.5 146 116.5C145.172 116.5 144.5 115.828 144.5 115C144.5 114.172 145.172 113.5 146 113.5C146.828 113.5 147.5 114.172 147.5 115Z" fill="#E9E9E9" stroke="#E9E9E9"/>
<path d="M172.5 207C172.5 207.828 171.828 208.5 171 208.5C170.172 208.5 169.5 207.828 169.5 207C169.5 206.172 170.172 205.5 171 205.5C171.828 205.5 172.5 206.172 172.5 207Z" fill="#E9E9E9" stroke="#E9E9E9"/>
<path d="M172.5 184C172.5 184.828 171.828 185.5 171 185.5C170.172 185.5 169.5 184.828 169.5 184C169.5 183.172 170.172 182.5 171 182.5C171.828 182.5 172.5 183.172 172.5 184Z" fill="#E9E9E9" stroke="#E9E9E9"/>
<path d="M172.5 161C172.5 161.828 171.828 162.5 171 162.5C170.172 162.5 169.5 161.828 169.5 161C169.5 160.172 170.172 159.5 171 159.5C171.828 159.5 172.5 160.172 172.5 161Z" fill="#E9E9E9" stroke="#E9E9E9"/>
<path d="M172.5 138C172.5 138.828 171.828 139.5 171 139.5C170.172 139.5 169.5 138.828 169.5 138C169.5 137.172 170.172 136.5 171 136.5C171.828 136.5 172.5 137.172 172.5 138Z" fill="#E9E9E9" stroke="#E9E9E9"/>
<path d="M172.5 115C172.5 115.828 171.828 116.5 171 116.5C170.172 116.5 169.5 115.828 169.5 115C169.5 114.172 170.172 113.5 171 113.5C171.828 113.5 172.5 114.172 172.5 115Z" fill="#E9E9E9" stroke="#E9E9E9"/>
<path d="M197.5 207C197.5 207.828 196.828 208.5 196 208.5C195.172 208.5 194.5 207.828 194.5 207C194.5 206.172 195.172 205.5 196 205.5C196.828 205.5 197.5 206.172 197.5 207Z" fill="#E9E9E9" stroke="#E9E9E9"/>
<path d="M197.5 184C197.5 184.828 196.828 185.5 196 185.5C195.172 185.5 194.5 184.828 194.5 184C194.5 183.172 195.172 182.5 196 182.5C196.828 182.5 197.5 183.172 197.5 184Z" fill="#E9E9E9" stroke="#E9E9E9"/>
<path d="M197.5 161C197.5 161.828 196.828 162.5 196 162.5C195.172 162.5 194.5 161.828 194.5 161C194.5 160.172 195.172 159.5 196 159.5C196.828 159.5 197.5 160.172 197.5 161Z" fill="#E9E9E9" stroke="#E9E9E9"/>
<path d="M197.5 138C197.5 138.828 196.828 139.5 196 139.5C195.172 139.5 194.5 138.828 194.5 138C194.5 137.172 195.172 136.5 196 136.5C196.828 136.5 197.5 137.172 197.5 138Z" fill="#E9E9E9" stroke="#E9E9E9"/>
<path d="M197.5 115C197.5 115.828 196.828 116.5 196 116.5C195.172 116.5 194.5 115.828 194.5 115C194.5 114.172 195.172 113.5 196 113.5C196.828 113.5 197.5 114.172 197.5 115Z" fill="#E9E9E9" stroke="#E9E9E9"/>
<path d="M222.5 207C222.5 207.828 221.828 208.5 221 208.5C220.172 208.5 219.5 207.828 219.5 207C219.5 206.172 220.172 205.5 221 205.5C221.828 205.5 222.5 206.172 222.5 207Z" fill="#E9E9E9" stroke="#E9E9E9"/>
<path d="M222.5 184C222.5 184.828 221.828 185.5 221 185.5C220.172 185.5 219.5 184.828 219.5 184C219.5 183.172 220.172 182.5 221 182.5C221.828 182.5 222.5 183.172 222.5 184Z" fill="#E9E9E9" stroke="#E9E9E9"/>
<path d="M222.5 161C222.5 161.828 221.828 162.5 221 162.5C220.172 162.5 219.5 161.828 219.5 161C219.5 160.172 220.172 159.5 221 159.5C221.828 159.5 222.5 160.172 222.5 161Z" fill="#E9E9E9" stroke="#E9E9E9"/>
<path d="M222.5 138C222.5 138.828 221.828 139.5 221 139.5C220.172 139.5 219.5 138.828 219.5 138C219.5 137.172 220.172 136.5 221 136.5C221.828 136.5 222.5 137.172 222.5 138Z" fill="#E9E9E9" stroke="#E9E9E9"/>
<path d="M222.5 115C222.5 115.828 221.828 116.5 221 116.5C220.172 116.5 219.5 115.828 219.5 115C219.5 114.172 220.172 113.5 221 113.5C221.828 113.5 222.5 114.172 222.5 115Z" fill="#E9E9E9" stroke="#E9E9E9"/>
<path d="M247.5 207C247.5 207.828 246.828 208.5 246 208.5C245.172 208.5 244.5 207.828 244.5 207C244.5 206.172 245.172 205.5 246 205.5C246.828 205.5 247.5 206.172 247.5 207Z" fill="#E9E9E9" stroke="#E9E9E9"/>
<path d="M247.5 184C247.5 184.828 246.828 185.5 246 185.5C245.172 185.5 244.5 184.828 244.5 184C244.5 183.172 245.172 182.5 246 182.5C246.828 182.5 247.5 183.172 247.5 184Z" fill="#E9E9E9" stroke="#E9E9E9"/>
<path d="M247.5 161C247.5 161.828 246.828 162.5 246 162.5C245.172 162.5 244.5 161.828 244.5 161C244.5 160.172 245.172 159.5 246 159.5C246.828 159.5 247.5 160.172 247.5 161Z" fill="#E9E9E9" stroke="#E9E9E9"/>
<path d="M247.5 138C247.5 138.828 246.828 139.5 246 139.5C245.172 139.5 244.5 138.828 244.5 138C244.5 137.172 245.172 136.5 246 136.5C246.828 136.5 247.5 137.172 247.5 138Z" fill="#E9E9E9" stroke="#E9E9E9"/>
<path d="M247.5 115C247.5 115.828 246.828 116.5 246 116.5C245.172 116.5 244.5 115.828 244.5 115C244.5 114.172 245.172 113.5 246 113.5C246.828 113.5 247.5 114.172 247.5 115Z" fill="#E9E9E9" stroke="#E9E9E9"/>
<path d="M272.5 207C272.5 207.828 271.828 208.5 271 208.5C270.172 208.5 269.5 207.828 269.5 207C269.5 206.172 270.172 205.5 271 205.5C271.828 205.5 272.5 206.172 272.5 207Z" fill="#E9E9E9" stroke="#E9E9E9"/>
<path d="M272.5 184C272.5 184.828 271.828 185.5 271 185.5C270.172 185.5 269.5 184.828 269.5 184C269.5 183.172 270.172 182.5 271 182.5C271.828 182.5 272.5 183.172 272.5 184Z" fill="#E9E9E9" stroke="#E9E9E9"/>
<path d="M272.5 161C272.5 161.828 271.828 162.5 271 162.5C270.172 162.5 269.5 161.828 269.5 161C269.5 160.172 270.172 159.5 271 159.5C271.828 159.5 272.5 160.172 272.5 161Z" fill="#E9E9E9" stroke="#E9E9E9"/>
<path d="M272.5 138C272.5 138.828 271.828 139.5 271 139.5C270.172 139.5 269.5 138.828 269.5 138C269.5 137.172 270.172 136.5 271 136.5C271.828 136.5 272.5 137.172 272.5 138Z" fill="#E9E9E9" stroke="#E9E9E9"/>
<path d="M272.5 115C272.5 115.828 271.828 116.5 271 116.5C270.172 116.5 269.5 115.828 269.5 115C269.5 114.172 270.172 113.5 271 113.5C271.828 113.5 272.5 114.172 272.5 115Z" fill="#E9E9E9" stroke="#E9E9E9"/>
<path d="M297.5 207C297.5 207.828 296.828 208.5 296 208.5C295.172 208.5 294.5 207.828 294.5 207C294.5 206.172 295.172 205.5 296 205.5C296.828 205.5 297.5 206.172 297.5 207Z" fill="#E9E9E9" stroke="#E9E9E9"/>
<path d="M297.5 184C297.5 184.828 296.828 185.5 296 185.5C295.172 185.5 294.5 184.828 294.5 184C294.5 183.172 295.172 182.5 296 182.5C296.828 182.5 297.5 183.172 297.5 184Z" fill="#E9E9E9" stroke="#E9E9E9"/>
<path d="M297.5 161C297.5 161.828 296.828 162.5 296 162.5C295.172 162.5 294.5 161.828 294.5 161C294.5 160.172 295.172 159.5 296 159.5C296.828 159.5 297.5 160.172 297.5 161Z" fill="#E9E9E9" stroke="#E9E9E9"/>
<path d="M297.5 138C297.5 138.828 296.828 139.5 296 139.5C295.172 139.5 294.5 138.828 294.5 138C294.5 137.172 295.172 136.5 296 136.5C296.828 136.5 297.5 137.172 297.5 138Z" fill="#E9E9E9" stroke="#E9E9E9"/>
<path d="M297.5 115C297.5 115.828 296.828 116.5 296 116.5C295.172 116.5 294.5 115.828 294.5 115C294.5 114.172 295.172 113.5 296 113.5C296.828 113.5 297.5 114.172 297.5 115Z" fill="#E9E9E9" stroke="#E9E9E9"/>
<path d="M22.5 320C22.5 320.828 21.8284 321.5 21 321.5C20.1716 321.5 19.5 320.828 19.5 320C19.5 319.172 20.1716 318.5 21 318.5C21.8284 318.5 22.5 319.172 22.5 320Z" fill="#E9E9E9" stroke="#E9E9E9"/>
<path d="M22.5 297C22.5 297.828 21.8284 298.5 21 298.5C20.1716 298.5 19.5 297.828 19.5 297C19.5 296.172 20.1716 295.5 21 295.5C21.8284 295.5 22.5 296.172 22.5 297Z" fill="#E9E9E9" stroke="#E9E9E9"/>
<path d="M22.5 274C22.5 274.828 21.8284 275.5 21 275.5C20.1716 275.5 19.5 274.828 19.5 274C19.5 273.172 20.1716 272.5 21 272.5C21.8284 272.5 22.5 273.172 22.5 274Z" fill="#E9E9E9" stroke="#E9E9E9"/>
<path d="M22.5 251C22.5 251.828 21.8284 252.5 21 252.5C20.1716 252.5 19.5 251.828 19.5 251C19.5 250.172 20.1716 249.5 21 249.5C21.8284 249.5 22.5 250.172 22.5 251Z" fill="#E9E9E9" stroke="#E9E9E9"/>
<path d="M22.5 228C22.5 228.828 21.8284 229.5 21 229.5C20.1716 229.5 19.5 228.828 19.5 228C19.5 227.172 20.1716 226.5 21 226.5C21.8284 226.5 22.5 227.172 22.5 228Z" fill="#E9E9E9" stroke="#E9E9E9"/>
<path d="M47.5 320C47.5 320.828 46.8284 321.5 46 321.5C45.1716 321.5 44.5 320.828 44.5 320C44.5 319.172 45.1716 318.5 46 318.5C46.8284 318.5 47.5 319.172 47.5 320Z" fill="#E9E9E9" stroke="#E9E9E9"/>
<path d="M47.5 297C47.5 297.828 46.8284 298.5 46 298.5C45.1716 298.5 44.5 297.828 44.5 297C44.5 296.172 45.1716 295.5 46 295.5C46.8284 295.5 47.5 296.172 47.5 297Z" fill="#E9E9E9" stroke="#E9E9E9"/>
<path d="M47.5 274C47.5 274.828 46.8284 275.5 46 275.5C45.1716 275.5 44.5 274.828 44.5 274C44.5 273.172 45.1716 272.5 46 272.5C46.8284 272.5 47.5 273.172 47.5 274Z" fill="#E9E9E9" stroke="#E9E9E9"/>
<path d="M47.5 251C47.5 251.828 46.8284 252.5 46 252.5C45.1716 252.5 44.5 251.828 44.5 251C44.5 250.172 45.1716 249.5 46 249.5C46.8284 249.5 47.5 250.172 47.5 251Z" fill="#E9E9E9" stroke="#E9E9E9"/>
<path d="M47.5 228C47.5 228.828 46.8284 229.5 46 229.5C45.1716 229.5 44.5 228.828 44.5 228C44.5 227.172 45.1716 226.5 46 226.5C46.8284 226.5 47.5 227.172 47.5 228Z" fill="#E9E9E9" stroke="#E9E9E9"/>
<path d="M72.5 320C72.5 320.828 71.8284 321.5 71 321.5C70.1716 321.5 69.5 320.828 69.5 320C69.5 319.172 70.1716 318.5 71 318.5C71.8284 318.5 72.5 319.172 72.5 320Z" fill="#E9E9E9" stroke="#E9E9E9"/>
<path d="M72.5 297C72.5 297.828 71.8284 298.5 71 298.5C70.1716 298.5 69.5 297.828 69.5 297C69.5 296.172 70.1716 295.5 71 295.5C71.8284 295.5 72.5 296.172 72.5 297Z" fill="#E9E9E9" stroke="#E9E9E9"/>
<path d="M72.5 274C72.5 274.828 71.8284 275.5 71 275.5C70.1716 275.5 69.5 274.828 69.5 274C69.5 273.172 70.1716 272.5 71 272.5C71.8284 272.5 72.5 273.172 72.5 274Z" fill="#E9E9E9" stroke="#E9E9E9"/>
<path d="M72.5 251C72.5 251.828 71.8284 252.5 71 252.5C70.1716 252.5 69.5 251.828 69.5 251C69.5 250.172 70.1716 249.5 71 249.5C71.8284 249.5 72.5 250.172 72.5 251Z" fill="#E9E9E9" stroke="#E9E9E9"/>
<path d="M72.5 228C72.5 228.828 71.8284 229.5 71 229.5C70.1716 229.5 69.5 228.828 69.5 228C69.5 227.172 70.1716 226.5 71 226.5C71.8284 226.5 72.5 227.172 72.5 228Z" fill="#E9E9E9" stroke="#E9E9E9"/>
<path d="M97.5 320C97.5 320.828 96.8284 321.5 96 321.5C95.1716 321.5 94.5 320.828 94.5 320C94.5 319.172 95.1716 318.5 96 318.5C96.8284 318.5 97.5 319.172 97.5 320Z" fill="#E9E9E9" stroke="#E9E9E9"/>
<path d="M97.5 297C97.5 297.828 96.8284 298.5 96 298.5C95.1716 298.5 94.5 297.828 94.5 297C94.5 296.172 95.1716 295.5 96 295.5C96.8284 295.5 97.5 296.172 97.5 297Z" fill="#E9E9E9" stroke="#E9E9E9"/>
<path d="M97.5 274C97.5 274.828 96.8284 275.5 96 275.5C95.1716 275.5 94.5 274.828 94.5 274C94.5 273.172 95.1716 272.5 96 272.5C96.8284 272.5 97.5 273.172 97.5 274Z" fill="#E9E9E9" stroke="#E9E9E9"/>
<path d="M97.5 251C97.5 251.828 96.8284 252.5 96 252.5C95.1716 252.5 94.5 251.828 94.5 251C94.5 250.172 95.1716 249.5 96 249.5C96.8284 249.5 97.5 250.172 97.5 251Z" fill="#E9E9E9" stroke="#E9E9E9"/>
<path d="M97.5 228C97.5 228.828 96.8284 229.5 96 229.5C95.1716 229.5 94.5 228.828 94.5 228C94.5 227.172 95.1716 226.5 96 226.5C96.8284 226.5 97.5 227.172 97.5 228Z" fill="#E9E9E9" stroke="#E9E9E9"/>
<path d="M122.5 320C122.5 320.828 121.828 321.5 121 321.5C120.172 321.5 119.5 320.828 119.5 320C119.5 319.172 120.172 318.5 121 318.5C121.828 318.5 122.5 319.172 122.5 320Z" fill="#E9E9E9" stroke="#E9E9E9"/>
<path d="M122.5 297C122.5 297.828 121.828 298.5 121 298.5C120.172 298.5 119.5 297.828 119.5 297C119.5 296.172 120.172 295.5 121 295.5C121.828 295.5 122.5 296.172 122.5 297Z" fill="#E9E9E9" stroke="#E9E9E9"/>
<path d="M122.5 274C122.5 274.828 121.828 275.5 121 275.5C120.172 275.5 119.5 274.828 119.5 274C119.5 273.172 120.172 272.5 121 272.5C121.828 272.5 122.5 273.172 122.5 274Z" fill="#E9E9E9" stroke="#E9E9E9"/>
<path d="M122.5 251C122.5 251.828 121.828 252.5 121 252.5C120.172 252.5 119.5 251.828 119.5 251C119.5 250.172 120.172 249.5 121 249.5C121.828 249.5 122.5 250.172 122.5 251Z" fill="#E9E9E9" stroke="#E9E9E9"/>
<path d="M122.5 228C122.5 228.828 121.828 229.5 121 229.5C120.172 229.5 119.5 228.828 119.5 228C119.5 227.172 120.172 226.5 121 226.5C121.828 226.5 122.5 227.172 122.5 228Z" fill="#E9E9E9" stroke="#E9E9E9"/>
<path d="M147.5 320C147.5 320.828 146.828 321.5 146 321.5C145.172 321.5 144.5 320.828 144.5 320C144.5 319.172 145.172 318.5 146 318.5C146.828 318.5 147.5 319.172 147.5 320Z" fill="#E9E9E9" stroke="#E9E9E9"/>
<path d="M147.5 297C147.5 297.828 146.828 298.5 146 298.5C145.172 298.5 144.5 297.828 144.5 297C144.5 296.172 145.172 295.5 146 295.5C146.828 295.5 147.5 296.172 147.5 297Z" fill="#E9E9E9" stroke="#E9E9E9"/>
<path d="M147.5 274C147.5 274.828 146.828 275.5 146 275.5C145.172 275.5 144.5 274.828 144.5 274C144.5 273.172 145.172 272.5 146 272.5C146.828 272.5 147.5 273.172 147.5 274Z" fill="#E9E9E9" stroke="#E9E9E9"/>
<path d="M147.5 251C147.5 251.828 146.828 252.5 146 252.5C145.172 252.5 144.5 251.828 144.5 251C144.5 250.172 145.172 249.5 146 249.5C146.828 249.5 147.5 250.172 147.5 251Z" fill="#E9E9E9" stroke="#E9E9E9"/>
<path d="M147.5 228C147.5 228.828 146.828 229.5 146 229.5C145.172 229.5 144.5 228.828 144.5 228C144.5 227.172 145.172 226.5 146 226.5C146.828 226.5 147.5 227.172 147.5 228Z" fill="#E9E9E9" stroke="#E9E9E9"/>
<path d="M172.5 320C172.5 320.828 171.828 321.5 171 321.5C170.172 321.5 169.5 320.828 169.5 320C169.5 319.172 170.172 318.5 171 318.5C171.828 318.5 172.5 319.172 172.5 320Z" fill="#E9E9E9" stroke="#E9E9E9"/>
<path d="M172.5 297C172.5 297.828 171.828 298.5 171 298.5C170.172 298.5 169.5 297.828 169.5 297C169.5 296.172 170.172 295.5 171 295.5C171.828 295.5 172.5 296.172 172.5 297Z" fill="#E9E9E9" stroke="#E9E9E9"/>
<path d="M172.5 274C172.5 274.828 171.828 275.5 171 275.5C170.172 275.5 169.5 274.828 169.5 274C169.5 273.172 170.172 272.5 171 272.5C171.828 272.5 172.5 273.172 172.5 274Z" fill="#E9E9E9" stroke="#E9E9E9"/>
<path d="M172.5 251C172.5 251.828 171.828 252.5 171 252.5C170.172 252.5 169.5 251.828 169.5 251C169.5 250.172 170.172 249.5 171 249.5C171.828 249.5 172.5 250.172 172.5 251Z" fill="#E9E9E9" stroke="#E9E9E9"/>
<path d="M172.5 228C172.5 228.828 171.828 229.5 171 229.5C170.172 229.5 169.5 228.828 169.5 228C169.5 227.172 170.172 226.5 171 226.5C171.828 226.5 172.5 227.172 172.5 228Z" fill="#E9E9E9" stroke="#E9E9E9"/>
<path d="M197.5 320C197.5 320.828 196.828 321.5 196 321.5C195.172 321.5 194.5 320.828 194.5 320C194.5 319.172 195.172 318.5 196 318.5C196.828 318.5 197.5 319.172 197.5 320Z" fill="#E9E9E9" stroke="#E9E9E9"/>
<path d="M197.5 297C197.5 297.828 196.828 298.5 196 298.5C195.172 298.5 194.5 297.828 194.5 297C194.5 296.172 195.172 295.5 196 295.5C196.828 295.5 197.5 296.172 197.5 297Z" fill="#E9E9E9" stroke="#E9E9E9"/>
<path d="M197.5 274C197.5 274.828 196.828 275.5 196 275.5C195.172 275.5 194.5 274.828 194.5 274C194.5 273.172 195.172 272.5 196 272.5C196.828 272.5 197.5 273.172 197.5 274Z" fill="#E9E9E9" stroke="#E9E9E9"/>
<path d="M197.5 251C197.5 251.828 196.828 252.5 196 252.5C195.172 252.5 194.5 251.828 194.5 251C194.5 250.172 195.172 249.5 196 249.5C196.828 249.5 197.5 250.172 197.5 251Z" fill="#E9E9E9" stroke="#E9E9E9"/>
<path d="M197.5 228C197.5 228.828 196.828 229.5 196 229.5C195.172 229.5 194.5 228.828 194.5 228C194.5 227.172 195.172 226.5 196 226.5C196.828 226.5 197.5 227.172 197.5 228Z" fill="#E9E9E9" stroke="#E9E9E9"/>
<path d="M222.5 320C222.5 320.828 221.828 321.5 221 321.5C220.172 321.5 219.5 320.828 219.5 320C219.5 319.172 220.172 318.5 221 318.5C221.828 318.5 222.5 319.172 222.5 320Z" fill="#E9E9E9" stroke="#E9E9E9"/>
<path d="M222.5 297C222.5 297.828 221.828 298.5 221 298.5C220.172 298.5 219.5 297.828 219.5 297C219.5 296.172 220.172 295.5 221 295.5C221.828 295.5 222.5 296.172 222.5 297Z" fill="#E9E9E9" stroke="#E9E9E9"/>
<path d="M222.5 274C222.5 274.828 221.828 275.5 221 275.5C220.172 275.5 219.5 274.828 219.5 274C219.5 273.172 220.172 272.5 221 272.5C221.828 272.5 222.5 273.172 222.5 274Z" fill="#E9E9E9" stroke="#E9E9E9"/>
<path d="M222.5 251C222.5 251.828 221.828 252.5 221 252.5C220.172 252.5 219.5 251.828 219.5 251C219.5 250.172 220.172 249.5 221 249.5C221.828 249.5 222.5 250.172 222.5 251Z" fill="#E9E9E9" stroke="#E9E9E9"/>
<path d="M222.5 228C222.5 228.828 221.828 229.5 221 229.5C220.172 229.5 219.5 228.828 219.5 228C219.5 227.172 220.172 226.5 221 226.5C221.828 226.5 222.5 227.172 222.5 228Z" fill="#E9E9E9" stroke="#E9E9E9"/>
<path d="M247.5 320C247.5 320.828 246.828 321.5 246 321.5C245.172 321.5 244.5 320.828 244.5 320C244.5 319.172 245.172 318.5 246 318.5C246.828 318.5 247.5 319.172 247.5 320Z" fill="#E9E9E9" stroke="#E9E9E9"/>
<path d="M247.5 297C247.5 297.828 246.828 298.5 246 298.5C245.172 298.5 244.5 297.828 244.5 297C244.5 296.172 245.172 295.5 246 295.5C246.828 295.5 247.5 296.172 247.5 297Z" fill="#E9E9E9" stroke="#E9E9E9"/>
<path d="M247.5 274C247.5 274.828 246.828 275.5 246 275.5C245.172 275.5 244.5 274.828 244.5 274C244.5 273.172 245.172 272.5 246 272.5C246.828 272.5 247.5 273.172 247.5 274Z" fill="#E9E9E9" stroke="#E9E9E9"/>
<path d="M247.5 251C247.5 251.828 246.828 252.5 246 252.5C245.172 252.5 244.5 251.828 244.5 251C244.5 250.172 245.172 249.5 246 249.5C246.828 249.5 247.5 250.172 247.5 251Z" fill="#E9E9E9" stroke="#E9E9E9"/>
<path d="M247.5 228C247.5 228.828 246.828 229.5 246 229.5C245.172 229.5 244.5 228.828 244.5 228C244.5 227.172 245.172 226.5 246 226.5C246.828 226.5 247.5 227.172 247.5 228Z" fill="#E9E9E9" stroke="#E9E9E9"/>
<path d="M272.5 320C272.5 320.828 271.828 321.5 271 321.5C270.172 321.5 269.5 320.828 269.5 320C269.5 319.172 270.172 318.5 271 318.5C271.828 318.5 272.5 319.172 272.5 320Z" fill="#E9E9E9" stroke="#E9E9E9"/>
<path d="M272.5 297C272.5 297.828 271.828 298.5 271 298.5C270.172 298.5 269.5 297.828 269.5 297C269.5 296.172 270.172 295.5 271 295.5C271.828 295.5 272.5 296.172 272.5 297Z" fill="#E9E9E9" stroke="#E9E9E9"/>
<path d="M272.5 274C272.5 274.828 271.828 275.5 271 275.5C270.172 275.5 269.5 274.828 269.5 274C269.5 273.172 270.172 272.5 271 272.5C271.828 272.5 272.5 273.172 272.5 274Z" fill="#E9E9E9" stroke="#E9E9E9"/>
<path d="M272.5 251C272.5 251.828 271.828 252.5 271 252.5C270.172 252.5 269.5 251.828 269.5 251C269.5 250.172 270.172 249.5 271 249.5C271.828 249.5 272.5 250.172 272.5 251Z" fill="#E9E9E9" stroke="#E9E9E9"/>
<path d="M272.5 228C272.5 228.828 271.828 229.5 271 229.5C270.172 229.5 269.5 228.828 269.5 228C269.5 227.172 270.172 226.5 271 226.5C271.828 226.5 272.5 227.172 272.5 228Z" fill="#E9E9E9" stroke="#E9E9E9"/>
<path d="M297.5 320C297.5 320.828 296.828 321.5 296 321.5C295.172 321.5 294.5 320.828 294.5 320C294.5 319.172 295.172 318.5 296 318.5C296.828 318.5 297.5 319.172 297.5 320Z" fill="#E9E9E9" stroke="#E9E9E9"/>
<path d="M297.5 297C297.5 297.828 296.828 298.5 296 298.5C295.172 298.5 294.5 297.828 294.5 297C294.5 296.172 295.172 295.5 296 295.5C296.828 295.5 297.5 296.172 297.5 297Z" fill="#E9E9E9" stroke="#E9E9E9"/>
<path d="M297.5 274C297.5 274.828 296.828 275.5 296 275.5C295.172 275.5 294.5 274.828 294.5 274C294.5 273.172 295.172 272.5 296 272.5C296.828 272.5 297.5 273.172 297.5 274Z" fill="#E9E9E9" stroke="#E9E9E9"/>
<path d="M297.5 251C297.5 251.828 296.828 252.5 296 252.5C295.172 252.5 294.5 251.828 294.5 251C294.5 250.172 295.172 249.5 296 249.5C296.828 249.5 297.5 250.172 297.5 251Z" fill="#E9E9E9" stroke="#E9E9E9"/>
<path d="M297.5 228C297.5 228.828 296.828 229.5 296 229.5C295.172 229.5 294.5 228.828 294.5 228C294.5 227.172 295.172 226.5 296 226.5C296.828 226.5 297.5 227.172 297.5 228Z" fill="#E9E9E9" stroke="#E9E9E9"/>
<path d="M22.5 433C22.5 433.828 21.8284 434.5 21 434.5C20.1716 434.5 19.5 433.828 19.5 433C19.5 432.172 20.1716 431.5 21 431.5C21.8284 431.5 22.5 432.172 22.5 433Z" fill="#E9E9E9" stroke="#E9E9E9"/>
<path d="M22.5 410C22.5 410.828 21.8284 411.5 21 411.5C20.1716 411.5 19.5 410.828 19.5 410C19.5 409.172 20.1716 408.5 21 408.5C21.8284 408.5 22.5 409.172 22.5 410Z" fill="#E9E9E9" stroke="#E9E9E9"/>
<path d="M22.5 387C22.5 387.828 21.8284 388.5 21 388.5C20.1716 388.5 19.5 387.828 19.5 387C19.5 386.172 20.1716 385.5 21 385.5C21.8284 385.5 22.5 386.172 22.5 387Z" fill="#E9E9E9" stroke="#E9E9E9"/>
<path d="M22.5 364C22.5 364.828 21.8284 365.5 21 365.5C20.1716 365.5 19.5 364.828 19.5 364C19.5 363.172 20.1716 362.5 21 362.5C21.8284 362.5 22.5 363.172 22.5 364Z" fill="#E9E9E9" stroke="#E9E9E9"/>
<path d="M22.5 341C22.5 341.828 21.8284 342.5 21 342.5C20.1716 342.5 19.5 341.828 19.5 341C19.5 340.172 20.1716 339.5 21 339.5C21.8284 339.5 22.5 340.172 22.5 341Z" fill="#E9E9E9" stroke="#E9E9E9"/>
<path d="M47.5 433C47.5 433.828 46.8284 434.5 46 434.5C45.1716 434.5 44.5 433.828 44.5 433C44.5 432.172 45.1716 431.5 46 431.5C46.8284 431.5 47.5 432.172 47.5 433Z" fill="#E9E9E9" stroke="#E9E9E9"/>
<path d="M47.5 410C47.5 410.828 46.8284 411.5 46 411.5C45.1716 411.5 44.5 410.828 44.5 410C44.5 409.172 45.1716 408.5 46 408.5C46.8284 408.5 47.5 409.172 47.5 410Z" fill="#E9E9E9" stroke="#E9E9E9"/>
<path d="M47.5 387C47.5 387.828 46.8284 388.5 46 388.5C45.1716 388.5 44.5 387.828 44.5 387C44.5 386.172 45.1716 385.5 46 385.5C46.8284 385.5 47.5 386.172 47.5 387Z" fill="#E9E9E9" stroke="#E9E9E9"/>
<path d="M47.5 364C47.5 364.828 46.8284 365.5 46 365.5C45.1716 365.5 44.5 364.828 44.5 364C44.5 363.172 45.1716 362.5 46 362.5C46.8284 362.5 47.5 363.172 47.5 364Z" fill="#E9E9E9" stroke="#E9E9E9"/>
<path d="M47.5 341C47.5 341.828 46.8284 342.5 46 342.5C45.1716 342.5 44.5 341.828 44.5 341C44.5 340.172 45.1716 339.5 46 339.5C46.8284 339.5 47.5 340.172 47.5 341Z" fill="#E9E9E9" stroke="#E9E9E9"/>
<path d="M72.5 433C72.5 433.828 71.8284 434.5 71 434.5C70.1716 434.5 69.5 433.828 69.5 433C69.5 432.172 70.1716 431.5 71 431.5C71.8284 431.5 72.5 432.172 72.5 433Z" fill="#E9E9E9" stroke="#E9E9E9"/>
<path d="M72.5 410C72.5 410.828 71.8284 411.5 71 411.5C70.1716 411.5 69.5 410.828 69.5 410C69.5 409.172 70.1716 408.5 71 408.5C71.8284 408.5 72.5 409.172 72.5 410Z" fill="#E9E9E9" stroke="#E9E9E9"/>
<path d="M72.5 387C72.5 387.828 71.8284 388.5 71 388.5C70.1716 388.5 69.5 387.828 69.5 387C69.5 386.172 70.1716 385.5 71 385.5C71.8284 385.5 72.5 386.172 72.5 387Z" fill="#E9E9E9" stroke="#E9E9E9"/>
<path d="M72.5 364C72.5 364.828 71.8284 365.5 71 365.5C70.1716 365.5 69.5 364.828 69.5 364C69.5 363.172 70.1716 362.5 71 362.5C71.8284 362.5 72.5 363.172 72.5 364Z" fill="#E9E9E9" stroke="#E9E9E9"/>
<path d="M72.5 341C72.5 341.828 71.8284 342.5 71 342.5C70.1716 342.5 69.5 341.828 69.5 341C69.5 340.172 70.1716 339.5 71 339.5C71.8284 339.5 72.5 340.172 72.5 341Z" fill="#E9E9E9" stroke="#E9E9E9"/>
<path d="M97.5 433C97.5 433.828 96.8284 434.5 96 434.5C95.1716 434.5 94.5 433.828 94.5 433C94.5 432.172 95.1716 431.5 96 431.5C96.8284 431.5 97.5 432.172 97.5 433Z" fill="#E9E9E9" stroke="#E9E9E9"/>
<path d="M97.5 410C97.5 410.828 96.8284 411.5 96 411.5C95.1716 411.5 94.5 410.828 94.5 410C94.5 409.172 95.1716 408.5 96 408.5C96.8284 408.5 97.5 409.172 97.5 410Z" fill="#E9E9E9" stroke="#E9E9E9"/>
<path d="M97.5 387C97.5 387.828 96.8284 388.5 96 388.5C95.1716 388.5 94.5 387.828 94.5 387C94.5 386.172 95.1716 385.5 96 385.5C96.8284 385.5 97.5 386.172 97.5 387Z" fill="#E9E9E9" stroke="#E9E9E9"/>
<path d="M97.5 364C97.5 364.828 96.8284 365.5 96 365.5C95.1716 365.5 94.5 364.828 94.5 364C94.5 363.172 95.1716 362.5 96 362.5C96.8284 362.5 97.5 363.172 97.5 364Z" fill="#E9E9E9" stroke="#E9E9E9"/>
<path d="M97.5 341C97.5 341.828 96.8284 342.5 96 342.5C95.1716 342.5 94.5 341.828 94.5 341C94.5 340.172 95.1716 339.5 96 339.5C96.8284 339.5 97.5 340.172 97.5 341Z" fill="#E9E9E9" stroke="#E9E9E9"/>
<path d="M122.5 433C122.5 433.828 121.828 434.5 121 434.5C120.172 434.5 119.5 433.828 119.5 433C119.5 432.172 120.172 431.5 121 431.5C121.828 431.5 122.5 432.172 122.5 433Z" fill="#E9E9E9" stroke="#E9E9E9"/>
<path d="M122.5 410C122.5 410.828 121.828 411.5 121 411.5C120.172 411.5 119.5 410.828 119.5 410C119.5 409.172 120.172 408.5 121 408.5C121.828 408.5 122.5 409.172 122.5 410Z" fill="#E9E9E9" stroke="#E9E9E9"/>
<path d="M122.5 387C122.5 387.828 121.828 388.5 121 388.5C120.172 388.5 119.5 387.828 119.5 387C119.5 386.172 120.172 385.5 121 385.5C121.828 385.5 122.5 386.172 122.5 387Z" fill="#E9E9E9" stroke="#E9E9E9"/>
<path d="M122.5 364C122.5 364.828 121.828 365.5 121 365.5C120.172 365.5 119.5 364.828 119.5 364C119.5 363.172 120.172 362.5 121 362.5C121.828 362.5 122.5 363.172 122.5 364Z" fill="#E9E9E9" stroke="#E9E9E9"/>
<path d="M122.5 341C122.5 341.828 121.828 342.5 121 342.5C120.172 342.5 119.5 341.828 119.5 341C119.5 340.172 120.172 339.5 121 339.5C121.828 339.5 122.5 340.172 122.5 341Z" fill="#E9E9E9" stroke="#E9E9E9"/>
<path d="M147.5 433C147.5 433.828 146.828 434.5 146 434.5C145.172 434.5 144.5 433.828 144.5 433C144.5 432.172 145.172 431.5 146 431.5C146.828 431.5 147.5 432.172 147.5 433Z" fill="#E9E9E9" stroke="#E9E9E9"/>
<path d="M147.5 410C147.5 410.828 146.828 411.5 146 411.5C145.172 411.5 144.5 410.828 144.5 410C144.5 409.172 145.172 408.5 146 408.5C146.828 408.5 147.5 409.172 147.5 410Z" fill="#E9E9E9" stroke="#E9E9E9"/>
<path d="M147.5 387C147.5 387.828 146.828 388.5 146 388.5C145.172 388.5 144.5 387.828 144.5 387C144.5 386.172 145.172 385.5 146 385.5C146.828 385.5 147.5 386.172 147.5 387Z" fill="#E9E9E9" stroke="#E9E9E9"/>
<path d="M147.5 364C147.5 364.828 146.828 365.5 146 365.5C145.172 365.5 144.5 364.828 144.5 364C144.5 363.172 145.172 362.5 146 362.5C146.828 362.5 147.5 363.172 147.5 364Z" fill="#E9E9E9" stroke="#E9E9E9"/>
<path d="M147.5 341C147.5 341.828 146.828 342.5 146 342.5C145.172 342.5 144.5 341.828 144.5 341C144.5 340.172 145.172 339.5 146 339.5C146.828 339.5 147.5 340.172 147.5 341Z" fill="#E9E9E9" stroke="#E9E9E9"/>
<path d="M172.5 433C172.5 433.828 171.828 434.5 171 434.5C170.172 434.5 169.5 433.828 169.5 433C169.5 432.172 170.172 431.5 171 431.5C171.828 431.5 172.5 432.172 172.5 433Z" fill="#E9E9E9" stroke="#E9E9E9"/>
<path d="M172.5 410C172.5 410.828 171.828 411.5 171 411.5C170.172 411.5 169.5 410.828 169.5 410C169.5 409.172 170.172 408.5 171 408.5C171.828 408.5 172.5 409.172 172.5 410Z" fill="#E9E9E9" stroke="#E9E9E9"/>
<path d="M172.5 387C172.5 387.828 171.828 388.5 171 388.5C170.172 388.5 169.5 387.828 169.5 387C169.5 386.172 170.172 385.5 171 385.5C171.828 385.5 172.5 386.172 172.5 387Z" fill="#E9E9E9" stroke="#E9E9E9"/>
<path d="M172.5 364C172.5 364.828 171.828 365.5 171 365.5C170.172 365.5 169.5 364.828 169.5 364C169.5 363.172 170.172 362.5 171 362.5C171.828 362.5 172.5 363.172 172.5 364Z" fill="#E9E9E9" stroke="#E9E9E9"/>
<path d="M172.5 341C172.5 341.828 171.828 342.5 171 342.5C170.172 342.5 169.5 341.828 169.5 341C169.5 340.172 170.172 339.5 171 339.5C171.828 339.5 172.5 340.172 172.5 341Z" fill="#E9E9E9" stroke="#E9E9E9"/>
<path d="M197.5 433C197.5 433.828 196.828 434.5 196 434.5C195.172 434.5 194.5 433.828 194.5 433C194.5 432.172 195.172 431.5 196 431.5C196.828 431.5 197.5 432.172 197.5 433Z" fill="#E9E9E9" stroke="#E9E9E9"/>
<path d="M197.5 410C197.5 410.828 196.828 411.5 196 411.5C195.172 411.5 194.5 410.828 194.5 410C194.5 409.172 195.172 408.5 196 408.5C196.828 408.5 197.5 409.172 197.5 410Z" fill="#E9E9E9" stroke="#E9E9E9"/>
<path d="M197.5 387C197.5 387.828 196.828 388.5 196 388.5C195.172 388.5 194.5 387.828 194.5 387C194.5 386.172 195.172 385.5 196 385.5C196.828 385.5 197.5 386.172 197.5 387Z" fill="#E9E9E9" stroke="#E9E9E9"/>
<path d="M197.5 364C197.5 364.828 196.828 365.5 196 365.5C195.172 365.5 194.5 364.828 194.5 364C194.5 363.172 195.172 362.5 196 362.5C196.828 362.5 197.5 363.172 197.5 364Z" fill="#E9E9E9" stroke="#E9E9E9"/>
<path d="M197.5 341C197.5 341.828 196.828 342.5 196 342.5C195.172 342.5 194.5 341.828 194.5 341C194.5 340.172 195.172 339.5 196 339.5C196.828 339.5 197.5 340.172 197.5 341Z" fill="#E9E9E9" stroke="#E9E9E9"/>
<path d="M222.5 433C222.5 433.828 221.828 434.5 221 434.5C220.172 434.5 219.5 433.828 219.5 433C219.5 432.172 220.172 431.5 221 431.5C221.828 431.5 222.5 432.172 222.5 433Z" fill="#E9E9E9" stroke="#E9E9E9"/>
<path d="M222.5 410C222.5 410.828 221.828 411.5 221 411.5C220.172 411.5 219.5 410.828 219.5 410C219.5 409.172 220.172 408.5 221 408.5C221.828 408.5 222.5 409.172 222.5 410Z" fill="#E9E9E9" stroke="#E9E9E9"/>
<path d="M222.5 387C222.5 387.828 221.828 388.5 221 388.5C220.172 388.5 219.5 387.828 219.5 387C219.5 386.172 220.172 385.5 221 385.5C221.828 385.5 222.5 386.172 222.5 387Z" fill="#E9E9E9" stroke="#E9E9E9"/>
<path d="M222.5 364C222.5 364.828 221.828 365.5 221 365.5C220.172 365.5 219.5 364.828 219.5 364C219.5 363.172 220.172 362.5 221 362.5C221.828 362.5 222.5 363.172 222.5 364Z" fill="#E9E9E9" stroke="#E9E9E9"/>
<path d="M222.5 341C222.5 341.828 221.828 342.5 221 342.5C220.172 342.5 219.5 341.828 219.5 341C219.5 340.172 220.172 339.5 221 339.5C221.828 339.5 222.5 340.172 222.5 341Z" fill="#E9E9E9" stroke="#E9E9E9"/>
<path d="M247.5 433C247.5 433.828 246.828 434.5 246 434.5C245.172 434.5 244.5 433.828 244.5 433C244.5 432.172 245.172 431.5 246 431.5C246.828 431.5 247.5 432.172 247.5 433Z" fill="#E9E9E9" stroke="#E9E9E9"/>
<path d="M247.5 410C247.5 410.828 246.828 411.5 246 411.5C245.172 411.5 244.5 410.828 244.5 410C244.5 409.172 245.172 408.5 246 408.5C246.828 408.5 247.5 409.172 247.5 410Z" fill="#E9E9E9" stroke="#E9E9E9"/>
<path d="M247.5 387C247.5 387.828 246.828 388.5 246 388.5C245.172 388.5 244.5 387.828 244.5 387C244.5 386.172 245.172 385.5 246 385.5C246.828 385.5 247.5 386.172 247.5 387Z" fill="#E9E9E9" stroke="#E9E9E9"/>
<path d="M247.5 364C247.5 364.828 246.828 365.5 246 365.5C245.172 365.5 244.5 364.828 244.5 364C244.5 363.172 245.172 362.5 246 362.5C246.828 362.5 247.5 363.172 247.5 364Z" fill="#E9E9E9" stroke="#E9E9E9"/>
<path d="M247.5 341C247.5 341.828 246.828 342.5 246 342.5C245.172 342.5 244.5 341.828 244.5 341C244.5 340.172 245.172 339.5 246 339.5C246.828 339.5 247.5 340.172 247.5 341Z" fill="#E9E9E9" stroke="#E9E9E9"/>
<path d="M272.5 433C272.5 433.828 271.828 434.5 271 434.5C270.172 434.5 269.5 433.828 269.5 433C269.5 432.172 270.172 431.5 271 431.5C271.828 431.5 272.5 432.172 272.5 433Z" fill="#E9E9E9" stroke="#E9E9E9"/>
<path d="M272.5 410C272.5 410.828 271.828 411.5 271 411.5C270.172 411.5 269.5 410.828 269.5 410C269.5 409.172 270.172 408.5 271 408.5C271.828 408.5 272.5 409.172 272.5 410Z" fill="#E9E9E9" stroke="#E9E9E9"/>
<path d="M272.5 387C272.5 387.828 271.828 388.5 271 388.5C270.172 388.5 269.5 387.828 269.5 387C269.5 386.172 270.172 385.5 271 385.5C271.828 385.5 272.5 386.172 272.5 387Z" fill="#E9E9E9" stroke="#E9E9E9"/>
<path d="M272.5 364C272.5 364.828 271.828 365.5 271 365.5C270.172 365.5 269.5 364.828 269.5 364C269.5 363.172 270.172 362.5 271 362.5C271.828 362.5 272.5 363.172 272.5 364Z" fill="#E9E9E9" stroke="#E9E9E9"/>
<path d="M272.5 341C272.5 341.828 271.828 342.5 271 342.5C270.172 342.5 269.5 341.828 269.5 341C269.5 340.172 270.172 339.5 271 339.5C271.828 339.5 272.5 340.172 272.5 341Z" fill="#E9E9E9" stroke="#E9E9E9"/>
<path d="M297.5 433C297.5 433.828 296.828 434.5 296 434.5C295.172 434.5 294.5 433.828 294.5 433C294.5 432.172 295.172 431.5 296 431.5C296.828 431.5 297.5 432.172 297.5 433Z" fill="#E9E9E9" stroke="#E9E9E9"/>
<path d="M297.5 410C297.5 410.828 296.828 411.5 296 411.5C295.172 411.5 294.5 410.828 294.5 410C294.5 409.172 295.172 408.5 296 408.5C296.828 408.5 297.5 409.172 297.5 410Z" fill="#E9E9E9" stroke="#E9E9E9"/>
<path d="M297.5 387C297.5 387.828 296.828 388.5 296 388.5C295.172 388.5 294.5 387.828 294.5 387C294.5 386.172 295.172 385.5 296 385.5C296.828 385.5 297.5 386.172 297.5 387Z" fill="#E9E9E9" stroke="#E9E9E9"/>
<path d="M297.5 364C297.5 364.828 296.828 365.5 296 365.5C295.172 365.5 294.5 364.828 294.5 364C294.5 363.172 295.172 362.5 296 362.5C296.828 362.5 297.5 363.172 297.5 364Z" fill="#E9E9E9" stroke="#E9E9E9"/>
<path d="M297.5 341C297.5 341.828 296.828 342.5 296 342.5C295.172 342.5 294.5 341.828 294.5 341C294.5 340.172 295.172 339.5 296 339.5C296.828 339.5 297.5 340.172 297.5 341Z" fill="#E9E9E9" stroke="#E9E9E9"/>
<path d="M22.5 546C22.5 546.828 21.8284 547.5 21 547.5C20.1716 547.5 19.5 546.828 19.5 546C19.5 545.172 20.1716 544.5 21 544.5C21.8284 544.5 22.5 545.172 22.5 546Z" fill="#E9E9E9" stroke="#E9E9E9"/>
<path d="M22.5 523C22.5 523.828 21.8284 524.5 21 524.5C20.1716 524.5 19.5 523.828 19.5 523C19.5 522.172 20.1716 521.5 21 521.5C21.8284 521.5 22.5 522.172 22.5 523Z" fill="#E9E9E9" stroke="#E9E9E9"/>
<path d="M22.5 500C22.5 500.828 21.8284 501.5 21 501.5C20.1716 501.5 19.5 500.828 19.5 500C19.5 499.172 20.1716 498.5 21 498.5C21.8284 498.5 22.5 499.172 22.5 500Z" fill="#E9E9E9" stroke="#E9E9E9"/>
<path d="M22.5 477C22.5 477.828 21.8284 478.5 21 478.5C20.1716 478.5 19.5 477.828 19.5 477C19.5 476.172 20.1716 475.5 21 475.5C21.8284 475.5 22.5 476.172 22.5 477Z" fill="#E9E9E9" stroke="#E9E9E9"/>
<path d="M22.5 454C22.5 454.828 21.8284 455.5 21 455.5C20.1716 455.5 19.5 454.828 19.5 454C19.5 453.172 20.1716 452.5 21 452.5C21.8284 452.5 22.5 453.172 22.5 454Z" fill="#E9E9E9" stroke="#E9E9E9"/>
<path d="M47.5 546C47.5 546.828 46.8284 547.5 46 547.5C45.1716 547.5 44.5 546.828 44.5 546C44.5 545.172 45.1716 544.5 46 544.5C46.8284 544.5 47.5 545.172 47.5 546Z" fill="#E9E9E9" stroke="#E9E9E9"/>
<path d="M47.5 523C47.5 523.828 46.8284 524.5 46 524.5C45.1716 524.5 44.5 523.828 44.5 523C44.5 522.172 45.1716 521.5 46 521.5C46.8284 521.5 47.5 522.172 47.5 523Z" fill="#E9E9E9" stroke="#E9E9E9"/>
<path d="M47.5 500C47.5 500.828 46.8284 501.5 46 501.5C45.1716 501.5 44.5 500.828 44.5 500C44.5 499.172 45.1716 498.5 46 498.5C46.8284 498.5 47.5 499.172 47.5 500Z" fill="#E9E9E9" stroke="#E9E9E9"/>
<path d="M47.5 477C47.5 477.828 46.8284 478.5 46 478.5C45.1716 478.5 44.5 477.828 44.5 477C44.5 476.172 45.1716 475.5 46 475.5C46.8284 475.5 47.5 476.172 47.5 477Z" fill="#E9E9E9" stroke="#E9E9E9"/>
<path d="M47.5 454C47.5 454.828 46.8284 455.5 46 455.5C45.1716 455.5 44.5 454.828 44.5 454C44.5 453.172 45.1716 452.5 46 452.5C46.8284 452.5 47.5 453.172 47.5 454Z" fill="#E9E9E9" stroke="#E9E9E9"/>
<path d="M72.5 546C72.5 546.828 71.8284 547.5 71 547.5C70.1716 547.5 69.5 546.828 69.5 546C69.5 545.172 70.1716 544.5 71 544.5C71.8284 544.5 72.5 545.172 72.5 546Z" fill="#E9E9E9" stroke="#E9E9E9"/>
<path d="M72.5 523C72.5 523.828 71.8284 524.5 71 524.5C70.1716 524.5 69.5 523.828 69.5 523C69.5 522.172 70.1716 521.5 71 521.5C71.8284 521.5 72.5 522.172 72.5 523Z" fill="#E9E9E9" stroke="#E9E9E9"/>
<path d="M72.5 500C72.5 500.828 71.8284 501.5 71 501.5C70.1716 501.5 69.5 500.828 69.5 500C69.5 499.172 70.1716 498.5 71 498.5C71.8284 498.5 72.5 499.172 72.5 500Z" fill="#E9E9E9" stroke="#E9E9E9"/>
<path d="M72.5 477C72.5 477.828 71.8284 478.5 71 478.5C70.1716 478.5 69.5 477.828 69.5 477C69.5 476.172 70.1716 475.5 71 475.5C71.8284 475.5 72.5 476.172 72.5 477Z" fill="#E9E9E9" stroke="#E9E9E9"/>
<path d="M72.5 454C72.5 454.828 71.8284 455.5 71 455.5C70.1716 455.5 69.5 454.828 69.5 454C69.5 453.172 70.1716 452.5 71 452.5C71.8284 452.5 72.5 453.172 72.5 454Z" fill="#E9E9E9" stroke="#E9E9E9"/>
<path d="M97.5 546C97.5 546.828 96.8284 547.5 96 547.5C95.1716 547.5 94.5 546.828 94.5 546C94.5 545.172 95.1716 544.5 96 544.5C96.8284 544.5 97.5 545.172 97.5 546Z" fill="#E9E9E9" stroke="#E9E9E9"/>
<path d="M97.5 523C97.5 523.828 96.8284 524.5 96 524.5C95.1716 524.5 94.5 523.828 94.5 523C94.5 522.172 95.1716 521.5 96 521.5C96.8284 521.5 97.5 522.172 97.5 523Z" fill="#E9E9E9" stroke="#E9E9E9"/>
<path d="M97.5 500C97.5 500.828 96.8284 501.5 96 501.5C95.1716 501.5 94.5 500.828 94.5 500C94.5 499.172 95.1716 498.5 96 498.5C96.8284 498.5 97.5 499.172 97.5 500Z" fill="#E9E9E9" stroke="#E9E9E9"/>
<path d="M97.5 477C97.5 477.828 96.8284 478.5 96 478.5C95.1716 478.5 94.5 477.828 94.5 477C94.5 476.172 95.1716 475.5 96 475.5C96.8284 475.5 97.5 476.172 97.5 477Z" fill="#E9E9E9" stroke="#E9E9E9"/>
<path d="M97.5 454C97.5 454.828 96.8284 455.5 96 455.5C95.1716 455.5 94.5 454.828 94.5 454C94.5 453.172 95.1716 452.5 96 452.5C96.8284 452.5 97.5 453.172 97.5 454Z" fill="#E9E9E9" stroke="#E9E9E9"/>
<path d="M122.5 546C122.5 546.828 121.828 547.5 121 547.5C120.172 547.5 119.5 546.828 119.5 546C119.5 545.172 120.172 544.5 121 544.5C121.828 544.5 122.5 545.172 122.5 546Z" fill="#E9E9E9" stroke="#E9E9E9"/>
<path d="M122.5 523C122.5 523.828 121.828 524.5 121 524.5C120.172 524.5 119.5 523.828 119.5 523C119.5 522.172 120.172 521.5 121 521.5C121.828 521.5 122.5 522.172 122.5 523Z" fill="#E9E9E9" stroke="#E9E9E9"/>
<path d="M122.5 500C122.5 500.828 121.828 501.5 121 501.5C120.172 501.5 119.5 500.828 119.5 500C119.5 499.172 120.172 498.5 121 498.5C121.828 498.5 122.5 499.172 122.5 500Z" fill="#E9E9E9" stroke="#E9E9E9"/>
<path d="M122.5 477C122.5 477.828 121.828 478.5 121 478.5C120.172 478.5 119.5 477.828 119.5 477C119.5 476.172 120.172 475.5 121 475.5C121.828 475.5 122.5 476.172 122.5 477Z" fill="#E9E9E9" stroke="#E9E9E9"/>
<path d="M122.5 454C122.5 454.828 121.828 455.5 121 455.5C120.172 455.5 119.5 454.828 119.5 454C119.5 453.172 120.172 452.5 121 452.5C121.828 452.5 122.5 453.172 122.5 454Z" fill="#E9E9E9" stroke="#E9E9E9"/>
<path d="M147.5 546C147.5 546.828 146.828 547.5 146 547.5C145.172 547.5 144.5 546.828 144.5 546C144.5 545.172 145.172 544.5 146 544.5C146.828 544.5 147.5 545.172 147.5 546Z" fill="#E9E9E9" stroke="#E9E9E9"/>
<path d="M147.5 523C147.5 523.828 146.828 524.5 146 524.5C145.172 524.5 144.5 523.828 144.5 523C144.5 522.172 145.172 521.5 146 521.5C146.828 521.5 147.5 522.172 147.5 523Z" fill="#E9E9E9" stroke="#E9E9E9"/>
<path d="M147.5 500C147.5 500.828 146.828 501.5 146 501.5C145.172 501.5 144.5 500.828 144.5 500C144.5 499.172 145.172 498.5 146 498.5C146.828 498.5 147.5 499.172 147.5 500Z" fill="#E9E9E9" stroke="#E9E9E9"/>
<path d="M147.5 477C147.5 477.828 146.828 478.5 146 478.5C145.172 478.5 144.5 477.828 144.5 477C144.5 476.172 145.172 475.5 146 475.5C146.828 475.5 147.5 476.172 147.5 477Z" fill="#E9E9E9" stroke="#E9E9E9"/>
<path d="M147.5 454C147.5 454.828 146.828 455.5 146 455.5C145.172 455.5 144.5 454.828 144.5 454C144.5 453.172 145.172 452.5 146 452.5C146.828 452.5 147.5 453.172 147.5 454Z" fill="#E9E9E9" stroke="#E9E9E9"/>
<path d="M172.5 546C172.5 546.828 171.828 547.5 171 547.5C170.172 547.5 169.5 546.828 169.5 546C169.5 545.172 170.172 544.5 171 544.5C171.828 544.5 172.5 545.172 172.5 546Z" fill="#E9E9E9" stroke="#E9E9E9"/>
<path d="M172.5 523C172.5 523.828 171.828 524.5 171 524.5C170.172 524.5 169.5 523.828 169.5 523C169.5 522.172 170.172 521.5 171 521.5C171.828 521.5 172.5 522.172 172.5 523Z" fill="#E9E9E9" stroke="#E9E9E9"/>
<path d="M172.5 500C172.5 500.828 171.828 501.5 171 501.5C170.172 501.5 169.5 500.828 169.5 500C169.5 499.172 170.172 498.5 171 498.5C171.828 498.5 172.5 499.172 172.5 500Z" fill="#E9E9E9" stroke="#E9E9E9"/>
<path d="M172.5 477C172.5 477.828 171.828 478.5 171 478.5C170.172 478.5 169.5 477.828 169.5 477C169.5 476.172 170.172 475.5 171 475.5C171.828 475.5 172.5 476.172 172.5 477Z" fill="#E9E9E9" stroke="#E9E9E9"/>
<path d="M172.5 454C172.5 454.828 171.828 455.5 171 455.5C170.172 455.5 169.5 454.828 169.5 454C169.5 453.172 170.172 452.5 171 452.5C171.828 452.5 172.5 453.172 172.5 454Z" fill="#E9E9E9" stroke="#E9E9E9"/>
<path d="M197.5 546C197.5 546.828 196.828 547.5 196 547.5C195.172 547.5 194.5 546.828 194.5 546C194.5 545.172 195.172 544.5 196 544.5C196.828 544.5 197.5 545.172 197.5 546Z" fill="#E9E9E9" stroke="#E9E9E9"/>
<path d="M197.5 523C197.5 523.828 196.828 524.5 196 524.5C195.172 524.5 194.5 523.828 194.5 523C194.5 522.172 195.172 521.5 196 521.5C196.828 521.5 197.5 522.172 197.5 523Z" fill="#E9E9E9" stroke="#E9E9E9"/>
<path d="M197.5 500C197.5 500.828 196.828 501.5 196 501.5C195.172 501.5 194.5 500.828 194.5 500C194.5 499.172 195.172 498.5 196 498.5C196.828 498.5 197.5 499.172 197.5 500Z" fill="#E9E9E9" stroke="#E9E9E9"/>
<path d="M197.5 477C197.5 477.828 196.828 478.5 196 478.5C195.172 478.5 194.5 477.828 194.5 477C194.5 476.172 195.172 475.5 196 475.5C196.828 475.5 197.5 476.172 197.5 477Z" fill="#E9E9E9" stroke="#E9E9E9"/>
<path d="M197.5 454C197.5 454.828 196.828 455.5 196 455.5C195.172 455.5 194.5 454.828 194.5 454C194.5 453.172 195.172 452.5 196 452.5C196.828 452.5 197.5 453.172 197.5 454Z" fill="#E9E9E9" stroke="#E9E9E9"/>
<path d="M222.5 546C222.5 546.828 221.828 547.5 221 547.5C220.172 547.5 219.5 546.828 219.5 546C219.5 545.172 220.172 544.5 221 544.5C221.828 544.5 222.5 545.172 222.5 546Z" fill="#E9E9E9" stroke="#E9E9E9"/>
<path d="M222.5 523C222.5 523.828 221.828 524.5 221 524.5C220.172 524.5 219.5 523.828 219.5 523C219.5 522.172 220.172 521.5 221 521.5C221.828 521.5 222.5 522.172 222.5 523Z" fill="#E9E9E9" stroke="#E9E9E9"/>
<path d="M222.5 500C222.5 500.828 221.828 501.5 221 501.5C220.172 501.5 219.5 500.828 219.5 500C219.5 499.172 220.172 498.5 221 498.5C221.828 498.5 222.5 499.172 222.5 500Z" fill="#E9E9E9" stroke="#E9E9E9"/>
<path d="M222.5 477C222.5 477.828 221.828 478.5 221 478.5C220.172 478.5 219.5 477.828 219.5 477C219.5 476.172 220.172 475.5 221 475.5C221.828 475.5 222.5 476.172 222.5 477Z" fill="#E9E9E9" stroke="#E9E9E9"/>
<path d="M222.5 454C222.5 454.828 221.828 455.5 221 455.5C220.172 455.5 219.5 454.828 219.5 454C219.5 453.172 220.172 452.5 221 452.5C221.828 452.5 222.5 453.172 222.5 454Z" fill="#E9E9E9" stroke="#E9E9E9"/>
<path d="M247.5 546C247.5 546.828 246.828 547.5 246 547.5C245.172 547.5 244.5 546.828 244.5 546C244.5 545.172 245.172 544.5 246 544.5C246.828 544.5 247.5 545.172 247.5 546Z" fill="#E9E9E9" stroke="#E9E9E9"/>
<path d="M247.5 523C247.5 523.828 246.828 524.5 246 524.5C245.172 524.5 244.5 523.828 244.5 523C244.5 522.172 245.172 521.5 246 521.5C246.828 521.5 247.5 522.172 247.5 523Z" fill="#E9E9E9" stroke="#E9E9E9"/>
<path d="M247.5 500C247.5 500.828 246.828 501.5 246 501.5C245.172 501.5 244.5 500.828 244.5 500C244.5 499.172 245.172 498.5 246 498.5C246.828 498.5 247.5 499.172 247.5 500Z" fill="#E9E9E9" stroke="#E9E9E9"/>
<path d="M247.5 477C247.5 477.828 246.828 478.5 246 478.5C245.172 478.5 244.5 477.828 244.5 477C244.5 476.172 245.172 475.5 246 475.5C246.828 475.5 247.5 476.172 247.5 477Z" fill="#E9E9E9" stroke="#E9E9E9"/>
<path d="M247.5 454C247.5 454.828 246.828 455.5 246 455.5C245.172 455.5 244.5 454.828 244.5 454C244.5 453.172 245.172 452.5 246 452.5C246.828 452.5 247.5 453.172 247.5 454Z" fill="#E9E9E9" stroke="#E9E9E9"/>
<path d="M272.5 546C272.5 546.828 271.828 547.5 271 547.5C270.172 547.5 269.5 546.828 269.5 546C269.5 545.172 270.172 544.5 271 544.5C271.828 544.5 272.5 545.172 272.5 546Z" fill="#E9E9E9" stroke="#E9E9E9"/>
<path d="M272.5 523C272.5 523.828 271.828 524.5 271 524.5C270.172 524.5 269.5 523.828 269.5 523C269.5 522.172 270.172 521.5 271 521.5C271.828 521.5 272.5 522.172 272.5 523Z" fill="#E9E9E9" stroke="#E9E9E9"/>
<path d="M272.5 500C272.5 500.828 271.828 501.5 271 501.5C270.172 501.5 269.5 500.828 269.5 500C269.5 499.172 270.172 498.5 271 498.5C271.828 498.5 272.5 499.172 272.5 500Z" fill="#E9E9E9" stroke="#E9E9E9"/>
<path d="M272.5 477C272.5 477.828 271.828 478.5 271 478.5C270.172 478.5 269.5 477.828 269.5 477C269.5 476.172 270.172 475.5 271 475.5C271.828 475.5 272.5 476.172 272.5 477Z" fill="#E9E9E9" stroke="#E9E9E9"/>
<path d="M272.5 454C272.5 454.828 271.828 455.5 271 455.5C270.172 455.5 269.5 454.828 269.5 454C269.5 453.172 270.172 452.5 271 452.5C271.828 452.5 272.5 453.172 272.5 454Z" fill="#E9E9E9" stroke="#E9E9E9"/>
<path d="M297.5 546C297.5 546.828 296.828 547.5 296 547.5C295.172 547.5 294.5 546.828 294.5 546C294.5 545.172 295.172 544.5 296 544.5C296.828 544.5 297.5 545.172 297.5 546Z" fill="#E9E9E9" stroke="#E9E9E9"/>
<path d="M297.5 523C297.5 523.828 296.828 524.5 296 524.5C295.172 524.5 294.5 523.828 294.5 523C294.5 522.172 295.172 521.5 296 521.5C296.828 521.5 297.5 522.172 297.5 523Z" fill="#E9E9E9" stroke="#E9E9E9"/>
<path d="M297.5 500C297.5 500.828 296.828 501.5 296 501.5C295.172 501.5 294.5 500.828 294.5 500C294.5 499.172 295.172 498.5 296 498.5C296.828 498.5 297.5 499.172 297.5 500Z" fill="#E9E9E9" stroke="#E9E9E9"/>
<path d="M297.5 477C297.5 477.828 296.828 478.5 296 478.5C295.172 478.5 294.5 477.828 294.5 477C294.5 476.172 295.172 475.5 296 475.5C296.828 475.5 297.5 476.172 297.5 477Z" fill="#E9E9E9" stroke="#E9E9E9"/>
<path d="M297.5 454C297.5 454.828 296.828 455.5 296 455.5C295.172 455.5 294.5 454.828 294.5 454C294.5 453.172 295.172 452.5 296 452.5C296.828 452.5 297.5 453.172 297.5 454Z" fill="#E9E9E9" stroke="#E9E9E9"/>
<path d="M22.5 659C22.5 659.828 21.8284 660.5 21 660.5C20.1716 660.5 19.5 659.828 19.5 659C19.5 658.172 20.1716 657.5 21 657.5C21.8284 657.5 22.5 658.172 22.5 659Z" fill="#E9E9E9" stroke="#E9E9E9"/>
<path d="M22.5 636C22.5 636.828 21.8284 637.5 21 637.5C20.1716 637.5 19.5 636.828 19.5 636C19.5 635.172 20.1716 634.5 21 634.5C21.8284 634.5 22.5 635.172 22.5 636Z" fill="#E9E9E9" stroke="#E9E9E9"/>
<path d="M22.5 613C22.5 613.828 21.8284 614.5 21 614.5C20.1716 614.5 19.5 613.828 19.5 613C19.5 612.172 20.1716 611.5 21 611.5C21.8284 611.5 22.5 612.172 22.5 613Z" fill="#E9E9E9" stroke="#E9E9E9"/>
<path d="M22.5 590C22.5 590.828 21.8284 591.5 21 591.5C20.1716 591.5 19.5 590.828 19.5 590C19.5 589.172 20.1716 588.5 21 588.5C21.8284 588.5 22.5 589.172 22.5 590Z" fill="#E9E9E9" stroke="#E9E9E9"/>
<path d="M22.5 567C22.5 567.828 21.8284 568.5 21 568.5C20.1716 568.5 19.5 567.828 19.5 567C19.5 566.172 20.1716 565.5 21 565.5C21.8284 565.5 22.5 566.172 22.5 567Z" fill="#E9E9E9" stroke="#E9E9E9"/>
<path d="M47.5 659C47.5 659.828 46.8284 660.5 46 660.5C45.1716 660.5 44.5 659.828 44.5 659C44.5 658.172 45.1716 657.5 46 657.5C46.8284 657.5 47.5 658.172 47.5 659Z" fill="#E9E9E9" stroke="#E9E9E9"/>
<path d="M47.5 636C47.5 636.828 46.8284 637.5 46 637.5C45.1716 637.5 44.5 636.828 44.5 636C44.5 635.172 45.1716 634.5 46 634.5C46.8284 634.5 47.5 635.172 47.5 636Z" fill="#E9E9E9" stroke="#E9E9E9"/>
<path d="M47.5 613C47.5 613.828 46.8284 614.5 46 614.5C45.1716 614.5 44.5 613.828 44.5 613C44.5 612.172 45.1716 611.5 46 611.5C46.8284 611.5 47.5 612.172 47.5 613Z" fill="#E9E9E9" stroke="#E9E9E9"/>
<path d="M47.5 590C47.5 590.828 46.8284 591.5 46 591.5C45.1716 591.5 44.5 590.828 44.5 590C44.5 589.172 45.1716 588.5 46 588.5C46.8284 588.5 47.5 589.172 47.5 590Z" fill="#E9E9E9" stroke="#E9E9E9"/>
<path d="M47.5 567C47.5 567.828 46.8284 568.5 46 568.5C45.1716 568.5 44.5 567.828 44.5 567C44.5 566.172 45.1716 565.5 46 565.5C46.8284 565.5 47.5 566.172 47.5 567Z" fill="#E9E9E9" stroke="#E9E9E9"/>
<path d="M72.5 659C72.5 659.828 71.8284 660.5 71 660.5C70.1716 660.5 69.5 659.828 69.5 659C69.5 658.172 70.1716 657.5 71 657.5C71.8284 657.5 72.5 658.172 72.5 659Z" fill="#E9E9E9" stroke="#E9E9E9"/>
<path d="M72.5 636C72.5 636.828 71.8284 637.5 71 637.5C70.1716 637.5 69.5 636.828 69.5 636C69.5 635.172 70.1716 634.5 71 634.5C71.8284 634.5 72.5 635.172 72.5 636Z" fill="#E9E9E9" stroke="#E9E9E9"/>
<path d="M72.5 613C72.5 613.828 71.8284 614.5 71 614.5C70.1716 614.5 69.5 613.828 69.5 613C69.5 612.172 70.1716 611.5 71 611.5C71.8284 611.5 72.5 612.172 72.5 613Z" fill="#E9E9E9" stroke="#E9E9E9"/>
<path d="M72.5 590C72.5 590.828 71.8284 591.5 71 591.5C70.1716 591.5 69.5 590.828 69.5 590C69.5 589.172 70.1716 588.5 71 588.5C71.8284 588.5 72.5 589.172 72.5 590Z" fill="#E9E9E9" stroke="#E9E9E9"/>
<path d="M72.5 567C72.5 567.828 71.8284 568.5 71 568.5C70.1716 568.5 69.5 567.828 69.5 567C69.5 566.172 70.1716 565.5 71 565.5C71.8284 565.5 72.5 566.172 72.5 567Z" fill="#E9E9E9" stroke="#E9E9E9"/>
<path d="M97.5 659C97.5 659.828 96.8284 660.5 96 660.5C95.1716 660.5 94.5 659.828 94.5 659C94.5 658.172 95.1716 657.5 96 657.5C96.8284 657.5 97.5 658.172 97.5 659Z" fill="#E9E9E9" stroke="#E9E9E9"/>
<path d="M97.5 636C97.5 636.828 96.8284 637.5 96 637.5C95.1716 637.5 94.5 636.828 94.5 636C94.5 635.172 95.1716 634.5 96 634.5C96.8284 634.5 97.5 635.172 97.5 636Z" fill="#E9E9E9" stroke="#E9E9E9"/>
<path d="M97.5 613C97.5 613.828 96.8284 614.5 96 614.5C95.1716 614.5 94.5 613.828 94.5 613C94.5 612.172 95.1716 611.5 96 611.5C96.8284 611.5 97.5 612.172 97.5 613Z" fill="#E9E9E9" stroke="#E9E9E9"/>
<path d="M97.5 590C97.5 590.828 96.8284 591.5 96 591.5C95.1716 591.5 94.5 590.828 94.5 590C94.5 589.172 95.1716 588.5 96 588.5C96.8284 588.5 97.5 589.172 97.5 590Z" fill="#E9E9E9" stroke="#E9E9E9"/>
<path d="M97.5 567C97.5 567.828 96.8284 568.5 96 568.5C95.1716 568.5 94.5 567.828 94.5 567C94.5 566.172 95.1716 565.5 96 565.5C96.8284 565.5 97.5 566.172 97.5 567Z" fill="#E9E9E9" stroke="#E9E9E9"/>
<path d="M122.5 659C122.5 659.828 121.828 660.5 121 660.5C120.172 660.5 119.5 659.828 119.5 659C119.5 658.172 120.172 657.5 121 657.5C121.828 657.5 122.5 658.172 122.5 659Z" fill="#E9E9E9" stroke="#E9E9E9"/>
<path d="M122.5 636C122.5 636.828 121.828 637.5 121 637.5C120.172 637.5 119.5 636.828 119.5 636C119.5 635.172 120.172 634.5 121 634.5C121.828 634.5 122.5 635.172 122.5 636Z" fill="#E9E9E9" stroke="#E9E9E9"/>
<path d="M122.5 613C122.5 613.828 121.828 614.5 121 614.5C120.172 614.5 119.5 613.828 119.5 613C119.5 612.172 120.172 611.5 121 611.5C121.828 611.5 122.5 612.172 122.5 613Z" fill="#E9E9E9" stroke="#E9E9E9"/>
<path d="M122.5 590C122.5 590.828 121.828 591.5 121 591.5C120.172 591.5 119.5 590.828 119.5 590C119.5 589.172 120.172 588.5 121 588.5C121.828 588.5 122.5 589.172 122.5 590Z" fill="#E9E9E9" stroke="#E9E9E9"/>
<path d="M122.5 567C122.5 567.828 121.828 568.5 121 568.5C120.172 568.5 119.5 567.828 119.5 567C119.5 566.172 120.172 565.5 121 565.5C121.828 565.5 122.5 566.172 122.5 567Z" fill="#E9E9E9" stroke="#E9E9E9"/>
<path d="M147.5 659C147.5 659.828 146.828 660.5 146 660.5C145.172 660.5 144.5 659.828 144.5 659C144.5 658.172 145.172 657.5 146 657.5C146.828 657.5 147.5 658.172 147.5 659Z" fill="#E9E9E9" stroke="#E9E9E9"/>
<path d="M147.5 636C147.5 636.828 146.828 637.5 146 637.5C145.172 637.5 144.5 636.828 144.5 636C144.5 635.172 145.172 634.5 146 634.5C146.828 634.5 147.5 635.172 147.5 636Z" fill="#E9E9E9" stroke="#E9E9E9"/>
<path d="M147.5 613C147.5 613.828 146.828 614.5 146 614.5C145.172 614.5 144.5 613.828 144.5 613C144.5 612.172 145.172 611.5 146 611.5C146.828 611.5 147.5 612.172 147.5 613Z" fill="#E9E9E9" stroke="#E9E9E9"/>
<path d="M147.5 590C147.5 590.828 146.828 591.5 146 591.5C145.172 591.5 144.5 590.828 144.5 590C144.5 589.172 145.172 588.5 146 588.5C146.828 588.5 147.5 589.172 147.5 590Z" fill="#E9E9E9" stroke="#E9E9E9"/>
<path d="M147.5 567C147.5 567.828 146.828 568.5 146 568.5C145.172 568.5 144.5 567.828 144.5 567C144.5 566.172 145.172 565.5 146 565.5C146.828 565.5 147.5 566.172 147.5 567Z" fill="#E9E9E9" stroke="#E9E9E9"/>
<path d="M172.5 659C172.5 659.828 171.828 660.5 171 660.5C170.172 660.5 169.5 659.828 169.5 659C169.5 658.172 170.172 657.5 171 657.5C171.828 657.5 172.5 658.172 172.5 659Z" fill="#E9E9E9" stroke="#E9E9E9"/>
<path d="M172.5 636C172.5 636.828 171.828 637.5 171 637.5C170.172 637.5 169.5 636.828 169.5 636C169.5 635.172 170.172 634.5 171 634.5C171.828 634.5 172.5 635.172 172.5 636Z" fill="#E9E9E9" stroke="#E9E9E9"/>
<path d="M172.5 613C172.5 613.828 171.828 614.5 171 614.5C170.172 614.5 169.5 613.828 169.5 613C169.5 612.172 170.172 611.5 171 611.5C171.828 611.5 172.5 612.172 172.5 613Z" fill="#E9E9E9" stroke="#E9E9E9"/>
<path d="M172.5 590C172.5 590.828 171.828 591.5 171 591.5C170.172 591.5 169.5 590.828 169.5 590C169.5 589.172 170.172 588.5 171 588.5C171.828 588.5 172.5 589.172 172.5 590Z" fill="#E9E9E9" stroke="#E9E9E9"/>
<path d="M172.5 567C172.5 567.828 171.828 568.5 171 568.5C170.172 568.5 169.5 567.828 169.5 567C169.5 566.172 170.172 565.5 171 565.5C171.828 565.5 172.5 566.172 172.5 567Z" fill="#E9E9E9" stroke="#E9E9E9"/>
<path d="M197.5 659C197.5 659.828 196.828 660.5 196 660.5C195.172 660.5 194.5 659.828 194.5 659C194.5 658.172 195.172 657.5 196 657.5C196.828 657.5 197.5 658.172 197.5 659Z" fill="#E9E9E9" stroke="#E9E9E9"/>
<path d="M197.5 636C197.5 636.828 196.828 637.5 196 637.5C195.172 637.5 194.5 636.828 194.5 636C194.5 635.172 195.172 634.5 196 634.5C196.828 634.5 197.5 635.172 197.5 636Z" fill="#E9E9E9" stroke="#E9E9E9"/>
<path d="M197.5 613C197.5 613.828 196.828 614.5 196 614.5C195.172 614.5 194.5 613.828 194.5 613C194.5 612.172 195.172 611.5 196 611.5C196.828 611.5 197.5 612.172 197.5 613Z" fill="#E9E9E9" stroke="#E9E9E9"/>
<path d="M197.5 590C197.5 590.828 196.828 591.5 196 591.5C195.172 591.5 194.5 590.828 194.5 590C194.5 589.172 195.172 588.5 196 588.5C196.828 588.5 197.5 589.172 197.5 590Z" fill="#E9E9E9" stroke="#E9E9E9"/>
<path d="M197.5 567C197.5 567.828 196.828 568.5 196 568.5C195.172 568.5 194.5 567.828 194.5 567C194.5 566.172 195.172 565.5 196 565.5C196.828 565.5 197.5 566.172 197.5 567Z" fill="#E9E9E9" stroke="#E9E9E9"/>
<path d="M222.5 659C222.5 659.828 221.828 660.5 221 660.5C220.172 660.5 219.5 659.828 219.5 659C219.5 658.172 220.172 657.5 221 657.5C221.828 657.5 222.5 658.172 222.5 659Z" fill="#E9E9E9" stroke="#E9E9E9"/>
<path d="M222.5 636C222.5 636.828 221.828 637.5 221 637.5C220.172 637.5 219.5 636.828 219.5 636C219.5 635.172 220.172 634.5 221 634.5C221.828 634.5 222.5 635.172 222.5 636Z" fill="#E9E9E9" stroke="#E9E9E9"/>
<path d="M222.5 613C222.5 613.828 221.828 614.5 221 614.5C220.172 614.5 219.5 613.828 219.5 613C219.5 612.172 220.172 611.5 221 611.5C221.828 611.5 222.5 612.172 222.5 613Z" fill="#E9E9E9" stroke="#E9E9E9"/>
<path d="M222.5 590C222.5 590.828 221.828 591.5 221 591.5C220.172 591.5 219.5 590.828 219.5 590C219.5 589.172 220.172 588.5 221 588.5C221.828 588.5 222.5 589.172 222.5 590Z" fill="#E9E9E9" stroke="#E9E9E9"/>
<path d="M222.5 567C222.5 567.828 221.828 568.5 221 568.5C220.172 568.5 219.5 567.828 219.5 567C219.5 566.172 220.172 565.5 221 565.5C221.828 565.5 222.5 566.172 222.5 567Z" fill="#E9E9E9" stroke="#E9E9E9"/>
<path d="M247.5 659C247.5 659.828 246.828 660.5 246 660.5C245.172 660.5 244.5 659.828 244.5 659C244.5 658.172 245.172 657.5 246 657.5C246.828 657.5 247.5 658.172 247.5 659Z" fill="#E9E9E9" stroke="#E9E9E9"/>
<path d="M247.5 636C247.5 636.828 246.828 637.5 246 637.5C245.172 637.5 244.5 636.828 244.5 636C244.5 635.172 245.172 634.5 246 634.5C246.828 634.5 247.5 635.172 247.5 636Z" fill="#E9E9E9" stroke="#E9E9E9"/>
<path d="M247.5 613C247.5 613.828 246.828 614.5 246 614.5C245.172 614.5 244.5 613.828 244.5 613C244.5 612.172 245.172 611.5 246 611.5C246.828 611.5 247.5 612.172 247.5 613Z" fill="#E9E9E9" stroke="#E9E9E9"/>
<path d="M247.5 590C247.5 590.828 246.828 591.5 246 591.5C245.172 591.5 244.5 590.828 244.5 590C244.5 589.172 245.172 588.5 246 588.5C246.828 588.5 247.5 589.172 247.5 590Z" fill="#E9E9E9" stroke="#E9E9E9"/>
<path d="M247.5 567C247.5 567.828 246.828 568.5 246 568.5C245.172 568.5 244.5 567.828 244.5 567C244.5 566.172 245.172 565.5 246 565.5C246.828 565.5 247.5 566.172 247.5 567Z" fill="#E9E9E9" stroke="#E9E9E9"/>
<path d="M272.5 659C272.5 659.828 271.828 660.5 271 660.5C270.172 660.5 269.5 659.828 269.5 659C269.5 658.172 270.172 657.5 271 657.5C271.828 657.5 272.5 658.172 272.5 659Z" fill="#E9E9E9" stroke="#E9E9E9"/>
<path d="M272.5 636C272.5 636.828 271.828 637.5 271 637.5C270.172 637.5 269.5 636.828 269.5 636C269.5 635.172 270.172 634.5 271 634.5C271.828 634.5 272.5 635.172 272.5 636Z" fill="#E9E9E9" stroke="#E9E9E9"/>
<path d="M272.5 613C272.5 613.828 271.828 614.5 271 614.5C270.172 614.5 269.5 613.828 269.5 613C269.5 612.172 270.172 611.5 271 611.5C271.828 611.5 272.5 612.172 272.5 613Z" fill="#E9E9E9" stroke="#E9E9E9"/>
<path d="M272.5 590C272.5 590.828 271.828 591.5 271 591.5C270.172 591.5 269.5 590.828 269.5 590C269.5 589.172 270.172 588.5 271 588.5C271.828 588.5 272.5 589.172 272.5 590Z" fill="#E9E9E9" stroke="#E9E9E9"/>
<path d="M272.5 567C272.5 567.828 271.828 568.5 271 568.5C270.172 568.5 269.5 567.828 269.5 567C269.5 566.172 270.172 565.5 271 565.5C271.828 565.5 272.5 566.172 272.5 567Z" fill="#E9E9E9" stroke="#E9E9E9"/>
<path d="M297.5 659C297.5 659.828 296.828 660.5 296 660.5C295.172 660.5 294.5 659.828 294.5 659C294.5 658.172 295.172 657.5 296 657.5C296.828 657.5 297.5 658.172 297.5 659Z" fill="#E9E9E9" stroke="#E9E9E9"/>
<path d="M297.5 636C297.5 636.828 296.828 637.5 296 637.5C295.172 637.5 294.5 636.828 294.5 636C294.5 635.172 295.172 634.5 296 634.5C296.828 634.5 297.5 635.172 297.5 636Z" fill="#E9E9E9" stroke="#E9E9E9"/>
<path d="M297.5 613C297.5 613.828 296.828 614.5 296 614.5C295.172 614.5 294.5 613.828 294.5 613C294.5 612.172 295.172 611.5 296 611.5C296.828 611.5 297.5 612.172 297.5 613Z" fill="#E9E9E9" stroke="#E9E9E9"/>
<path d="M297.5 590C297.5 590.828 296.828 591.5 296 591.5C295.172 591.5 294.5 590.828 294.5 590C294.5 589.172 295.172 588.5 296 588.5C296.828 588.5 297.5 589.172 297.5 590Z" fill="#E9E9E9" stroke="#E9E9E9"/>
<path d="M297.5 567C297.5 567.828 296.828 568.5 296 568.5C295.172 568.5 294.5 567.828 294.5 567C294.5 566.172 295.172 565.5 296 565.5C296.828 565.5 297.5 566.172 297.5 567Z" fill="#E9E9E9" stroke="#E9E9E9"/>
</svg>
