<svg width="382" height="295" viewBox="0 0 382 295" fill="none" xmlns="http://www.w3.org/2000/svg">
<g clip-path="url(#clip0_131_196)">
<rect x="24" y="133" width="66" height="14" rx="7" transform="rotate(-90 24 133)" fill="#F2F2F2"/>
<rect x="24" y="133" width="45.0581" height="14" rx="7" transform="rotate(-90 24 133)" fill="url(#paint0_linear_131_196)"/>
</g>
<g clip-path="url(#clip1_131_196)">
<rect x="42.1807" y="133" width="55" height="14" rx="7" transform="rotate(-90 42.1807 133)" fill="#F2F2F2"/>
<rect x="42.1807" y="133" width="32" height="14" rx="7" transform="rotate(-90 42.1807 133)" fill="url(#paint1_linear_131_196)"/>
</g>
<g clip-path="url(#clip2_131_196)">
<rect x="60.3613" y="133" width="111" height="14" rx="7" transform="rotate(-90 60.3613 133)" fill="#F2F2F2"/>
<rect x="60.3613" y="133" width="70" height="14" rx="7" transform="rotate(-90 60.3613 133)" fill="url(#paint2_linear_131_196)"/>
</g>
<g clip-path="url(#clip3_131_196)">
<rect x="78.542" y="133" width="100" height="14" rx="7" transform="rotate(-90 78.542 133)" fill="#F2F2F2"/>
<rect x="78.542" y="133" width="45.0581" height="14" rx="7" transform="rotate(-90 78.542 133)" fill="url(#paint3_linear_131_196)"/>
</g>
<g clip-path="url(#clip4_131_196)">
<rect x="96.7227" y="133" width="68" height="14" rx="7" transform="rotate(-90 96.7227 133)" fill="#F2F2F2"/>
<rect x="96.7227" y="133" width="45.0581" height="14" rx="7" transform="rotate(-90 96.7227 133)" fill="url(#paint4_linear_131_196)"/>
</g>
<g clip-path="url(#clip5_131_196)">
<rect x="114.903" y="133" width="86.4" height="13.9355" rx="6.96774" transform="rotate(-90 114.903 133)" fill="#F2F2F2"/>
<rect x="114.903" y="133" width="45.0581" height="13.9355" rx="6.96774" transform="rotate(-90 114.903 133)" fill="url(#paint5_linear_131_196)"/>
</g>
<g clip-path="url(#clip6_131_196)">
<rect x="133.02" y="133" width="86.4" height="13.9355" rx="6.96774" transform="rotate(-90 133.02 133)" fill="#F2F2F2"/>
<rect x="133.02" y="133" width="45.0581" height="13.9355" rx="6.96774" transform="rotate(-90 133.02 133)" fill="url(#paint6_linear_131_196)"/>
</g>
<g clip-path="url(#clip7_131_196)">
<rect x="151.136" y="133" width="114.735" height="13.9355" rx="6.96774" transform="rotate(-90 151.136 133)" fill="#F2F2F2"/>
<rect x="151.136" y="133" width="80.3613" height="13.9355" rx="6.96774" transform="rotate(-90 151.136 133)" fill="url(#paint7_linear_131_196)"/>
</g>
<g clip-path="url(#clip8_131_196)">
<rect x="169.252" y="133" width="73.3935" height="13.9355" rx="6.96774" transform="rotate(-90 169.252 133)" fill="#F2F2F2"/>
<rect x="169.252" y="133" width="43.2" height="13.9355" rx="6.96774" transform="rotate(-90 169.252 133)" fill="url(#paint8_linear_131_196)"/>
</g>
<g clip-path="url(#clip9_131_196)">
<rect x="187.368" y="133" width="45.9871" height="13.9355" rx="6.96774" transform="rotate(-90 187.368 133)" fill="#F2F2F2"/>
<rect x="187.368" y="133" width="29.729" height="13.9355" rx="6.96774" transform="rotate(-90 187.368 133)" fill="url(#paint9_linear_131_196)"/>
</g>
<g clip-path="url(#clip10_131_196)">
<rect x="205.484" y="133" width="90.1161" height="13.9355" rx="6.96774" transform="rotate(-90 205.484 133)" fill="#F2F2F2"/>
<rect x="205.484" y="133" width="54.3484" height="13.9355" rx="6.96774" transform="rotate(-90 205.484 133)" fill="url(#paint10_linear_131_196)"/>
</g>
<g clip-path="url(#clip11_131_196)">
<rect x="223.6" y="133" width="68" height="14" rx="7" transform="rotate(-90 223.6 133)" fill="#F2F2F2"/>
<rect x="223.6" y="133" width="45.0581" height="14" rx="7" transform="rotate(-90 223.6 133)" fill="url(#paint11_linear_131_196)"/>
</g>
<g clip-path="url(#clip12_131_196)">
<rect x="241.78" y="133" width="86.4" height="13.9355" rx="6.96774" transform="rotate(-90 241.78 133)" fill="#F2F2F2"/>
<rect x="241.78" y="133" width="45.0581" height="13.9355" rx="6.96774" transform="rotate(-90 241.78 133)" fill="url(#paint12_linear_131_196)"/>
</g>
<g clip-path="url(#clip13_131_196)">
<rect x="259.896" y="133" width="86.4" height="13.9355" rx="6.96774" transform="rotate(-90 259.896 133)" fill="#F2F2F2"/>
<rect x="259.896" y="133" width="45.0581" height="13.9355" rx="6.96774" transform="rotate(-90 259.896 133)" fill="url(#paint13_linear_131_196)"/>
</g>
<g clip-path="url(#clip14_131_196)">
<rect x="278.013" y="133" width="114.735" height="13.9355" rx="6.96774" transform="rotate(-90 278.013 133)" fill="#F2F2F2"/>
<rect x="278.013" y="133" width="80.3613" height="13.9355" rx="6.96774" transform="rotate(-90 278.013 133)" fill="url(#paint14_linear_131_196)"/>
</g>
<g clip-path="url(#clip15_131_196)">
<rect x="296.129" y="133" width="73.3935" height="13.9355" rx="6.96774" transform="rotate(-90 296.129 133)" fill="#F2F2F2"/>
<rect x="296.129" y="133" width="43.2" height="13.9355" rx="6.96774" transform="rotate(-90 296.129 133)" fill="url(#paint15_linear_131_196)"/>
</g>
<g clip-path="url(#clip16_131_196)">
<rect x="314.245" y="133" width="45.9871" height="13.9355" rx="6.96774" transform="rotate(-90 314.245 133)" fill="#F2F2F2"/>
<rect x="314.245" y="133" width="29.729" height="13.9355" rx="6.96774" transform="rotate(-90 314.245 133)" fill="url(#paint16_linear_131_196)"/>
</g>
<g clip-path="url(#clip17_131_196)">
<rect x="332.361" y="133" width="45.9871" height="13.9355" rx="6.96774" transform="rotate(-90 332.361 133)" fill="#F2F2F2"/>
<rect x="332.361" y="133" width="29.729" height="13.9355" rx="6.96774" transform="rotate(-90 332.361 133)" fill="url(#paint17_linear_131_196)"/>
</g>
<g clip-path="url(#clip18_131_196)">
<rect x="350.478" y="133" width="90.1161" height="13.9355" rx="6.96774" transform="rotate(-90 350.478 133)" fill="#F2F2F2"/>
<rect x="350.478" y="133" width="54.3484" height="13.9355" rx="6.96774" transform="rotate(-90 350.478 133)" fill="url(#paint18_linear_131_196)"/>
</g>
<defs>
<linearGradient id="paint0_linear_131_196" x1="68.0052" y1="149.835" x2="27.1452" y2="134.663" gradientUnits="userSpaceOnUse">
<stop stop-color="#369FAE"/>
<stop offset="0.9886" stop-color="#6BE4CA"/>
<stop offset="0.9924" stop-color="#6BE4CA"/>
</linearGradient>
<linearGradient id="paint1_linear_131_196" x1="73.433" y1="149.835" x2="42.5603" y2="141.694" gradientUnits="userSpaceOnUse">
<stop stop-color="#369FAE"/>
<stop offset="0.9886" stop-color="#6BE4CA"/>
<stop offset="0.9924" stop-color="#6BE4CA"/>
</linearGradient>
<linearGradient id="paint2_linear_131_196" x1="128.726" y1="149.835" x2="74.53" y2="118.572" gradientUnits="userSpaceOnUse">
<stop stop-color="#369FAE"/>
<stop offset="0.9886" stop-color="#6BE4CA"/>
<stop offset="0.9924" stop-color="#6BE4CA"/>
</linearGradient>
<linearGradient id="paint3_linear_131_196" x1="122.547" y1="149.835" x2="81.6872" y2="134.663" gradientUnits="userSpaceOnUse">
<stop stop-color="#369FAE"/>
<stop offset="0.9886" stop-color="#6BE4CA"/>
<stop offset="0.9924" stop-color="#6BE4CA"/>
</linearGradient>
<linearGradient id="paint4_linear_131_196" x1="140.728" y1="149.835" x2="99.8679" y2="134.663" gradientUnits="userSpaceOnUse">
<stop stop-color="#369FAE"/>
<stop offset="0.9886" stop-color="#6BE4CA"/>
<stop offset="0.9924" stop-color="#6BE4CA"/>
</linearGradient>
<linearGradient id="paint5_linear_131_196" x1="158.909" y1="149.758" x2="118.094" y2="134.533" gradientUnits="userSpaceOnUse">
<stop stop-color="#369FAE"/>
<stop offset="0.9886" stop-color="#6BE4CA"/>
<stop offset="0.9924" stop-color="#6BE4CA"/>
</linearGradient>
<linearGradient id="paint6_linear_131_196" x1="177.025" y1="149.758" x2="136.211" y2="134.533" gradientUnits="userSpaceOnUse">
<stop stop-color="#369FAE"/>
<stop offset="0.9886" stop-color="#6BE4CA"/>
<stop offset="0.9924" stop-color="#6BE4CA"/>
</linearGradient>
<linearGradient id="paint7_linear_131_196" x1="229.619" y1="149.758" x2="172.14" y2="111.516" gradientUnits="userSpaceOnUse">
<stop stop-color="#369FAE"/>
<stop offset="0.9886" stop-color="#6BE4CA"/>
<stop offset="0.9924" stop-color="#6BE4CA"/>
</linearGradient>
<linearGradient id="paint8_linear_131_196" x1="211.443" y1="149.758" x2="171.922" y2="135.623" gradientUnits="userSpaceOnUse">
<stop stop-color="#369FAE"/>
<stop offset="0.9886" stop-color="#6BE4CA"/>
<stop offset="0.9924" stop-color="#6BE4CA"/>
</linearGradient>
<linearGradient id="paint9_linear_131_196" x1="216.403" y1="149.758" x2="187.478" y2="142.639" gradientUnits="userSpaceOnUse">
<stop stop-color="#369FAE"/>
<stop offset="0.9886" stop-color="#6BE4CA"/>
<stop offset="0.9924" stop-color="#6BE4CA"/>
</linearGradient>
<linearGradient id="paint10_linear_131_196" x1="258.563" y1="149.758" x2="211.925" y2="128.773" gradientUnits="userSpaceOnUse">
<stop stop-color="#369FAE"/>
<stop offset="0.9886" stop-color="#6BE4CA"/>
<stop offset="0.9924" stop-color="#6BE4CA"/>
</linearGradient>
<linearGradient id="paint11_linear_131_196" x1="267.605" y1="149.835" x2="226.745" y2="134.663" gradientUnits="userSpaceOnUse">
<stop stop-color="#369FAE"/>
<stop offset="0.9886" stop-color="#6BE4CA"/>
<stop offset="0.9924" stop-color="#6BE4CA"/>
</linearGradient>
<linearGradient id="paint12_linear_131_196" x1="285.786" y1="149.758" x2="244.971" y2="134.533" gradientUnits="userSpaceOnUse">
<stop stop-color="#369FAE"/>
<stop offset="0.9886" stop-color="#6BE4CA"/>
<stop offset="0.9924" stop-color="#6BE4CA"/>
</linearGradient>
<linearGradient id="paint13_linear_131_196" x1="303.902" y1="149.758" x2="263.088" y2="134.533" gradientUnits="userSpaceOnUse">
<stop stop-color="#369FAE"/>
<stop offset="0.9886" stop-color="#6BE4CA"/>
<stop offset="0.9924" stop-color="#6BE4CA"/>
</linearGradient>
<linearGradient id="paint14_linear_131_196" x1="356.496" y1="149.758" x2="299.017" y2="111.516" gradientUnits="userSpaceOnUse">
<stop stop-color="#369FAE"/>
<stop offset="0.9886" stop-color="#6BE4CA"/>
<stop offset="0.9924" stop-color="#6BE4CA"/>
</linearGradient>
<linearGradient id="paint15_linear_131_196" x1="338.319" y1="149.758" x2="298.798" y2="135.623" gradientUnits="userSpaceOnUse">
<stop stop-color="#369FAE"/>
<stop offset="0.9886" stop-color="#6BE4CA"/>
<stop offset="0.9924" stop-color="#6BE4CA"/>
</linearGradient>
<linearGradient id="paint16_linear_131_196" x1="343.28" y1="149.758" x2="314.355" y2="142.639" gradientUnits="userSpaceOnUse">
<stop stop-color="#369FAE"/>
<stop offset="0.9886" stop-color="#6BE4CA"/>
<stop offset="0.9924" stop-color="#6BE4CA"/>
</linearGradient>
<linearGradient id="paint17_linear_131_196" x1="361.396" y1="149.758" x2="332.472" y2="142.639" gradientUnits="userSpaceOnUse">
<stop stop-color="#369FAE"/>
<stop offset="0.9886" stop-color="#6BE4CA"/>
<stop offset="0.9924" stop-color="#6BE4CA"/>
</linearGradient>
<linearGradient id="paint18_linear_131_196" x1="403.556" y1="149.758" x2="356.918" y2="128.773" gradientUnits="userSpaceOnUse">
<stop stop-color="#369FAE"/>
<stop offset="0.9886" stop-color="#6BE4CA"/>
<stop offset="0.9924" stop-color="#6BE4CA"/>
</linearGradient>
<clipPath id="clip0_131_196">
<rect x="24" y="133" width="66" height="14" rx="7" transform="rotate(-90 24 133)" fill="white"/>
</clipPath>
<clipPath id="clip1_131_196">
<rect x="42.1807" y="133" width="55" height="14" rx="7" transform="rotate(-90 42.1807 133)" fill="white"/>
</clipPath>
<clipPath id="clip2_131_196">
<rect x="60.3613" y="133" width="111" height="14" rx="7" transform="rotate(-90 60.3613 133)" fill="white"/>
</clipPath>
<clipPath id="clip3_131_196">
<rect x="78.542" y="133" width="100" height="14" rx="7" transform="rotate(-90 78.542 133)" fill="white"/>
</clipPath>
<clipPath id="clip4_131_196">
<rect x="96.7227" y="133" width="68" height="14" rx="7" transform="rotate(-90 96.7227 133)" fill="white"/>
</clipPath>
<clipPath id="clip5_131_196">
<rect x="114.903" y="133" width="86.4" height="13.9355" rx="6.96774" transform="rotate(-90 114.903 133)" fill="white"/>
</clipPath>
<clipPath id="clip6_131_196">
<rect x="133.02" y="133" width="86.4" height="13.9355" rx="6.96774" transform="rotate(-90 133.02 133)" fill="white"/>
</clipPath>
<clipPath id="clip7_131_196">
<rect x="151.136" y="133" width="114.735" height="13.9355" rx="6.96774" transform="rotate(-90 151.136 133)" fill="white"/>
</clipPath>
<clipPath id="clip8_131_196">
<rect x="169.252" y="133" width="73.3935" height="13.9355" rx="6.96774" transform="rotate(-90 169.252 133)" fill="white"/>
</clipPath>
<clipPath id="clip9_131_196">
<rect x="187.368" y="133" width="45.9871" height="13.9355" rx="6.96774" transform="rotate(-90 187.368 133)" fill="white"/>
</clipPath>
<clipPath id="clip10_131_196">
<rect x="205.484" y="133" width="90.1161" height="13.9355" rx="6.96774" transform="rotate(-90 205.484 133)" fill="white"/>
</clipPath>
<clipPath id="clip11_131_196">
<rect x="223.6" y="133" width="68" height="14" rx="7" transform="rotate(-90 223.6 133)" fill="white"/>
</clipPath>
<clipPath id="clip12_131_196">
<rect x="241.78" y="133" width="86.4" height="13.9355" rx="6.96774" transform="rotate(-90 241.78 133)" fill="white"/>
</clipPath>
<clipPath id="clip13_131_196">
<rect x="259.896" y="133" width="86.4" height="13.9355" rx="6.96774" transform="rotate(-90 259.896 133)" fill="white"/>
</clipPath>
<clipPath id="clip14_131_196">
<rect x="278.013" y="133" width="114.735" height="13.9355" rx="6.96774" transform="rotate(-90 278.013 133)" fill="white"/>
</clipPath>
<clipPath id="clip15_131_196">
<rect x="296.129" y="133" width="73.3935" height="13.9355" rx="6.96774" transform="rotate(-90 296.129 133)" fill="white"/>
</clipPath>
<clipPath id="clip16_131_196">
<rect x="314.245" y="133" width="45.9871" height="13.9355" rx="6.96774" transform="rotate(-90 314.245 133)" fill="white"/>
</clipPath>
<clipPath id="clip17_131_196">
<rect x="332.361" y="133" width="45.9871" height="13.9355" rx="6.96774" transform="rotate(-90 332.361 133)" fill="white"/>
</clipPath>
<clipPath id="clip18_131_196">
<rect x="350.478" y="133" width="90.1161" height="13.9355" rx="6.96774" transform="rotate(-90 350.478 133)" fill="white"/>
</clipPath>
</defs>
</svg>
