<svg width="382" height="153" viewBox="0 0 382 153" fill="none" xmlns="http://www.w3.org/2000/svg">
<g clip-path="url(#clip0_387_1354)">
<path d="M260.342 68.7782L249.435 64.9624C248.264 64.5417 246.972 65.1727 246.551 66.3445L233.211 104.413C232.79 105.584 233.421 106.876 234.593 107.297L245.499 111.113C246.671 111.533 247.963 110.903 248.384 109.731L261.724 71.6626C262.145 70.4908 261.514 69.1988 260.342 68.7782ZM263.948 74.4268L251.869 108.919L257.668 113.126C270.047 125.294 272 127.878 284.048 139.927C289.126 145.005 295.526 139.296 293.543 136.532L283.838 127.278C283.237 126.707 283.237 125.775 283.808 125.174C284.379 124.573 285.34 124.573 285.941 125.144L296.938 135.69L298.14 136.802L299.282 137.824C302.647 140.858 309.677 134.789 306.553 131.724L295.556 121.178C294.955 120.607 294.955 119.646 295.526 119.045C296.097 118.444 297.058 118.444 297.659 119.015L308.656 129.561C311.029 131.814 314.485 129.321 315.687 126.977C316.468 125.505 316.438 124.063 315.266 122.861L304.269 112.315C303.668 111.744 303.668 110.782 304.239 110.181C304.81 109.58 305.771 109.58 306.372 110.151L317.369 120.697C317.399 120.728 317.429 120.758 317.459 120.788C320.734 124.063 326.834 117.362 324.4 114.929L309.107 99.7555C304.389 95.0683 300.243 93.6261 295.195 97.0514C288.014 101.919 281.374 101.438 277.048 99.0945C274.524 97.7124 272.33 95.4289 271.82 92.7548C271.399 90.5314 272.15 88.4282 274.404 87.0761L286.993 79.5947L263.948 74.4268ZM334.585 107.928L322.838 74.4268C315.807 75.6888 293.393 78.6633 291.47 80.2858C291.319 80.436 291.169 80.5562 290.989 80.6463L275.876 89.63C273.923 90.7718 274.614 92.875 275.846 94.3472C276.507 95.1284 277.378 95.8495 278.43 96.4204C281.945 98.3133 287.383 98.6438 293.453 94.5275C299.792 90.2309 305.411 91.8835 311.15 97.5922L326.022 112.375L334.585 107.928ZM337.35 64.9624L326.443 68.7782C325.271 69.1988 324.64 70.4908 325.061 71.6626L337.8 108.078C338.281 109.31 338.371 110.452 339.543 111.023C340.084 111.293 340.685 111.323 341.286 111.113L352.192 107.297C353.364 106.876 353.995 105.584 353.574 104.413L340.234 66.3445C339.843 65.1727 338.521 64.5417 337.35 64.9624ZM300.243 21.5761L293.393 11.03L286.602 21.5461C286.392 21.8766 286.091 22.147 285.701 22.2371L273.562 25.4821L281.464 35.217C281.705 35.4874 281.855 35.878 281.825 36.2686L281.134 48.8277L292.882 44.2908C293.212 44.1706 293.603 44.1406 293.963 44.2908L305.681 48.8277L305.02 36.2686C304.99 35.908 305.11 35.5475 305.351 35.247L313.283 25.4821L301.144 22.2371C300.754 22.117 300.453 21.9066 300.243 21.5761ZM341.676 34.7362L338.612 30.019L335.577 34.6761C335.397 35.0066 335.066 35.277 334.676 35.3672L329.237 36.8094L332.753 41.136C332.993 41.4064 333.143 41.797 333.113 42.1876L332.813 47.8062L338.071 45.7931C338.401 45.6729 338.792 45.6429 339.152 45.7931L344.41 47.8062L344.11 42.1876C344.08 41.8271 344.2 41.4665 344.441 41.166L347.986 36.8094L342.548 35.3672C342.217 35.277 341.887 35.0667 341.676 34.7362ZM251.238 34.7362L248.174 30.019L245.139 34.6761C244.959 35.0066 244.628 35.277 244.238 35.3672L238.799 36.8094L242.315 41.166C242.555 41.4365 242.705 41.827 242.675 42.2176L242.375 47.8362L247.633 45.8232C247.963 45.703 248.354 45.6729 248.714 45.8232L253.972 47.8362L253.672 42.2176C253.642 41.8571 253.762 41.4965 254.002 41.1961L257.548 36.8394L252.11 35.3972C251.749 35.277 251.449 35.0667 251.238 34.7362Z" fill="url(#paint0_linear_387_1354)"/>
</g>
<defs>
<linearGradient id="paint0_linear_387_1354" x1="350.887" y1="168.474" x2="227.809" y2="155.392" gradientUnits="userSpaceOnUse">
<stop stop-color="#369FAE"/>
<stop offset="0.9886" stop-color="#6BE4CA"/>
<stop offset="0.9924" stop-color="#6BE4CA"/>
</linearGradient>
<clipPath id="clip0_387_1354">
<rect width="120.784" height="131" fill="white" transform="translate(233 11)"/>
</clipPath>
</defs>
</svg>
