<svg width="382" height="102" viewBox="0 0 382 102" fill="none" xmlns="http://www.w3.org/2000/svg">
<path d="M18.9288 56.1163C7.9805 54.7862 2.91212 58.6628 0 60.5863V126.964H382V1.29736C378.378 8.93295 348.214 28.364 347.418 28.364C346.622 28.364 343.56 27.8804 343.162 27.3974C341.033 24.8196 327.201 30.2974 327.206 30.7905C327.211 31.2837 303.981 35.0935 294.991 37.5227C292.322 34.2101 286.307 27.4171 279.318 31.264C270.581 36.0727 253.836 40.2764 251.652 38.3529C249.468 36.4294 243.441 29.1877 233.977 33.0346L233.78 33.1147C224.332 36.9552 211.381 42.2196 202.705 42.2196C193.968 42.2196 188.452 36.4064 184.084 33.8418C179.715 31.2772 174.48 38.1638 170.84 40.0873C167.2 42.0108 167.31 42.2114 164.398 40.6085C161.486 39.0056 152.414 40.9373 149.501 42.2196C146.589 43.5019 147.377 45.9898 134.072 48.664C116.814 52.1329 116.829 39.8424 113.855 39.3196C109.608 38.5731 98.0678 44.2548 88.6035 47.4606C79.1391 50.6664 78.9088 50.9229 72.3566 51.564C65.8043 52.2052 59.3636 48.3385 54.2674 47.6974C49.1712 47.0562 46.2588 50.9426 40.4345 55.4307C34.6103 59.9188 29.0427 57.3449 18.9288 56.1163Z" fill="url(#paint0_linear_76_212)"/>
<path d="M0.644531 59.9419C3.56667 57.9303 9.26483 54.4436 17.4468 55.2482C27.6743 56.254 33.5185 59.9419 39.3628 55.2482C45.2071 50.5546 49.5903 46.5314 54.704 47.202C59.8178 47.8725 63.4704 51.5604 70.0452 50.8898C76.62 50.2193 58.3015 57.7171 87.578 47.202C116.855 36.6869 113.667 38.2896 115.338 41.8378C117.398 46.2112 123.374 52.5661 135.793 48.543C148.212 44.5199 148.505 40.1615 156.979 40.1615C165.453 40.1615 160.631 38.4852 163.554 40.1615C166.476 41.8378 167.937 41.1673 171.589 39.1557C175.242 37.1442 180.48 31.1095 184.864 33.7916C189.247 36.4736 192.775 41.8378 201.541 41.8378C210.308 41.8378 224.451 36.4736 233.948 32.4505C243.445 28.4274 249.026 36.1384 251.218 38.1499C253.409 40.1615 269.481 36.1384 278.247 31.1095C285.26 27.0864 292.371 33.0093 295.05 36.4736C304.547 35.0208 325.44 31.2436 333.037 27.7569C340.635 24.2702 344.969 27.4216 346.187 29.4332C353.005 27.0864 377.381 10.3364 381.033 1.61963" stroke="#38A2AF" stroke-width="1.93333" stroke-linecap="round" stroke-linejoin="round"/>
<defs>
<linearGradient id="paint0_linear_76_212" x1="186.375" y1="16.3645" x2="186.375" y2="101.5" gradientUnits="userSpaceOnUse">
<stop stop-color="#38A2AF"/>
<stop offset="1" stop-color="#38A2AF" stop-opacity="0.16"/>
</linearGradient>
</defs>
</svg>
