<svg width="33" height="32" viewBox="0 0 33 32" fill="none" xmlns="http://www.w3.org/2000/svg">
<path d="M16.5 3C13.9288 3 11.4154 3.76244 9.27759 5.1909C7.13975 6.61935 5.47351 8.64968 4.48957 11.0251C3.50563 13.4006 3.24819 16.0144 3.7498 18.5362C4.25141 21.0579 5.48953 23.3743 7.30762 25.1924C9.1257 27.0105 11.4421 28.2486 13.9638 28.7502C16.4856 29.2518 19.0995 28.9944 21.4749 28.0104C23.8503 27.0265 25.8807 25.3603 27.3091 23.2224C28.7376 21.0846 29.5 18.5712 29.5 16C29.4964 12.5533 28.1256 9.24882 25.6884 6.81163C23.2512 4.37445 19.9467 3.00364 16.5 3ZM16.5 27C14.3244 27 12.1977 26.3549 10.3887 25.1462C8.57979 23.9375 7.16989 22.2195 6.33733 20.2095C5.50477 18.1995 5.28693 15.9878 5.71137 13.854C6.13581 11.7202 7.18345 9.7602 8.72183 8.22183C10.2602 6.68345 12.2202 5.6358 14.354 5.21136C16.4878 4.78692 18.6995 5.00476 20.7095 5.83733C22.7195 6.66989 24.4375 8.07979 25.6462 9.88873C26.8549 11.6977 27.5 13.8244 27.5 16C27.4967 18.9164 26.3367 21.7123 24.2745 23.7745C22.2123 25.8367 19.4164 26.9967 16.5 27ZM15.5 17V10C15.5 9.73478 15.6054 9.48043 15.7929 9.29289C15.9804 9.10536 16.2348 9 16.5 9C16.7652 9 17.0196 9.10536 17.2071 9.29289C17.3946 9.48043 17.5 9.73478 17.5 10V17C17.5 17.2652 17.3946 17.5196 17.2071 17.7071C17.0196 17.8946 16.7652 18 16.5 18C16.2348 18 15.9804 17.8946 15.7929 17.7071C15.6054 17.5196 15.5 17.2652 15.5 17ZM18 21.5C18 21.7967 17.912 22.0867 17.7472 22.3334C17.5824 22.58 17.3481 22.7723 17.074 22.8858C16.7999 22.9993 16.4983 23.0291 16.2074 22.9712C15.9164 22.9133 15.6491 22.7704 15.4393 22.5607C15.2296 22.3509 15.0867 22.0836 15.0288 21.7926C14.971 21.5017 15.0007 21.2001 15.1142 20.926C15.2277 20.6519 15.42 20.4176 15.6667 20.2528C15.9133 20.088 16.2033 20 16.5 20C16.8978 20 17.2794 20.158 17.5607 20.4393C17.842 20.7206 18 21.1022 18 21.5Z" fill="black"/>
</svg>
