<svg width="375" height="330" viewBox="0 0 375 330" fill="none" xmlns="http://www.w3.org/2000/svg">
<g filter="url(#filter0_d_657_5752)">
<g clip-path="url(#clip0_657_5752)">
<rect x="12" y="31" width="351" height="262" rx="9" fill="white"/>
<path d="M28.585 246.175C29.005 245.815 29.5025 245.535 30.0775 245.335C30.6575 245.135 31.3 245.035 32.005 245.035C32.59 245.035 33.1175 245.105 33.5875 245.245C34.0625 245.385 34.465 245.583 34.795 245.838C35.125 246.088 35.3775 246.388 35.5525 246.738C35.7325 247.083 35.8225 247.463 35.8225 247.878C35.8225 248.387 35.705 248.85 35.47 249.265C35.24 249.675 34.89 250.008 34.42 250.263C34.67 250.382 34.8975 250.525 35.1025 250.69C35.3125 250.85 35.49 251.03 35.635 251.23C35.785 251.425 35.9 251.638 35.98 251.868C36.065 252.098 36.1075 252.343 36.1075 252.603C36.1075 253.093 36.015 253.55 35.83 253.975C35.65 254.4 35.385 254.77 35.035 255.085C34.69 255.4 34.265 255.65 33.76 255.835C33.255 256.015 32.6775 256.105 32.0275 256.105C31.6475 256.105 31.275 256.07 30.91 256C30.55 255.935 30.205 255.84 29.875 255.715C29.545 255.59 29.235 255.44 28.945 255.265C28.655 255.09 28.3975 254.895 28.1725 254.68L28.765 253.713C28.82 253.643 28.885 253.585 28.96 253.54C29.04 253.49 29.1275 253.465 29.2225 253.465C29.3525 253.465 29.495 253.518 29.65 253.623C29.805 253.723 29.9925 253.835 30.2125 253.96C30.4325 254.085 30.6925 254.2 30.9925 254.305C31.2975 254.405 31.6625 254.455 32.0875 254.455C32.7625 254.455 33.285 254.31 33.655 254.02C34.025 253.73 34.21 253.285 34.21 252.685C34.21 252.44 34.16 252.22 34.06 252.025C33.96 251.83 33.8175 251.665 33.6325 251.53C33.4475 251.395 33.2225 251.293 32.9575 251.223C32.6975 251.148 32.4075 251.11 32.0875 251.11H30.5575L30.55 249.49H31.945C32.57 249.49 33.0575 249.368 33.4075 249.123C33.7625 248.872 33.94 248.512 33.94 248.042C33.94 247.627 33.7725 247.298 33.4375 247.052C33.1075 246.803 32.6275 246.678 31.9975 246.678C31.6325 246.678 31.3175 246.718 31.0525 246.797C30.7925 246.877 30.565 246.965 30.37 247.06C30.18 247.15 30.0175 247.235 29.8825 247.315C29.7525 247.395 29.635 247.435 29.53 247.435C29.43 247.435 29.345 247.41 29.275 247.36C29.205 247.31 29.14 247.235 29.08 247.135L28.585 246.175ZM41.5933 252.715C41.0583 252.74 40.6083 252.787 40.2433 252.857C39.8783 252.923 39.5858 253.008 39.3658 253.113C39.1458 253.218 38.9883 253.34 38.8933 253.48C38.7983 253.62 38.7508 253.772 38.7508 253.938C38.7508 254.263 38.8458 254.495 39.0358 254.635C39.2308 254.775 39.4833 254.845 39.7933 254.845C40.1733 254.845 40.5008 254.777 40.7758 254.643C41.0558 254.503 41.3283 254.293 41.5933 254.013V252.715ZM37.3483 249.378C38.2333 248.568 39.2983 248.162 40.5433 248.162C40.9933 248.162 41.3958 248.237 41.7508 248.387C42.1058 248.532 42.4058 248.738 42.6508 249.003C42.8958 249.263 43.0808 249.575 43.2058 249.94C43.3358 250.305 43.4008 250.705 43.4008 251.14V256H42.5608C42.3858 256 42.2508 255.975 42.1558 255.925C42.0608 255.87 41.9858 255.762 41.9308 255.603L41.7658 255.048C41.5708 255.223 41.3808 255.377 41.1958 255.512C41.0108 255.643 40.8183 255.753 40.6183 255.842C40.4183 255.933 40.2033 256 39.9733 256.045C39.7483 256.095 39.4983 256.12 39.2233 256.12C38.8983 256.12 38.5983 256.077 38.3233 255.993C38.0483 255.902 37.8108 255.77 37.6108 255.595C37.4108 255.42 37.2558 255.203 37.1458 254.943C37.0358 254.683 36.9808 254.38 36.9808 254.035C36.9808 253.84 37.0133 253.647 37.0783 253.458C37.1433 253.263 37.2483 253.078 37.3933 252.903C37.5433 252.728 37.7358 252.563 37.9708 252.407C38.2058 252.252 38.4933 252.117 38.8333 252.002C39.1783 251.887 39.5783 251.795 40.0333 251.725C40.4883 251.65 41.0083 251.605 41.5933 251.59V251.14C41.5933 250.625 41.4833 250.245 41.2633 250C41.0433 249.75 40.7258 249.625 40.3108 249.625C40.0108 249.625 39.7608 249.66 39.5608 249.73C39.3658 249.8 39.1933 249.88 39.0433 249.97C38.8933 250.055 38.7558 250.132 38.6308 250.202C38.5108 250.272 38.3758 250.307 38.2258 250.307C38.0958 250.307 37.9858 250.275 37.8958 250.21C37.8058 250.14 37.7333 250.06 37.6783 249.97L37.3483 249.378ZM51.8505 256H49.998V249.677H46.998V256H45.1455V248.305H51.8505V256ZM60.6755 248.305L56.483 258.115C56.428 258.245 56.3555 258.343 56.2655 258.407C56.1805 258.477 56.048 258.512 55.868 258.512H54.488L55.928 255.422L52.8155 248.305H54.443C54.588 248.305 54.7005 248.34 54.7805 248.41C54.8655 248.48 54.928 248.56 54.968 248.65L56.603 252.64C56.658 252.775 56.703 252.91 56.738 253.045C56.778 253.18 56.8155 253.318 56.8505 253.458C56.8955 253.318 56.9405 253.18 56.9855 253.045C57.0305 252.905 57.0805 252.768 57.1355 252.632L58.6805 248.65C58.7205 248.55 58.7855 248.468 58.8755 248.403C58.9705 248.338 59.0755 248.305 59.1905 248.305H60.6755ZM66.8738 249.933C66.8188 250.003 66.7638 250.058 66.7088 250.097C66.6588 250.138 66.5838 250.158 66.4838 250.158C66.3888 250.158 66.2963 250.13 66.2063 250.075C66.1163 250.015 66.0088 249.95 65.8838 249.88C65.7588 249.805 65.6088 249.74 65.4338 249.685C65.2638 249.625 65.0513 249.595 64.7963 249.595C64.4713 249.595 64.1863 249.655 63.9413 249.775C63.6963 249.89 63.4913 250.058 63.3263 250.278C63.1663 250.498 63.0463 250.765 62.9663 251.08C62.8863 251.39 62.8463 251.742 62.8463 252.137C62.8463 252.547 62.8888 252.913 62.9738 253.233C63.0638 253.553 63.1913 253.823 63.3563 254.043C63.5213 254.258 63.7213 254.423 63.9563 254.538C64.1913 254.648 64.4563 254.703 64.7513 254.703C65.0463 254.703 65.2838 254.668 65.4638 254.598C65.6488 254.523 65.8038 254.443 65.9288 254.358C66.0538 254.267 66.1613 254.187 66.2513 254.117C66.3463 254.043 66.4513 254.005 66.5663 254.005C66.7163 254.005 66.8288 254.063 66.9038 254.177L67.4363 254.852C67.2313 255.093 67.0088 255.295 66.7688 255.46C66.5288 255.62 66.2788 255.75 66.0188 255.85C65.7638 255.945 65.4988 256.012 65.2238 256.052C64.9538 256.092 64.6838 256.112 64.4138 256.112C63.9388 256.112 63.4913 256.025 63.0713 255.85C62.6513 255.67 62.2838 255.41 61.9688 255.07C61.6538 254.73 61.4038 254.315 61.2188 253.825C61.0388 253.33 60.9488 252.767 60.9488 252.137C60.9488 251.573 61.0288 251.05 61.1888 250.57C61.3538 250.085 61.5938 249.668 61.9088 249.318C62.2238 248.963 62.6138 248.685 63.0788 248.485C63.5438 248.285 64.0788 248.185 64.6838 248.185C65.2588 248.185 65.7613 248.278 66.1913 248.463C66.6263 248.648 67.0163 248.913 67.3613 249.258L66.8738 249.933ZM73.1951 248.793C73.2851 248.648 73.4076 248.53 73.5626 248.44C73.7176 248.35 73.8826 248.305 74.0576 248.305H75.5126L73.7201 251.163C73.5951 251.363 73.4676 251.525 73.3376 251.65C73.2076 251.77 73.0501 251.865 72.8651 251.935C73.1151 252.01 73.3201 252.123 73.4801 252.273C73.6401 252.418 73.7851 252.603 73.9151 252.828L75.7151 256H74.4326C74.1076 256 73.8551 255.945 73.6751 255.835C73.4951 255.725 73.3426 255.568 73.2176 255.363L72.0851 253.233C71.9851 253.048 71.8551 252.91 71.6951 252.82C71.5401 252.73 71.3576 252.685 71.1476 252.685H70.4501V256H68.5976V248.305H70.4501V251.477H71.0501C71.2601 251.477 71.4276 251.44 71.5526 251.365C71.6826 251.285 71.7926 251.165 71.8826 251.005L73.1951 248.793ZM80.8071 252.715C80.2721 252.74 79.8221 252.787 79.4571 252.857C79.0921 252.923 78.7996 253.008 78.5796 253.113C78.3596 253.218 78.2021 253.34 78.1071 253.48C78.0121 253.62 77.9646 253.772 77.9646 253.938C77.9646 254.263 78.0596 254.495 78.2496 254.635C78.4446 254.775 78.6971 254.845 79.0071 254.845C79.3871 254.845 79.7146 254.777 79.9896 254.643C80.2696 254.503 80.5421 254.293 80.8071 254.013V252.715ZM76.5621 249.378C77.4471 248.568 78.5121 248.162 79.7571 248.162C80.2071 248.162 80.6096 248.237 80.9646 248.387C81.3196 248.532 81.6196 248.738 81.8646 249.003C82.1096 249.263 82.2946 249.575 82.4196 249.94C82.5496 250.305 82.6146 250.705 82.6146 251.14V256H81.7746C81.5996 256 81.4646 255.975 81.3696 255.925C81.2746 255.87 81.1996 255.762 81.1446 255.603L80.9796 255.048C80.7846 255.223 80.5946 255.377 80.4096 255.512C80.2246 255.643 80.0321 255.753 79.8321 255.842C79.6321 255.933 79.4171 256 79.1871 256.045C78.9621 256.095 78.7121 256.12 78.4371 256.12C78.1121 256.12 77.8121 256.077 77.5371 255.993C77.2621 255.902 77.0246 255.77 76.8246 255.595C76.6246 255.42 76.4696 255.203 76.3596 254.943C76.2496 254.683 76.1946 254.38 76.1946 254.035C76.1946 253.84 76.2271 253.647 76.2921 253.458C76.3571 253.263 76.4621 253.078 76.6071 252.903C76.7571 252.728 76.9496 252.563 77.1846 252.407C77.4196 252.252 77.7071 252.117 78.0471 252.002C78.3921 251.887 78.7921 251.795 79.2471 251.725C79.7021 251.65 80.2221 251.605 80.8071 251.59V251.14C80.8071 250.625 80.6971 250.245 80.4771 250C80.2571 249.75 79.9396 249.625 79.5246 249.625C79.2246 249.625 78.9746 249.66 78.7746 249.73C78.5796 249.8 78.4071 249.88 78.2571 249.97C78.1071 250.055 77.9696 250.132 77.8446 250.202C77.7246 250.272 77.5896 250.307 77.4396 250.307C77.3096 250.307 77.1996 250.275 77.1096 250.21C77.0196 250.14 76.9471 250.06 76.8921 249.97L76.5621 249.378ZM89.8943 249.873C89.8393 249.943 89.7843 249.998 89.7293 250.038C89.6793 250.078 89.6068 250.097 89.5118 250.097C89.4168 250.097 89.3218 250.072 89.2268 250.023C89.1318 249.968 89.0193 249.91 88.8893 249.85C88.7643 249.785 88.6143 249.727 88.4393 249.677C88.2643 249.623 88.0493 249.595 87.7943 249.595C87.2393 249.595 86.7968 249.758 86.4668 250.083C86.1368 250.408 85.9268 250.86 85.8368 251.44H89.0843V252.7H85.8143C85.8993 253.35 86.1143 253.848 86.4593 254.193C86.8043 254.533 87.2343 254.703 87.7493 254.703C87.9443 254.703 88.1143 254.688 88.2593 254.658C88.4093 254.623 88.5393 254.583 88.6493 254.538C88.7593 254.493 88.8568 254.443 88.9418 254.388C89.0268 254.328 89.1043 254.275 89.1743 254.23C89.2443 254.185 89.3118 254.148 89.3768 254.117C89.4418 254.082 89.5143 254.065 89.5943 254.065C89.7393 254.065 89.8518 254.12 89.9318 254.23L90.4343 254.852C90.2293 255.093 90.0068 255.295 89.7668 255.46C89.5268 255.62 89.2768 255.75 89.0168 255.85C88.7618 255.945 88.4968 256.012 88.2218 256.052C87.9518 256.092 87.6818 256.112 87.4118 256.112C86.9368 256.112 86.4893 256.025 86.0693 255.85C85.6493 255.67 85.2818 255.41 84.9668 255.07C84.6518 254.73 84.4018 254.315 84.2168 253.825C84.0368 253.33 83.9468 252.767 83.9468 252.137C83.9468 251.573 84.0268 251.05 84.1868 250.57C84.3518 250.085 84.5918 249.668 84.9068 249.318C85.2218 248.963 85.6118 248.685 86.0768 248.485C86.5418 248.285 87.0768 248.185 87.6818 248.185C88.2568 248.185 88.7593 248.278 89.1893 248.463C89.6243 248.648 90.0143 248.913 90.3593 249.258L89.8943 249.873ZM100.586 248.29V256H98.9139V251.71C98.9139 251.535 98.9214 251.337 98.9364 251.118C98.9564 250.898 98.9864 250.692 99.0264 250.503L96.7614 254.658C96.6514 254.873 96.4764 254.98 96.2364 254.98H96.0414C95.8014 254.98 95.6264 254.873 95.5164 254.658L93.2214 250.48C93.2564 250.67 93.2839 250.878 93.3039 251.102C93.3289 251.327 93.3414 251.53 93.3414 251.71V256H91.6689V248.29H93.1989C93.3289 248.29 93.4564 248.318 93.5814 248.372C93.7114 248.428 93.8189 248.538 93.9039 248.703L95.7189 251.943C95.7989 252.093 95.8739 252.252 95.9439 252.423C96.0139 252.587 96.0789 252.755 96.1389 252.925C96.1989 252.755 96.2614 252.585 96.3264 252.415C96.3964 252.245 96.4714 252.088 96.5514 251.943L98.3514 248.703C98.4414 248.532 98.5489 248.422 98.6739 248.372C98.7989 248.318 98.9264 248.29 99.0564 248.29H100.586ZM105.826 248.185C106.396 248.185 106.913 248.278 107.378 248.463C107.848 248.648 108.248 248.91 108.578 249.25C108.913 249.59 109.171 250.005 109.351 250.495C109.531 250.985 109.621 251.532 109.621 252.137C109.621 252.748 109.531 253.298 109.351 253.788C109.171 254.278 108.913 254.695 108.578 255.04C108.248 255.385 107.848 255.65 107.378 255.835C106.913 256.02 106.396 256.112 105.826 256.112C105.251 256.112 104.728 256.02 104.258 255.835C103.788 255.65 103.386 255.385 103.051 255.04C102.721 254.695 102.463 254.278 102.278 253.788C102.098 253.298 102.008 252.748 102.008 252.137C102.008 251.532 102.098 250.985 102.278 250.495C102.463 250.005 102.721 249.59 103.051 249.25C103.386 248.91 103.788 248.648 104.258 248.463C104.728 248.278 105.251 248.185 105.826 248.185ZM105.826 254.687C106.466 254.687 106.938 254.473 107.243 254.043C107.553 253.613 107.708 252.983 107.708 252.153C107.708 251.323 107.553 250.69 107.243 250.255C106.938 249.82 106.466 249.603 105.826 249.603C105.176 249.603 104.693 249.823 104.378 250.263C104.068 250.698 103.913 251.328 103.913 252.153C103.913 252.978 104.068 253.608 104.378 254.043C104.693 254.473 105.176 254.687 105.826 254.687ZM118.747 252.715C118.212 252.74 117.762 252.787 117.397 252.857C117.032 252.923 116.739 253.008 116.519 253.113C116.299 253.218 116.142 253.34 116.047 253.48C115.952 253.62 115.904 253.772 115.904 253.938C115.904 254.263 115.999 254.495 116.189 254.635C116.384 254.775 116.637 254.845 116.947 254.845C117.327 254.845 117.654 254.777 117.929 254.643C118.209 254.503 118.482 254.293 118.747 254.013V252.715ZM114.502 249.378C115.387 248.568 116.452 248.162 117.697 248.162C118.147 248.162 118.549 248.237 118.904 248.387C119.259 248.532 119.559 248.738 119.804 249.003C120.049 249.263 120.234 249.575 120.359 249.94C120.489 250.305 120.554 250.705 120.554 251.14V256H119.714C119.539 256 119.404 255.975 119.309 255.925C119.214 255.87 119.139 255.762 119.084 255.603L118.919 255.048C118.724 255.223 118.534 255.377 118.349 255.512C118.164 255.643 117.972 255.753 117.772 255.842C117.572 255.933 117.357 256 117.127 256.045C116.902 256.095 116.652 256.12 116.377 256.12C116.052 256.12 115.752 256.077 115.477 255.993C115.202 255.902 114.964 255.77 114.764 255.595C114.564 255.42 114.409 255.203 114.299 254.943C114.189 254.683 114.134 254.38 114.134 254.035C114.134 253.84 114.167 253.647 114.232 253.458C114.297 253.263 114.402 253.078 114.547 252.903C114.697 252.728 114.889 252.563 115.124 252.407C115.359 252.252 115.647 252.117 115.987 252.002C116.332 251.887 116.732 251.795 117.187 251.725C117.642 251.65 118.162 251.605 118.747 251.59V251.14C118.747 250.625 118.637 250.245 118.417 250C118.197 249.75 117.879 249.625 117.464 249.625C117.164 249.625 116.914 249.66 116.714 249.73C116.519 249.8 116.347 249.88 116.197 249.97C116.047 250.055 115.909 250.132 115.784 250.202C115.664 250.272 115.529 250.307 115.379 250.307C115.249 250.307 115.139 250.275 115.049 250.21C114.959 250.14 114.887 250.06 114.832 249.97L114.502 249.378ZM125.441 254.732C125.831 254.732 126.139 254.637 126.364 254.447C126.594 254.258 126.709 253.998 126.709 253.668C126.709 253.528 126.689 253.398 126.649 253.278C126.614 253.153 126.549 253.045 126.454 252.955C126.359 252.865 126.229 252.795 126.064 252.745C125.904 252.695 125.699 252.67 125.449 252.67H124.061V254.732H125.441ZM124.061 249.512V251.53H125.276C125.456 251.53 125.621 251.505 125.771 251.455C125.921 251.4 126.051 251.325 126.161 251.23C126.271 251.13 126.356 251.015 126.416 250.885C126.476 250.75 126.506 250.602 126.506 250.442C126.506 250.327 126.486 250.215 126.446 250.105C126.406 249.99 126.339 249.89 126.244 249.805C126.149 249.715 126.021 249.645 125.861 249.595C125.706 249.54 125.511 249.512 125.276 249.512H124.061ZM125.329 248.305C125.814 248.305 126.231 248.353 126.581 248.447C126.936 248.543 127.229 248.673 127.459 248.838C127.689 249.003 127.859 249.2 127.969 249.43C128.079 249.655 128.134 249.9 128.134 250.165C128.134 250.33 128.111 250.502 128.066 250.682C128.026 250.858 127.951 251.028 127.841 251.193C127.736 251.358 127.591 251.508 127.406 251.643C127.221 251.778 126.986 251.883 126.701 251.957C126.956 252.013 127.189 252.09 127.399 252.19C127.609 252.285 127.789 252.408 127.939 252.558C128.089 252.703 128.204 252.875 128.284 253.075C128.369 253.27 128.411 253.49 128.411 253.735C128.411 254.125 128.329 254.463 128.164 254.748C128.004 255.033 127.786 255.267 127.511 255.452C127.241 255.637 126.926 255.775 126.566 255.865C126.211 255.955 125.839 256 125.449 256H122.299V248.305H125.329ZM136.384 249.677H133.639V256H131.787V249.677H129.049V248.305H136.384V249.677ZM140.66 248.185C141.23 248.185 141.747 248.278 142.212 248.463C142.682 248.648 143.082 248.91 143.412 249.25C143.747 249.59 144.005 250.005 144.185 250.495C144.365 250.985 144.455 251.532 144.455 252.137C144.455 252.748 144.365 253.298 144.185 253.788C144.005 254.278 143.747 254.695 143.412 255.04C143.082 255.385 142.682 255.65 142.212 255.835C141.747 256.02 141.23 256.112 140.66 256.112C140.085 256.112 139.562 256.02 139.092 255.835C138.622 255.65 138.22 255.385 137.885 255.04C137.555 254.695 137.297 254.278 137.112 253.788C136.932 253.298 136.842 252.748 136.842 252.137C136.842 251.532 136.932 250.985 137.112 250.495C137.297 250.005 137.555 249.59 137.885 249.25C138.22 248.91 138.622 248.648 139.092 248.463C139.562 248.278 140.085 248.185 140.66 248.185ZM140.66 254.687C141.3 254.687 141.772 254.473 142.077 254.043C142.387 253.613 142.542 252.983 142.542 252.153C142.542 251.323 142.387 250.69 142.077 250.255C141.772 249.82 141.3 249.603 140.66 249.603C140.01 249.603 139.527 249.823 139.212 250.263C138.902 250.698 138.747 251.328 138.747 252.153C138.747 252.978 138.902 253.608 139.212 254.043C139.527 254.473 140.01 254.687 140.66 254.687ZM145.808 250.698H149.693V252.242H145.808V250.698ZM157.917 249.677H155.172V256H153.32V249.677H150.582V248.305H157.917V249.677ZM162.193 248.185C162.763 248.185 163.281 248.278 163.746 248.463C164.216 248.648 164.616 248.91 164.946 249.25C165.281 249.59 165.538 250.005 165.718 250.495C165.898 250.985 165.988 251.532 165.988 252.137C165.988 252.748 165.898 253.298 165.718 253.788C165.538 254.278 165.281 254.695 164.946 255.04C164.616 255.385 164.216 255.65 163.746 255.835C163.281 256.02 162.763 256.112 162.193 256.112C161.618 256.112 161.096 256.02 160.626 255.835C160.156 255.65 159.753 255.385 159.418 255.04C159.088 254.695 158.831 254.278 158.646 253.788C158.466 253.298 158.376 252.748 158.376 252.137C158.376 251.532 158.466 250.985 158.646 250.495C158.831 250.005 159.088 249.59 159.418 249.25C159.753 248.91 160.156 248.648 160.626 248.463C161.096 248.278 161.618 248.185 162.193 248.185ZM162.193 254.687C162.833 254.687 163.306 254.473 163.611 254.043C163.921 253.613 164.076 252.983 164.076 252.153C164.076 251.323 163.921 250.69 163.611 250.255C163.306 249.82 162.833 249.603 162.193 249.603C161.543 249.603 161.061 249.823 160.746 250.263C160.436 250.698 160.281 251.328 160.281 252.153C160.281 252.978 160.436 253.608 160.746 254.043C161.061 254.473 161.543 254.687 162.193 254.687ZM169.254 254.005C169.464 254.26 169.691 254.44 169.936 254.545C170.186 254.65 170.456 254.703 170.746 254.703C171.026 254.703 171.279 254.65 171.504 254.545C171.729 254.44 171.919 254.28 172.074 254.065C172.234 253.85 172.356 253.58 172.441 253.255C172.526 252.925 172.569 252.538 172.569 252.093C172.569 251.643 172.531 251.263 172.456 250.953C172.386 250.637 172.284 250.382 172.149 250.188C172.014 249.993 171.849 249.85 171.654 249.76C171.464 249.67 171.246 249.625 171.001 249.625C170.616 249.625 170.289 249.708 170.019 249.873C169.749 250.033 169.494 250.26 169.254 250.555V254.005ZM169.156 249.355C169.471 249 169.829 248.713 170.229 248.493C170.629 248.272 171.099 248.162 171.639 248.162C172.059 248.162 172.441 248.25 172.786 248.425C173.136 248.6 173.436 248.855 173.686 249.19C173.941 249.52 174.136 249.93 174.271 250.42C174.411 250.905 174.481 251.463 174.481 252.093C174.481 252.668 174.404 253.2 174.249 253.69C174.094 254.18 173.871 254.605 173.581 254.965C173.296 255.325 172.949 255.608 172.539 255.813C172.134 256.013 171.679 256.112 171.174 256.112C170.744 256.112 170.376 256.047 170.071 255.917C169.766 255.782 169.494 255.598 169.254 255.363V258.512H167.401V248.305H168.534C168.774 248.305 168.931 248.418 169.006 248.642L169.156 249.355ZM181.125 249.677H177.765V256H175.912V248.305H181.125V249.677ZM184.146 248.305V256H182.286V248.305H184.146ZM184.401 246.063C184.401 246.222 184.368 246.372 184.303 246.512C184.238 246.652 184.151 246.775 184.041 246.88C183.936 246.985 183.811 247.07 183.666 247.135C183.521 247.195 183.366 247.225 183.201 247.225C183.041 247.225 182.888 247.195 182.743 247.135C182.603 247.07 182.481 246.985 182.376 246.88C182.271 246.775 182.186 246.652 182.121 246.512C182.061 246.372 182.031 246.222 182.031 246.063C182.031 245.898 182.061 245.743 182.121 245.598C182.186 245.453 182.271 245.328 182.376 245.223C182.481 245.118 182.603 245.035 182.743 244.975C182.888 244.91 183.041 244.878 183.201 244.878C183.366 244.878 183.521 244.91 183.666 244.975C183.811 245.035 183.936 245.118 184.041 245.223C184.151 245.328 184.238 245.453 184.303 245.598C184.368 245.743 184.401 245.898 184.401 246.063ZM189.177 254.732C189.567 254.732 189.874 254.637 190.099 254.447C190.329 254.258 190.444 253.998 190.444 253.668C190.444 253.528 190.424 253.398 190.384 253.278C190.349 253.153 190.284 253.045 190.189 252.955C190.094 252.865 189.964 252.795 189.799 252.745C189.639 252.695 189.434 252.67 189.184 252.67H187.797V254.732H189.177ZM187.797 249.512V251.53H189.012C189.192 251.53 189.357 251.505 189.507 251.455C189.657 251.4 189.787 251.325 189.897 251.23C190.007 251.13 190.092 251.015 190.152 250.885C190.212 250.75 190.242 250.602 190.242 250.442C190.242 250.327 190.222 250.215 190.182 250.105C190.142 249.99 190.074 249.89 189.979 249.805C189.884 249.715 189.757 249.645 189.597 249.595C189.442 249.54 189.247 249.512 189.012 249.512H187.797ZM189.064 248.305C189.549 248.305 189.967 248.353 190.317 248.447C190.672 248.543 190.964 248.673 191.194 248.838C191.424 249.003 191.594 249.2 191.704 249.43C191.814 249.655 191.869 249.9 191.869 250.165C191.869 250.33 191.847 250.502 191.802 250.682C191.762 250.858 191.687 251.028 191.577 251.193C191.472 251.358 191.327 251.508 191.142 251.643C190.957 251.778 190.722 251.883 190.437 251.957C190.692 252.013 190.924 252.09 191.134 252.19C191.344 252.285 191.524 252.408 191.674 252.558C191.824 252.703 191.939 252.875 192.019 253.075C192.104 253.27 192.147 253.49 192.147 253.735C192.147 254.125 192.064 254.463 191.899 254.748C191.739 255.033 191.522 255.267 191.247 255.452C190.977 255.637 190.662 255.775 190.302 255.865C189.947 255.955 189.574 256 189.184 256H186.034V248.305H189.064ZM200.718 256H198.866V249.723H196.976C196.916 250.668 196.823 251.483 196.698 252.167C196.573 252.847 196.423 253.425 196.248 253.9C196.078 254.375 195.886 254.758 195.671 255.048C195.461 255.333 195.236 255.555 194.996 255.715C194.756 255.875 194.508 255.98 194.253 256.03C193.998 256.085 193.741 256.112 193.481 256.112C193.206 256.112 193.003 256.087 192.873 256.038C192.748 255.993 192.686 255.927 192.686 255.842V254.687H193.128C193.293 254.687 193.458 254.663 193.623 254.613C193.788 254.563 193.948 254.46 194.103 254.305C194.258 254.15 194.406 253.93 194.546 253.645C194.686 253.355 194.813 252.975 194.928 252.505C195.048 252.03 195.153 251.45 195.243 250.765C195.333 250.08 195.403 249.26 195.453 248.305H200.718V256ZM209.495 254.687C210.095 254.687 210.538 254.473 210.823 254.043C211.108 253.613 211.25 252.983 211.25 252.153C211.25 251.323 211.108 250.69 210.823 250.255C210.538 249.82 210.095 249.603 209.495 249.603C208.895 249.603 208.453 249.823 208.168 250.263C207.883 250.698 207.74 251.328 207.74 252.153C207.74 252.983 207.88 253.613 208.16 254.043C208.445 254.473 208.89 254.687 209.495 254.687ZM205.925 251.44C205.985 250.935 206.11 250.483 206.3 250.083C206.495 249.677 206.745 249.335 207.05 249.055C207.355 248.775 207.713 248.56 208.123 248.41C208.538 248.26 208.995 248.185 209.495 248.185C210.05 248.185 210.553 248.278 211.003 248.463C211.453 248.648 211.838 248.91 212.158 249.25C212.478 249.59 212.725 250.005 212.9 250.495C213.075 250.985 213.163 251.532 213.163 252.137C213.163 252.748 213.073 253.298 212.893 253.788C212.713 254.278 212.46 254.695 212.135 255.04C211.81 255.385 211.423 255.65 210.973 255.835C210.523 256.02 210.03 256.112 209.495 256.112C208.975 256.112 208.505 256.035 208.085 255.88C207.67 255.725 207.31 255.503 207.005 255.213C206.705 254.923 206.46 254.57 206.27 254.155C206.085 253.74 205.968 253.272 205.918 252.752H204.395V256H202.543V248.305H204.395V251.44H205.925ZM224.817 249.677H222.072V256H220.219V249.677H217.482V248.305H224.817V249.677ZM229.928 252.715C229.393 252.74 228.943 252.787 228.578 252.857C228.213 252.923 227.921 253.008 227.701 253.113C227.481 253.218 227.323 253.34 227.228 253.48C227.133 253.62 227.086 253.772 227.086 253.938C227.086 254.263 227.181 254.495 227.371 254.635C227.566 254.775 227.818 254.845 228.128 254.845C228.508 254.845 228.836 254.777 229.111 254.643C229.391 254.503 229.663 254.293 229.928 254.013V252.715ZM225.683 249.378C226.568 248.568 227.633 248.162 228.878 248.162C229.328 248.162 229.731 248.237 230.086 248.387C230.441 248.532 230.741 248.738 230.986 249.003C231.231 249.263 231.416 249.575 231.541 249.94C231.671 250.305 231.736 250.705 231.736 251.14V256H230.896C230.721 256 230.586 255.975 230.491 255.925C230.396 255.87 230.321 255.762 230.266 255.603L230.101 255.048C229.906 255.223 229.716 255.377 229.531 255.512C229.346 255.643 229.153 255.753 228.953 255.842C228.753 255.933 228.538 256 228.308 256.045C228.083 256.095 227.833 256.12 227.558 256.12C227.233 256.12 226.933 256.077 226.658 255.993C226.383 255.902 226.146 255.77 225.946 255.595C225.746 255.42 225.591 255.203 225.481 254.943C225.371 254.683 225.316 254.38 225.316 254.035C225.316 253.84 225.348 253.647 225.413 253.458C225.478 253.263 225.583 253.078 225.728 252.903C225.878 252.728 226.071 252.563 226.306 252.407C226.541 252.252 226.828 252.117 227.168 252.002C227.513 251.887 227.913 251.795 228.368 251.725C228.823 251.65 229.343 251.605 229.928 251.59V251.14C229.928 250.625 229.818 250.245 229.598 250C229.378 249.75 229.061 249.625 228.646 249.625C228.346 249.625 228.096 249.66 227.896 249.73C227.701 249.8 227.528 249.88 227.378 249.97C227.228 250.055 227.091 250.132 226.966 250.202C226.846 250.272 226.711 250.307 226.561 250.307C226.431 250.307 226.321 250.275 226.231 250.21C226.141 250.14 226.068 250.06 226.013 249.97L225.683 249.378ZM240.533 248.185C241.103 248.185 241.62 248.278 242.085 248.463C242.555 248.648 242.955 248.91 243.285 249.25C243.62 249.59 243.878 250.005 244.058 250.495C244.238 250.985 244.328 251.532 244.328 252.137C244.328 252.748 244.238 253.298 244.058 253.788C243.878 254.278 243.62 254.695 243.285 255.04C242.955 255.385 242.555 255.65 242.085 255.835C241.62 256.02 241.103 256.112 240.533 256.112C239.958 256.112 239.435 256.02 238.965 255.835C238.495 255.65 238.093 255.385 237.758 255.04C237.428 254.695 237.17 254.278 236.985 253.788C236.805 253.298 236.715 252.748 236.715 252.137C236.715 251.532 236.805 250.985 236.985 250.495C237.17 250.005 237.428 249.59 237.758 249.25C238.093 248.91 238.495 248.648 238.965 248.463C239.435 248.278 239.958 248.185 240.533 248.185ZM240.533 254.687C241.173 254.687 241.645 254.473 241.95 254.043C242.26 253.613 242.415 252.983 242.415 252.153C242.415 251.323 242.26 250.69 241.95 250.255C241.645 249.82 241.173 249.603 240.533 249.603C239.883 249.603 239.4 249.823 239.085 250.263C238.775 250.698 238.62 251.328 238.62 252.153C238.62 252.978 238.775 253.608 239.085 254.043C239.4 254.473 239.883 254.687 240.533 254.687ZM252.121 249.677H249.376V256H247.524V249.677H244.786V248.305H252.121V249.677ZM255.064 254.005C255.274 254.26 255.502 254.44 255.747 254.545C255.997 254.65 256.267 254.703 256.557 254.703C256.837 254.703 257.089 254.65 257.314 254.545C257.539 254.44 257.729 254.28 257.884 254.065C258.044 253.85 258.167 253.58 258.252 253.255C258.337 252.925 258.379 252.538 258.379 252.093C258.379 251.643 258.342 251.263 258.267 250.953C258.197 250.637 258.094 250.382 257.959 250.188C257.824 249.993 257.659 249.85 257.464 249.76C257.274 249.67 257.057 249.625 256.812 249.625C256.427 249.625 256.099 249.708 255.829 249.873C255.559 250.033 255.304 250.26 255.064 250.555V254.005ZM254.967 249.355C255.282 249 255.639 248.713 256.039 248.493C256.439 248.272 256.909 248.162 257.449 248.162C257.869 248.162 258.252 248.25 258.597 248.425C258.947 248.6 259.247 248.855 259.497 249.19C259.752 249.52 259.947 249.93 260.082 250.42C260.222 250.905 260.292 251.463 260.292 252.093C260.292 252.668 260.214 253.2 260.059 253.69C259.904 254.18 259.682 254.605 259.392 254.965C259.107 255.325 258.759 255.608 258.349 255.813C257.944 256.013 257.489 256.112 256.984 256.112C256.554 256.112 256.187 256.047 255.882 255.917C255.577 255.782 255.304 255.598 255.064 255.363V258.512H253.212V248.305H254.344C254.584 248.305 254.742 248.418 254.817 248.642L254.967 249.355ZM268.638 248.305V256H266.785V251.508C266.785 251.393 266.79 251.267 266.8 251.132C266.815 250.992 266.833 250.852 266.853 250.713C266.753 250.943 266.643 251.145 266.523 251.32C266.513 251.33 266.463 251.4 266.373 251.53C266.283 251.655 266.165 251.818 266.02 252.018C265.88 252.218 265.72 252.445 265.54 252.7C265.36 252.95 265.178 253.205 264.993 253.465C264.558 254.08 264.065 254.775 263.515 255.55C263.445 255.655 263.353 255.758 263.238 255.857C263.128 255.957 263 256.007 262.855 256.007H261.723V248.312H263.575V252.805C263.575 252.92 263.568 253.047 263.553 253.187C263.543 253.322 263.528 253.46 263.508 253.6C263.618 253.355 263.728 253.153 263.838 252.993C263.843 252.982 263.89 252.915 263.98 252.79C264.07 252.665 264.185 252.503 264.325 252.303C264.47 252.102 264.633 251.877 264.813 251.628C264.993 251.373 265.175 251.113 265.36 250.848C265.795 250.232 266.29 249.538 266.845 248.763C266.915 248.653 267.008 248.55 267.123 248.455C267.238 248.355 267.368 248.305 267.513 248.305H268.638ZM279.385 248.29V256H277.713V251.71C277.713 251.535 277.72 251.337 277.735 251.118C277.755 250.898 277.785 250.692 277.825 250.503L275.56 254.658C275.45 254.873 275.275 254.98 275.035 254.98H274.84C274.6 254.98 274.425 254.873 274.315 254.658L272.02 250.48C272.055 250.67 272.083 250.878 272.103 251.102C272.128 251.327 272.14 251.53 272.14 251.71V256H270.468V248.29H271.998C272.128 248.29 272.255 248.318 272.38 248.372C272.51 248.428 272.618 248.538 272.703 248.703L274.518 251.943C274.598 252.093 274.673 252.252 274.743 252.423C274.813 252.587 274.878 252.755 274.938 252.925C274.998 252.755 275.06 252.585 275.125 252.415C275.195 252.245 275.27 252.088 275.35 251.943L277.15 248.703C277.24 248.532 277.348 248.422 277.473 248.372C277.598 248.318 277.725 248.29 277.855 248.29H279.385ZM288.21 248.305L284.017 258.115C283.962 258.245 283.89 258.343 283.8 258.407C283.715 258.477 283.582 258.512 283.402 258.512H282.022L283.462 255.422L280.35 248.305H281.977C282.122 248.305 282.235 248.34 282.315 248.41C282.4 248.48 282.462 248.56 282.502 248.65L284.137 252.64C284.192 252.775 284.237 252.91 284.272 253.045C284.312 253.18 284.35 253.318 284.385 253.458C284.43 253.318 284.475 253.18 284.52 253.045C284.565 252.905 284.615 252.768 284.67 252.632L286.215 248.65C286.255 248.55 286.32 248.468 286.41 248.403C286.505 248.338 286.61 248.305 286.725 248.305H288.21ZM294.43 249.873C294.375 249.943 294.32 249.998 294.265 250.038C294.215 250.078 294.143 250.097 294.048 250.097C293.953 250.097 293.858 250.072 293.763 250.023C293.668 249.968 293.555 249.91 293.425 249.85C293.3 249.785 293.15 249.727 292.975 249.677C292.8 249.623 292.585 249.595 292.33 249.595C291.775 249.595 291.333 249.758 291.003 250.083C290.673 250.408 290.463 250.86 290.373 251.44H293.62V252.7H290.35C290.435 253.35 290.65 253.848 290.995 254.193C291.34 254.533 291.77 254.703 292.285 254.703C292.48 254.703 292.65 254.688 292.795 254.658C292.945 254.623 293.075 254.583 293.185 254.538C293.295 254.493 293.393 254.443 293.478 254.388C293.563 254.328 293.64 254.275 293.71 254.23C293.78 254.185 293.848 254.148 293.913 254.117C293.978 254.082 294.05 254.065 294.13 254.065C294.275 254.065 294.388 254.12 294.468 254.23L294.97 254.852C294.765 255.093 294.543 255.295 294.303 255.46C294.063 255.62 293.813 255.75 293.553 255.85C293.298 255.945 293.033 256.012 292.758 256.052C292.488 256.092 292.218 256.112 291.948 256.112C291.473 256.112 291.025 256.025 290.605 255.85C290.185 255.67 289.818 255.41 289.503 255.07C289.188 254.73 288.938 254.315 288.753 253.825C288.573 253.33 288.483 252.767 288.483 252.137C288.483 251.573 288.563 251.05 288.723 250.57C288.888 250.085 289.128 249.668 289.443 249.318C289.758 248.963 290.148 248.685 290.613 248.485C291.078 248.285 291.613 248.185 292.218 248.185C292.793 248.185 293.295 248.278 293.725 248.463C294.16 248.648 294.55 248.913 294.895 249.258L294.43 249.873ZM305.123 248.29V256H303.45V251.71C303.45 251.535 303.458 251.337 303.473 251.118C303.493 250.898 303.523 250.692 303.563 250.503L301.298 254.658C301.188 254.873 301.013 254.98 300.773 254.98H300.578C300.338 254.98 300.163 254.873 300.053 254.658L297.758 250.48C297.793 250.67 297.82 250.878 297.84 251.102C297.865 251.327 297.878 251.53 297.878 251.71V256H296.205V248.29H297.735C297.865 248.29 297.993 248.318 298.118 248.372C298.248 248.428 298.355 248.538 298.44 248.703L300.255 251.943C300.335 252.093 300.41 252.252 300.48 252.423C300.55 252.587 300.615 252.755 300.675 252.925C300.735 252.755 300.798 252.585 300.863 252.415C300.933 252.245 301.008 252.088 301.088 251.943L302.888 248.703C302.978 248.532 303.085 248.422 303.21 248.372C303.335 248.318 303.463 248.29 303.593 248.29H305.123ZM310.362 248.185C310.932 248.185 311.449 248.278 311.914 248.463C312.384 248.648 312.784 248.91 313.114 249.25C313.449 249.59 313.707 250.005 313.887 250.495C314.067 250.985 314.157 251.532 314.157 252.137C314.157 252.748 314.067 253.298 313.887 253.788C313.707 254.278 313.449 254.695 313.114 255.04C312.784 255.385 312.384 255.65 311.914 255.835C311.449 256.02 310.932 256.112 310.362 256.112C309.787 256.112 309.264 256.02 308.794 255.835C308.324 255.65 307.922 255.385 307.587 255.04C307.257 254.695 306.999 254.278 306.814 253.788C306.634 253.298 306.544 252.748 306.544 252.137C306.544 251.532 306.634 250.985 306.814 250.495C306.999 250.005 307.257 249.59 307.587 249.25C307.922 248.91 308.324 248.648 308.794 248.463C309.264 248.278 309.787 248.185 310.362 248.185ZM310.362 254.687C311.002 254.687 311.474 254.473 311.779 254.043C312.089 253.613 312.244 252.983 312.244 252.153C312.244 251.323 312.089 250.69 311.779 250.255C311.474 249.82 311.002 249.603 310.362 249.603C309.712 249.603 309.229 249.823 308.914 250.263C308.604 250.698 308.449 251.328 308.449 252.153C308.449 252.978 308.604 253.608 308.914 254.043C309.229 254.473 309.712 254.687 310.362 254.687ZM35.62 274H33.7675V267.677H30.7675V274H28.915V266.305H35.62V274ZM42.4125 269.267C42.4125 269.028 42.3775 268.803 42.3075 268.593C42.2425 268.378 42.1425 268.19 42.0075 268.03C41.8725 267.87 41.7 267.745 41.49 267.655C41.285 267.56 41.045 267.512 40.77 267.512C40.235 267.512 39.8125 267.665 39.5025 267.97C39.1975 268.275 39.0025 268.708 38.9175 269.267H42.4125ZM38.88 270.385C38.91 270.78 38.98 271.122 39.09 271.412C39.2 271.697 39.345 271.935 39.525 272.125C39.705 272.31 39.9175 272.45 40.1625 272.545C40.4125 272.635 40.6875 272.68 40.9875 272.68C41.2875 272.68 41.545 272.645 41.76 272.575C41.98 272.505 42.17 272.428 42.33 272.342C42.495 272.258 42.6375 272.18 42.7575 272.11C42.8825 272.04 43.0025 272.005 43.1175 272.005C43.2725 272.005 43.3875 272.063 43.4625 272.177L43.995 272.852C43.79 273.093 43.56 273.295 43.305 273.46C43.05 273.62 42.7825 273.75 42.5025 273.85C42.2275 273.945 41.945 274.012 41.655 274.052C41.37 274.092 41.0925 274.112 40.8225 274.112C40.2875 274.112 39.79 274.025 39.33 273.85C38.87 273.67 38.47 273.408 38.13 273.063C37.79 272.713 37.5225 272.283 37.3275 271.772C37.1325 271.258 37.035 270.663 37.035 269.988C37.035 269.462 37.12 268.97 37.29 268.51C37.46 268.045 37.7025 267.643 38.0175 267.302C38.3375 266.957 38.725 266.685 39.18 266.485C39.64 266.285 40.1575 266.185 40.7325 266.185C41.2175 266.185 41.665 266.263 42.075 266.418C42.485 266.573 42.8375 266.8 43.1325 267.1C43.4275 267.395 43.6575 267.76 43.8225 268.195C43.9925 268.625 44.0775 269.118 44.0775 269.673C44.0775 269.953 44.0475 270.142 43.9875 270.242C43.9275 270.338 43.8125 270.385 43.6425 270.385H38.88ZM47.3202 272.005C47.5302 272.26 47.7577 272.44 48.0027 272.545C48.2527 272.65 48.5227 272.703 48.8127 272.703C49.0927 272.703 49.3452 272.65 49.5702 272.545C49.7952 272.44 49.9852 272.28 50.1402 272.065C50.3002 271.85 50.4227 271.58 50.5077 271.255C50.5927 270.925 50.6352 270.538 50.6352 270.093C50.6352 269.643 50.5977 269.263 50.5227 268.953C50.4527 268.637 50.3502 268.382 50.2152 268.188C50.0802 267.993 49.9152 267.85 49.7202 267.76C49.5302 267.67 49.3127 267.625 49.0677 267.625C48.6827 267.625 48.3552 267.708 48.0852 267.873C47.8152 268.033 47.5602 268.26 47.3202 268.555V272.005ZM47.2227 267.355C47.5377 267 47.8952 266.713 48.2952 266.493C48.6952 266.272 49.1652 266.162 49.7052 266.162C50.1252 266.162 50.5077 266.25 50.8527 266.425C51.2027 266.6 51.5027 266.855 51.7527 267.19C52.0077 267.52 52.2027 267.93 52.3377 268.42C52.4777 268.905 52.5477 269.463 52.5477 270.093C52.5477 270.668 52.4702 271.2 52.3152 271.69C52.1602 272.18 51.9377 272.605 51.6477 272.965C51.3627 273.325 51.0152 273.608 50.6052 273.813C50.2002 274.013 49.7452 274.112 49.2402 274.112C48.8102 274.112 48.4427 274.047 48.1377 273.917C47.8327 273.782 47.5602 273.598 47.3202 273.363V276.512H45.4677V266.305H46.6002C46.8402 266.305 46.9977 266.418 47.0727 266.642L47.2227 267.355ZM64.621 266.305V274H53.9785V266.305H55.831V272.627H58.3735V266.305H60.226V272.627H62.7685V266.305H64.621ZM68.3643 266.305V274H66.5043V266.305H68.3643ZM68.6193 264.063C68.6193 264.222 68.5868 264.372 68.5218 264.512C68.4568 264.652 68.3693 264.775 68.2593 264.88C68.1543 264.985 68.0293 265.07 67.8843 265.135C67.7393 265.195 67.5843 265.225 67.4193 265.225C67.2593 265.225 67.1068 265.195 66.9618 265.135C66.8218 265.07 66.6993 264.985 66.5943 264.88C66.4893 264.775 66.4043 264.652 66.3393 264.512C66.2793 264.372 66.2493 264.222 66.2493 264.063C66.2493 263.898 66.2793 263.743 66.3393 263.598C66.4043 263.453 66.4893 263.328 66.5943 263.223C66.6993 263.118 66.8218 263.035 66.9618 262.975C67.1068 262.91 67.2593 262.878 67.4193 262.878C67.5843 262.878 67.7393 262.91 67.8843 262.975C68.0293 263.035 68.1543 263.118 68.2593 263.223C68.3693 263.328 68.4568 263.453 68.5218 263.598C68.5868 263.743 68.6193 263.898 68.6193 264.063ZM73.4503 267.138C73.7403 266.858 74.1003 266.63 74.5303 266.455C74.9603 266.275 75.4753 266.185 76.0753 266.185C76.5503 266.185 76.9728 266.243 77.3428 266.358C77.7128 266.468 78.0228 266.62 78.2728 266.815C78.5278 267.005 78.7203 267.225 78.8503 267.475C78.9853 267.72 79.0528 267.978 79.0528 268.248C79.0528 268.393 79.0303 268.545 78.9853 268.705C78.9453 268.86 78.8753 269.013 78.7753 269.163C78.6803 269.313 78.5528 269.453 78.3928 269.582C78.2328 269.708 78.0353 269.815 77.8003 269.905C78.2203 270.065 78.5578 270.3 78.8128 270.61C79.0728 270.92 79.2028 271.303 79.2028 271.757C79.2028 272.133 79.1153 272.465 78.9403 272.755C78.7703 273.045 78.5428 273.293 78.2578 273.498C77.9728 273.698 77.6453 273.85 77.2753 273.955C76.9103 274.06 76.5328 274.112 76.1428 274.112C75.9228 274.112 75.6853 274.092 75.4303 274.052C75.1803 274.012 74.9278 273.945 74.6728 273.85C74.4178 273.75 74.1678 273.62 73.9228 273.46C73.6778 273.295 73.4553 273.093 73.2553 272.852L73.7878 272.177C73.8628 272.063 73.9753 272.005 74.1253 272.005C74.2403 272.005 74.3503 272.043 74.4553 272.117C74.5603 272.187 74.6803 272.267 74.8153 272.358C74.9553 272.443 75.1203 272.523 75.3103 272.598C75.5003 272.668 75.7378 272.703 76.0228 272.703C76.4878 272.703 76.8403 272.598 77.0803 272.388C77.3203 272.178 77.4403 271.915 77.4403 271.6C77.4403 271.29 77.3153 271.047 77.0653 270.873C76.8203 270.698 76.4203 270.61 75.8653 270.61H74.9953V269.403H75.8653C76.3503 269.403 76.7228 269.318 76.9828 269.148C77.2428 268.978 77.3728 268.752 77.3728 268.472C77.3728 268.218 77.2578 268.008 77.0278 267.843C76.8028 267.678 76.4678 267.595 76.0228 267.595C75.7578 267.595 75.5328 267.623 75.3478 267.677C75.1628 267.733 75.0028 267.793 74.8678 267.857C74.7378 267.918 74.6278 267.975 74.5378 268.03C74.4478 268.085 74.3628 268.113 74.2828 268.113C74.1978 268.113 74.1253 268.098 74.0653 268.068C74.0053 268.033 73.9403 267.96 73.8703 267.85L73.4503 267.138ZM84.7183 270.715C84.1833 270.74 83.7333 270.787 83.3683 270.857C83.0033 270.923 82.7108 271.008 82.4908 271.113C82.2708 271.218 82.1133 271.34 82.0183 271.48C81.9233 271.62 81.8758 271.772 81.8758 271.938C81.8758 272.263 81.9708 272.495 82.1608 272.635C82.3558 272.775 82.6083 272.845 82.9183 272.845C83.2983 272.845 83.6258 272.777 83.9008 272.643C84.1808 272.503 84.4533 272.293 84.7183 272.013V270.715ZM80.4733 267.378C81.3583 266.568 82.4233 266.162 83.6683 266.162C84.1183 266.162 84.5208 266.237 84.8758 266.387C85.2308 266.532 85.5308 266.738 85.7758 267.003C86.0208 267.263 86.2058 267.575 86.3308 267.94C86.4608 268.305 86.5258 268.705 86.5258 269.14V274H85.6858C85.5108 274 85.3758 273.975 85.2808 273.925C85.1858 273.87 85.1108 273.762 85.0558 273.603L84.8908 273.048C84.6958 273.223 84.5058 273.377 84.3208 273.512C84.1358 273.643 83.9433 273.753 83.7433 273.842C83.5433 273.933 83.3283 274 83.0983 274.045C82.8733 274.095 82.6233 274.12 82.3483 274.12C82.0233 274.12 81.7233 274.077 81.4483 273.993C81.1733 273.902 80.9358 273.77 80.7358 273.595C80.5358 273.42 80.3808 273.203 80.2708 272.943C80.1608 272.683 80.1058 272.38 80.1058 272.035C80.1058 271.84 80.1383 271.647 80.2033 271.458C80.2683 271.263 80.3733 271.078 80.5183 270.903C80.6683 270.728 80.8608 270.563 81.0958 270.407C81.3308 270.252 81.6183 270.117 81.9583 270.002C82.3033 269.887 82.7033 269.795 83.1583 269.725C83.6133 269.65 84.1333 269.605 84.7183 269.59V269.14C84.7183 268.625 84.6083 268.245 84.3883 268C84.1683 267.75 83.8508 267.625 83.4358 267.625C83.1358 267.625 82.8858 267.66 82.6858 267.73C82.4908 267.8 82.3183 267.88 82.1683 267.97C82.0183 268.055 81.8808 268.132 81.7558 268.202C81.6358 268.272 81.5008 268.307 81.3508 268.307C81.2208 268.307 81.1108 268.275 81.0208 268.21C80.9308 268.14 80.8583 268.06 80.8033 267.97L80.4733 267.378ZM90.123 272.005C90.333 272.26 90.5605 272.44 90.8055 272.545C91.0555 272.65 91.3255 272.703 91.6155 272.703C91.8955 272.703 92.148 272.65 92.373 272.545C92.598 272.44 92.788 272.28 92.943 272.065C93.103 271.85 93.2255 271.58 93.3105 271.255C93.3955 270.925 93.438 270.538 93.438 270.093C93.438 269.643 93.4005 269.263 93.3255 268.953C93.2555 268.637 93.153 268.382 93.018 268.188C92.883 267.993 92.718 267.85 92.523 267.76C92.333 267.67 92.1155 267.625 91.8705 267.625C91.4855 267.625 91.158 267.708 90.888 267.873C90.618 268.033 90.363 268.26 90.123 268.555V272.005ZM90.0255 267.355C90.3405 267 90.698 266.713 91.098 266.493C91.498 266.272 91.968 266.162 92.508 266.162C92.928 266.162 93.3105 266.25 93.6555 266.425C94.0055 266.6 94.3055 266.855 94.5555 267.19C94.8105 267.52 95.0055 267.93 95.1405 268.42C95.2805 268.905 95.3505 269.463 95.3505 270.093C95.3505 270.668 95.273 271.2 95.118 271.69C94.963 272.18 94.7405 272.605 94.4505 272.965C94.1655 273.325 93.818 273.608 93.408 273.813C93.003 274.013 92.548 274.112 92.043 274.112C91.613 274.112 91.2455 274.047 90.9405 273.917C90.6355 273.782 90.363 273.598 90.123 273.363V276.512H88.2705V266.305H89.403C89.643 266.305 89.8005 266.418 89.8755 266.642L90.0255 267.355ZM100.186 266.185C100.756 266.185 101.274 266.278 101.739 266.463C102.209 266.648 102.609 266.91 102.939 267.25C103.274 267.59 103.531 268.005 103.711 268.495C103.891 268.985 103.981 269.532 103.981 270.137C103.981 270.748 103.891 271.298 103.711 271.788C103.531 272.278 103.274 272.695 102.939 273.04C102.609 273.385 102.209 273.65 101.739 273.835C101.274 274.02 100.756 274.112 100.186 274.112C99.6112 274.112 99.0887 274.02 98.6187 273.835C98.1487 273.65 97.7462 273.385 97.4112 273.04C97.0812 272.695 96.8237 272.278 96.6387 271.788C96.4587 271.298 96.3687 270.748 96.3687 270.137C96.3687 269.532 96.4587 268.985 96.6387 268.495C96.8237 268.005 97.0812 267.59 97.4112 267.25C97.7462 266.91 98.1487 266.648 98.6187 266.463C99.0887 266.278 99.6112 266.185 100.186 266.185ZM100.186 272.687C100.826 272.687 101.299 272.473 101.604 272.043C101.914 271.613 102.069 270.983 102.069 270.153C102.069 269.323 101.914 268.69 101.604 268.255C101.299 267.82 100.826 267.603 100.186 267.603C99.5362 267.603 99.0537 267.823 98.7387 268.263C98.4287 268.698 98.2737 269.328 98.2737 270.153C98.2737 270.978 98.4287 271.608 98.7387 272.043C99.0537 272.473 99.5362 272.687 100.186 272.687ZM109.009 272.763C109.649 272.763 110.127 272.558 110.442 272.148C110.757 271.737 110.914 271.138 110.914 270.348C110.914 269.562 110.759 268.965 110.449 268.555C110.144 268.145 109.677 267.94 109.047 267.94C108.417 267.94 107.937 268.135 107.607 268.525C107.277 268.91 107.112 269.487 107.112 270.258C107.112 271.073 107.267 271.695 107.577 272.125C107.892 272.55 108.369 272.763 109.009 272.763ZM109.549 264.91C109.079 264.94 108.677 265.032 108.342 265.188C108.012 265.337 107.737 265.542 107.517 265.803C107.302 266.058 107.137 266.365 107.022 266.725C106.912 267.08 106.847 267.475 106.827 267.91C106.952 267.715 107.104 267.538 107.284 267.378C107.469 267.213 107.674 267.072 107.899 266.957C108.129 266.837 108.377 266.745 108.642 266.68C108.912 266.615 109.199 266.583 109.504 266.583C110.014 266.583 110.474 266.673 110.884 266.852C111.294 267.032 111.642 267.288 111.927 267.618C112.217 267.948 112.437 268.345 112.587 268.81C112.742 269.27 112.819 269.78 112.819 270.34C112.819 270.92 112.727 271.443 112.542 271.908C112.362 272.373 112.104 272.77 111.769 273.1C111.439 273.425 111.039 273.675 110.569 273.85C110.099 274.025 109.579 274.112 109.009 274.112C108.454 274.112 107.942 274.022 107.472 273.842C107.007 273.662 106.604 273.37 106.264 272.965C105.924 272.56 105.659 272.035 105.469 271.39C105.279 270.74 105.184 269.948 105.184 269.013C105.184 268.228 105.257 267.498 105.402 266.823C105.547 266.148 105.784 265.558 106.114 265.052C106.444 264.543 106.877 264.132 107.412 263.822C107.947 263.513 108.607 263.328 109.392 263.267L112.129 263.057L112.227 264.017C112.247 264.222 112.217 264.398 112.137 264.543C112.057 264.683 111.914 264.758 111.709 264.768L109.549 264.91ZM116.177 266.305V274H114.317V266.305H116.177ZM116.432 264.063C116.432 264.222 116.399 264.372 116.334 264.512C116.269 264.652 116.182 264.775 116.072 264.88C115.967 264.985 115.842 265.07 115.697 265.135C115.552 265.195 115.397 265.225 115.232 265.225C115.072 265.225 114.919 265.195 114.774 265.135C114.634 265.07 114.512 264.985 114.407 264.88C114.302 264.775 114.217 264.652 114.152 264.512C114.092 264.372 114.062 264.222 114.062 264.063C114.062 263.898 114.092 263.743 114.152 263.598C114.217 263.453 114.302 263.328 114.407 263.223C114.512 263.118 114.634 263.035 114.774 262.975C114.919 262.91 115.072 262.878 115.232 262.878C115.397 262.878 115.552 262.91 115.697 262.975C115.842 263.035 115.967 263.118 116.072 263.223C116.182 263.328 116.269 263.453 116.334 263.598C116.399 263.743 116.432 263.898 116.432 264.063ZM124.665 267.677H121.92V274H120.068V267.677H117.33V266.305H124.665V267.677ZM130.353 266.793C130.443 266.648 130.566 266.53 130.721 266.44C130.876 266.35 131.041 266.305 131.216 266.305H132.671L130.878 269.163C130.753 269.363 130.626 269.525 130.496 269.65C130.366 269.77 130.208 269.865 130.023 269.935C130.273 270.01 130.478 270.123 130.638 270.273C130.798 270.418 130.943 270.603 131.073 270.828L132.873 274H131.591C131.266 274 131.013 273.945 130.833 273.835C130.653 273.725 130.501 273.568 130.376 273.363L129.243 271.233C129.143 271.048 129.013 270.91 128.853 270.82C128.698 270.73 128.516 270.685 128.306 270.685H127.608V274H125.756V266.305H127.608V269.477H128.208C128.418 269.477 128.586 269.44 128.711 269.365C128.841 269.285 128.951 269.165 129.041 269.005L130.353 266.793ZM140.815 266.305V274H138.963V269.508C138.963 269.393 138.968 269.267 138.978 269.132C138.993 268.992 139.01 268.852 139.03 268.713C138.93 268.943 138.82 269.145 138.7 269.32C138.69 269.33 138.64 269.4 138.55 269.53C138.46 269.655 138.343 269.818 138.198 270.018C138.058 270.218 137.898 270.445 137.718 270.7C137.538 270.95 137.355 271.205 137.17 271.465C136.735 272.08 136.243 272.775 135.693 273.55C135.623 273.655 135.53 273.758 135.415 273.857C135.305 273.957 135.178 274.007 135.033 274.007H133.9V266.312H135.753V270.805C135.753 270.92 135.745 271.047 135.73 271.187C135.72 271.322 135.705 271.46 135.685 271.6C135.795 271.355 135.905 271.153 136.015 270.993C136.02 270.982 136.068 270.915 136.158 270.79C136.248 270.665 136.363 270.503 136.503 270.303C136.648 270.102 136.81 269.877 136.99 269.628C137.17 269.373 137.353 269.113 137.538 268.848C137.973 268.232 138.468 267.538 139.023 266.763C139.093 266.653 139.185 266.55 139.3 266.455C139.415 266.355 139.545 266.305 139.69 266.305H140.815Z" fill="black"/>
<path d="M36.325 56.5775C36.325 57.5225 36.2225 58.345 36.0175 59.045C35.8175 59.74 35.5375 60.315 35.1775 60.77C34.8225 61.225 34.4 61.565 33.91 61.79C33.425 62.01 32.9 62.12 32.335 62.12C31.77 62.12 31.245 62.01 30.76 61.79C30.28 61.565 29.8625 61.225 29.5075 60.77C29.1525 60.315 28.875 59.74 28.675 59.045C28.475 58.345 28.375 57.5225 28.375 56.5775C28.375 55.6275 28.475 54.805 28.675 54.11C28.875 53.415 29.1525 52.84 29.5075 52.385C29.8625 51.93 30.28 51.5925 30.76 51.3725C31.245 51.1475 31.77 51.035 32.335 51.035C32.9 51.035 33.425 51.1475 33.91 51.3725C34.4 51.5925 34.8225 51.93 35.1775 52.385C35.5375 52.84 35.8175 53.415 36.0175 54.11C36.2225 54.805 36.325 55.6275 36.325 56.5775ZM34.4125 56.5775C34.4125 55.7925 34.355 55.1425 34.24 54.6275C34.125 54.1125 33.97 53.7025 33.775 53.3975C33.585 53.0925 33.365 52.88 33.115 52.76C32.865 52.635 32.605 52.5725 32.335 52.5725C32.07 52.5725 31.8125 52.635 31.5625 52.76C31.3175 52.88 31.1 53.0925 30.91 53.3975C30.72 53.7025 30.5675 54.1125 30.4525 54.6275C30.3425 55.1425 30.2875 55.7925 30.2875 56.5775C30.2875 57.3625 30.3425 58.0125 30.4525 58.5275C30.5675 59.0425 30.72 59.4525 30.91 59.7575C31.1 60.0625 31.3175 60.2775 31.5625 60.4025C31.8125 60.5225 32.07 60.5825 32.335 60.5825C32.605 60.5825 32.865 60.5225 33.115 60.4025C33.365 60.2775 33.585 60.0625 33.775 59.7575C33.97 59.4525 34.125 59.0425 34.24 58.5275C34.355 58.0125 34.4125 57.3625 34.4125 56.5775ZM42.0412 57.9125V54.365C42.0412 54.03 42.0637 53.66 42.1087 53.255L38.7412 57.9125H42.0412ZM45.0187 57.9125V58.985C45.0187 59.085 44.9862 59.1725 44.9212 59.2475C44.8562 59.3175 44.7637 59.3525 44.6437 59.3525H43.6537V62H42.0412V59.3525H37.4662C37.3412 59.3525 37.2312 59.315 37.1362 59.24C37.0412 59.16 36.9812 59.0625 36.9562 58.9475L36.7612 58.01L41.8987 51.1475H43.6537V57.9125H45.0187Z" fill="#A7A7A7"/>
<g filter="url(#filter1_d_657_5752)">
<g clip-path="url(#clip1_657_5752)">
<rect x="89" y="56" width="198.441" height="173" rx="8.72269" fill="white"/>
<g clip-path="url(#clip2_657_5752)">
<g clip-path="url(#clip3_657_5752)">
<path d="M105.634 77.2873C105.875 77.2873 106.081 77.2597 106.253 77.2045C106.427 77.1492 106.568 77.0736 106.676 76.9777C106.786 76.8788 106.866 76.7611 106.916 76.6244C106.968 76.4848 106.994 76.3322 106.994 76.1665C106.994 75.992 106.968 75.8379 106.916 75.7042C106.866 75.5675 106.786 75.4527 106.676 75.3596C106.568 75.2637 106.429 75.1924 106.257 75.1459C106.086 75.0965 105.879 75.0718 105.638 75.0718H104.421V77.2873H105.634ZM105.638 74.4001C106.019 74.4001 106.347 74.4423 106.624 74.5266C106.9 74.608 107.127 74.7243 107.304 74.8755C107.484 75.0238 107.617 75.2012 107.701 75.4076C107.788 75.614 107.832 75.8394 107.832 76.0836C107.832 76.3715 107.782 76.6317 107.683 76.8643C107.587 77.094 107.445 77.2902 107.256 77.4531C107.07 77.6159 106.84 77.7409 106.567 77.8281C106.294 77.9154 105.982 77.959 105.634 77.959H103.579V71.7092H107.618V72.3765H104.421V74.4001H105.638ZM111.174 75.9702C110.816 75.9818 110.511 76.0109 110.258 76.0574C110.008 76.1011 109.803 76.1592 109.643 76.2319C109.486 76.3046 109.371 76.3904 109.299 76.4892C109.229 76.5881 109.194 76.6986 109.194 76.8207C109.194 76.937 109.213 77.0373 109.251 77.1216C109.289 77.2059 109.339 77.2757 109.403 77.331C109.47 77.3833 109.547 77.4225 109.635 77.4487C109.725 77.472 109.821 77.4836 109.922 77.4836C110.059 77.4836 110.184 77.4705 110.297 77.4443C110.411 77.4153 110.517 77.3746 110.616 77.3222C110.718 77.2699 110.814 77.2074 110.904 77.1347C110.997 77.062 111.087 76.9791 111.174 76.8861V75.9702ZM108.666 74.1646C108.911 73.9291 109.174 73.7532 109.456 73.6369C109.738 73.5206 110.05 73.4624 110.393 73.4624C110.641 73.4624 110.86 73.5031 111.052 73.5846C111.244 73.666 111.405 73.7794 111.536 73.9247C111.667 74.0701 111.766 74.246 111.833 74.4525C111.9 74.6589 111.933 74.8857 111.933 75.1328V77.959H111.588C111.513 77.959 111.455 77.9474 111.414 77.9241C111.373 77.8979 111.341 77.8485 111.318 77.7758L111.231 77.3571C111.115 77.4647 111.001 77.5606 110.891 77.645C110.78 77.7264 110.664 77.7962 110.542 77.8543C110.42 77.9096 110.289 77.9517 110.149 77.9808C110.013 78.0128 109.86 78.0288 109.691 78.0288C109.52 78.0288 109.358 78.0055 109.207 77.959C109.056 77.9096 108.924 77.8369 108.81 77.7409C108.7 77.645 108.611 77.5243 108.544 77.3789C108.48 77.2306 108.448 77.0562 108.448 76.8556C108.448 76.6811 108.496 76.5139 108.592 76.354C108.688 76.1912 108.844 76.0473 109.059 75.9222C109.274 75.7972 109.555 75.6954 109.901 75.6169C110.247 75.5355 110.671 75.489 111.174 75.4774V75.1328C111.174 74.7897 111.1 74.531 110.952 74.3565C110.803 74.1792 110.587 74.0905 110.302 74.0905C110.11 74.0905 109.949 74.1152 109.818 74.1646C109.69 74.2111 109.578 74.2649 109.482 74.326C109.389 74.3841 109.307 74.4379 109.238 74.4874C109.171 74.5339 109.104 74.5571 109.037 74.5571C108.985 74.5571 108.94 74.5441 108.902 74.5179C108.864 74.4888 108.832 74.4539 108.806 74.4132L108.666 74.1646ZM116.988 77.959H116.212V74.1515H114.816C114.782 74.7127 114.729 75.1983 114.659 75.6082C114.59 76.0153 114.505 76.3627 114.406 76.6506C114.311 76.9355 114.201 77.1681 114.079 77.3484C113.96 77.5258 113.834 77.6639 113.7 77.7627C113.569 77.8616 113.432 77.9285 113.29 77.9633C113.15 77.9982 113.011 78.0157 112.871 78.0157C112.624 78.0157 112.501 77.9764 112.501 77.8979V77.4051H112.727C112.826 77.4051 112.927 77.3876 113.028 77.3528C113.13 77.3179 113.229 77.251 113.325 77.1521C113.424 77.0533 113.518 76.9152 113.608 76.7378C113.698 76.5575 113.78 76.3249 113.853 76.04C113.928 75.7521 113.992 75.4047 114.044 74.9976C114.1 74.5877 114.142 74.1021 114.171 73.5409H116.988V77.959ZM120.612 75.9702C120.255 75.9818 119.949 76.0109 119.696 76.0574C119.446 76.1011 119.241 76.1592 119.082 76.2319C118.924 76.3046 118.81 76.3904 118.737 76.4892C118.667 76.5881 118.632 76.6986 118.632 76.8207C118.632 76.937 118.651 77.0373 118.689 77.1216C118.727 77.2059 118.778 77.2757 118.842 77.331C118.909 77.3833 118.986 77.4225 119.073 77.4487C119.163 77.472 119.259 77.4836 119.361 77.4836C119.497 77.4836 119.622 77.4705 119.736 77.4443C119.849 77.4153 119.955 77.3746 120.054 77.3222C120.156 77.2699 120.252 77.2074 120.342 77.1347C120.435 77.062 120.525 76.9791 120.612 76.8861V75.9702ZM118.105 74.1646C118.349 73.9291 118.612 73.7532 118.894 73.6369C119.176 73.5206 119.489 73.4624 119.832 73.4624C120.079 73.4624 120.298 73.5031 120.49 73.5846C120.682 73.666 120.843 73.7794 120.974 73.9247C121.105 74.0701 121.204 74.246 121.271 74.4525C121.338 74.6589 121.371 74.8857 121.371 75.1328V77.959H121.027C120.951 77.959 120.893 77.9474 120.852 77.9241C120.812 77.8979 120.78 77.8485 120.756 77.7758L120.669 77.3571C120.553 77.4647 120.439 77.5606 120.329 77.645C120.218 77.7264 120.102 77.7962 119.98 77.8543C119.858 77.9096 119.727 77.9517 119.587 77.9808C119.451 78.0128 119.298 78.0288 119.129 78.0288C118.958 78.0288 118.797 78.0055 118.645 77.959C118.494 77.9096 118.362 77.8369 118.248 77.7409C118.138 77.645 118.049 77.5243 117.982 77.3789C117.918 77.2306 117.886 77.0562 117.886 76.8556C117.886 76.6811 117.934 76.5139 118.03 76.354C118.126 76.1912 118.282 76.0473 118.497 75.9222C118.712 75.7972 118.993 75.6954 119.339 75.6169C119.685 75.5355 120.109 75.489 120.612 75.4774V75.1328C120.612 74.7897 120.538 74.531 120.39 74.3565C120.242 74.1792 120.025 74.0905 119.74 74.0905C119.548 74.0905 119.387 74.1152 119.256 74.1646C119.128 74.2111 119.016 74.2649 118.92 74.326C118.827 74.3841 118.746 74.4379 118.676 74.4874C118.609 74.5339 118.542 74.5571 118.475 74.5571C118.423 74.5571 118.378 74.5441 118.34 74.5179C118.302 74.4888 118.27 74.4539 118.244 74.4132L118.105 74.1646ZM126.235 73.5409V77.959H125.454V75.8917H123.334V77.959H122.554V73.5409H123.334V75.3029H125.454V73.5409H126.235ZM130.544 74.326C130.52 74.358 130.497 74.3827 130.474 74.4001C130.45 74.4176 130.419 74.4263 130.378 74.4263C130.334 74.4263 130.286 74.4088 130.234 74.374C130.182 74.3362 130.116 74.2955 130.038 74.2518C129.962 74.2082 129.868 74.169 129.754 74.1341C129.644 74.0963 129.507 74.0774 129.344 74.0774C129.126 74.0774 128.934 74.1166 128.768 74.1951C128.603 74.2707 128.463 74.3812 128.35 74.5266C128.239 74.672 128.155 74.8479 128.097 75.0543C128.042 75.2608 128.014 75.4919 128.014 75.7478C128.014 76.0153 128.044 76.2537 128.106 76.463C128.167 76.6695 128.252 76.8439 128.363 76.9864C128.476 77.126 128.611 77.2335 128.768 77.3091C128.928 77.3818 129.107 77.4182 129.305 77.4182C129.494 77.4182 129.649 77.3964 129.772 77.3528C129.894 77.3062 129.994 77.2554 130.073 77.2001C130.154 77.1449 130.221 77.0954 130.273 77.0518C130.328 77.0053 130.382 76.982 130.434 76.982C130.498 76.982 130.548 77.0068 130.583 77.0562L130.801 77.3397C130.705 77.4589 130.596 77.5606 130.474 77.645C130.352 77.7293 130.219 77.8005 130.077 77.8587C129.937 77.9139 129.79 77.9546 129.636 77.9808C129.482 78.007 129.325 78.02 129.165 78.02C128.889 78.02 128.632 77.9692 128.393 77.8674C128.158 77.7656 127.953 77.6188 127.778 77.4269C127.604 77.2321 127.467 76.9937 127.368 76.7116C127.27 76.4296 127.22 76.1083 127.22 75.7478C127.22 75.4192 127.265 75.1154 127.355 74.8363C127.448 74.5571 127.582 74.3173 127.757 74.1166C127.934 73.9131 128.151 73.7546 128.406 73.6413C128.665 73.5279 128.962 73.4712 129.296 73.4712C129.607 73.4712 129.881 73.522 130.116 73.6238C130.355 73.7227 130.565 73.8637 130.749 74.0469L130.544 74.326ZM136.26 75.9702C135.903 75.9818 135.597 76.0109 135.344 76.0574C135.094 76.1011 134.889 76.1592 134.73 76.2319C134.573 76.3046 134.458 76.3904 134.385 76.4892C134.315 76.5881 134.28 76.6986 134.28 76.8207C134.28 76.937 134.299 77.0373 134.337 77.1216C134.375 77.2059 134.426 77.2757 134.49 77.331C134.557 77.3833 134.634 77.4225 134.721 77.4487C134.811 77.472 134.907 77.4836 135.009 77.4836C135.145 77.4836 135.27 77.4705 135.384 77.4443C135.497 77.4153 135.603 77.3746 135.702 77.3222C135.804 77.2699 135.9 77.2074 135.99 77.1347C136.083 77.062 136.173 76.9791 136.26 76.8861V75.9702ZM133.753 74.1646C133.997 73.9291 134.26 73.7532 134.542 73.6369C134.824 73.5206 135.137 73.4624 135.48 73.4624C135.727 73.4624 135.946 73.5031 136.138 73.5846C136.33 73.666 136.492 73.7794 136.622 73.9247C136.753 74.0701 136.852 74.246 136.919 74.4525C136.986 74.6589 137.019 74.8857 137.019 75.1328V77.959H136.675C136.599 77.959 136.541 77.9474 136.5 77.9241C136.46 77.8979 136.428 77.8485 136.404 77.7758L136.317 77.3571C136.201 77.4647 136.087 77.5606 135.977 77.645C135.866 77.7264 135.75 77.7962 135.628 77.8543C135.506 77.9096 135.375 77.9517 135.235 77.9808C135.099 78.0128 134.946 78.0288 134.778 78.0288C134.606 78.0288 134.445 78.0055 134.293 77.959C134.142 77.9096 134.01 77.8369 133.897 77.7409C133.786 77.645 133.697 77.5243 133.63 77.3789C133.567 77.2306 133.535 77.0562 133.535 76.8556C133.535 76.6811 133.582 76.5139 133.678 76.354C133.774 76.1912 133.93 76.0473 134.145 75.9222C134.36 75.7972 134.641 75.6954 134.987 75.6169C135.333 75.5355 135.757 75.489 136.26 75.4774V75.1328C136.26 74.7897 136.186 74.531 136.038 74.3565C135.89 74.1792 135.673 74.0905 135.388 74.0905C135.196 74.0905 135.035 74.1152 134.904 74.1646C134.776 74.2111 134.664 74.2649 134.568 74.326C134.475 74.3841 134.394 74.4379 134.324 74.4874C134.257 74.5339 134.19 74.5571 134.123 74.5571C134.071 74.5571 134.026 74.5441 133.988 74.5179C133.95 74.4888 133.918 74.4539 133.892 74.4132L133.753 74.1646ZM140.884 73.759C140.925 73.695 140.978 73.6427 141.045 73.602C141.112 73.5613 141.183 73.5409 141.259 73.5409H141.865L140.718 75.2244C140.648 75.332 140.576 75.4207 140.5 75.4905C140.425 75.5573 140.332 75.6097 140.221 75.6475C140.361 75.6853 140.478 75.7449 140.574 75.8263C140.67 75.9048 140.756 76.0066 140.832 76.1316L141.992 77.959H141.451C141.311 77.959 141.204 77.9357 141.128 77.8892C141.053 77.8427 140.987 77.7758 140.932 77.6886L140.073 76.3148C139.936 76.088 139.731 75.9746 139.458 75.9746H138.982V77.9633H138.202V73.5409H138.982V75.4512H139.401C139.634 75.4512 139.815 75.3524 139.946 75.1546L140.884 73.759ZM145.111 75.9702C144.753 75.9818 144.448 76.0109 144.195 76.0574C143.945 76.1011 143.74 76.1592 143.58 76.2319C143.423 76.3046 143.308 76.3904 143.235 76.4892C143.166 76.5881 143.131 76.6986 143.131 76.8207C143.131 76.937 143.15 77.0373 143.187 77.1216C143.225 77.2059 143.276 77.2757 143.34 77.331C143.407 77.3833 143.484 77.4225 143.571 77.4487C143.661 77.472 143.757 77.4836 143.859 77.4836C143.996 77.4836 144.121 77.4705 144.234 77.4443C144.348 77.4153 144.454 77.3746 144.553 77.3222C144.654 77.2699 144.75 77.2074 144.84 77.1347C144.933 77.062 145.024 76.9791 145.111 76.8861V75.9702ZM142.603 74.1646C142.847 73.9291 143.11 73.7532 143.392 73.6369C143.674 73.5206 143.987 73.4624 144.33 73.4624C144.577 73.4624 144.797 73.5031 144.989 73.5846C145.181 73.666 145.342 73.7794 145.473 73.9247C145.604 74.0701 145.703 74.246 145.769 74.4525C145.836 74.6589 145.87 74.8857 145.87 75.1328V77.959H145.525C145.45 77.959 145.391 77.9474 145.351 77.9241C145.31 77.8979 145.278 77.8485 145.255 77.7758L145.168 77.3571C145.051 77.4647 144.938 77.5606 144.827 77.645C144.717 77.7264 144.601 77.7962 144.478 77.8543C144.356 77.9096 144.225 77.9517 144.086 77.9808C143.949 78.0128 143.797 78.0288 143.628 78.0288C143.456 78.0288 143.295 78.0055 143.144 77.959C142.993 77.9096 142.86 77.8369 142.747 77.7409C142.636 77.645 142.548 77.5243 142.481 77.3789C142.417 77.2306 142.385 77.0562 142.385 76.8556C142.385 76.6811 142.433 76.5139 142.529 76.354C142.625 76.1912 142.78 76.0473 142.996 75.9222C143.211 75.7972 143.491 75.6954 143.837 75.6169C144.183 75.5355 144.608 75.489 145.111 75.4774V75.1328C145.111 74.7897 145.037 74.531 144.888 74.3565C144.74 74.1792 144.523 74.0905 144.239 74.0905C144.047 74.0905 143.885 74.1152 143.754 74.1646C143.627 74.2111 143.515 74.2649 143.419 74.326C143.326 74.3841 143.244 74.4379 143.174 74.4874C143.108 74.5339 143.041 74.5571 142.974 74.5571C142.921 74.5571 142.876 74.5441 142.839 74.5179C142.801 74.4888 142.769 74.4539 142.743 74.4132L142.603 74.1646ZM150.762 73.5409L148.298 79.263C148.272 79.3212 148.238 79.3677 148.197 79.4026C148.16 79.4375 148.1 79.4549 148.019 79.4549H147.443L148.25 77.7017L146.427 73.5409H147.098C147.165 73.5409 147.218 73.5584 147.255 73.5933C147.296 73.6253 147.324 73.6616 147.338 73.7023L148.52 76.4848C148.567 76.607 148.606 76.7349 148.638 76.8686C148.679 76.732 148.722 76.6026 148.769 76.4805L149.916 73.7023C149.933 73.6558 149.962 73.618 150.003 73.5889C150.047 73.5569 150.095 73.5409 150.147 73.5409H150.762ZM155.129 73.5409V77.959H154.348V75.8917H152.228V77.959H151.448V73.5409H152.228V75.3029H154.348V73.5409H155.129ZM160.035 74.1341H158.338V77.959H157.562V74.1341H155.865V73.5409H160.035V74.1341ZM164.587 73.5409L162.123 79.263C162.097 79.3212 162.063 79.3677 162.022 79.4026C161.985 79.4375 161.925 79.4549 161.844 79.4549H161.268L162.075 77.7017L160.252 73.5409H160.923C160.99 73.5409 161.043 73.5584 161.08 73.5933C161.121 73.6253 161.149 73.6616 161.163 73.7023L162.345 76.4848C162.392 76.607 162.431 76.7349 162.463 76.8686C162.504 76.732 162.547 76.6026 162.594 76.4805L163.741 73.7023C163.758 73.6558 163.787 73.618 163.828 73.5889C163.872 73.5569 163.92 73.5409 163.972 73.5409H164.587Z" fill="#AAAAAA"/>
<path d="M109.504 86.2974H106.852V93.6128H105.619V86.2974H102.956V85.2623H109.504V86.2974ZM110.293 88.8386C110.483 88.4509 110.711 88.1466 110.979 87.9256C111.246 87.7046 111.568 87.5941 111.944 87.5941C112.072 87.5941 112.192 87.6096 112.305 87.6407C112.421 87.6678 112.522 87.7104 112.607 87.7686L112.531 88.6234C112.504 88.7281 112.44 88.7804 112.34 88.7804C112.285 88.7804 112.204 88.7707 112.095 88.7513C111.987 88.7281 111.871 88.7165 111.746 88.7165C111.564 88.7165 111.403 88.7436 111.264 88.7979C111.124 88.8483 110.998 88.9258 110.886 89.0305C110.777 89.1313 110.68 89.2573 110.595 89.4085C110.51 89.5558 110.43 89.7244 110.357 89.9144V93.6128H109.223V87.7046H109.874C109.998 87.7046 110.081 87.7279 110.124 87.7744C110.171 87.8171 110.204 87.8946 110.223 88.007L110.293 88.8386ZM116.566 90.9902C116.105 91.0057 115.713 91.0425 115.391 91.1007C115.07 91.1549 114.808 91.2286 114.606 91.3216C114.405 91.4147 114.259 91.5252 114.17 91.6531C114.081 91.7772 114.036 91.9167 114.036 92.0718C114.036 92.2191 114.06 92.347 114.106 92.4556C114.157 92.5603 114.223 92.6475 114.304 92.7173C114.389 92.7832 114.488 92.8316 114.6 92.8626C114.713 92.8937 114.835 92.9092 114.967 92.9092C115.141 92.9092 115.3 92.8917 115.444 92.8568C115.591 92.8219 115.729 92.7735 115.857 92.7114C115.984 92.6455 116.107 92.5661 116.223 92.473C116.339 92.38 116.454 92.2734 116.566 92.1532V90.9902ZM113.24 88.5304C113.569 88.2164 113.926 87.9818 114.31 87.8267C114.697 87.6717 115.122 87.5941 115.583 87.5941C115.921 87.5941 116.219 87.6503 116.479 87.7628C116.739 87.8713 116.958 88.0245 117.136 88.2222C117.314 88.4199 117.448 88.6564 117.537 88.9316C117.63 89.2069 117.677 89.5112 117.677 89.8446V93.6128H117.171C117.058 93.6128 116.973 93.5953 116.915 93.5605C116.857 93.5217 116.81 93.4519 116.775 93.3511L116.653 92.8336C116.502 92.9731 116.353 93.0972 116.205 93.2057C116.058 93.3104 115.903 93.4015 115.74 93.479C115.581 93.5527 115.411 93.6089 115.229 93.6477C115.046 93.6865 114.845 93.7058 114.624 93.7058C114.391 93.7058 114.172 93.6748 113.967 93.6128C113.765 93.5469 113.589 93.448 113.437 93.3162C113.286 93.1844 113.166 93.0197 113.077 92.8219C112.992 92.6242 112.949 92.3936 112.949 92.1299C112.949 91.8973 113.011 91.6744 113.135 91.4612C113.263 91.2441 113.468 91.0503 113.751 90.8797C114.038 90.7091 114.411 90.5695 114.868 90.461C115.329 90.3524 115.895 90.2904 116.566 90.2749V89.8446C116.566 89.3988 116.471 89.0654 116.281 88.8444C116.091 88.6234 115.812 88.5129 115.444 88.5129C115.196 88.5129 114.986 88.5439 114.816 88.606C114.649 88.668 114.504 88.7378 114.38 88.8153C114.259 88.889 114.153 88.9568 114.06 89.0188C113.971 89.0809 113.877 89.1119 113.781 89.1119C113.703 89.1119 113.635 89.0906 113.577 89.0479C113.523 89.0053 113.478 88.9549 113.443 88.8967L113.24 88.5304ZM123.004 89.1351C122.818 88.8909 122.616 88.7203 122.399 88.6234C122.186 88.5265 121.945 88.478 121.678 88.478C121.158 88.478 120.755 88.6661 120.468 89.0421C120.185 89.4143 120.044 89.959 120.044 90.6762C120.044 91.0522 120.075 91.374 120.137 91.6415C120.203 91.9051 120.296 92.1222 120.416 92.2928C120.54 92.4595 120.691 92.5835 120.869 92.6649C121.048 92.7425 121.249 92.7812 121.474 92.7812C121.804 92.7812 122.089 92.7076 122.329 92.5603C122.569 92.4129 122.794 92.2055 123.004 91.938V89.1351ZM124.143 85.0297V93.6128H123.457C123.298 93.6128 123.199 93.5372 123.161 93.386L123.062 92.7056C122.81 93.0041 122.523 93.2445 122.201 93.4267C121.883 93.605 121.515 93.6942 121.096 93.6942C120.759 93.6942 120.453 93.6283 120.177 93.4965C119.906 93.3647 119.673 93.1728 119.48 92.9208C119.286 92.6649 119.137 92.349 119.032 91.9729C118.927 91.5969 118.875 91.1646 118.875 90.6762C118.875 90.2381 118.933 89.831 119.049 89.455C119.166 89.0789 119.334 88.7533 119.555 88.478C119.776 88.2028 120.044 87.9876 120.358 87.8326C120.672 87.6736 121.026 87.5941 121.422 87.5941C121.779 87.5941 122.081 87.6523 122.329 87.7686C122.581 87.8849 122.806 88.0497 123.004 88.2629V85.0297H124.143ZM126.912 87.7046V93.6128H125.778V87.7046H126.912ZM127.127 85.8787C127.127 85.9833 127.105 86.0841 127.063 86.1811C127.02 86.2741 126.962 86.3575 126.888 86.4311C126.819 86.5009 126.735 86.5571 126.638 86.5997C126.541 86.6385 126.441 86.6579 126.336 86.6579C126.231 86.6579 126.132 86.6385 126.039 86.5997C125.946 86.5571 125.863 86.5009 125.789 86.4311C125.72 86.3575 125.663 86.2741 125.621 86.1811C125.582 86.0841 125.563 85.9833 125.563 85.8787C125.563 85.7701 125.582 85.6693 125.621 85.5763C125.663 85.4794 125.72 85.396 125.789 85.3262C125.863 85.2526 125.946 85.1964 126.039 85.1576C126.132 85.115 126.231 85.0936 126.336 85.0936C126.441 85.0936 126.541 85.115 126.638 85.1576C126.735 85.1964 126.819 85.2526 126.888 85.3262C126.962 85.396 127.02 85.4794 127.063 85.5763C127.105 85.6693 127.127 85.7701 127.127 85.8787ZM129.618 88.5246C129.746 88.3889 129.879 88.2648 130.019 88.1524C130.158 88.04 130.306 87.945 130.461 87.8674C130.62 87.786 130.788 87.724 130.967 87.6814C131.149 87.6348 131.343 87.6116 131.548 87.6116C131.874 87.6116 132.159 87.6659 132.403 87.7744C132.651 87.883 132.859 88.0361 133.025 88.2338C133.192 88.4276 133.318 88.6622 133.403 88.9374C133.489 89.2127 133.531 89.517 133.531 89.8504V93.6128H132.391V89.8504C132.391 89.4278 132.295 89.1003 132.101 88.8676C131.907 88.6312 131.61 88.5129 131.211 88.5129C130.92 88.5129 130.647 88.5827 130.391 88.7223C130.139 88.858 129.904 89.044 129.687 89.2805V93.6128H128.553V87.7046H129.234C129.393 87.7046 129.492 87.7802 129.53 87.9314L129.618 88.5246ZM137.137 90.6645C137.339 90.6645 137.515 90.6374 137.667 90.5831C137.822 90.5288 137.95 90.4532 138.05 90.3563C138.155 90.2555 138.233 90.1353 138.283 89.9958C138.337 89.8562 138.364 89.7031 138.364 89.5364C138.364 89.1952 138.26 88.9239 138.05 88.7223C137.845 88.5168 137.541 88.4141 137.137 88.4141C136.738 88.4141 136.434 88.5168 136.224 88.7223C136.019 88.9239 135.916 89.1952 135.916 89.5364C135.916 89.7031 135.941 89.8562 135.992 89.9958C136.046 90.1315 136.124 90.2497 136.224 90.3505C136.329 90.4474 136.457 90.525 136.608 90.5831C136.763 90.6374 136.94 90.6645 137.137 90.6645ZM138.946 93.921C138.946 93.7814 138.907 93.6709 138.83 93.5895C138.752 93.5042 138.645 93.4383 138.51 93.3918C138.378 93.3414 138.223 93.3065 138.045 93.2871C137.866 93.2639 137.678 93.2464 137.48 93.2348C137.287 93.2232 137.087 93.2135 136.882 93.2057C136.676 93.1941 136.478 93.1747 136.288 93.1476C136.087 93.2484 135.92 93.3705 135.788 93.5139C135.66 93.6574 135.596 93.826 135.596 94.0199C135.596 94.1439 135.627 94.2602 135.689 94.3688C135.755 94.4773 135.854 94.5704 135.986 94.6479C136.122 94.7293 136.29 94.7913 136.492 94.834C136.697 94.8805 136.942 94.9038 137.225 94.9038C137.504 94.9038 137.75 94.8786 137.963 94.8282C138.176 94.7816 138.355 94.7138 138.498 94.6246C138.645 94.5393 138.756 94.4366 138.83 94.3164C138.907 94.1962 138.946 94.0644 138.946 93.921ZM140.097 87.9256V88.3501C140.097 88.4897 140.01 88.5769 139.836 88.6118L139.202 88.7048C139.256 88.825 139.299 88.9529 139.33 89.0886C139.361 89.2204 139.376 89.36 139.376 89.5073C139.376 89.7981 139.32 90.0617 139.208 90.2982C139.095 90.5308 138.94 90.7304 138.742 90.8971C138.545 91.0638 138.308 91.1918 138.033 91.2809C137.762 91.3701 137.463 91.4147 137.137 91.4147C136.87 91.4147 136.62 91.3856 136.387 91.3274C136.271 91.3972 136.182 91.4748 136.12 91.5601C136.062 91.6415 136.033 91.7229 136.033 91.8043C136.033 91.94 136.089 92.0408 136.201 92.1067C136.317 92.1726 136.467 92.221 136.649 92.2521C136.835 92.2792 137.046 92.2966 137.283 92.3044C137.523 92.3121 137.765 92.3257 138.01 92.3451C138.258 92.3606 138.5 92.3916 138.737 92.4381C138.977 92.4808 139.188 92.5525 139.37 92.6533C139.556 92.7502 139.706 92.8859 139.818 93.0604C139.934 93.2309 139.993 93.4538 139.993 93.7291C139.993 93.985 139.929 94.2331 139.801 94.4734C139.677 94.7138 139.494 94.927 139.254 95.1131C139.014 95.2992 138.721 95.4484 138.376 95.5609C138.031 95.6733 137.639 95.7295 137.201 95.7295C136.763 95.7295 136.381 95.6869 136.056 95.6016C135.734 95.5163 135.465 95.4019 135.247 95.2585C135.034 95.115 134.873 94.9483 134.765 94.7584C134.66 94.5684 134.608 94.3707 134.608 94.1652C134.608 93.8784 134.697 93.6361 134.875 93.4383C135.054 93.2367 135.3 93.0797 135.614 92.9673C135.443 92.8898 135.308 92.7851 135.207 92.6533C135.106 92.5176 135.056 92.3393 135.056 92.1183C135.056 92.033 135.071 91.9458 135.102 91.8566C135.133 91.7636 135.18 91.6725 135.242 91.5833C135.308 91.4903 135.387 91.403 135.48 91.3216C135.577 91.2402 135.687 91.1666 135.812 91.1007C135.521 90.9378 135.292 90.7227 135.125 90.4552C134.959 90.1838 134.875 89.8679 134.875 89.5073C134.875 89.2166 134.932 88.9549 135.044 88.7223C135.156 88.4897 135.311 88.29 135.509 88.1233C135.711 87.9566 135.949 87.8287 136.224 87.7395C136.504 87.6504 136.808 87.6058 137.137 87.6058C137.649 87.6058 138.089 87.7124 138.457 87.9256H140.097ZM145.213 92.159C145.399 92.4032 145.601 92.5738 145.818 92.6707C146.035 92.7677 146.272 92.8161 146.528 92.8161C147.055 92.8161 147.46 92.6281 147.743 92.2521C148.03 91.876 148.173 91.3081 148.173 90.5482C148.173 89.8465 148.047 89.3329 147.795 89.0072C147.543 88.6777 147.187 88.5129 146.725 88.5129C146.4 88.5129 146.117 88.5866 145.876 88.7339C145.64 88.8812 145.419 89.0906 145.213 89.3619V92.159ZM145.213 88.5187C145.458 88.2474 145.735 88.0283 146.045 87.8616C146.355 87.6949 146.708 87.6116 147.103 87.6116C147.448 87.6116 147.758 87.6794 148.034 87.8151C148.313 87.9469 148.549 88.1388 148.743 88.3908C148.937 88.6389 149.086 88.9413 149.191 89.298C149.296 89.6546 149.348 90.0578 149.348 90.5075C149.348 90.9844 149.288 91.4186 149.168 91.8101C149.051 92.2017 148.883 92.537 148.662 92.8161C148.445 93.0952 148.179 93.3123 147.865 93.4674C147.551 93.6186 147.198 93.6942 146.807 93.6942C146.617 93.6942 146.442 93.6748 146.283 93.6361C146.124 93.6012 145.977 93.5488 145.841 93.479C145.71 93.4093 145.587 93.324 145.475 93.2232C145.363 93.1224 145.256 93.008 145.155 92.8801L145.103 93.3744C145.072 93.5333 144.975 93.6128 144.812 93.6128H144.079V85.0297H145.213V88.5187ZM153.128 87.6116C153.562 87.6116 153.954 87.6833 154.303 87.8267C154.655 87.9663 154.954 88.1698 155.198 88.4373C155.446 88.7009 155.636 89.0208 155.768 89.3968C155.9 89.769 155.966 90.1877 155.966 90.6529C155.966 91.1181 155.9 91.5387 155.768 91.9148C155.636 92.2908 155.446 92.6107 155.198 92.8743C154.954 93.1379 154.655 93.3414 154.303 93.4849C153.954 93.6244 153.562 93.6942 153.128 93.6942C152.69 93.6942 152.294 93.6244 151.942 93.4849C151.593 93.3414 151.294 93.1379 151.046 92.8743C150.798 92.6107 150.606 92.2908 150.47 91.9148C150.339 91.5387 150.273 91.1181 150.273 90.6529C150.273 90.1877 150.339 89.769 150.47 89.3968C150.606 89.0208 150.798 88.7009 151.046 88.4373C151.294 88.1698 151.593 87.9663 151.942 87.8267C152.294 87.6833 152.69 87.6116 153.128 87.6116ZM153.128 92.8103C153.686 92.8103 154.103 92.6223 154.378 92.2462C154.653 91.8702 154.791 91.341 154.791 90.6587C154.791 89.9764 154.653 89.4472 154.378 89.0712C154.103 88.6913 153.686 88.5013 153.128 88.5013C152.562 88.5013 152.139 88.6913 151.86 89.0712C151.585 89.4472 151.447 89.9764 151.447 90.6587C151.447 91.341 151.585 91.8702 151.86 92.2462C152.139 92.6223 152.562 92.8103 153.128 92.8103ZM158.967 93.7058C158.49 93.7058 158.122 93.5721 157.862 93.3046C157.606 93.0371 157.479 92.6552 157.479 92.159V88.6234H156.792C156.726 88.6234 156.67 88.604 156.624 88.5653C156.581 88.5226 156.56 88.4606 156.56 88.3792V87.9198L157.519 87.786L157.775 86.0241C157.791 85.9581 157.82 85.9078 157.862 85.8729C157.909 85.8341 157.967 85.8147 158.037 85.8147H158.612V87.7977H160.287V88.6234H158.612V92.0834C158.612 92.316 158.669 92.4905 158.781 92.6068C158.897 92.7192 159.045 92.7754 159.223 92.7754C159.328 92.7754 159.417 92.7618 159.491 92.7347C159.568 92.7076 159.634 92.6785 159.688 92.6475C159.743 92.6126 159.789 92.5816 159.828 92.5544C159.867 92.5273 159.901 92.5137 159.932 92.5137C159.971 92.5137 160 92.5234 160.02 92.5428C160.043 92.5583 160.066 92.5855 160.09 92.6242L160.427 93.1708C160.241 93.3414 160.02 93.4732 159.764 93.5663C159.508 93.6593 159.242 93.7058 158.967 93.7058Z" fill="black"/>
</g>
</g>
<path d="M109.05 124.219V113.168H111.557V124.219H109.05ZM104.778 119.947V117.44H115.828V119.947H104.778ZM125.312 127.061C124.529 127.056 123.765 126.92 123.02 126.654C122.275 126.382 121.604 125.943 121.008 125.336C120.412 124.724 119.938 123.912 119.587 122.901C119.236 121.884 119.063 120.626 119.068 119.125C119.068 117.725 119.217 116.476 119.515 115.38C119.813 114.283 120.242 113.357 120.801 112.601C121.36 111.84 122.033 111.26 122.821 110.861C123.614 110.462 124.5 110.262 125.479 110.262C126.507 110.262 127.417 110.464 128.21 110.869C129.009 111.273 129.653 111.827 130.142 112.53C130.632 113.227 130.935 114.015 131.052 114.893H128.138C127.989 114.265 127.683 113.764 127.22 113.392C126.762 113.014 126.182 112.825 125.479 112.825C124.346 112.825 123.473 113.317 122.861 114.302C122.254 115.287 121.948 116.639 121.942 118.358H122.054C122.315 117.89 122.653 117.488 123.068 117.152C123.483 116.817 123.952 116.559 124.473 116.378C125 116.192 125.557 116.099 126.142 116.099C127.1 116.099 127.96 116.327 128.721 116.785C129.488 117.243 130.094 117.874 130.541 118.677C130.989 119.476 131.21 120.391 131.204 121.424C131.21 122.499 130.965 123.465 130.47 124.322C129.975 125.174 129.285 125.845 128.402 126.334C127.518 126.824 126.488 127.066 125.312 127.061ZM125.296 124.666C125.876 124.666 126.395 124.525 126.853 124.243C127.311 123.96 127.672 123.58 127.939 123.101C128.205 122.622 128.335 122.084 128.33 121.488C128.335 120.902 128.207 120.373 127.947 119.899C127.691 119.425 127.337 119.05 126.885 118.773C126.432 118.496 125.916 118.358 125.336 118.358C124.905 118.358 124.503 118.441 124.13 118.606C123.757 118.771 123.433 118.999 123.156 119.292C122.879 119.58 122.661 119.915 122.501 120.298C122.347 120.676 122.267 121.081 122.262 121.512C122.267 122.081 122.4 122.606 122.661 123.085C122.922 123.564 123.281 123.947 123.739 124.235C124.197 124.522 124.716 124.666 125.296 124.666ZM139.947 127.149C138.632 127.149 137.504 126.816 136.562 126.151C135.625 125.48 134.904 124.514 134.398 123.252C133.898 121.986 133.647 120.461 133.647 118.677C133.653 116.894 133.906 115.377 134.406 114.126C134.912 112.87 135.633 111.912 136.57 111.252C137.512 110.592 138.638 110.262 139.947 110.262C141.256 110.262 142.382 110.592 143.324 111.252C144.266 111.912 144.988 112.87 145.488 114.126C145.994 115.383 146.247 116.9 146.247 118.677C146.247 120.466 145.994 121.994 145.488 123.26C144.988 124.522 144.266 125.485 143.324 126.151C142.388 126.816 141.262 127.149 139.947 127.149ZM139.947 124.65C140.969 124.65 141.775 124.147 142.366 123.141C142.962 122.129 143.26 120.642 143.26 118.677C143.26 117.379 143.125 116.287 142.853 115.404C142.582 114.52 142.199 113.855 141.704 113.408C141.208 112.955 140.623 112.729 139.947 112.729C138.93 112.729 138.127 113.235 137.536 114.246C136.945 115.252 136.647 116.729 136.641 118.677C136.636 119.982 136.767 121.078 137.033 121.967C137.304 122.856 137.687 123.527 138.182 123.979C138.677 124.426 139.266 124.65 139.947 124.65ZM154.943 127.149C153.629 127.149 152.5 126.816 151.558 126.151C150.621 125.48 149.9 124.514 149.394 123.252C148.894 121.986 148.644 120.461 148.644 118.677C148.649 116.894 148.902 115.377 149.402 114.126C149.908 112.87 150.629 111.912 151.566 111.252C152.508 110.592 153.634 110.262 154.943 110.262C156.253 110.262 157.379 110.592 158.321 111.252C159.263 111.912 159.984 112.87 160.485 114.126C160.99 115.383 161.243 116.9 161.243 118.677C161.243 120.466 160.99 121.994 160.485 123.26C159.984 124.522 159.263 125.485 158.321 126.151C157.384 126.816 156.258 127.149 154.943 127.149ZM154.943 124.65C155.965 124.65 156.772 124.147 157.363 123.141C157.959 122.129 158.257 120.642 158.257 118.677C158.257 117.379 158.121 116.287 157.85 115.404C157.578 114.52 157.195 113.855 156.7 113.408C156.205 112.955 155.619 112.729 154.943 112.729C153.927 112.729 153.123 113.235 152.532 114.246C151.941 115.252 151.643 116.729 151.638 118.677C151.633 119.982 151.763 121.078 152.029 121.967C152.301 122.856 152.684 123.527 153.179 123.979C153.674 124.426 154.262 124.65 154.943 124.65ZM169.94 127.149C168.625 127.149 167.497 126.816 166.555 126.151C165.618 125.48 164.897 124.514 164.391 123.252C163.891 121.986 163.64 120.461 163.64 118.677C163.646 116.894 163.899 115.377 164.399 114.126C164.905 112.87 165.626 111.912 166.563 111.252C167.505 110.592 168.631 110.262 169.94 110.262C171.249 110.262 172.375 110.592 173.317 111.252C174.259 111.912 174.981 112.87 175.481 114.126C175.987 115.383 176.24 116.9 176.24 118.677C176.24 120.466 175.987 121.994 175.481 123.26C174.981 124.522 174.259 125.485 173.317 126.151C172.38 126.816 171.255 127.149 169.94 127.149ZM169.94 124.65C170.962 124.65 171.768 124.147 172.359 123.141C172.955 122.129 173.253 120.642 173.253 118.677C173.253 117.379 173.118 116.287 172.846 115.404C172.575 114.52 172.192 113.855 171.696 113.408C171.201 112.955 170.616 112.729 169.94 112.729C168.923 112.729 168.12 113.235 167.529 114.246C166.938 115.252 166.64 116.729 166.634 118.677C166.629 119.982 166.76 121.078 167.026 121.967C167.297 122.856 167.68 123.527 168.175 123.979C168.67 124.426 169.259 124.65 169.94 124.65ZM184.162 128.881V108.442H185.471V128.881H184.162ZM187.939 114.981C187.864 114.283 187.55 113.741 186.996 113.352C186.448 112.963 185.735 112.769 184.857 112.769C184.239 112.769 183.71 112.862 183.268 113.049C182.826 113.235 182.488 113.488 182.254 113.807C182.02 114.126 181.9 114.491 181.894 114.901C181.894 115.242 181.972 115.537 182.126 115.787C182.286 116.037 182.501 116.25 182.773 116.426C183.044 116.596 183.345 116.74 183.675 116.857C184.005 116.974 184.338 117.073 184.673 117.152L186.206 117.536C186.823 117.679 187.417 117.874 187.986 118.119C188.561 118.363 189.075 118.672 189.527 119.045C189.985 119.417 190.347 119.867 190.613 120.394C190.879 120.921 191.012 121.538 191.012 122.246C191.012 123.205 190.768 124.048 190.278 124.777C189.788 125.501 189.08 126.068 188.154 126.478C187.233 126.883 186.118 127.085 184.809 127.085C183.537 127.085 182.432 126.888 181.495 126.494C180.564 126.1 179.834 125.525 179.308 124.769C178.786 124.014 178.504 123.093 178.461 122.007H181.375C181.418 122.576 181.594 123.05 181.902 123.428C182.211 123.806 182.613 124.088 183.108 124.274C183.608 124.461 184.167 124.554 184.785 124.554C185.429 124.554 185.993 124.458 186.477 124.266C186.967 124.07 187.35 123.798 187.627 123.452C187.904 123.101 188.045 122.691 188.05 122.222C188.045 121.797 187.92 121.445 187.675 121.169C187.43 120.886 187.087 120.652 186.645 120.466C186.209 120.274 185.698 120.104 185.112 119.955L183.252 119.476C181.905 119.13 180.841 118.606 180.058 117.903C179.281 117.195 178.892 116.256 178.892 115.085C178.892 114.121 179.153 113.277 179.675 112.554C180.202 111.83 180.918 111.268 181.823 110.869C182.727 110.464 183.752 110.262 184.897 110.262C186.057 110.262 187.074 110.464 187.947 110.869C188.825 111.268 189.514 111.824 190.014 112.538C190.515 113.245 190.773 114.06 190.789 114.981H187.939Z" fill="black"/>
<path d="M117.961 163.735C102.777 167.561 85.875 187.78 85.875 187.78V229.625H287.604V114.083C287.604 114.083 255.342 160.723 226.291 157.177C212.674 155.515 208.232 142.675 194.523 142.188C175.579 141.514 171.594 163.994 152.906 167.17C139.387 169.467 131.258 160.384 117.961 163.735Z" fill="url(#paint0_linear_657_5752)" fill-opacity="0.5" stroke="url(#paint1_linear_657_5752)" stroke-width="0.624549"/>
</g>
</g>
</g>
</g>
<defs>
<filter id="filter0_d_657_5752" x="-21.75" y="0.25" width="418.5" height="329.5" filterUnits="userSpaceOnUse" color-interpolation-filters="sRGB">
<feFlood flood-opacity="0" result="BackgroundImageFix"/>
<feColorMatrix in="SourceAlpha" type="matrix" values="0 0 0 0 0 0 0 0 0 0 0 0 0 0 0 0 0 0 127 0" result="hardAlpha"/>
<feOffset dy="3"/>
<feGaussianBlur stdDeviation="16.875"/>
<feComposite in2="hardAlpha" operator="out"/>
<feColorMatrix type="matrix" values="0 0 0 0 0.811667 0 0 0 0 0.811667 0 0 0 0 0.811667 0 0 0 0.25 0"/>
<feBlend mode="normal" in2="BackgroundImageFix" result="effect1_dropShadow_657_5752"/>
<feBlend mode="normal" in="SourceGraphic" in2="effect1_dropShadow_657_5752" result="shape"/>
</filter>
<filter id="filter1_d_657_5752" x="56.2899" y="26.1975" width="263.862" height="238.42" filterUnits="userSpaceOnUse" color-interpolation-filters="sRGB">
<feFlood flood-opacity="0" result="BackgroundImageFix"/>
<feColorMatrix in="SourceAlpha" type="matrix" values="0 0 0 0 0 0 0 0 0 0 0 0 0 0 0 0 0 0 127 0" result="hardAlpha"/>
<feOffset dy="2.90756"/>
<feGaussianBlur stdDeviation="16.355"/>
<feComposite in2="hardAlpha" operator="out"/>
<feColorMatrix type="matrix" values="0 0 0 0 0.858333 0 0 0 0 0.858333 0 0 0 0 0.858333 0 0 0 0.25 0"/>
<feBlend mode="normal" in2="BackgroundImageFix" result="effect1_dropShadow_657_5752"/>
<feBlend mode="normal" in="SourceGraphic" in2="effect1_dropShadow_657_5752" result="shape"/>
</filter>
<linearGradient id="paint0_linear_657_5752" x1="85.875" y1="114.083" x2="287.604" y2="114.083" gradientUnits="userSpaceOnUse">
<stop stop-color="#3CA7B1"/>
<stop offset="1" stop-color="#6AE2C9"/>
</linearGradient>
<linearGradient id="paint1_linear_657_5752" x1="282.891" y1="253.025" x2="82.8507" y2="212.73" gradientUnits="userSpaceOnUse">
<stop stop-color="#369FAE"/>
<stop offset="0.9886" stop-color="#6BE4CA"/>
<stop offset="0.9924" stop-color="#6BE4CA"/>
</linearGradient>
<clipPath id="clip0_657_5752">
<rect x="12" y="31" width="351" height="262" rx="9" fill="white"/>
</clipPath>
<clipPath id="clip1_657_5752">
<rect x="89" y="56" width="198.441" height="173" rx="8.72269" fill="white"/>
</clipPath>
<clipPath id="clip2_657_5752">
<rect width="170.88" height="26.0111" fill="white" transform="translate(102.781 69.7803)"/>
</clipPath>
<clipPath id="clip3_657_5752">
<rect width="170.88" height="25.6537" fill="white" transform="translate(102.781 69.959)"/>
</clipPath>
</defs>
</svg>
