<svg width="375" height="330" viewBox="0 0 375 330" fill="none" xmlns="http://www.w3.org/2000/svg">
<g filter="url(#filter0_d_657_4150)">
<g clip-path="url(#clip0_657_4150)">
<rect x="12" y="31" width="351" height="262" rx="9" fill="white"/>
<path d="M40.9675 245.155V256H39.19V248.995C39.19 248.715 39.205 248.412 39.235 248.088L35.9575 254.245C35.8025 254.54 35.565 254.687 35.245 254.687H34.96C34.64 254.687 34.4025 254.54 34.2475 254.245L30.9325 248.065C30.9475 248.23 30.96 248.392 30.97 248.553C30.98 248.713 30.985 248.86 30.985 248.995V256H29.2075V245.155H30.73C30.82 245.155 30.8975 245.158 30.9625 245.163C31.0275 245.167 31.085 245.18 31.135 245.2C31.19 245.22 31.2375 245.253 31.2775 245.298C31.3225 245.343 31.365 245.402 31.405 245.477L34.6525 251.5C34.7375 251.66 34.815 251.825 34.885 251.995C34.96 252.165 35.0325 252.34 35.1025 252.52C35.1725 252.335 35.245 252.157 35.32 251.988C35.395 251.812 35.475 251.645 35.56 251.485L38.7625 245.477C38.8025 245.402 38.845 245.343 38.89 245.298C38.935 245.253 38.9825 245.22 39.0325 245.2C39.0875 245.18 39.1475 245.167 39.2125 245.163C39.2775 245.158 39.355 245.155 39.445 245.155H40.9675ZM49.8925 248.305V256H48.04V251.508C48.04 251.393 48.045 251.267 48.055 251.132C48.07 250.992 48.0875 250.852 48.1075 250.713C48.0075 250.943 47.8975 251.145 47.7775 251.32C47.7675 251.33 47.7175 251.4 47.6275 251.53C47.5375 251.655 47.42 251.818 47.275 252.018C47.135 252.218 46.975 252.445 46.795 252.7C46.615 252.95 46.4325 253.205 46.2475 253.465C45.8125 254.08 45.32 254.775 44.77 255.55C44.7 255.655 44.6075 255.758 44.4925 255.857C44.3825 255.957 44.255 256.007 44.11 256.007H42.9775V248.312H44.83V252.805C44.83 252.92 44.8225 253.047 44.8075 253.187C44.7975 253.322 44.7825 253.46 44.7625 253.6C44.8725 253.355 44.9825 253.153 45.0925 252.993C45.0975 252.982 45.145 252.915 45.235 252.79C45.325 252.665 45.44 252.503 45.58 252.303C45.725 252.102 45.8875 251.877 46.0675 251.628C46.2475 251.373 46.43 251.113 46.615 250.848C47.05 250.232 47.545 249.538 48.1 248.763C48.17 248.653 48.2625 248.55 48.3775 248.455C48.4925 248.355 48.6225 248.305 48.7675 248.305H49.8925ZM59.4351 252.715C58.9001 252.74 58.4501 252.787 58.0851 252.857C57.7201 252.923 57.4276 253.008 57.2076 253.113C56.9876 253.218 56.8301 253.34 56.7351 253.48C56.6401 253.62 56.5926 253.772 56.5926 253.938C56.5926 254.263 56.6876 254.495 56.8776 254.635C57.0726 254.775 57.3251 254.845 57.6351 254.845C58.0151 254.845 58.3426 254.777 58.6176 254.643C58.8976 254.503 59.1701 254.293 59.4351 254.013V252.715ZM55.1901 249.378C56.0751 248.568 57.1401 248.162 58.3851 248.162C58.8351 248.162 59.2376 248.237 59.5926 248.387C59.9476 248.532 60.2476 248.738 60.4926 249.003C60.7376 249.263 60.9226 249.575 61.0476 249.94C61.1776 250.305 61.2426 250.705 61.2426 251.14V256H60.4026C60.2276 256 60.0926 255.975 59.9976 255.925C59.9026 255.87 59.8276 255.762 59.7726 255.603L59.6076 255.048C59.4126 255.223 59.2226 255.377 59.0376 255.512C58.8526 255.643 58.6601 255.753 58.4601 255.842C58.2601 255.933 58.0451 256 57.8151 256.045C57.5901 256.095 57.3401 256.12 57.0651 256.12C56.7401 256.12 56.4401 256.077 56.1651 255.993C55.8901 255.902 55.6526 255.77 55.4526 255.595C55.2526 255.42 55.0976 255.203 54.9876 254.943C54.8776 254.683 54.8226 254.38 54.8226 254.035C54.8226 253.84 54.8551 253.647 54.9201 253.458C54.9851 253.263 55.0901 253.078 55.2351 252.903C55.3851 252.728 55.5776 252.563 55.8126 252.407C56.0476 252.252 56.3351 252.117 56.6751 252.002C57.0201 251.887 57.4201 251.795 57.8751 251.725C58.3301 251.65 58.8501 251.605 59.4351 251.59V251.14C59.4351 250.625 59.3251 250.245 59.1051 250C58.8851 249.75 58.5676 249.625 58.1526 249.625C57.8526 249.625 57.6026 249.66 57.4026 249.73C57.2076 249.8 57.0351 249.88 56.8851 249.97C56.7351 250.055 56.5976 250.132 56.4726 250.202C56.3526 250.272 56.2176 250.307 56.0676 250.307C55.9376 250.307 55.8276 250.275 55.7376 250.21C55.6476 250.14 55.5751 250.06 55.5201 249.97L55.1901 249.378ZM64.8398 254.005C65.0498 254.26 65.2773 254.44 65.5223 254.545C65.7723 254.65 66.0423 254.703 66.3323 254.703C66.6123 254.703 66.8648 254.65 67.0898 254.545C67.3148 254.44 67.5048 254.28 67.6598 254.065C67.8198 253.85 67.9423 253.58 68.0273 253.255C68.1123 252.925 68.1548 252.538 68.1548 252.093C68.1548 251.643 68.1173 251.263 68.0423 250.953C67.9723 250.637 67.8698 250.382 67.7348 250.188C67.5998 249.993 67.4348 249.85 67.2398 249.76C67.0498 249.67 66.8323 249.625 66.5873 249.625C66.2023 249.625 65.8748 249.708 65.6048 249.873C65.3348 250.033 65.0798 250.26 64.8398 250.555V254.005ZM64.7423 249.355C65.0573 249 65.4148 248.713 65.8148 248.493C66.2148 248.272 66.6848 248.162 67.2248 248.162C67.6448 248.162 68.0273 248.25 68.3723 248.425C68.7223 248.6 69.0223 248.855 69.2723 249.19C69.5273 249.52 69.7223 249.93 69.8573 250.42C69.9973 250.905 70.0673 251.463 70.0673 252.093C70.0673 252.668 69.9898 253.2 69.8348 253.69C69.6798 254.18 69.4573 254.605 69.1673 254.965C68.8823 255.325 68.5348 255.608 68.1248 255.813C67.7198 256.013 67.2648 256.112 66.7598 256.112C66.3298 256.112 65.9623 256.047 65.6573 255.917C65.3523 255.782 65.0798 255.598 64.8398 255.363V258.512H62.9873V248.305H64.1198C64.3598 248.305 64.5173 248.418 64.5923 248.642L64.7423 249.355ZM76.4555 251.267C76.4555 251.028 76.4205 250.803 76.3505 250.593C76.2855 250.378 76.1855 250.19 76.0505 250.03C75.9155 249.87 75.743 249.745 75.533 249.655C75.328 249.56 75.088 249.512 74.813 249.512C74.278 249.512 73.8555 249.665 73.5455 249.97C73.2405 250.275 73.0455 250.708 72.9605 251.267H76.4555ZM72.923 252.385C72.953 252.78 73.023 253.122 73.133 253.412C73.243 253.697 73.388 253.935 73.568 254.125C73.748 254.31 73.9605 254.45 74.2055 254.545C74.4555 254.635 74.7305 254.68 75.0305 254.68C75.3305 254.68 75.588 254.645 75.803 254.575C76.023 254.505 76.213 254.428 76.373 254.342C76.538 254.258 76.6805 254.18 76.8005 254.11C76.9255 254.04 77.0455 254.005 77.1605 254.005C77.3155 254.005 77.4305 254.063 77.5055 254.177L78.038 254.852C77.833 255.093 77.603 255.295 77.348 255.46C77.093 255.62 76.8255 255.75 76.5455 255.85C76.2705 255.945 75.988 256.012 75.698 256.052C75.413 256.092 75.1355 256.112 74.8655 256.112C74.3305 256.112 73.833 256.025 73.373 255.85C72.913 255.67 72.513 255.408 72.173 255.063C71.833 254.713 71.5655 254.283 71.3705 253.772C71.1755 253.258 71.078 252.663 71.078 251.988C71.078 251.462 71.163 250.97 71.333 250.51C71.503 250.045 71.7455 249.643 72.0605 249.302C72.3805 248.957 72.768 248.685 73.223 248.485C73.683 248.285 74.2005 248.185 74.7755 248.185C75.2605 248.185 75.708 248.263 76.118 248.418C76.528 248.573 76.8805 248.8 77.1755 249.1C77.4705 249.395 77.7005 249.76 77.8655 250.195C78.0355 250.625 78.1205 251.118 78.1205 251.673C78.1205 251.953 78.0905 252.142 78.0305 252.242C77.9705 252.338 77.8555 252.385 77.6855 252.385H72.923ZM86.2157 248.305V256H84.3632V252.595H81.3632V256H79.5107V248.305H81.3632V251.223H84.3632V248.305H86.2157ZM93.1807 254.68V249.723H91.2907C91.2407 250.368 91.1782 250.95 91.1032 251.47C91.0282 251.985 90.9407 252.445 90.8407 252.85C90.7407 253.255 90.6307 253.608 90.5107 253.908C90.3957 254.208 90.2707 254.465 90.1357 254.68H93.1807ZM96.3907 254.627V258.025C96.3907 258.195 96.3407 258.33 96.2407 258.43C96.1457 258.53 96.0207 258.58 95.8657 258.58H94.7107V256H88.9507V258.055C88.9507 258.185 88.9082 258.305 88.8232 258.415C88.7432 258.525 88.6157 258.58 88.4407 258.58H87.2707V254.68H87.4882C87.6632 254.68 87.8332 254.658 87.9982 254.613C88.1632 254.563 88.3207 254.463 88.4707 254.313C88.6257 254.162 88.7707 253.947 88.9057 253.668C89.0457 253.382 89.1707 253.005 89.2807 252.535C89.3907 252.06 89.4857 251.477 89.5657 250.787C89.6507 250.097 89.7182 249.27 89.7682 248.305H94.9807V254.627H96.3907ZM104.137 248.305L99.9449 258.115C99.8899 258.245 99.8174 258.343 99.7274 258.407C99.6424 258.477 99.5099 258.512 99.3299 258.512H97.9499L99.3899 255.422L96.2774 248.305H97.9049C98.0499 248.305 98.1624 248.34 98.2424 248.41C98.3274 248.48 98.3899 248.56 98.4299 248.65L100.065 252.64C100.12 252.775 100.165 252.91 100.2 253.045C100.24 253.18 100.277 253.318 100.312 253.458C100.357 253.318 100.402 253.18 100.447 253.045C100.492 252.905 100.542 252.768 100.597 252.632L102.142 248.65C102.182 248.55 102.247 248.468 102.337 248.403C102.432 248.338 102.537 248.305 102.652 248.305H104.137ZM110.358 249.873C110.303 249.943 110.248 249.998 110.193 250.038C110.143 250.078 110.071 250.097 109.976 250.097C109.881 250.097 109.786 250.072 109.691 250.023C109.596 249.968 109.483 249.91 109.353 249.85C109.228 249.785 109.078 249.727 108.903 249.677C108.728 249.623 108.513 249.595 108.258 249.595C107.703 249.595 107.261 249.758 106.931 250.083C106.601 250.408 106.391 250.86 106.301 251.44H109.548V252.7H106.278C106.363 253.35 106.578 253.848 106.923 254.193C107.268 254.533 107.698 254.703 108.213 254.703C108.408 254.703 108.578 254.688 108.723 254.658C108.873 254.623 109.003 254.583 109.113 254.538C109.223 254.493 109.321 254.443 109.406 254.388C109.491 254.328 109.568 254.275 109.638 254.23C109.708 254.185 109.776 254.148 109.841 254.117C109.906 254.082 109.978 254.065 110.058 254.065C110.203 254.065 110.316 254.12 110.396 254.23L110.898 254.852C110.693 255.093 110.471 255.295 110.231 255.46C109.991 255.62 109.741 255.75 109.481 255.85C109.226 255.945 108.961 256.012 108.686 256.052C108.416 256.092 108.146 256.112 107.876 256.112C107.401 256.112 106.953 256.025 106.533 255.85C106.113 255.67 105.746 255.41 105.431 255.07C105.116 254.73 104.866 254.315 104.681 253.825C104.501 253.33 104.411 252.767 104.411 252.137C104.411 251.573 104.491 251.05 104.651 250.57C104.816 250.085 105.056 249.668 105.371 249.318C105.686 248.963 106.076 248.685 106.541 248.485C107.006 248.285 107.541 248.185 108.146 248.185C108.721 248.185 109.223 248.278 109.653 248.463C110.088 248.648 110.478 248.913 110.823 249.258L110.358 249.873ZM121.05 248.29V256H119.378V251.71C119.378 251.535 119.385 251.337 119.4 251.118C119.42 250.898 119.45 250.692 119.49 250.503L117.225 254.658C117.115 254.873 116.94 254.98 116.7 254.98H116.505C116.265 254.98 116.09 254.873 115.98 254.658L113.685 250.48C113.72 250.67 113.748 250.878 113.768 251.102C113.793 251.327 113.805 251.53 113.805 251.71V256H112.133V248.29H113.663C113.793 248.29 113.92 248.318 114.045 248.372C114.175 248.428 114.283 248.538 114.368 248.703L116.183 251.943C116.263 252.093 116.338 252.252 116.408 252.423C116.478 252.587 116.543 252.755 116.603 252.925C116.663 252.755 116.725 252.585 116.79 252.415C116.86 252.245 116.935 252.088 117.015 251.943L118.815 248.703C118.905 248.532 119.013 248.422 119.138 248.372C119.263 248.318 119.39 248.29 119.52 248.29H121.05ZM126.29 248.185C126.86 248.185 127.377 248.278 127.842 248.463C128.312 248.648 128.712 248.91 129.042 249.25C129.377 249.59 129.635 250.005 129.815 250.495C129.995 250.985 130.085 251.532 130.085 252.137C130.085 252.748 129.995 253.298 129.815 253.788C129.635 254.278 129.377 254.695 129.042 255.04C128.712 255.385 128.312 255.65 127.842 255.835C127.377 256.02 126.86 256.112 126.29 256.112C125.715 256.112 125.192 256.02 124.722 255.835C124.252 255.65 123.85 255.385 123.515 255.04C123.185 254.695 122.927 254.278 122.742 253.788C122.562 253.298 122.472 252.748 122.472 252.137C122.472 251.532 122.562 250.985 122.742 250.495C122.927 250.005 123.185 249.59 123.515 249.25C123.85 248.91 124.252 248.648 124.722 248.463C125.192 248.278 125.715 248.185 126.29 248.185ZM126.29 254.687C126.93 254.687 127.402 254.473 127.707 254.043C128.017 253.613 128.172 252.983 128.172 252.153C128.172 251.323 128.017 250.69 127.707 250.255C127.402 249.82 126.93 249.603 126.29 249.603C125.64 249.603 125.157 249.823 124.842 250.263C124.532 250.698 124.377 251.328 124.377 252.153C124.377 252.978 124.532 253.608 124.842 254.043C125.157 254.473 125.64 254.687 126.29 254.687ZM138.288 254.732C138.678 254.732 138.985 254.637 139.21 254.447C139.44 254.258 139.555 253.998 139.555 253.668C139.555 253.528 139.535 253.398 139.495 253.278C139.46 253.153 139.395 253.045 139.3 252.955C139.205 252.865 139.075 252.795 138.91 252.745C138.75 252.695 138.545 252.67 138.295 252.67H136.908V254.732H138.288ZM136.908 249.512V251.53H138.123C138.303 251.53 138.468 251.505 138.618 251.455C138.768 251.4 138.898 251.325 139.008 251.23C139.118 251.13 139.203 251.015 139.263 250.885C139.323 250.75 139.353 250.602 139.353 250.442C139.353 250.327 139.333 250.215 139.293 250.105C139.253 249.99 139.185 249.89 139.09 249.805C138.995 249.715 138.868 249.645 138.708 249.595C138.553 249.54 138.358 249.512 138.123 249.512H136.908ZM138.175 248.305C138.66 248.305 139.078 248.353 139.428 248.447C139.783 248.543 140.075 248.673 140.305 248.838C140.535 249.003 140.705 249.2 140.815 249.43C140.925 249.655 140.98 249.9 140.98 250.165C140.98 250.33 140.958 250.502 140.913 250.682C140.873 250.858 140.798 251.028 140.688 251.193C140.583 251.358 140.438 251.508 140.253 251.643C140.068 251.778 139.833 251.883 139.548 251.957C139.803 252.013 140.035 252.09 140.245 252.19C140.455 252.285 140.635 252.408 140.785 252.558C140.935 252.703 141.05 252.875 141.13 253.075C141.215 253.27 141.258 253.49 141.258 253.735C141.258 254.125 141.175 254.463 141.01 254.748C140.85 255.033 140.633 255.267 140.358 255.452C140.088 255.637 139.773 255.775 139.413 255.865C139.058 255.955 138.685 256 138.295 256H135.145V248.305H138.175ZM144.609 248.305V256H142.749V248.305H144.609ZM144.864 246.063C144.864 246.222 144.832 246.372 144.767 246.512C144.702 246.652 144.614 246.775 144.504 246.88C144.399 246.985 144.274 247.07 144.129 247.135C143.984 247.195 143.829 247.225 143.664 247.225C143.504 247.225 143.352 247.195 143.207 247.135C143.067 247.07 142.944 246.985 142.839 246.88C142.734 246.775 142.649 246.652 142.584 246.512C142.524 246.372 142.494 246.222 142.494 246.063C142.494 245.898 142.524 245.743 142.584 245.598C142.649 245.453 142.734 245.328 142.839 245.223C142.944 245.118 143.067 245.035 143.207 244.975C143.352 244.91 143.504 244.878 143.664 244.878C143.829 244.878 143.984 244.91 144.129 244.975C144.274 245.035 144.399 245.118 144.504 245.223C144.614 245.328 144.702 245.453 144.767 245.598C144.832 245.743 144.864 245.898 144.864 246.063ZM148.351 254.005C148.561 254.26 148.788 254.44 149.033 254.545C149.283 254.65 149.553 254.703 149.843 254.703C150.123 254.703 150.376 254.65 150.601 254.545C150.826 254.44 151.016 254.28 151.171 254.065C151.331 253.85 151.453 253.58 151.538 253.255C151.623 252.925 151.666 252.538 151.666 252.093C151.666 251.643 151.628 251.263 151.553 250.953C151.483 250.637 151.381 250.382 151.246 250.188C151.111 249.993 150.946 249.85 150.75 249.76C150.561 249.67 150.343 249.625 150.098 249.625C149.713 249.625 149.386 249.708 149.116 249.873C148.846 250.033 148.591 250.26 148.351 250.555V254.005ZM148.253 249.355C148.568 249 148.926 248.713 149.326 248.493C149.726 248.272 150.196 248.162 150.736 248.162C151.156 248.162 151.538 248.25 151.883 248.425C152.233 248.6 152.533 248.855 152.783 249.19C153.038 249.52 153.233 249.93 153.368 250.42C153.508 250.905 153.578 251.463 153.578 252.093C153.578 252.668 153.501 253.2 153.346 253.69C153.191 254.18 152.968 254.605 152.678 254.965C152.393 255.325 152.046 255.608 151.636 255.813C151.23 256.013 150.775 256.112 150.27 256.112C149.841 256.112 149.473 256.047 149.168 255.917C148.863 255.782 148.591 255.598 148.351 255.363V258.512H146.498V248.305H147.631C147.871 248.305 148.028 248.418 148.103 248.642L148.253 249.355ZM161.462 249.677H158.717V256H156.865V249.677H154.127V248.305H161.462V249.677ZM169.543 248.305L165.35 258.115C165.295 258.245 165.223 258.343 165.133 258.407C165.048 258.477 164.915 258.512 164.735 258.512H163.355L164.795 255.422L161.683 248.305H163.31C163.455 248.305 163.568 248.34 163.648 248.41C163.733 248.48 163.795 248.56 163.835 248.65L165.47 252.64C165.525 252.775 165.57 252.91 165.605 253.045C165.645 253.18 165.683 253.318 165.718 253.458C165.763 253.318 165.808 253.18 165.853 253.045C165.898 252.905 165.948 252.768 166.003 252.632L167.548 248.65C167.588 248.55 167.653 248.468 167.743 248.403C167.838 248.338 167.943 248.305 168.058 248.305H169.543ZM174.352 252.715C173.817 252.74 173.367 252.787 173.002 252.857C172.637 252.923 172.345 253.008 172.125 253.113C171.905 253.218 171.747 253.34 171.652 253.48C171.557 253.62 171.51 253.772 171.51 253.938C171.51 254.263 171.605 254.495 171.795 254.635C171.99 254.775 172.242 254.845 172.552 254.845C172.932 254.845 173.26 254.777 173.535 254.643C173.815 254.503 174.087 254.293 174.352 254.013V252.715ZM170.107 249.378C170.992 248.568 172.057 248.162 173.302 248.162C173.752 248.162 174.155 248.237 174.51 248.387C174.865 248.532 175.165 248.738 175.41 249.003C175.655 249.263 175.84 249.575 175.965 249.94C176.095 250.305 176.16 250.705 176.16 251.14V256H175.32C175.145 256 175.01 255.975 174.915 255.925C174.82 255.87 174.745 255.762 174.69 255.603L174.525 255.048C174.33 255.223 174.14 255.377 173.955 255.512C173.77 255.643 173.577 255.753 173.377 255.842C173.177 255.933 172.962 256 172.732 256.045C172.507 256.095 172.257 256.12 171.982 256.12C171.657 256.12 171.357 256.077 171.082 255.993C170.807 255.902 170.57 255.77 170.37 255.595C170.17 255.42 170.015 255.203 169.905 254.943C169.795 254.683 169.74 254.38 169.74 254.035C169.74 253.84 169.772 253.647 169.837 253.458C169.902 253.263 170.007 253.078 170.152 252.903C170.302 252.728 170.495 252.563 170.73 252.407C170.965 252.252 171.252 252.117 171.592 252.002C171.937 251.887 172.337 251.795 172.792 251.725C173.247 251.65 173.767 251.605 174.352 251.59V251.14C174.352 250.625 174.242 250.245 174.022 250C173.802 249.75 173.485 249.625 173.07 249.625C172.77 249.625 172.52 249.66 172.32 249.73C172.125 249.8 171.952 249.88 171.802 249.97C171.652 250.055 171.515 250.132 171.39 250.202C171.27 250.272 171.135 250.307 170.985 250.307C170.855 250.307 170.745 250.275 170.655 250.21C170.565 250.14 170.492 250.06 170.437 249.97L170.107 249.378ZM185.044 256H183.192V249.723H181.302C181.242 250.668 181.149 251.483 181.024 252.167C180.899 252.847 180.749 253.425 180.574 253.9C180.404 254.375 180.212 254.758 179.997 255.048C179.787 255.333 179.562 255.555 179.322 255.715C179.082 255.875 178.834 255.98 178.579 256.03C178.324 256.085 178.067 256.112 177.807 256.112C177.532 256.112 177.329 256.087 177.199 256.038C177.074 255.993 177.012 255.927 177.012 255.842V254.687H177.454C177.619 254.687 177.784 254.663 177.949 254.613C178.114 254.563 178.274 254.46 178.429 254.305C178.584 254.15 178.732 253.93 178.872 253.645C179.012 253.355 179.139 252.975 179.254 252.505C179.374 252.03 179.479 251.45 179.569 250.765C179.659 250.08 179.729 249.26 179.779 248.305H185.044V256ZM190.012 254.673C190.432 254.673 190.744 254.568 190.949 254.358C191.159 254.148 191.264 253.878 191.264 253.547C191.264 253.408 191.239 253.273 191.189 253.143C191.144 253.013 191.072 252.898 190.972 252.798C190.872 252.698 190.742 252.62 190.582 252.565C190.422 252.505 190.229 252.475 190.004 252.475H188.632V254.673H190.012ZM189.997 251.155C190.532 251.155 190.984 251.22 191.354 251.35C191.724 251.48 192.024 251.655 192.254 251.875C192.484 252.095 192.649 252.35 192.749 252.64C192.854 252.925 192.907 253.225 192.907 253.54C192.907 253.9 192.842 254.233 192.712 254.538C192.587 254.838 192.399 255.098 192.149 255.318C191.904 255.533 191.602 255.7 191.242 255.82C190.887 255.94 190.479 256 190.019 256H186.869V248.305H188.632V251.155H189.997ZM200.854 248.305V256H199.002V252.595H196.002V256H194.149V248.305H196.002V251.223H199.002V248.305H200.854ZM209.604 248.305V256H207.752V251.508C207.752 251.393 207.757 251.267 207.767 251.132C207.782 250.992 207.799 250.852 207.819 250.713C207.719 250.943 207.609 251.145 207.489 251.32C207.479 251.33 207.429 251.4 207.339 251.53C207.249 251.655 207.132 251.818 206.987 252.018C206.847 252.218 206.687 252.445 206.507 252.7C206.327 252.95 206.144 253.205 205.959 253.465C205.524 254.08 205.032 254.775 204.482 255.55C204.412 255.655 204.319 255.758 204.204 255.857C204.094 255.957 203.967 256.007 203.822 256.007H202.689V248.312H204.542V252.805C204.542 252.92 204.534 253.047 204.519 253.187C204.509 253.322 204.494 253.46 204.474 253.6C204.584 253.355 204.694 253.153 204.804 252.993C204.809 252.982 204.857 252.915 204.947 252.79C205.037 252.665 205.152 252.503 205.292 252.303C205.437 252.102 205.599 251.877 205.779 251.628C205.959 251.373 206.142 251.113 206.327 250.848C206.762 250.232 207.257 249.538 207.812 248.763C207.882 248.653 207.974 248.55 208.089 248.455C208.204 248.355 208.334 248.305 208.479 248.305H209.604ZM218.35 248.305V256H216.497V251.508C216.497 251.393 216.502 251.267 216.512 251.132C216.527 250.992 216.545 250.852 216.565 250.713C216.465 250.943 216.355 251.145 216.235 251.32C216.225 251.33 216.175 251.4 216.085 251.53C215.995 251.655 215.877 251.818 215.732 252.018C215.592 252.218 215.432 252.445 215.252 252.7C215.072 252.95 214.89 253.205 214.705 253.465C214.27 254.08 213.777 254.775 213.227 255.55C213.157 255.655 213.065 255.758 212.95 255.857C212.84 255.957 212.712 256.007 212.567 256.007H211.435V248.312H213.287V252.805C213.287 252.92 213.28 253.047 213.265 253.187C213.255 253.322 213.24 253.46 213.22 253.6C213.33 253.355 213.44 253.153 213.55 252.993C213.555 252.982 213.602 252.915 213.692 252.79C213.782 252.665 213.897 252.503 214.037 252.303C214.182 252.102 214.345 251.877 214.525 251.628C214.705 251.373 214.887 251.113 215.072 250.848C215.507 250.232 216.002 249.538 216.557 248.763C216.627 248.653 216.72 248.55 216.835 248.455C216.95 248.355 217.08 248.305 217.225 248.305H218.35ZM214.997 246.355C215.182 246.355 215.337 246.335 215.462 246.295C215.587 246.255 215.687 246.19 215.762 246.1C215.837 246.005 215.89 245.88 215.92 245.725C215.95 245.57 215.965 245.38 215.965 245.155H217.06C217.19 245.155 217.285 245.21 217.345 245.32C217.41 245.425 217.442 245.542 217.442 245.672C217.442 245.927 217.385 246.16 217.27 246.37C217.155 246.575 216.99 246.75 216.775 246.895C216.56 247.035 216.302 247.145 216.002 247.225C215.702 247.3 215.367 247.337 214.997 247.337C214.627 247.337 214.292 247.3 213.992 247.225C213.692 247.145 213.435 247.035 213.22 246.895C213.005 246.75 212.84 246.575 212.725 246.37C212.61 246.16 212.552 245.927 212.552 245.672C212.552 245.542 212.582 245.425 212.642 245.32C212.707 245.21 212.805 245.155 212.935 245.155H214.03C214.03 245.38 214.045 245.57 214.075 245.725C214.105 245.88 214.157 246.005 214.232 246.1C214.307 246.19 214.405 246.255 214.525 246.295C214.65 246.335 214.807 246.355 214.997 246.355ZM229.34 249.933C229.285 250.003 229.23 250.058 229.175 250.097C229.125 250.138 229.05 250.158 228.95 250.158C228.855 250.158 228.762 250.13 228.672 250.075C228.582 250.015 228.475 249.95 228.35 249.88C228.225 249.805 228.075 249.74 227.9 249.685C227.73 249.625 227.517 249.595 227.262 249.595C226.937 249.595 226.652 249.655 226.407 249.775C226.162 249.89 225.957 250.058 225.792 250.278C225.632 250.498 225.512 250.765 225.432 251.08C225.352 251.39 225.312 251.742 225.312 252.137C225.312 252.547 225.355 252.913 225.44 253.233C225.53 253.553 225.657 253.823 225.822 254.043C225.987 254.258 226.187 254.423 226.422 254.538C226.657 254.648 226.922 254.703 227.217 254.703C227.512 254.703 227.75 254.668 227.93 254.598C228.115 254.523 228.27 254.443 228.395 254.358C228.52 254.267 228.627 254.187 228.717 254.117C228.812 254.043 228.917 254.005 229.032 254.005C229.182 254.005 229.295 254.063 229.37 254.177L229.902 254.852C229.697 255.093 229.475 255.295 229.235 255.46C228.995 255.62 228.745 255.75 228.485 255.85C228.23 255.945 227.965 256.012 227.69 256.052C227.42 256.092 227.15 256.112 226.88 256.112C226.405 256.112 225.957 256.025 225.537 255.85C225.117 255.67 224.75 255.41 224.435 255.07C224.12 254.73 223.87 254.315 223.685 253.825C223.505 253.33 223.415 252.767 223.415 252.137C223.415 251.573 223.495 251.05 223.655 250.57C223.82 250.085 224.06 249.668 224.375 249.318C224.69 248.963 225.08 248.685 225.545 248.485C226.01 248.285 226.545 248.185 227.15 248.185C227.725 248.185 228.227 248.278 228.657 248.463C229.092 248.648 229.482 248.913 229.827 249.258L229.34 249.933ZM235.889 251.267C235.889 251.028 235.854 250.803 235.784 250.593C235.719 250.378 235.619 250.19 235.484 250.03C235.349 249.87 235.177 249.745 234.967 249.655C234.762 249.56 234.522 249.512 234.247 249.512C233.712 249.512 233.289 249.665 232.979 249.97C232.674 250.275 232.479 250.708 232.394 251.267H235.889ZM232.357 252.385C232.387 252.78 232.457 253.122 232.567 253.412C232.677 253.697 232.822 253.935 233.002 254.125C233.182 254.31 233.394 254.45 233.639 254.545C233.889 254.635 234.164 254.68 234.464 254.68C234.764 254.68 235.022 254.645 235.237 254.575C235.457 254.505 235.647 254.428 235.807 254.342C235.972 254.258 236.114 254.18 236.234 254.11C236.359 254.04 236.479 254.005 236.594 254.005C236.749 254.005 236.864 254.063 236.939 254.177L237.472 254.852C237.267 255.093 237.037 255.295 236.782 255.46C236.527 255.62 236.259 255.75 235.979 255.85C235.704 255.945 235.422 256.012 235.132 256.052C234.847 256.092 234.569 256.112 234.299 256.112C233.764 256.112 233.267 256.025 232.807 255.85C232.347 255.67 231.947 255.408 231.607 255.063C231.267 254.713 230.999 254.283 230.804 253.772C230.609 253.258 230.512 252.663 230.512 251.988C230.512 251.462 230.597 250.97 230.767 250.51C230.937 250.045 231.179 249.643 231.494 249.302C231.814 248.957 232.202 248.685 232.657 248.485C233.117 248.285 233.634 248.185 234.209 248.185C234.694 248.185 235.142 248.263 235.552 248.418C235.962 248.573 236.314 248.8 236.609 249.1C236.904 249.395 237.134 249.76 237.299 250.195C237.469 250.625 237.554 251.118 237.554 251.673C237.554 251.953 237.524 252.142 237.464 252.242C237.404 252.338 237.289 252.385 237.119 252.385H232.357ZM240.797 254.005C241.007 254.26 241.234 254.44 241.479 254.545C241.729 254.65 241.999 254.703 242.289 254.703C242.569 254.703 242.822 254.65 243.047 254.545C243.272 254.44 243.462 254.28 243.617 254.065C243.777 253.85 243.899 253.58 243.984 253.255C244.069 252.925 244.112 252.538 244.112 252.093C244.112 251.643 244.074 251.263 243.999 250.953C243.929 250.637 243.827 250.382 243.692 250.188C243.557 249.993 243.392 249.85 243.197 249.76C243.007 249.67 242.789 249.625 242.544 249.625C242.159 249.625 241.832 249.708 241.562 249.873C241.292 250.033 241.037 250.26 240.797 250.555V254.005ZM240.699 249.355C241.014 249 241.372 248.713 241.772 248.493C242.172 248.272 242.642 248.162 243.182 248.162C243.602 248.162 243.984 248.25 244.329 248.425C244.679 248.6 244.979 248.855 245.229 249.19C245.484 249.52 245.679 249.93 245.814 250.42C245.954 250.905 246.024 251.463 246.024 252.093C246.024 252.668 245.947 253.2 245.792 253.69C245.637 254.18 245.414 254.605 245.124 254.965C244.839 255.325 244.492 255.608 244.082 255.813C243.677 256.013 243.222 256.112 242.717 256.112C242.287 256.112 241.919 256.047 241.614 255.917C241.309 255.782 241.037 255.598 240.797 255.363V258.512H238.944V248.305H240.077C240.317 248.305 240.474 248.418 240.549 248.642L240.699 249.355ZM250.598 254.732C250.988 254.732 251.295 254.637 251.52 254.447C251.75 254.258 251.865 253.998 251.865 253.668C251.865 253.528 251.845 253.398 251.805 253.278C251.77 253.153 251.705 253.045 251.61 252.955C251.515 252.865 251.385 252.795 251.22 252.745C251.06 252.695 250.855 252.67 250.605 252.67H249.218V254.732H250.598ZM249.218 249.512V251.53H250.433C250.613 251.53 250.778 251.505 250.928 251.455C251.078 251.4 251.208 251.325 251.318 251.23C251.428 251.13 251.513 251.015 251.573 250.885C251.633 250.75 251.663 250.602 251.663 250.442C251.663 250.327 251.643 250.215 251.603 250.105C251.563 249.99 251.495 249.89 251.4 249.805C251.305 249.715 251.178 249.645 251.018 249.595C250.863 249.54 250.668 249.512 250.433 249.512H249.218ZM250.485 248.305C250.97 248.305 251.388 248.353 251.738 248.447C252.093 248.543 252.385 248.673 252.615 248.838C252.845 249.003 253.015 249.2 253.125 249.43C253.235 249.655 253.29 249.9 253.29 250.165C253.29 250.33 253.268 250.502 253.223 250.682C253.183 250.858 253.108 251.028 252.998 251.193C252.893 251.358 252.748 251.508 252.563 251.643C252.378 251.778 252.143 251.883 251.858 251.957C252.113 252.013 252.345 252.09 252.555 252.19C252.765 252.285 252.945 252.408 253.095 252.558C253.245 252.703 253.36 252.875 253.44 253.075C253.525 253.27 253.568 253.49 253.568 253.735C253.568 254.125 253.485 254.463 253.32 254.748C253.16 255.033 252.943 255.267 252.668 255.452C252.398 255.637 252.083 255.775 251.723 255.865C251.368 255.955 250.995 256 250.605 256H247.455V248.305H250.485ZM259.956 251.267C259.956 251.028 259.921 250.803 259.851 250.593C259.786 250.378 259.686 250.19 259.551 250.03C259.416 249.87 259.244 249.745 259.034 249.655C258.829 249.56 258.589 249.512 258.314 249.512C257.779 249.512 257.356 249.665 257.046 249.97C256.741 250.275 256.546 250.708 256.461 251.267H259.956ZM256.424 252.385C256.454 252.78 256.524 253.122 256.634 253.412C256.744 253.697 256.889 253.935 257.069 254.125C257.249 254.31 257.461 254.45 257.706 254.545C257.956 254.635 258.231 254.68 258.531 254.68C258.831 254.68 259.089 254.645 259.304 254.575C259.524 254.505 259.714 254.428 259.874 254.342C260.039 254.258 260.181 254.18 260.301 254.11C260.426 254.04 260.546 254.005 260.661 254.005C260.816 254.005 260.931 254.063 261.006 254.177L261.539 254.852C261.334 255.093 261.104 255.295 260.849 255.46C260.594 255.62 260.326 255.75 260.046 255.85C259.771 255.945 259.489 256.012 259.199 256.052C258.914 256.092 258.636 256.112 258.366 256.112C257.831 256.112 257.334 256.025 256.874 255.85C256.414 255.67 256.014 255.408 255.674 255.063C255.334 254.713 255.066 254.283 254.871 253.772C254.676 253.258 254.579 252.663 254.579 251.988C254.579 251.462 254.664 250.97 254.834 250.51C255.004 250.045 255.246 249.643 255.561 249.302C255.881 248.957 256.269 248.685 256.724 248.485C257.184 248.285 257.701 248.185 258.276 248.185C258.761 248.185 259.209 248.263 259.619 248.418C260.029 248.573 260.381 248.8 260.676 249.1C260.971 249.395 261.201 249.76 261.366 250.195C261.536 250.625 261.621 251.118 261.621 251.673C261.621 251.953 261.591 252.142 261.531 252.242C261.471 252.338 261.356 252.385 261.186 252.385H256.424ZM264.864 254.005C265.074 254.26 265.302 254.44 265.547 254.545C265.797 254.65 266.067 254.703 266.357 254.703C266.637 254.703 266.889 254.65 267.114 254.545C267.339 254.44 267.529 254.28 267.684 254.065C267.844 253.85 267.967 253.58 268.052 253.255C268.137 252.925 268.179 252.538 268.179 252.093C268.179 251.643 268.142 251.263 268.067 250.953C267.997 250.637 267.894 250.382 267.759 250.188C267.624 249.993 267.459 249.85 267.264 249.76C267.074 249.67 266.857 249.625 266.612 249.625C266.227 249.625 265.899 249.708 265.629 249.873C265.359 250.033 265.104 250.26 264.864 250.555V254.005ZM264.767 249.355C265.082 249 265.439 248.713 265.839 248.493C266.239 248.272 266.709 248.162 267.249 248.162C267.669 248.162 268.052 248.25 268.397 248.425C268.747 248.6 269.047 248.855 269.297 249.19C269.552 249.52 269.747 249.93 269.882 250.42C270.022 250.905 270.092 251.463 270.092 252.093C270.092 252.668 270.014 253.2 269.859 253.69C269.704 254.18 269.482 254.605 269.192 254.965C268.907 255.325 268.559 255.608 268.149 255.813C267.744 256.013 267.289 256.112 266.784 256.112C266.354 256.112 265.987 256.047 265.682 255.917C265.377 255.782 265.104 255.598 264.864 255.363V258.512H263.012V248.305H264.144C264.384 248.305 264.542 248.418 264.617 248.642L264.767 249.355ZM271.492 257.837C271.402 257.762 271.357 257.67 271.357 257.56C271.357 257.52 271.37 257.475 271.395 257.425C271.425 257.375 271.46 257.33 271.5 257.29C271.555 257.23 271.622 257.155 271.702 257.065C271.782 256.98 271.862 256.88 271.942 256.765C272.022 256.655 272.095 256.533 272.16 256.397C272.23 256.267 272.282 256.127 272.317 255.978C272.157 255.978 272.012 255.95 271.882 255.895C271.752 255.835 271.64 255.755 271.545 255.655C271.455 255.555 271.382 255.438 271.327 255.303C271.277 255.168 271.252 255.02 271.252 254.86C271.252 254.72 271.277 254.59 271.327 254.47C271.382 254.345 271.457 254.238 271.552 254.148C271.647 254.053 271.762 253.98 271.897 253.93C272.032 253.875 272.18 253.848 272.34 253.848C272.53 253.848 272.695 253.883 272.835 253.953C272.98 254.018 273.097 254.11 273.187 254.23C273.282 254.345 273.352 254.48 273.397 254.635C273.447 254.785 273.472 254.945 273.472 255.115C273.472 255.355 273.435 255.608 273.36 255.873C273.29 256.137 273.185 256.402 273.045 256.667C272.905 256.932 272.73 257.19 272.52 257.44C272.315 257.69 272.08 257.92 271.815 258.13L271.492 257.837ZM290.738 254.627V258.025C290.738 258.195 290.688 258.33 290.588 258.43C290.493 258.53 290.368 258.58 290.213 258.58H289.058V256H278.685V248.305H280.538V254.627H283.08V248.305H284.933V254.627H287.475V248.305H289.328V254.627H290.738ZM295.186 248.185C295.756 248.185 296.274 248.278 296.739 248.463C297.209 248.648 297.609 248.91 297.939 249.25C298.274 249.59 298.531 250.005 298.711 250.495C298.891 250.985 298.981 251.532 298.981 252.137C298.981 252.748 298.891 253.298 298.711 253.788C298.531 254.278 298.274 254.695 297.939 255.04C297.609 255.385 297.209 255.65 296.739 255.835C296.274 256.02 295.756 256.112 295.186 256.112C294.611 256.112 294.089 256.02 293.619 255.835C293.149 255.65 292.746 255.385 292.411 255.04C292.081 254.695 291.824 254.278 291.639 253.788C291.459 253.298 291.369 252.748 291.369 252.137C291.369 251.532 291.459 250.985 291.639 250.495C291.824 250.005 292.081 249.59 292.411 249.25C292.746 248.91 293.149 248.648 293.619 248.463C294.089 248.278 294.611 248.185 295.186 248.185ZM295.186 254.687C295.826 254.687 296.299 254.473 296.604 254.043C296.914 253.613 297.069 252.983 297.069 252.153C297.069 251.323 296.914 250.69 296.604 250.255C296.299 249.82 295.826 249.603 295.186 249.603C294.536 249.603 294.054 249.823 293.739 250.263C293.429 250.698 293.274 251.328 293.274 252.153C293.274 252.978 293.429 253.608 293.739 254.043C294.054 254.473 294.536 254.687 295.186 254.687ZM304.009 254.763C304.649 254.763 305.127 254.558 305.442 254.148C305.757 253.737 305.914 253.138 305.914 252.348C305.914 251.562 305.759 250.965 305.449 250.555C305.144 250.145 304.677 249.94 304.047 249.94C303.417 249.94 302.937 250.135 302.607 250.525C302.277 250.91 302.112 251.487 302.112 252.258C302.112 253.073 302.267 253.695 302.577 254.125C302.892 254.55 303.369 254.763 304.009 254.763ZM304.549 246.91C304.079 246.94 303.677 247.032 303.342 247.188C303.012 247.337 302.737 247.542 302.517 247.803C302.302 248.058 302.137 248.365 302.022 248.725C301.912 249.08 301.847 249.475 301.827 249.91C301.952 249.715 302.104 249.538 302.284 249.378C302.469 249.213 302.674 249.072 302.899 248.957C303.129 248.837 303.377 248.745 303.642 248.68C303.912 248.615 304.199 248.583 304.504 248.583C305.014 248.583 305.474 248.673 305.884 248.852C306.294 249.032 306.642 249.288 306.927 249.618C307.217 249.948 307.437 250.345 307.587 250.81C307.742 251.27 307.819 251.78 307.819 252.34C307.819 252.92 307.727 253.443 307.542 253.908C307.362 254.373 307.104 254.77 306.769 255.1C306.439 255.425 306.039 255.675 305.569 255.85C305.099 256.025 304.579 256.112 304.009 256.112C303.454 256.112 302.942 256.022 302.472 255.842C302.007 255.662 301.604 255.37 301.264 254.965C300.924 254.56 300.659 254.035 300.469 253.39C300.279 252.74 300.184 251.948 300.184 251.013C300.184 250.228 300.257 249.498 300.402 248.823C300.547 248.148 300.784 247.558 301.114 247.052C301.444 246.543 301.877 246.132 302.412 245.822C302.947 245.513 303.607 245.328 304.392 245.267L307.129 245.057L307.227 246.017C307.247 246.222 307.217 246.398 307.137 246.543C307.057 246.683 306.914 246.758 306.709 246.768L304.549 246.91ZM316.519 254.763C317.159 254.763 317.637 254.558 317.952 254.148C318.267 253.737 318.424 253.138 318.424 252.348C318.424 251.562 318.269 250.965 317.959 250.555C317.654 250.145 317.187 249.94 316.557 249.94C315.927 249.94 315.447 250.135 315.117 250.525C314.787 250.91 314.622 251.487 314.622 252.258C314.622 253.073 314.777 253.695 315.087 254.125C315.402 254.55 315.879 254.763 316.519 254.763ZM317.059 246.91C316.589 246.94 316.187 247.032 315.852 247.188C315.522 247.337 315.247 247.542 315.027 247.803C314.812 248.058 314.647 248.365 314.532 248.725C314.422 249.08 314.357 249.475 314.337 249.91C314.462 249.715 314.614 249.538 314.794 249.378C314.979 249.213 315.184 249.072 315.409 248.957C315.639 248.837 315.887 248.745 316.152 248.68C316.422 248.615 316.709 248.583 317.014 248.583C317.524 248.583 317.984 248.673 318.394 248.852C318.804 249.032 319.152 249.288 319.437 249.618C319.727 249.948 319.947 250.345 320.097 250.81C320.252 251.27 320.329 251.78 320.329 252.34C320.329 252.92 320.237 253.443 320.052 253.908C319.872 254.373 319.614 254.77 319.279 255.1C318.949 255.425 318.549 255.675 318.079 255.85C317.609 256.025 317.089 256.112 316.519 256.112C315.964 256.112 315.452 256.022 314.982 255.842C314.517 255.662 314.114 255.37 313.774 254.965C313.434 254.56 313.169 254.035 312.979 253.39C312.789 252.74 312.694 251.948 312.694 251.013C312.694 250.228 312.767 249.498 312.912 248.823C313.057 248.148 313.294 247.558 313.624 247.052C313.954 246.543 314.387 246.132 314.922 245.822C315.457 245.513 316.117 245.328 316.902 245.267L319.639 245.057L319.737 246.017C319.757 246.222 319.727 246.398 319.647 246.543C319.567 246.683 319.424 246.758 319.219 246.768L317.059 246.91ZM325.172 248.185C325.742 248.185 326.259 248.278 326.724 248.463C327.194 248.648 327.594 248.91 327.924 249.25C328.259 249.59 328.517 250.005 328.697 250.495C328.877 250.985 328.967 251.532 328.967 252.137C328.967 252.748 328.877 253.298 328.697 253.788C328.517 254.278 328.259 254.695 327.924 255.04C327.594 255.385 327.194 255.65 326.724 255.835C326.259 256.02 325.742 256.112 325.172 256.112C324.597 256.112 324.074 256.02 323.604 255.835C323.134 255.65 322.732 255.385 322.397 255.04C322.067 254.695 321.809 254.278 321.624 253.788C321.444 253.298 321.354 252.748 321.354 252.137C321.354 251.532 321.444 250.985 321.624 250.495C321.809 250.005 322.067 249.59 322.397 249.25C322.732 248.91 323.134 248.648 323.604 248.463C324.074 248.278 324.597 248.185 325.172 248.185ZM325.172 254.687C325.812 254.687 326.284 254.473 326.589 254.043C326.899 253.613 327.054 252.983 327.054 252.153C327.054 251.323 326.899 250.69 326.589 250.255C326.284 249.82 325.812 249.603 325.172 249.603C324.522 249.603 324.039 249.823 323.724 250.263C323.414 250.698 323.259 251.328 323.259 252.153C323.259 252.978 323.414 253.608 323.724 254.043C324.039 254.473 324.522 254.687 325.172 254.687ZM336.76 249.677H334.015V256H332.163V249.677H329.425V248.305H336.76V249.677ZM35.62 274H33.7675V267.677H30.7675V274H28.915V266.305H35.62V274ZM39.3075 272.005C39.5175 272.26 39.745 272.44 39.99 272.545C40.24 272.65 40.51 272.703 40.8 272.703C41.08 272.703 41.3325 272.65 41.5575 272.545C41.7825 272.44 41.9725 272.28 42.1275 272.065C42.2875 271.85 42.41 271.58 42.495 271.255C42.58 270.925 42.6225 270.538 42.6225 270.093C42.6225 269.643 42.585 269.263 42.51 268.953C42.44 268.637 42.3375 268.382 42.2025 268.188C42.0675 267.993 41.9025 267.85 41.7075 267.76C41.5175 267.67 41.3 267.625 41.055 267.625C40.67 267.625 40.3425 267.708 40.0725 267.873C39.8025 268.033 39.5475 268.26 39.3075 268.555V272.005ZM39.21 267.355C39.525 267 39.8825 266.713 40.2825 266.493C40.6825 266.272 41.1525 266.162 41.6925 266.162C42.1125 266.162 42.495 266.25 42.84 266.425C43.19 266.6 43.49 266.855 43.74 267.19C43.995 267.52 44.19 267.93 44.325 268.42C44.465 268.905 44.535 269.463 44.535 270.093C44.535 270.668 44.4575 271.2 44.3025 271.69C44.1475 272.18 43.925 272.605 43.635 272.965C43.35 273.325 43.0025 273.608 42.5925 273.813C42.1875 274.013 41.7325 274.112 41.2275 274.112C40.7975 274.112 40.43 274.047 40.125 273.917C39.82 273.782 39.5475 273.598 39.3075 273.363V276.512H37.455V266.305H38.5875C38.8275 266.305 38.985 266.418 39.06 266.642L39.21 267.355ZM50.0308 270.715C49.4958 270.74 49.0458 270.787 48.6808 270.857C48.3158 270.923 48.0233 271.008 47.8033 271.113C47.5833 271.218 47.4258 271.34 47.3308 271.48C47.2358 271.62 47.1883 271.772 47.1883 271.938C47.1883 272.263 47.2833 272.495 47.4733 272.635C47.6683 272.775 47.9208 272.845 48.2308 272.845C48.6108 272.845 48.9383 272.777 49.2133 272.643C49.4933 272.503 49.7658 272.293 50.0308 272.013V270.715ZM45.7858 267.378C46.6708 266.568 47.7358 266.162 48.9808 266.162C49.4308 266.162 49.8333 266.237 50.1883 266.387C50.5433 266.532 50.8433 266.738 51.0883 267.003C51.3333 267.263 51.5183 267.575 51.6433 267.94C51.7733 268.305 51.8383 268.705 51.8383 269.14V274H50.9983C50.8233 274 50.6883 273.975 50.5933 273.925C50.4983 273.87 50.4233 273.762 50.3683 273.603L50.2033 273.048C50.0083 273.223 49.8183 273.377 49.6333 273.512C49.4483 273.643 49.2558 273.753 49.0558 273.842C48.8558 273.933 48.6408 274 48.4108 274.045C48.1858 274.095 47.9358 274.12 47.6608 274.12C47.3358 274.12 47.0358 274.077 46.7608 273.993C46.4858 273.902 46.2483 273.77 46.0483 273.595C45.8483 273.42 45.6933 273.203 45.5833 272.943C45.4733 272.683 45.4183 272.38 45.4183 272.035C45.4183 271.84 45.4508 271.647 45.5158 271.458C45.5808 271.263 45.6858 271.078 45.8308 270.903C45.9808 270.728 46.1733 270.563 46.4083 270.407C46.6433 270.252 46.9308 270.117 47.2708 270.002C47.6158 269.887 48.0158 269.795 48.4708 269.725C48.9258 269.65 49.4458 269.605 50.0308 269.59V269.14C50.0308 268.625 49.9208 268.245 49.7008 268C49.4808 267.75 49.1633 267.625 48.7483 267.625C48.4483 267.625 48.1983 267.66 47.9983 267.73C47.8033 267.8 47.6308 267.88 47.4808 267.97C47.3308 268.055 47.1933 268.132 47.0683 268.202C46.9483 268.272 46.8133 268.307 46.6633 268.307C46.5333 268.307 46.4233 268.275 46.3333 268.21C46.2433 268.14 46.1708 268.06 46.1158 267.97L45.7858 267.378ZM61.7055 272.627V276.025C61.7055 276.195 61.6555 276.33 61.5555 276.43C61.4555 276.53 61.328 276.58 61.173 276.58H60.018V274H53.583V266.305H55.4355V272.627H58.4355V266.305H60.288V272.627H61.7055ZM69.8226 272.687C70.4226 272.687 70.8651 272.473 71.1501 272.043C71.4351 271.613 71.5776 270.983 71.5776 270.153C71.5776 269.323 71.4351 268.69 71.1501 268.255C70.8651 267.82 70.4226 267.603 69.8226 267.603C69.2226 267.603 68.7801 267.823 68.4951 268.263C68.2101 268.698 68.0676 269.328 68.0676 270.153C68.0676 270.983 68.2076 271.613 68.4876 272.043C68.7726 272.473 69.2176 272.687 69.8226 272.687ZM66.2526 269.44C66.3126 268.935 66.4376 268.483 66.6276 268.083C66.8226 267.677 67.0726 267.335 67.3776 267.055C67.6826 266.775 68.0401 266.56 68.4501 266.41C68.8651 266.26 69.3226 266.185 69.8226 266.185C70.3776 266.185 70.8801 266.278 71.3301 266.463C71.7801 266.648 72.1651 266.91 72.4851 267.25C72.8051 267.59 73.0526 268.005 73.2276 268.495C73.4026 268.985 73.4901 269.532 73.4901 270.137C73.4901 270.748 73.4001 271.298 73.2201 271.788C73.0401 272.278 72.7876 272.695 72.4626 273.04C72.1376 273.385 71.7501 273.65 71.3001 273.835C70.8501 274.02 70.3576 274.112 69.8226 274.112C69.3026 274.112 68.8326 274.035 68.4126 273.88C67.9976 273.725 67.6376 273.503 67.3326 273.213C67.0326 272.923 66.7876 272.57 66.5976 272.155C66.4126 271.74 66.2951 271.272 66.2451 270.752H64.7226V274H62.8701V266.305H64.7226V269.44H66.2526ZM78.0389 272.732C78.4289 272.732 78.7364 272.637 78.9614 272.447C79.1914 272.258 79.3064 271.998 79.3064 271.668C79.3064 271.528 79.2864 271.398 79.2464 271.278C79.2114 271.153 79.1464 271.045 79.0514 270.955C78.9564 270.865 78.8264 270.795 78.6614 270.745C78.5014 270.695 78.2964 270.67 78.0464 270.67H76.6589V272.732H78.0389ZM76.6589 267.512V269.53H77.8739C78.0539 269.53 78.2189 269.505 78.3689 269.455C78.5189 269.4 78.6489 269.325 78.7589 269.23C78.8689 269.13 78.9539 269.015 79.0139 268.885C79.0739 268.75 79.1039 268.602 79.1039 268.442C79.1039 268.327 79.0839 268.215 79.0439 268.105C79.0039 267.99 78.9364 267.89 78.8414 267.805C78.7464 267.715 78.6189 267.645 78.4589 267.595C78.3039 267.54 78.1089 267.512 77.8739 267.512H76.6589ZM77.9264 266.305C78.4114 266.305 78.8289 266.353 79.1789 266.447C79.5339 266.543 79.8264 266.673 80.0564 266.838C80.2864 267.003 80.4564 267.2 80.5664 267.43C80.6764 267.655 80.7314 267.9 80.7314 268.165C80.7314 268.33 80.7089 268.502 80.6639 268.682C80.6239 268.858 80.5489 269.028 80.4389 269.193C80.3339 269.358 80.1889 269.508 80.0039 269.643C79.8189 269.778 79.5839 269.883 79.2989 269.957C79.5539 270.013 79.7864 270.09 79.9964 270.19C80.2064 270.285 80.3864 270.408 80.5364 270.558C80.6864 270.703 80.8014 270.875 80.8814 271.075C80.9664 271.27 81.0089 271.49 81.0089 271.735C81.0089 272.125 80.9264 272.463 80.7614 272.748C80.6014 273.033 80.3839 273.267 80.1089 273.452C79.8389 273.637 79.5239 273.775 79.1639 273.865C78.8089 273.955 78.4364 274 78.0464 274H74.8964V266.305H77.9264ZM86.5054 270.715C85.9704 270.74 85.5204 270.787 85.1554 270.857C84.7904 270.923 84.4979 271.008 84.2779 271.113C84.0579 271.218 83.9004 271.34 83.8054 271.48C83.7104 271.62 83.6629 271.772 83.6629 271.938C83.6629 272.263 83.7579 272.495 83.9479 272.635C84.1429 272.775 84.3954 272.845 84.7054 272.845C85.0854 272.845 85.4129 272.777 85.6879 272.643C85.9679 272.503 86.2404 272.293 86.5054 272.013V270.715ZM82.2604 267.378C83.1454 266.568 84.2104 266.162 85.4554 266.162C85.9054 266.162 86.3079 266.237 86.6629 266.387C87.0179 266.532 87.3179 266.738 87.5629 267.003C87.8079 267.263 87.9929 267.575 88.1179 267.94C88.2479 268.305 88.3129 268.705 88.3129 269.14V274H87.4729C87.2979 274 87.1629 273.975 87.0679 273.925C86.9729 273.87 86.8979 273.762 86.8429 273.603L86.6779 273.048C86.4829 273.223 86.2929 273.377 86.1079 273.512C85.9229 273.643 85.7304 273.753 85.5304 273.842C85.3304 273.933 85.1154 274 84.8854 274.045C84.6604 274.095 84.4104 274.12 84.1354 274.12C83.8104 274.12 83.5104 274.077 83.2354 273.993C82.9604 273.902 82.7229 273.77 82.5229 273.595C82.3229 273.42 82.1679 273.203 82.0579 272.943C81.9479 272.683 81.8929 272.38 81.8929 272.035C81.8929 271.84 81.9254 271.647 81.9904 271.458C82.0554 271.263 82.1604 271.078 82.3054 270.903C82.4554 270.728 82.6479 270.563 82.8829 270.407C83.1179 270.252 83.4054 270.117 83.7454 270.002C84.0904 269.887 84.4904 269.795 84.9454 269.725C85.4004 269.65 85.9204 269.605 86.5054 269.59V269.14C86.5054 268.625 86.3954 268.245 86.1754 268C85.9554 267.75 85.6379 267.625 85.2229 267.625C84.9229 267.625 84.6729 267.66 84.4729 267.73C84.2779 267.8 84.1054 267.88 83.9554 267.97C83.8054 268.055 83.6679 268.132 83.5429 268.202C83.4229 268.272 83.2879 268.307 83.1379 268.307C83.0079 268.307 82.8979 268.275 82.8079 268.21C82.7179 268.14 82.6454 268.06 82.5904 267.97L82.2604 267.378ZM93.2001 272.732C93.5901 272.732 93.8976 272.637 94.1226 272.447C94.3526 272.258 94.4676 271.998 94.4676 271.668C94.4676 271.528 94.4476 271.398 94.4076 271.278C94.3726 271.153 94.3076 271.045 94.2126 270.955C94.1176 270.865 93.9876 270.795 93.8226 270.745C93.6626 270.695 93.4576 270.67 93.2076 270.67H91.8201V272.732H93.2001ZM91.8201 267.512V269.53H93.0351C93.2151 269.53 93.3801 269.505 93.5301 269.455C93.6801 269.4 93.8101 269.325 93.9201 269.23C94.0301 269.13 94.1151 269.015 94.1751 268.885C94.2351 268.75 94.2651 268.602 94.2651 268.442C94.2651 268.327 94.2451 268.215 94.2051 268.105C94.1651 267.99 94.0976 267.89 94.0026 267.805C93.9076 267.715 93.7801 267.645 93.6201 267.595C93.4651 267.54 93.2701 267.512 93.0351 267.512H91.8201ZM93.0876 266.305C93.5726 266.305 93.9901 266.353 94.3401 266.447C94.6951 266.543 94.9876 266.673 95.2176 266.838C95.4476 267.003 95.6176 267.2 95.7276 267.43C95.8376 267.655 95.8926 267.9 95.8926 268.165C95.8926 268.33 95.8701 268.502 95.8251 268.682C95.7851 268.858 95.7101 269.028 95.6001 269.193C95.4951 269.358 95.3501 269.508 95.1651 269.643C94.9801 269.778 94.7451 269.883 94.4601 269.957C94.7151 270.013 94.9476 270.09 95.1576 270.19C95.3676 270.285 95.5476 270.408 95.6976 270.558C95.8476 270.703 95.9626 270.875 96.0426 271.075C96.1276 271.27 96.1701 271.49 96.1701 271.735C96.1701 272.125 96.0876 272.463 95.9226 272.748C95.7626 273.033 95.5451 273.267 95.2701 273.452C95.0001 273.637 94.6851 273.775 94.3251 273.865C93.9701 273.955 93.5976 274 93.2076 274H90.0576V266.305H93.0876ZM107.691 272.275C107.891 272.275 108.049 272.333 108.164 272.447C108.284 272.558 108.344 272.705 108.344 272.89V274H100.904V273.385C100.904 273.26 100.929 273.13 100.979 272.995C101.034 272.855 101.119 272.73 101.234 272.62L104.526 269.32C104.801 269.04 105.046 268.773 105.261 268.518C105.481 268.263 105.664 268.01 105.809 267.76C105.954 267.51 106.064 267.258 106.139 267.003C106.219 266.743 106.259 266.47 106.259 266.185C106.259 265.925 106.221 265.697 106.146 265.503C106.071 265.303 105.964 265.135 105.824 265C105.689 264.865 105.524 264.765 105.329 264.7C105.139 264.63 104.924 264.595 104.684 264.595C104.464 264.595 104.259 264.628 104.069 264.693C103.884 264.752 103.719 264.84 103.574 264.955C103.429 265.065 103.306 265.195 103.206 265.345C103.106 265.495 103.031 265.66 102.981 265.84C102.896 266.07 102.786 266.223 102.651 266.297C102.516 266.372 102.321 266.39 102.066 266.35L101.091 266.177C101.166 265.657 101.311 265.203 101.526 264.813C101.741 264.418 102.009 264.09 102.329 263.83C102.654 263.565 103.024 263.368 103.439 263.238C103.859 263.103 104.309 263.035 104.789 263.035C105.289 263.035 105.746 263.11 106.161 263.26C106.576 263.405 106.931 263.612 107.226 263.882C107.521 264.153 107.751 264.477 107.916 264.857C108.081 265.238 108.164 265.66 108.164 266.125C108.164 266.525 108.104 266.895 107.984 267.235C107.869 267.575 107.711 267.9 107.511 268.21C107.316 268.52 107.086 268.82 106.821 269.11C106.556 269.4 106.279 269.695 105.989 269.995L103.544 272.493C103.779 272.423 104.011 272.37 104.241 272.335C104.476 272.295 104.699 272.275 104.909 272.275H107.691ZM114.375 269.913V266.365C114.375 266.03 114.398 265.66 114.443 265.255L111.075 269.913H114.375ZM117.353 269.913V270.985C117.353 271.085 117.32 271.173 117.255 271.248C117.19 271.318 117.098 271.353 116.978 271.353H115.988V274H114.375V271.353H109.8C109.675 271.353 109.565 271.315 109.47 271.24C109.375 271.16 109.315 271.063 109.29 270.948L109.095 270.01L114.233 263.148H115.988V269.913H117.353ZM119.941 274.022C119.856 274.252 119.719 274.425 119.529 274.54C119.344 274.655 119.154 274.713 118.959 274.713H118.171L122.551 263.508C122.631 263.298 122.754 263.138 122.919 263.028C123.084 262.913 123.276 262.855 123.496 262.855H124.291L119.941 274.022ZM132.914 263.155V263.957C132.914 264.198 132.889 264.393 132.839 264.543C132.789 264.687 132.739 264.81 132.689 264.91L128.579 273.37C128.494 273.545 128.374 273.695 128.219 273.82C128.064 273.94 127.856 274 127.596 274H126.254L130.446 265.713C130.541 265.543 130.634 265.388 130.724 265.248C130.819 265.102 130.924 264.965 131.039 264.835H125.849C125.734 264.835 125.634 264.793 125.549 264.707C125.464 264.623 125.421 264.523 125.421 264.408V263.155H132.914Z" fill="black"/>
<path d="M36.325 56.5775C36.325 57.5225 36.2225 58.345 36.0175 59.045C35.8175 59.74 35.5375 60.315 35.1775 60.77C34.8225 61.225 34.4 61.565 33.91 61.79C33.425 62.01 32.9 62.12 32.335 62.12C31.77 62.12 31.245 62.01 30.76 61.79C30.28 61.565 29.8625 61.225 29.5075 60.77C29.1525 60.315 28.875 59.74 28.675 59.045C28.475 58.345 28.375 57.5225 28.375 56.5775C28.375 55.6275 28.475 54.805 28.675 54.11C28.875 53.415 29.1525 52.84 29.5075 52.385C29.8625 51.93 30.28 51.5925 30.76 51.3725C31.245 51.1475 31.77 51.035 32.335 51.035C32.9 51.035 33.425 51.1475 33.91 51.3725C34.4 51.5925 34.8225 51.93 35.1775 52.385C35.5375 52.84 35.8175 53.415 36.0175 54.11C36.2225 54.805 36.325 55.6275 36.325 56.5775ZM34.4125 56.5775C34.4125 55.7925 34.355 55.1425 34.24 54.6275C34.125 54.1125 33.97 53.7025 33.775 53.3975C33.585 53.0925 33.365 52.88 33.115 52.76C32.865 52.635 32.605 52.5725 32.335 52.5725C32.07 52.5725 31.8125 52.635 31.5625 52.76C31.3175 52.88 31.1 53.0925 30.91 53.3975C30.72 53.7025 30.5675 54.1125 30.4525 54.6275C30.3425 55.1425 30.2875 55.7925 30.2875 56.5775C30.2875 57.3625 30.3425 58.0125 30.4525 58.5275C30.5675 59.0425 30.72 59.4525 30.91 59.7575C31.1 60.0625 31.3175 60.2775 31.5625 60.4025C31.8125 60.5225 32.07 60.5825 32.335 60.5825C32.605 60.5825 32.865 60.5225 33.115 60.4025C33.365 60.2775 33.585 60.0625 33.775 59.7575C33.97 59.4525 34.125 59.0425 34.24 58.5275C34.355 58.0125 34.4125 57.3625 34.4125 56.5775ZM44.4637 60.6125V62H38.4637V60.6125H40.6612V54.29C40.6612 54.04 40.6687 53.7825 40.6837 53.5175L39.1237 54.8225C39.0337 54.8925 38.9437 54.9375 38.8537 54.9575C38.7687 54.9725 38.6862 54.9725 38.6062 54.9575C38.5312 54.9425 38.4637 54.9175 38.4037 54.8825C38.3437 54.8425 38.2987 54.8 38.2687 54.755L37.6837 53.9525L40.9912 51.14H42.5137V60.6125H44.4637Z" fill="#A7A7A7"/>
<g filter="url(#filter1_d_657_4150)">
<g clip-path="url(#clip1_657_4150)">
<rect x="91.2266" y="56" width="193.853" height="169" rx="8.52101" fill="white"/>
<g clip-path="url(#clip2_657_4150)">
<rect x="108.98" y="69.4619" width="158.852" height="15.0775" fill="#FAFAFA"/>
<rect x="108.98" y="95.3091" width="158.852" height="15.0775" fill="#FAFAFA"/>
<rect x="108.98" y="121.156" width="158.852" height="15.0775" fill="#FAFAFA"/>
<rect x="108.98" y="147.003" width="158.852" height="15.0775" fill="#FAFAFA"/>
<path d="M109.414 144.557C110.025 140.711 111.25 137.333 112.974 133.83C115.969 127.745 119.489 121.872 124.567 117.29C125.428 116.513 127.753 113.809 128.994 115.36C131.252 118.182 132.071 122.237 133.64 125.439C133.956 126.082 134.059 127.325 134.773 127.265C135.274 127.224 135.135 126.328 135.305 125.855C136.293 123.107 138.078 120.429 140.437 118.666C141.864 117.599 145.262 115.035 147.071 116.447C149.162 118.077 149.708 120.761 150.493 123.127C150.862 124.242 151.423 125.315 151.857 126.41C152.19 127.254 152.353 127.385 152.955 126.572C154.932 123.897 158.388 121.357 161.381 124.214C162.22 125.015 162.745 125.833 163.923 125.092C165.092 124.358 165.244 124.91 165.75 126.121C166.316 127.476 167.027 131.449 168.836 129.427C169.09 129.143 171.145 126.403 171.598 126.641C172.777 127.26 173.426 129.63 173.864 130.756C174.106 131.379 174.9 134.31 175.69 134.535C175.744 134.551 177.549 127.909 178.071 127.127C178.766 126.085 179.568 125.096 180.336 124.11C180.572 123.807 181.643 122.104 182.232 121.925C182.326 121.897 182.477 122.282 182.556 122.318C182.772 122.416 182.86 121.942 182.937 121.717C183.218 120.894 183.776 118.869 183.954 118.238C185.134 114.068 186.291 109.961 188.578 106.241C189.746 104.339 191.641 102.124 193.906 101.467C195.715 100.942 197.589 103.738 198.344 104.958C199.267 106.446 200.088 108.304 201.28 109.604C202.524 110.96 202.519 113.581 203.384 115.198C203.498 115.412 204.854 117.152 204.91 116.747C205.137 115.081 205.777 113.676 207.198 112.69C209.153 111.334 209.681 113.873 210.666 115.268C211.843 116.935 212.179 116.024 213.521 114.747C213.96 114.329 216.929 111.005 217.52 112.262C218.64 114.648 218.198 117.696 219.519 119.983C219.772 120.42 220.071 121.012 220.375 121.417C220.533 121.628 220.513 120.669 220.513 120.538C220.513 119.882 221.034 121.081 221.057 121.128C221.512 122.079 221.97 123.075 221.97 124.144C221.97 124.361 221.868 123.654 222.016 123.497C222.832 122.634 225.237 126.3 225.46 126.849C225.814 127.719 226.529 129.935 227.749 130.016C228.283 130.052 228.802 128.062 228.859 127.913C229.904 125.147 230.715 122.313 231.679 119.521C232.606 116.838 233.863 114.532 235.308 112.124C235.877 111.176 235.988 112.719 236.117 113.245C236.243 113.755 236.493 115.491 236.88 114.123C238.178 109.536 239.104 104.859 240.278 100.242C240.516 99.3068 240.788 98.377 241.076 97.4561C241.248 96.9053 241.55 97.6934 241.688 97.9531C243.581 101.496 244.547 105.44 246.427 108.991C247.116 110.292 246.906 109.847 247.075 108.622C247.444 105.934 247.853 102.969 248.762 100.404C249.182 99.2204 250.228 102.006 250.311 102.184C251.013 103.68 251.661 105.196 252.415 106.668C252.531 106.896 253.56 109.337 254.079 109.384C254.125 109.389 255.09 105.392 255.177 105.119C255.899 102.86 257.09 101.362 258.356 99.4326C258.581 99.0889 258.779 98.4125 259.142 98.1612C259.654 97.8063 259.987 97.7811 260.309 97.1903C260.6 96.657 263.736 90.5676 264.25 90.7176C264.619 90.825 264.529 91.0354 264.667 91.2955C264.815 91.5754 265.326 91.6714 265.557 91.9196C266.398 92.8257 267.325 93.0067 267.325 94.4163" stroke="#36D8AE" stroke-width="1.61544" stroke-linecap="round"/>
<path d="M109.414 144.557C110.025 140.711 111.25 137.333 112.974 133.83C115.969 127.745 119.489 121.872 124.567 117.29C125.428 116.513 127.753 113.809 128.994 115.36C131.252 118.182 132.071 122.237 133.64 125.439C133.956 126.082 134.059 127.325 134.773 127.265C135.274 127.224 135.135 126.328 135.305 125.855C136.293 123.107 138.078 120.429 140.437 118.666C141.864 117.599 145.262 115.035 147.071 116.447C149.162 118.077 149.708 120.761 150.493 123.127C150.862 124.242 151.423 125.315 151.857 126.41C152.19 127.254 152.353 127.385 152.955 126.572C154.932 123.897 158.388 121.357 161.381 124.214C162.22 125.015 162.745 125.833 163.923 125.092C165.092 124.358 165.244 124.91 165.75 126.121C166.316 127.476 167.027 131.449 168.836 129.427C169.09 129.143 171.145 126.403 171.598 126.641C172.777 127.26 173.426 129.63 173.864 130.756C174.106 131.379 174.9 134.31 175.69 134.535C175.744 134.551 177.549 127.909 178.071 127.127C178.766 126.085 179.568 125.096 180.336 124.11C180.572 123.807 181.643 122.104 182.232 121.925C182.326 121.897 182.477 122.282 182.556 122.318C182.772 122.416 182.86 121.942 182.937 121.717C183.218 120.894 183.776 118.869 183.954 118.238C185.134 114.068 186.291 109.961 188.578 106.241C189.746 104.339 191.641 102.124 193.906 101.467C195.715 100.942 197.589 103.738 198.344 104.958C199.267 106.446 200.088 108.304 201.28 109.604C202.524 110.96 202.519 113.581 203.384 115.198C203.498 115.412 204.854 117.152 204.91 116.747C205.137 115.081 205.777 113.676 207.198 112.69C209.153 111.334 209.681 113.873 210.666 115.268C211.843 116.935 212.179 116.024 213.521 114.747C213.96 114.329 216.929 111.005 217.52 112.262C218.64 114.648 218.198 117.696 219.519 119.983C219.772 120.42 220.071 121.012 220.375 121.417C220.533 121.628 220.513 120.669 220.513 120.538C220.513 119.882 221.034 121.081 221.057 121.128C221.512 122.079 221.97 123.075 221.97 124.144C221.97 124.361 221.868 123.654 222.016 123.497C222.832 122.634 225.237 126.3 225.46 126.849C225.814 127.719 226.529 129.935 227.749 130.016C228.283 130.052 228.802 128.062 228.859 127.913C229.904 125.147 230.715 122.313 231.679 119.521C232.606 116.838 233.863 114.532 235.308 112.124C235.877 111.176 235.988 112.719 236.117 113.245C236.243 113.755 236.493 115.491 236.88 114.123C238.178 109.536 239.104 104.859 240.278 100.242C240.516 99.3068 240.788 98.377 241.076 97.4561C241.248 96.9053 241.55 97.6934 241.688 97.9531C243.581 101.496 244.547 105.44 246.427 108.991C247.116 110.292 246.906 109.847 247.075 108.622C247.444 105.934 247.853 102.969 248.762 100.404C249.182 99.2204 250.228 102.006 250.311 102.184C251.013 103.68 251.661 105.196 252.415 106.668C252.531 106.896 253.56 109.337 254.079 109.384C254.125 109.389 255.09 105.392 255.177 105.119C255.899 102.86 257.09 101.362 258.356 99.4326C258.581 99.0889 258.779 98.4125 259.142 98.1612C259.654 97.8063 259.987 97.7811 260.309 97.1903C260.6 96.657 263.736 90.5676 264.25 90.7176C264.619 90.825 264.529 91.0354 264.667 91.2955C264.815 91.5754 265.326 91.6714 265.557 91.9196C266.398 92.8257 267.325 93.0067 267.325 94.4163" stroke="url(#paint0_linear_657_4150)" stroke-opacity="0.15" stroke-width="10.2311" stroke-linecap="round"/>
<path d="M110.059 149.467C119.097 149.467 123.471 127.721 131.319 125.332C133.594 124.64 134.96 129.453 136.186 130.802C138.223 133.042 145.913 116.289 148.291 118.505C149.571 119.697 152.247 129.694 154.579 129.111C156.826 128.549 158.149 115.084 160.407 114.466C162.5 113.892 167.142 125.219 168.487 127.685C169.194 128.981 172.806 118.144 173.599 117.697C175.682 116.523 177.279 124.211 179.646 124.141C183.561 115.004 183.375 109.899 184.369 110.966C186.032 112.752 186.691 128.92 187.968 130.963C188.189 131.317 188.818 132.134 189.232 132.272C189.779 132.454 193.783 125.706 197.025 126.361C198.582 126.676 200.414 127.487 201.671 128.479C210.355 135.335 211.073 105.433 212.653 126.347C214.283 147.92 216.42 127.439 217.387 128.464C218.082 129.199 218.274 130.916 219.343 131.213C220.499 131.534 222.113 131.272 223.313 131.272C225.892 131.272 228.825 130.846 231.355 131.551C233.424 132.129 232.79 132.58 234.075 130.684C238.191 124.607 239.273 112.604 243.602 107.735C244.52 106.702 248.264 125.495 249.189 126.009C249.769 126.331 250.261 124.913 250.821 125.362C252.089 126.376 257.265 132.328 257.393 131.919C258.013 129.935 261.573 131.93 262.862 130.875C264.209 129.773 263.964 127.302 266.185 127.302" stroke="url(#paint1_linear_657_4150)" stroke-width="1.61544" stroke-linecap="round"/>
</g>
<g clip-path="url(#clip3_657_4150)">
<g clip-path="url(#clip4_657_4150)">
<g clip-path="url(#clip5_657_4150)">
<path d="M122.619 183.81H118.508V182.781C118.669 182.624 118.759 182.535 118.92 182.378H122.207C122.368 182.535 122.458 182.623 122.62 182.781V183.81H122.619Z" fill="url(#paint2_linear_657_4150)"/>
<path d="M115.431 183.603H108.941V182.573C109.102 182.416 109.193 182.328 109.354 182.17H115.019C115.179 182.327 115.27 182.416 115.431 182.573V183.603Z" fill="url(#paint3_linear_657_4150)"/>
<path d="M124.237 209.441H107.688C106.828 208.6 106.345 208.129 105.484 207.289V186.167C106.345 185.326 106.828 184.855 107.688 184.015H124.237C125.098 184.855 125.581 185.326 126.441 186.167V207.289C125.581 208.129 125.098 208.6 124.237 209.441Z" fill="url(#paint4_linear_657_4150)"/>
<path d="M124.338 207.84L123.502 208.656H109.614C109.654 208.684 109.694 208.713 109.734 208.741C109.727 208.974 109.721 209.207 109.715 209.441H110.223L110.649 210.051C110.714 210.106 110.778 210.161 110.844 210.217C110.847 210.22 110.85 210.223 110.853 210.225H121.057C121.071 210.213 121.085 210.202 121.098 210.19C121.153 210.144 121.207 210.097 121.261 210.051L121.688 209.441H122.464C122.46 209.32 122.457 209.198 122.454 209.077C122.554 209.198 122.654 209.32 122.754 209.441H124.24L124.353 209.331C124.348 208.834 124.343 208.337 124.338 207.84ZM124.338 207.84L123.502 208.656H109.614C109.654 208.684 109.694 208.713 109.734 208.741C109.727 208.974 109.721 209.207 109.715 209.441H110.223L110.649 210.051C110.714 210.106 110.778 210.161 110.844 210.217C110.847 210.22 110.85 210.223 110.853 210.225H121.057C121.071 210.213 121.085 210.202 121.098 210.19C121.153 210.144 121.207 210.097 121.261 210.051L121.688 209.441H122.464C122.46 209.32 122.457 209.198 122.454 209.077C122.554 209.198 122.654 209.32 122.754 209.441H124.24L124.353 209.331C124.348 208.834 124.343 208.337 124.338 207.84ZM124.167 183.23H107.764L104.684 186.238V207.217L107.764 210.225H124.167L124.582 209.82L125.842 208.59L127.248 207.217V186.238L124.167 183.23ZM125.641 206.567L124.693 207.493L124.693 207.493L124.374 207.805L124.338 207.84L123.502 208.656H108.43L107.839 208.079L106.29 206.567V186.888L108.43 184.799H123.502L125.641 186.888V206.567ZM124.338 207.84L123.502 208.656H109.614C109.654 208.684 109.694 208.713 109.734 208.741C109.727 208.974 109.721 209.207 109.715 209.441H110.223L110.649 210.051C110.714 210.106 110.778 210.161 110.844 210.217C110.847 210.22 110.85 210.223 110.853 210.225H121.057C121.071 210.213 121.085 210.202 121.098 210.19C121.153 210.144 121.207 210.097 121.261 210.051L121.688 209.441H122.464C122.46 209.32 122.457 209.198 122.454 209.077C122.554 209.198 122.654 209.32 122.754 209.441H124.24L124.353 209.331C124.348 208.834 124.343 208.337 124.338 207.84ZM124.338 207.84L123.502 208.656H109.614C109.654 208.684 109.694 208.713 109.734 208.741C109.727 208.974 109.721 209.207 109.715 209.441H110.223L110.649 210.051C110.714 210.106 110.778 210.161 110.844 210.217C110.847 210.22 110.85 210.223 110.853 210.225H121.057C121.071 210.213 121.085 210.202 121.098 210.19C121.153 210.144 121.207 210.097 121.261 210.051L121.688 209.441H122.464C122.46 209.32 122.457 209.198 122.454 209.077C122.554 209.198 122.654 209.32 122.754 209.441H124.24L124.353 209.331C124.348 208.834 124.343 208.337 124.338 207.84Z" fill="url(#paint5_linear_657_4150)"/>
<path d="M113.729 196.74V206.591H110.977V196.74C110.977 196.38 111.303 196.089 111.705 196.089H112.999C113.402 196.089 113.729 196.38 113.729 196.74Z" fill="url(#paint6_linear_657_4150)"/>
<path d="M120.955 193.091V206.59H118.203V193.091C118.203 192.702 118.53 192.387 118.932 192.387H120.226C120.629 192.387 120.955 192.702 120.955 193.091Z" fill="url(#paint7_linear_657_4150)"/>
<path d="M110.677 204.192H107.383V204.381H110.677V204.192Z" fill="url(#paint8_linear_657_4150)"/>
<path d="M117.903 204.192H114.023V204.381H117.903V204.192Z" fill="url(#paint9_linear_657_4150)"/>
<path d="M124.552 204.192H121.258V204.381H124.552V204.192Z" fill="url(#paint10_linear_657_4150)"/>
<path d="M109.511 190.566H108.941V203.541H109.511V190.566Z" fill="url(#paint11_linear_657_4150)"/>
<path d="M108.143 192.622H107.574V203.541H108.143V192.622Z" fill="url(#paint12_linear_657_4150)"/>
<path d="M115.714 190.566H115.145V203.541H115.714V190.566Z" fill="url(#paint13_linear_657_4150)"/>
<path d="M117.128 186.692H116.559V203.54H117.128V186.692Z" fill="url(#paint14_linear_657_4150)"/>
<path d="M109.107 197.429H108.438V203.682H109.107V197.429Z" fill="url(#paint15_linear_657_4150)"/>
<path d="M116.186 195.117H115.516V203.287H116.186V195.117Z" fill="url(#paint16_linear_657_4150)"/>
<path d="M123.24 190.839H122.57V202.616H123.24V190.839Z" fill="url(#paint17_linear_657_4150)"/>
</g>
<g clip-path="url(#clip6_657_4150)">
<path d="M137.71 190.134C137.756 190.134 137.795 190.153 137.83 190.19L138.158 190.543C137.908 190.833 137.604 191.059 137.246 191.221C136.891 191.383 136.461 191.464 135.955 191.464C135.518 191.464 135.12 191.388 134.762 191.238C134.404 191.084 134.099 190.871 133.846 190.599C133.593 190.323 133.397 189.994 133.258 189.61C133.119 189.227 133.049 188.805 133.049 188.345C133.049 187.885 133.122 187.463 133.267 187.08C133.411 186.696 133.615 186.367 133.876 186.091C134.14 185.816 134.455 185.603 134.822 185.452C135.188 185.299 135.593 185.222 136.036 185.222C136.47 185.222 136.854 185.292 137.186 185.431C137.519 185.57 137.811 185.759 138.064 185.997L137.791 186.377C137.774 186.405 137.751 186.429 137.723 186.449C137.697 186.466 137.662 186.475 137.617 186.475C137.565 186.475 137.503 186.448 137.429 186.394C137.355 186.337 137.259 186.274 137.139 186.206C137.02 186.138 136.871 186.077 136.692 186.023C136.513 185.966 136.293 185.938 136.032 185.938C135.716 185.938 135.428 185.993 135.167 186.104C134.905 186.212 134.68 186.37 134.489 186.577C134.302 186.784 134.156 187.037 134.05 187.335C133.945 187.633 133.893 187.97 133.893 188.345C133.893 188.726 133.947 189.065 134.055 189.363C134.166 189.661 134.315 189.914 134.502 190.122C134.692 190.326 134.915 190.482 135.171 190.59C135.429 190.698 135.708 190.752 136.006 190.752C136.188 190.752 136.351 190.742 136.496 190.722C136.644 190.7 136.779 190.666 136.901 190.62C137.026 190.575 137.141 190.518 137.246 190.45C137.354 190.379 137.46 190.295 137.565 190.198C137.614 190.156 137.662 190.134 137.71 190.134ZM141.742 188.767C141.742 188.591 141.717 188.43 141.666 188.285C141.617 188.138 141.545 188.011 141.448 187.906C141.355 187.798 141.24 187.716 141.103 187.659C140.967 187.599 140.812 187.57 140.639 187.57C140.275 187.57 139.987 187.676 139.774 187.889C139.564 188.099 139.433 188.392 139.382 188.767H141.742ZM142.356 190.791C142.262 190.904 142.15 191.004 142.019 191.089C141.889 191.171 141.748 191.239 141.598 191.293C141.45 191.347 141.297 191.387 141.137 191.413C140.978 191.441 140.821 191.455 140.665 191.455C140.366 191.455 140.091 191.405 139.838 191.306C139.588 191.204 139.371 191.056 139.186 190.863C139.004 190.667 138.862 190.426 138.76 190.139C138.658 189.852 138.607 189.522 138.607 189.15C138.607 188.849 138.652 188.568 138.743 188.307C138.837 188.045 138.97 187.82 139.144 187.629C139.317 187.436 139.528 187.286 139.778 187.178C140.028 187.067 140.309 187.011 140.622 187.011C140.88 187.011 141.119 187.055 141.338 187.144C141.559 187.229 141.75 187.354 141.909 187.518C142.07 187.68 142.197 187.882 142.288 188.123C142.379 188.362 142.424 188.635 142.424 188.941C142.424 189.061 142.411 189.14 142.386 189.18C142.36 189.22 142.312 189.24 142.241 189.24H139.357C139.365 189.512 139.402 189.75 139.467 189.951C139.535 190.153 139.629 190.322 139.749 190.458C139.868 190.592 140.01 190.693 140.175 190.761C140.339 190.826 140.524 190.859 140.728 190.859C140.919 190.859 141.082 190.837 141.218 190.795C141.358 190.749 141.477 190.701 141.576 190.65C141.676 190.599 141.758 190.552 141.823 190.509C141.892 190.464 141.95 190.441 141.998 190.441C142.061 190.441 142.109 190.465 142.143 190.514L142.356 190.791ZM144.118 190.356C144.257 190.543 144.409 190.675 144.574 190.752C144.739 190.829 144.924 190.867 145.128 190.867C145.531 190.867 145.841 190.724 146.057 190.437C146.273 190.15 146.381 189.741 146.381 189.21C146.381 188.929 146.355 188.687 146.304 188.486C146.256 188.284 146.185 188.119 146.091 187.991C145.997 187.861 145.882 187.766 145.746 187.706C145.609 187.646 145.455 187.616 145.281 187.616C145.034 187.616 144.817 187.673 144.63 187.787C144.445 187.9 144.274 188.061 144.118 188.268V190.356ZM144.08 187.749C144.262 187.524 144.472 187.344 144.71 187.207C144.949 187.071 145.222 187.003 145.528 187.003C145.778 187.003 146.004 187.051 146.206 187.148C146.408 187.242 146.579 187.382 146.721 187.57C146.863 187.754 146.973 187.984 147.049 188.26C147.126 188.535 147.165 188.852 147.165 189.21C147.165 189.528 147.122 189.825 147.037 190.1C146.952 190.373 146.828 190.61 146.666 190.812C146.507 191.011 146.311 191.168 146.078 191.285C145.848 191.398 145.588 191.455 145.298 191.455C145.034 191.455 144.807 191.411 144.617 191.323C144.429 191.232 144.263 191.107 144.118 190.948V192.857H143.356V187.08H143.812C143.919 187.08 143.986 187.132 144.012 187.237L144.08 187.749ZM149.781 190.863C150.065 190.863 150.29 190.798 150.454 190.667C150.619 190.533 150.701 190.352 150.701 190.122C150.701 190.019 150.686 189.927 150.654 189.845C150.623 189.759 150.572 189.686 150.501 189.623C150.43 189.561 150.335 189.512 150.216 189.478C150.099 189.444 149.956 189.427 149.785 189.427H148.852V190.863H149.781ZM148.852 187.591V188.946H149.683C149.808 188.946 149.923 188.929 150.028 188.895C150.136 188.858 150.228 188.808 150.305 188.745C150.382 188.68 150.441 188.603 150.484 188.515C150.527 188.425 150.548 188.325 150.548 188.217C150.548 188.138 150.534 188.061 150.505 187.987C150.477 187.91 150.429 187.844 150.361 187.787C150.292 187.727 150.203 187.68 150.092 187.646C149.981 187.609 149.845 187.591 149.683 187.591H148.852ZM149.704 187.08C149.971 187.08 150.2 187.107 150.39 187.161C150.581 187.215 150.737 187.288 150.859 187.382C150.981 187.473 151.071 187.581 151.127 187.706C151.184 187.831 151.213 187.964 151.213 188.106C151.213 188.2 151.2 188.298 151.174 188.4C151.149 188.503 151.103 188.601 151.038 188.694C150.975 188.788 150.889 188.873 150.778 188.95C150.67 189.024 150.534 189.082 150.369 189.125C150.699 189.181 150.953 189.296 151.132 189.47C151.311 189.64 151.4 189.866 151.4 190.147C151.4 190.357 151.357 190.541 151.272 190.697C151.19 190.85 151.075 190.979 150.927 191.084C150.782 191.19 150.612 191.268 150.416 191.319C150.22 191.37 150.01 191.396 149.785 191.396H148.124V187.08H149.704ZM155.24 188.767C155.24 188.591 155.214 188.43 155.163 188.285C155.115 188.138 155.042 188.011 154.946 187.906C154.852 187.798 154.737 187.716 154.601 187.659C154.464 187.599 154.309 187.57 154.136 187.57C153.773 187.57 153.484 187.676 153.271 187.889C153.061 188.099 152.93 188.392 152.879 188.767H155.24ZM155.853 190.791C155.759 190.904 155.647 191.004 155.517 191.089C155.386 191.171 155.245 191.239 155.095 191.293C154.947 191.347 154.794 191.387 154.635 191.413C154.476 191.441 154.318 191.455 154.162 191.455C153.863 191.455 153.588 191.405 153.335 191.306C153.085 191.204 152.868 191.056 152.683 190.863C152.502 190.667 152.359 190.426 152.257 190.139C152.155 189.852 152.104 189.522 152.104 189.15C152.104 188.849 152.149 188.568 152.24 188.307C152.334 188.045 152.467 187.82 152.641 187.629C152.814 187.436 153.026 187.286 153.275 187.178C153.525 187.067 153.807 187.011 154.119 187.011C154.378 187.011 154.616 187.055 154.835 187.144C155.056 187.229 155.247 187.354 155.406 187.518C155.568 187.68 155.694 187.882 155.785 188.123C155.876 188.362 155.921 188.635 155.921 188.941C155.921 189.061 155.908 189.14 155.883 189.18C155.857 189.22 155.809 189.24 155.738 189.24H152.854C152.862 189.512 152.899 189.75 152.964 189.951C153.033 190.153 153.126 190.322 153.246 190.458C153.365 190.592 153.507 190.693 153.672 190.761C153.836 190.826 154.021 190.859 154.226 190.859C154.416 190.859 154.579 190.837 154.716 190.795C154.855 190.749 154.974 190.701 155.073 190.65C155.173 190.599 155.255 190.552 155.321 190.509C155.389 190.464 155.447 190.441 155.495 190.441C155.558 190.441 155.606 190.465 155.64 190.514L155.853 190.791ZM157.615 190.356C157.755 190.543 157.907 190.675 158.071 190.752C158.236 190.829 158.421 190.867 158.625 190.867C159.028 190.867 159.338 190.724 159.554 190.437C159.77 190.15 159.878 189.741 159.878 189.21C159.878 188.929 159.852 188.687 159.801 188.486C159.753 188.284 159.682 188.119 159.588 187.991C159.494 187.861 159.379 187.766 159.243 187.706C159.107 187.646 158.952 187.616 158.779 187.616C158.531 187.616 158.314 187.673 158.127 187.787C157.942 187.9 157.772 188.061 157.615 188.268V190.356ZM157.577 187.749C157.759 187.524 157.969 187.344 158.208 187.207C158.446 187.071 158.719 187.003 159.026 187.003C159.276 187.003 159.501 187.051 159.703 187.148C159.905 187.242 160.077 187.382 160.219 187.57C160.361 187.754 160.47 187.984 160.547 188.26C160.623 188.535 160.662 188.852 160.662 189.21C160.662 189.528 160.619 189.825 160.534 190.1C160.449 190.373 160.325 190.61 160.163 190.812C160.004 191.011 159.808 191.168 159.575 191.285C159.345 191.398 159.085 191.455 158.796 191.455C158.531 191.455 158.304 191.411 158.114 191.323C157.926 191.232 157.76 191.107 157.615 190.948V192.857H156.853V187.08H157.309C157.417 187.08 157.483 187.132 157.509 187.237L157.577 187.749Z" fill="#AAAAAA"/>
<path d="M139.211 198.864H136.621V206.011H135.417V198.864H132.815V197.853H139.211V198.864ZM139.982 201.347C140.168 200.968 140.391 200.671 140.653 200.455C140.914 200.239 141.228 200.131 141.596 200.131C141.721 200.131 141.838 200.146 141.948 200.177C142.061 200.203 142.16 200.245 142.243 200.302L142.169 201.137C142.143 201.239 142.08 201.29 141.982 201.29C141.929 201.29 141.849 201.281 141.743 201.262C141.637 201.239 141.524 201.228 141.402 201.228C141.224 201.228 141.067 201.254 140.931 201.307C140.795 201.356 140.672 201.432 140.562 201.534C140.456 201.633 140.361 201.756 140.278 201.904C140.194 202.048 140.117 202.212 140.045 202.398V206.011H138.937V200.239H139.573C139.694 200.239 139.776 200.262 139.818 200.307C139.863 200.349 139.895 200.425 139.914 200.535L139.982 201.347ZM146.111 203.449C145.66 203.464 145.277 203.5 144.963 203.557C144.649 203.61 144.393 203.682 144.196 203.773C143.999 203.863 143.857 203.971 143.77 204.096C143.683 204.218 143.639 204.354 143.639 204.505C143.639 204.649 143.662 204.774 143.708 204.88C143.757 204.983 143.821 205.068 143.901 205.136C143.984 205.2 144.081 205.248 144.19 205.278C144.3 205.308 144.42 205.323 144.548 205.323C144.719 205.323 144.874 205.306 145.014 205.272C145.158 205.238 145.293 205.191 145.418 205.13C145.542 205.066 145.662 204.988 145.775 204.897C145.889 204.806 146.001 204.702 146.111 204.585V203.449ZM142.861 201.046C143.183 200.739 143.532 200.51 143.906 200.358C144.285 200.207 144.7 200.131 145.151 200.131C145.48 200.131 145.772 200.186 146.025 200.296C146.279 200.402 146.493 200.552 146.667 200.745C146.841 200.938 146.972 201.169 147.059 201.438C147.15 201.707 147.196 202.004 147.196 202.33V206.011H146.701C146.592 206.011 146.508 205.994 146.451 205.96C146.395 205.922 146.349 205.854 146.315 205.755L146.196 205.25C146.048 205.386 145.902 205.507 145.758 205.613C145.614 205.715 145.463 205.804 145.304 205.88C145.149 205.952 144.982 206.007 144.804 206.045C144.626 206.083 144.429 206.102 144.213 206.102C143.986 206.102 143.772 206.071 143.571 206.011C143.374 205.946 143.202 205.85 143.054 205.721C142.907 205.592 142.789 205.431 142.702 205.238C142.619 205.045 142.577 204.82 142.577 204.562C142.577 204.335 142.638 204.117 142.759 203.909C142.884 203.697 143.085 203.507 143.361 203.341C143.641 203.174 144.005 203.038 144.452 202.932C144.902 202.826 145.455 202.765 146.111 202.75V202.33C146.111 201.894 146.018 201.568 145.832 201.353C145.647 201.137 145.374 201.029 145.014 201.029C144.772 201.029 144.567 201.059 144.401 201.12C144.238 201.18 144.096 201.248 143.975 201.324C143.857 201.396 143.753 201.462 143.662 201.523C143.575 201.584 143.484 201.614 143.39 201.614C143.314 201.614 143.248 201.593 143.191 201.551C143.138 201.51 143.094 201.461 143.06 201.404L142.861 201.046ZM152.399 201.637C152.218 201.398 152.021 201.231 151.809 201.137C151.6 201.042 151.365 200.995 151.104 200.995C150.597 200.995 150.203 201.178 149.923 201.546C149.646 201.909 149.508 202.441 149.508 203.142C149.508 203.509 149.538 203.824 149.599 204.085C149.663 204.343 149.754 204.555 149.871 204.721C149.993 204.884 150.14 205.005 150.315 205.085C150.489 205.161 150.686 205.198 150.905 205.198C151.227 205.198 151.506 205.126 151.74 204.983C151.975 204.839 152.195 204.636 152.399 204.375V201.637ZM153.513 197.626V206.011H152.842C152.687 206.011 152.591 205.937 152.553 205.789L152.456 205.125C152.21 205.416 151.93 205.651 151.615 205.829C151.305 206.003 150.945 206.09 150.536 206.09C150.207 206.09 149.907 206.026 149.639 205.897C149.373 205.768 149.146 205.581 148.957 205.335C148.767 205.085 148.622 204.776 148.519 204.409C148.417 204.041 148.366 203.619 148.366 203.142C148.366 202.714 148.423 202.316 148.536 201.949C148.65 201.582 148.815 201.264 149.031 200.995C149.247 200.726 149.508 200.516 149.815 200.364C150.121 200.209 150.468 200.131 150.854 200.131C151.203 200.131 151.498 200.188 151.74 200.302C151.987 200.415 152.206 200.576 152.399 200.785V197.626H153.513ZM156.217 200.239V206.011H155.109V200.239H156.217ZM156.427 198.455C156.427 198.558 156.406 198.656 156.365 198.751C156.323 198.842 156.266 198.923 156.194 198.995C156.126 199.063 156.045 199.118 155.95 199.16C155.855 199.198 155.757 199.217 155.655 199.217C155.552 199.217 155.456 199.198 155.365 199.16C155.274 199.118 155.193 199.063 155.121 198.995C155.052 198.923 154.998 198.842 154.956 198.751C154.918 198.656 154.899 198.558 154.899 198.455C154.899 198.349 154.918 198.251 154.956 198.16C154.998 198.065 155.052 197.984 155.121 197.916C155.193 197.844 155.274 197.789 155.365 197.751C155.456 197.709 155.552 197.689 155.655 197.689C155.757 197.689 155.855 197.709 155.95 197.751C156.045 197.789 156.126 197.844 156.194 197.916C156.266 197.984 156.323 198.065 156.365 198.16C156.406 198.251 156.427 198.349 156.427 198.455ZM158.86 201.04C158.985 200.908 159.116 200.786 159.252 200.677C159.389 200.567 159.533 200.474 159.684 200.398C159.839 200.319 160.004 200.258 160.178 200.216C160.356 200.171 160.546 200.148 160.746 200.148C161.064 200.148 161.343 200.201 161.581 200.307C161.824 200.413 162.026 200.563 162.189 200.756C162.352 200.945 162.475 201.175 162.559 201.443C162.642 201.712 162.683 202.01 162.683 202.335V206.011H161.57V202.335C161.57 201.923 161.475 201.603 161.286 201.375C161.097 201.144 160.807 201.029 160.417 201.029C160.133 201.029 159.866 201.097 159.616 201.233C159.37 201.366 159.141 201.548 158.929 201.779V206.011H157.821V200.239H158.485C158.641 200.239 158.737 200.313 158.775 200.461L158.86 201.04ZM166.206 203.131C166.403 203.131 166.576 203.104 166.723 203.051C166.875 202.998 167 202.924 167.098 202.83C167.2 202.731 167.276 202.614 167.325 202.477C167.378 202.341 167.405 202.191 167.405 202.029C167.405 201.695 167.303 201.43 167.098 201.233C166.897 201.033 166.6 200.932 166.206 200.932C165.816 200.932 165.519 201.033 165.314 201.233C165.114 201.43 165.013 201.695 165.013 202.029C165.013 202.191 165.038 202.341 165.087 202.477C165.14 202.61 165.216 202.725 165.314 202.824C165.417 202.919 165.542 202.994 165.689 203.051C165.841 203.104 166.013 203.131 166.206 203.131ZM167.973 206.312C167.973 206.175 167.935 206.068 167.859 205.988C167.784 205.905 167.679 205.84 167.547 205.795C167.418 205.746 167.267 205.712 167.092 205.693C166.918 205.67 166.735 205.653 166.541 205.641C166.352 205.63 166.157 205.621 165.956 205.613C165.756 205.602 165.562 205.583 165.377 205.556C165.18 205.655 165.017 205.774 164.888 205.914C164.763 206.054 164.701 206.219 164.701 206.408C164.701 206.53 164.731 206.643 164.792 206.749C164.856 206.855 164.953 206.946 165.082 207.022C165.214 207.101 165.379 207.162 165.576 207.204C165.776 207.249 166.015 207.272 166.292 207.272C166.564 207.272 166.805 207.247 167.013 207.198C167.221 207.153 167.395 207.086 167.536 206.999C167.679 206.916 167.787 206.816 167.859 206.698C167.935 206.581 167.973 206.452 167.973 206.312ZM169.098 200.455V200.87C169.098 201.006 169.013 201.091 168.842 201.125L168.223 201.216C168.276 201.334 168.318 201.459 168.348 201.591C168.378 201.72 168.393 201.856 168.393 202C168.393 202.284 168.338 202.542 168.229 202.773C168.119 203 167.967 203.195 167.774 203.358C167.581 203.521 167.35 203.646 167.081 203.733C166.816 203.82 166.524 203.863 166.206 203.863C165.945 203.863 165.701 203.835 165.473 203.778C165.36 203.846 165.273 203.922 165.212 204.005C165.155 204.085 165.127 204.165 165.127 204.244C165.127 204.377 165.182 204.475 165.292 204.539C165.405 204.604 165.551 204.651 165.729 204.681C165.911 204.708 166.117 204.725 166.348 204.733C166.583 204.74 166.82 204.753 167.058 204.772C167.301 204.788 167.537 204.818 167.768 204.863C168.003 204.905 168.21 204.975 168.388 205.073C168.569 205.168 168.715 205.301 168.825 205.471C168.939 205.638 168.996 205.855 168.996 206.124C168.996 206.374 168.933 206.617 168.808 206.851C168.687 207.086 168.509 207.295 168.274 207.476C168.039 207.658 167.753 207.804 167.416 207.914C167.079 208.024 166.697 208.079 166.269 208.079C165.841 208.079 165.468 208.037 165.15 207.954C164.835 207.87 164.572 207.758 164.36 207.618C164.152 207.478 163.995 207.315 163.889 207.13C163.786 206.944 163.735 206.751 163.735 206.55C163.735 206.27 163.822 206.033 163.997 205.84C164.171 205.643 164.411 205.49 164.718 205.38C164.551 205.304 164.419 205.202 164.32 205.073C164.222 204.941 164.173 204.767 164.173 204.551C164.173 204.467 164.188 204.382 164.218 204.295C164.248 204.204 164.294 204.115 164.354 204.028C164.419 203.937 164.496 203.852 164.587 203.773C164.682 203.693 164.79 203.621 164.911 203.557C164.627 203.398 164.404 203.187 164.241 202.926C164.078 202.661 163.997 202.352 163.997 202C163.997 201.716 164.051 201.461 164.161 201.233C164.271 201.006 164.423 200.811 164.616 200.648C164.813 200.485 165.046 200.36 165.314 200.273C165.587 200.186 165.884 200.143 166.206 200.143C166.706 200.143 167.136 200.247 167.496 200.455H169.098ZM174.096 204.591C174.277 204.829 174.474 204.996 174.686 205.09C174.898 205.185 175.129 205.232 175.379 205.232C175.894 205.232 176.29 205.049 176.567 204.681C176.847 204.314 176.987 203.759 176.987 203.017C176.987 202.332 176.864 201.83 176.618 201.512C176.372 201.19 176.023 201.029 175.572 201.029C175.254 201.029 174.978 201.101 174.743 201.245C174.512 201.389 174.296 201.593 174.096 201.858V204.591ZM174.096 201.034C174.334 200.769 174.605 200.555 174.908 200.393C175.211 200.23 175.555 200.148 175.942 200.148C176.279 200.148 176.582 200.215 176.851 200.347C177.123 200.476 177.354 200.663 177.544 200.909C177.733 201.152 177.879 201.447 177.981 201.796C178.083 202.144 178.134 202.538 178.134 202.977C178.134 203.443 178.076 203.867 177.958 204.25C177.845 204.632 177.68 204.96 177.464 205.232C177.252 205.505 176.993 205.717 176.686 205.869C176.379 206.016 176.035 206.09 175.652 206.09C175.466 206.09 175.296 206.071 175.141 206.033C174.985 205.999 174.842 205.948 174.709 205.88C174.58 205.812 174.461 205.729 174.351 205.63C174.241 205.532 174.137 205.42 174.039 205.295L173.988 205.778C173.957 205.933 173.863 206.011 173.704 206.011H172.988V197.626H174.096V201.034ZM181.827 200.148C182.251 200.148 182.634 200.218 182.975 200.358C183.319 200.495 183.611 200.694 183.849 200.955C184.092 201.212 184.277 201.525 184.406 201.892C184.535 202.256 184.599 202.665 184.599 203.119C184.599 203.574 184.535 203.985 184.406 204.352C184.277 204.719 184.092 205.032 183.849 205.289C183.611 205.547 183.319 205.746 182.975 205.886C182.634 206.022 182.251 206.09 181.827 206.09C181.399 206.09 181.013 206.022 180.668 205.886C180.327 205.746 180.036 205.547 179.793 205.289C179.551 205.032 179.364 204.719 179.231 204.352C179.102 203.985 179.038 203.574 179.038 203.119C179.038 202.665 179.102 202.256 179.231 201.892C179.364 201.525 179.551 201.212 179.793 200.955C180.036 200.694 180.327 200.495 180.668 200.358C181.013 200.218 181.399 200.148 181.827 200.148ZM181.827 205.227C182.373 205.227 182.78 205.043 183.049 204.676C183.317 204.308 183.452 203.791 183.452 203.125C183.452 202.458 183.317 201.941 183.049 201.574C182.78 201.203 182.373 201.017 181.827 201.017C181.274 201.017 180.861 201.203 180.589 201.574C180.32 201.941 180.185 202.458 180.185 203.125C180.185 203.791 180.32 204.308 180.589 204.676C180.861 205.043 181.274 205.227 181.827 205.227ZM187.531 206.102C187.066 206.102 186.706 205.971 186.452 205.71C186.202 205.448 186.077 205.075 186.077 204.591V201.137H185.407C185.342 201.137 185.288 201.118 185.242 201.08C185.2 201.038 185.18 200.978 185.18 200.898V200.449L186.117 200.319L186.367 198.597C186.382 198.533 186.41 198.484 186.452 198.45C186.497 198.412 186.554 198.393 186.622 198.393H187.185V200.33H188.821V201.137H187.185V204.517C187.185 204.744 187.24 204.914 187.35 205.028C187.463 205.138 187.607 205.193 187.781 205.193C187.884 205.193 187.971 205.179 188.043 205.153C188.118 205.126 188.183 205.098 188.236 205.068C188.289 205.034 188.334 205.003 188.372 204.977C188.41 204.95 188.444 204.937 188.474 204.937C188.512 204.937 188.541 204.947 188.56 204.965C188.582 204.981 188.605 205.007 188.628 205.045L188.957 205.579C188.775 205.746 188.56 205.874 188.31 205.965C188.06 206.056 187.8 206.102 187.531 206.102Z" fill="black"/>
</g>
</g>
</g>
<path d="M252.499 199.397C252.65 199.397 252.77 199.441 252.857 199.528C252.948 199.611 252.993 199.723 252.993 199.863V200.704H247.358V200.238C247.358 200.143 247.377 200.045 247.415 199.942C247.456 199.836 247.521 199.742 247.608 199.658L250.102 197.159C250.31 196.947 250.496 196.744 250.658 196.551C250.825 196.358 250.963 196.167 251.073 195.977C251.183 195.788 251.266 195.597 251.323 195.404C251.384 195.207 251.414 195 251.414 194.784C251.414 194.587 251.385 194.415 251.329 194.267C251.272 194.116 251.19 193.989 251.084 193.887C250.982 193.785 250.857 193.709 250.709 193.66C250.566 193.607 250.403 193.58 250.221 193.58C250.054 193.58 249.899 193.605 249.755 193.654C249.615 193.699 249.49 193.766 249.38 193.853C249.27 193.936 249.178 194.035 249.102 194.148C249.026 194.262 248.969 194.387 248.931 194.523C248.867 194.697 248.784 194.813 248.681 194.87C248.579 194.926 248.432 194.94 248.238 194.909L247.5 194.779C247.557 194.385 247.667 194.04 247.829 193.745C247.992 193.446 248.195 193.198 248.437 193.001C248.683 192.8 248.964 192.65 249.278 192.552C249.596 192.45 249.937 192.398 250.3 192.398C250.679 192.398 251.026 192.455 251.34 192.569C251.654 192.679 251.923 192.836 252.147 193.04C252.37 193.245 252.544 193.491 252.669 193.779C252.794 194.067 252.857 194.387 252.857 194.739C252.857 195.042 252.811 195.322 252.72 195.58C252.633 195.837 252.514 196.083 252.363 196.318C252.215 196.553 252.041 196.78 251.84 197C251.639 197.219 251.429 197.443 251.209 197.67L249.357 199.562C249.535 199.509 249.712 199.469 249.886 199.443C250.064 199.412 250.232 199.397 250.391 199.397H252.499ZM257.334 197.608V194.921C257.334 194.667 257.351 194.387 257.385 194.08L254.835 197.608H257.334ZM259.589 197.608V198.42C259.589 198.496 259.565 198.562 259.515 198.619C259.466 198.672 259.396 198.698 259.305 198.698H258.555V200.704H257.334V198.698H253.869C253.774 198.698 253.691 198.67 253.619 198.613C253.547 198.553 253.501 198.479 253.483 198.392L253.335 197.681L257.226 192.484H258.555V197.608H259.589ZM261.323 200.721C261.258 200.895 261.154 201.026 261.01 201.113C260.87 201.2 260.726 201.243 260.579 201.243H259.982L263.3 192.756C263.36 192.597 263.453 192.476 263.578 192.393C263.703 192.306 263.849 192.262 264.015 192.262H264.618L261.323 200.721ZM270.921 192.489V193.097C270.921 193.279 270.902 193.427 270.864 193.54C270.826 193.65 270.789 193.743 270.751 193.819L267.638 200.226C267.573 200.359 267.482 200.473 267.365 200.567C267.248 200.658 267.09 200.704 266.893 200.704H265.877L269.052 194.426C269.124 194.298 269.194 194.18 269.262 194.074C269.334 193.964 269.414 193.86 269.501 193.762H265.57C265.483 193.762 265.407 193.73 265.343 193.665C265.278 193.601 265.246 193.525 265.246 193.438V192.489H270.921Z" fill="black"/>
</g>
</g>
</g>
</g>
<defs>
<filter id="filter0_d_657_4150" x="-21.75" y="0.25" width="418.5" height="329.5" filterUnits="userSpaceOnUse" color-interpolation-filters="sRGB">
<feFlood flood-opacity="0" result="BackgroundImageFix"/>
<feColorMatrix in="SourceAlpha" type="matrix" values="0 0 0 0 0 0 0 0 0 0 0 0 0 0 0 0 0 0 127 0" result="hardAlpha"/>
<feOffset dy="3"/>
<feGaussianBlur stdDeviation="16.875"/>
<feComposite in2="hardAlpha" operator="out"/>
<feColorMatrix type="matrix" values="0 0 0 0 0.811667 0 0 0 0 0.811667 0 0 0 0 0.811667 0 0 0 0.25 0"/>
<feBlend mode="normal" in2="BackgroundImageFix" result="effect1_dropShadow_657_4150"/>
<feBlend mode="normal" in="SourceGraphic" in2="effect1_dropShadow_657_4150" result="shape"/>
</filter>
<filter id="filter1_d_657_4150" x="59.2728" y="26.8866" width="257.759" height="232.908" filterUnits="userSpaceOnUse" color-interpolation-filters="sRGB">
<feFlood flood-opacity="0" result="BackgroundImageFix"/>
<feColorMatrix in="SourceAlpha" type="matrix" values="0 0 0 0 0 0 0 0 0 0 0 0 0 0 0 0 0 0 127 0" result="hardAlpha"/>
<feOffset dy="2.84034"/>
<feGaussianBlur stdDeviation="15.9769"/>
<feComposite in2="hardAlpha" operator="out"/>
<feColorMatrix type="matrix" values="0 0 0 0 0.858333 0 0 0 0 0.858333 0 0 0 0 0.858333 0 0 0 0.25 0"/>
<feBlend mode="normal" in2="BackgroundImageFix" result="effect1_dropShadow_657_4150"/>
<feBlend mode="normal" in="SourceGraphic" in2="effect1_dropShadow_657_4150" result="shape"/>
</filter>
<linearGradient id="paint0_linear_657_4150" x1="271.6" y1="90.4626" x2="109.517" y2="144.311" gradientUnits="userSpaceOnUse">
<stop stop-color="white" stop-opacity="0.31"/>
<stop offset="0.381048" stop-color="#6BFFEC"/>
<stop offset="0.76813" stop-color="#6BFFEC"/>
<stop offset="1" stop-color="white" stop-opacity="0"/>
</linearGradient>
<linearGradient id="paint1_linear_657_4150" x1="262.537" y1="157.927" x2="126.694" y2="99.3518" gradientUnits="userSpaceOnUse">
<stop stop-color="#369FAE"/>
<stop offset="0.9886" stop-color="#6BE4CA"/>
<stop offset="0.9924" stop-color="#6BE4CA"/>
</linearGradient>
<linearGradient id="paint2_linear_657_4150" x1="118.508" y1="183.094" x2="122.619" y2="183.094" gradientUnits="userSpaceOnUse">
<stop stop-color="#333333"/>
<stop offset="0.3152" stop-color="#222222"/>
<stop offset="0.9924"/>
</linearGradient>
<linearGradient id="paint3_linear_657_4150" x1="108.941" y1="182.887" x2="115.431" y2="182.887" gradientUnits="userSpaceOnUse">
<stop stop-color="#333333"/>
<stop offset="0.3152" stop-color="#222222"/>
<stop offset="0.9924"/>
</linearGradient>
<linearGradient id="paint4_linear_657_4150" x1="122.136" y1="184.706" x2="108.779" y2="211.987" gradientUnits="userSpaceOnUse">
<stop stop-color="#1A1A1A"/>
<stop offset="0.9924"/>
</linearGradient>
<linearGradient id="paint5_linear_657_4150" x1="104.694" y1="183.632" x2="128.05" y2="212.092" gradientUnits="userSpaceOnUse">
<stop stop-color="#333333"/>
<stop offset="0.3152" stop-color="#222222"/>
<stop offset="0.9924"/>
</linearGradient>
<linearGradient id="paint6_linear_657_4150" x1="112.353" y1="206.552" x2="112.353" y2="196.074" gradientUnits="userSpaceOnUse">
<stop offset="0.0232" stop-color="#36D8AE"/>
<stop offset="0.9924" stop-color="#6BFFEC"/>
</linearGradient>
<linearGradient id="paint7_linear_657_4150" x1="119.579" y1="206.538" x2="119.579" y2="192.366" gradientUnits="userSpaceOnUse">
<stop offset="0.0232" stop-color="#36D8AE"/>
<stop offset="0.9924" stop-color="#6BFFEC"/>
</linearGradient>
<linearGradient id="paint8_linear_657_4150" x1="107.259" y1="204.222" x2="110.948" y2="204.363" gradientUnits="userSpaceOnUse">
<stop offset="0.0232" stop-color="#36D8AE"/>
<stop offset="0.9924" stop-color="#6BFFEC"/>
</linearGradient>
<linearGradient id="paint9_linear_657_4150" x1="113.878" y1="204.211" x2="118.222" y2="204.377" gradientUnits="userSpaceOnUse">
<stop offset="0.0232" stop-color="#36D8AE"/>
<stop offset="0.9924" stop-color="#6BFFEC"/>
</linearGradient>
<linearGradient id="paint10_linear_657_4150" x1="121.134" y1="204.222" x2="124.823" y2="204.363" gradientUnits="userSpaceOnUse">
<stop offset="0.0232" stop-color="#36D8AE"/>
<stop offset="0.9924" stop-color="#6BFFEC"/>
</linearGradient>
<linearGradient id="paint11_linear_657_4150" x1="109.226" y1="203.541" x2="109.226" y2="190.567" gradientUnits="userSpaceOnUse">
<stop offset="0.00302028" stop-opacity="0"/>
<stop offset="0.3902" stop-color="#071E14" stop-opacity="0.3913"/>
<stop offset="0.7529" stop-color="#0B3223" stop-opacity="0.7579"/>
<stop offset="0.9924" stop-color="#0D3A28"/>
</linearGradient>
<linearGradient id="paint12_linear_657_4150" x1="107.859" y1="203.541" x2="107.859" y2="192.622" gradientUnits="userSpaceOnUse">
<stop offset="0.00302028" stop-opacity="0"/>
<stop offset="0.3902" stop-color="#071E14" stop-opacity="0.3913"/>
<stop offset="0.7529" stop-color="#0B3223" stop-opacity="0.7579"/>
<stop offset="0.9924" stop-color="#0D3A28"/>
</linearGradient>
<linearGradient id="paint13_linear_657_4150" x1="115.429" y1="203.541" x2="115.429" y2="190.567" gradientUnits="userSpaceOnUse">
<stop offset="0.00302028" stop-opacity="0"/>
<stop offset="0.3902" stop-color="#071E14" stop-opacity="0.3913"/>
<stop offset="0.7529" stop-color="#0B3223" stop-opacity="0.7579"/>
<stop offset="0.9924" stop-color="#0D3A28"/>
</linearGradient>
<linearGradient id="paint14_linear_657_4150" x1="116.843" y1="203.54" x2="116.843" y2="186.692" gradientUnits="userSpaceOnUse">
<stop offset="0.00302028" stop-opacity="0"/>
<stop offset="0.3902" stop-color="#071E14" stop-opacity="0.3913"/>
<stop offset="0.7529" stop-color="#0B3223" stop-opacity="0.7579"/>
<stop offset="0.9924" stop-color="#0D3A28"/>
</linearGradient>
<linearGradient id="paint15_linear_657_4150" x1="108.772" y1="203.681" x2="108.772" y2="197.429" gradientUnits="userSpaceOnUse">
<stop offset="0.0232" stop-color="#094239" stop-opacity="0"/>
<stop offset="0.3986" stop-color="#1B8765" stop-opacity="0.3873"/>
<stop offset="0.9924" stop-color="#38FCB0"/>
</linearGradient>
<linearGradient id="paint16_linear_657_4150" x1="115.851" y1="203.287" x2="115.851" y2="195.117" gradientUnits="userSpaceOnUse">
<stop offset="0.0232" stop-color="#094239" stop-opacity="0"/>
<stop offset="0.3986" stop-color="#1B8765" stop-opacity="0.3873"/>
<stop offset="0.9924" stop-color="#38FCB0"/>
</linearGradient>
<linearGradient id="paint17_linear_657_4150" x1="122.905" y1="202.616" x2="122.905" y2="190.839" gradientUnits="userSpaceOnUse">
<stop offset="0.0232" stop-color="#094239" stop-opacity="0"/>
<stop offset="0.3986" stop-color="#1B8765" stop-opacity="0.3873"/>
<stop offset="0.9924" stop-color="#38FCB0"/>
</linearGradient>
<clipPath id="clip0_657_4150">
<rect x="12" y="31" width="351" height="262" rx="9" fill="white"/>
</clipPath>
<clipPath id="clip1_657_4150">
<rect x="91.2266" y="56" width="193.853" height="169" rx="8.52101" fill="white"/>
</clipPath>
<clipPath id="clip2_657_4150">
<rect width="158.349" height="92.3109" fill="white" transform="translate(108.98 69.4619)"/>
</clipPath>
<clipPath id="clip3_657_4150">
<rect width="136.544" height="28.065" fill="white" transform="translate(104.688 182.171)"/>
</clipPath>
<clipPath id="clip4_657_4150">
<rect width="136.544" height="28.065" fill="white" transform="translate(104.688 182.171)"/>
</clipPath>
<clipPath id="clip5_657_4150">
<rect width="22.574" height="28.065" fill="white" transform="translate(104.688 182.171)"/>
</clipPath>
<clipPath id="clip6_657_4150">
<rect width="108.585" height="25.6154" fill="white" transform="translate(132.645 183.396)"/>
</clipPath>
</defs>
</svg>
