<svg width="21" height="21" viewBox="0 0 21 21" fill="none" xmlns="http://www.w3.org/2000/svg">
<path fill-rule="evenodd" clip-rule="evenodd" d="M10.4808 17.7556C11.4752 17.7556 12.4598 17.5597 13.3785 17.1792C14.2972 16.7986 15.132 16.2409 15.8351 15.5377C16.5382 14.8346 17.096 13.9999 17.4765 13.0812C17.8571 12.1625 18.0529 11.1778 18.0529 10.1834C18.0529 9.18906 17.8571 8.20441 17.4765 7.28572C17.096 6.36703 16.5382 5.53229 15.8351 4.82915C15.132 4.12601 14.2972 3.56826 13.3785 3.18772C12.4598 2.80719 11.4752 2.61133 10.4808 2.61133C8.47256 2.61133 6.54656 3.4091 5.12651 4.82915C3.70647 6.2492 2.90869 8.17519 2.90869 10.1834C2.90869 12.1917 3.70647 14.1177 5.12651 15.5377C6.54656 16.9578 8.47256 17.7556 10.4808 17.7556ZM10.2856 13.2459L14.4923 8.19787L13.2 7.12094L9.58225 11.4614L7.71025 9.58861L6.52059 10.7783L9.04463 13.3023L9.69583 13.9535L10.2856 13.2459Z" fill="#A7A7A7"/>
</svg>
