<svg width="21" height="22" viewBox="0 0 21 22" fill="none" xmlns="http://www.w3.org/2000/svg">
<path fill-rule="evenodd" clip-rule="evenodd" d="M10.5 19.125C11.5342 19.125 12.5582 18.9213 13.5136 18.5256C14.4691 18.1298 15.3372 17.5497 16.0685 16.8185C16.7997 16.0872 17.3798 15.2191 17.7756 14.2636C18.1713 13.3082 18.375 12.2842 18.375 11.25C18.375 10.2158 18.1713 9.19181 17.7756 8.23637C17.3798 7.28093 16.7997 6.4128 16.0685 5.68153C15.3372 4.95027 14.4691 4.3702 13.5136 3.97445C12.5582 3.57869 11.5342 3.375 10.5 3.375C8.41142 3.375 6.40838 4.20468 4.93153 5.68153C3.45469 7.15838 2.625 9.16142 2.625 11.25C2.625 13.3386 3.45469 15.3416 4.93153 16.8185C6.40838 18.2953 8.41142 19.125 10.5 19.125ZM10.297 14.435L14.672 9.185L13.328 8.065L9.5655 12.5791L7.61862 10.6314L6.38138 11.8686L9.00638 14.4936L9.68363 15.1709L10.297 14.435Z" fill="#A7A7A7"/>
</svg>
