<svg width="17" height="17" viewBox="0 0 17 17" fill="none" xmlns="http://www.w3.org/2000/svg">
<path fill-rule="evenodd" clip-rule="evenodd" d="M8.12125 14.7103C8.921 14.7103 9.71292 14.5528 10.4518 14.2467C11.1907 13.9406 11.862 13.4921 12.4275 12.9266C12.993 12.361 13.4416 11.6897 13.7477 10.9508C14.0537 10.2119 14.2113 9.42002 14.2113 8.62027C14.2113 7.82052 14.0537 7.0286 13.7477 6.28973C13.4416 5.55086 12.993 4.8795 12.4275 4.31399C11.862 3.74848 11.1907 3.2999 10.4518 2.99385C9.71292 2.6878 8.921 2.53027 8.12125 2.53027C6.50608 2.53027 4.95707 3.1719 3.81497 4.31399C2.67287 5.45609 2.03125 7.00511 2.03125 8.62027C2.03125 10.2354 2.67287 11.7845 3.81497 12.9266C4.95707 14.0687 6.50608 14.7103 8.12125 14.7103ZM7.96426 11.0833L11.3476 7.02334L10.3082 6.15721L7.39857 9.64813L5.89299 8.14187L4.93618 9.09868L6.96618 11.1287L7.48992 11.6524L7.96426 11.0833Z" fill="#A7A7A7"/>
</svg>
